%TF.GenerationSoftware,KiCad,Pcbnew,9.0.6*%
%TF.CreationDate,2026-01-02T18:32:11-05:00*%
%TF.ProjectId,nopanpad,6e6f7061-6e70-4616-942e-6b696361645f,first one lol*%
%TF.SameCoordinates,Original*%
%TF.FileFunction,Soldermask,Bot*%
%TF.FilePolarity,Negative*%
%FSLAX46Y46*%
G04 Gerber Fmt 4.6, Leading zero omitted, Abs format (unit mm)*
G04 Created by KiCad (PCBNEW 9.0.6) date 2026-01-02 18:32:11*
%MOMM*%
%LPD*%
G01*
G04 APERTURE LIST*
G04 Aperture macros list*
%AMRoundRect*
0 Rectangle with rounded corners*
0 $1 Rounding radius*
0 $2 $3 $4 $5 $6 $7 $8 $9 X,Y pos of 4 corners*
0 Add a 4 corners polygon primitive as box body*
4,1,4,$2,$3,$4,$5,$6,$7,$8,$9,$2,$3,0*
0 Add four circle primitives for the rounded corners*
1,1,$1+$1,$2,$3*
1,1,$1+$1,$4,$5*
1,1,$1+$1,$6,$7*
1,1,$1+$1,$8,$9*
0 Add four rect primitives between the rounded corners*
20,1,$1+$1,$2,$3,$4,$5,0*
20,1,$1+$1,$4,$5,$6,$7,0*
20,1,$1+$1,$6,$7,$8,$9,0*
20,1,$1+$1,$8,$9,$2,$3,0*%
G04 Aperture macros list end*
%ADD10RoundRect,0.250000X0.625000X-0.350000X0.625000X0.350000X-0.625000X0.350000X-0.625000X-0.350000X0*%
%ADD11O,1.750000X1.200000*%
%ADD12O,2.200000X3.500000*%
%ADD13R,1.500000X2.500000*%
%ADD14O,1.500000X2.500000*%
%ADD15C,1.700000*%
%ADD16R,1.700000X1.700000*%
%ADD17C,1.701800*%
%ADD18C,3.000000*%
%ADD19C,3.987800*%
%ADD20RoundRect,0.200000X1.075000X1.050000X-1.075000X1.050000X-1.075000X-1.050000X1.075000X-1.050000X0*%
%ADD21RoundRect,0.250000X-0.650000X-0.650000X0.650000X-0.650000X0.650000X0.650000X-0.650000X0.650000X0*%
%ADD22C,1.800000*%
%ADD23C,3.048000*%
G04 APERTURE END LIST*
D10*
%TO.C,JST1*%
X149125000Y-33025000D03*
D11*
X149125000Y-31025000D03*
%TD*%
D12*
%TO.C,REF\u002A\u002A*%
X138000000Y-31000000D03*
X129800000Y-31000000D03*
D13*
X135900000Y-31000000D03*
D14*
X133900000Y-31000000D03*
X131900000Y-31000000D03*
%TD*%
D15*
%TO.C,MCU1*%
X113375000Y-36405000D03*
X115915000Y-36405000D03*
X118455000Y-36405000D03*
X120995000Y-36405000D03*
X123535000Y-36405000D03*
X126075000Y-36405000D03*
X128615000Y-36405000D03*
X131155000Y-36405000D03*
X133695000Y-36405000D03*
X136235000Y-36405000D03*
X138775000Y-36405000D03*
X141315000Y-36405000D03*
X141315000Y-51645000D03*
X138775000Y-51645000D03*
X136235000Y-51645000D03*
X133695000Y-51645000D03*
X131155000Y-51645000D03*
X128615000Y-51645000D03*
X126075000Y-51645000D03*
X123535000Y-51645000D03*
X120995000Y-51645000D03*
X118455000Y-51645000D03*
X115915000Y-51645000D03*
X113375000Y-51645000D03*
%TD*%
D16*
%TO.C,wtf is this?*%
X182000000Y-48000000D03*
D15*
X184540000Y-48000000D03*
X182000000Y-45460000D03*
X184540000Y-45460000D03*
X182000000Y-42920000D03*
X184540000Y-42920000D03*
X182000000Y-40380000D03*
X184540000Y-40380000D03*
%TD*%
D17*
%TO.C,S9*%
X144655000Y-69025000D03*
D18*
X142115000Y-63945000D03*
D19*
X139575000Y-69025000D03*
D18*
X135765000Y-66485000D03*
D17*
X134495000Y-69025000D03*
D20*
X132490000Y-66485000D03*
X145417000Y-63945000D03*
%TD*%
D21*
%TO.C,D3*%
X117230000Y-112100000D03*
D22*
X124850000Y-112100000D03*
%TD*%
D21*
%TO.C,D4*%
X117230000Y-93050000D03*
D22*
X124850000Y-93050000D03*
%TD*%
D17*
%TO.C,S2*%
X125605000Y-126175000D03*
D18*
X123065000Y-121095000D03*
D19*
X120525000Y-126175000D03*
D18*
X116715000Y-123635000D03*
D17*
X115445000Y-126175000D03*
D20*
X113440000Y-123635000D03*
X126367000Y-121095000D03*
%TD*%
D17*
%TO.C,S8*%
X144655000Y-88075000D03*
D18*
X142115000Y-82995000D03*
D19*
X139575000Y-88075000D03*
D18*
X135765000Y-85535000D03*
D17*
X134495000Y-88075000D03*
D20*
X132490000Y-85535000D03*
X145417000Y-82995000D03*
%TD*%
D17*
%TO.C,S7*%
X144655000Y-107125000D03*
D18*
X142115000Y-102045000D03*
D19*
X139575000Y-107125000D03*
D18*
X135765000Y-104585000D03*
D17*
X134495000Y-107125000D03*
D20*
X132490000Y-104585000D03*
X145417000Y-102045000D03*
%TD*%
D21*
%TO.C,D7*%
X136280000Y-112100000D03*
D22*
X143900000Y-112100000D03*
%TD*%
D17*
%TO.C,S11*%
X163705000Y-126175000D03*
D18*
X161165000Y-121095000D03*
D19*
X158625000Y-126175000D03*
D18*
X154815000Y-123635000D03*
D17*
X153545000Y-126175000D03*
D20*
X151540000Y-123635000D03*
X164467000Y-121095000D03*
%TD*%
D17*
%TO.C,S5*%
X125605000Y-69025000D03*
D18*
X123065000Y-63945000D03*
D19*
X120525000Y-69025000D03*
D18*
X116715000Y-66485000D03*
D17*
X115445000Y-69025000D03*
D20*
X113440000Y-66485000D03*
X126367000Y-63945000D03*
%TD*%
D21*
%TO.C,D16*%
X174380000Y-112100000D03*
D22*
X182000000Y-112100000D03*
%TD*%
D21*
%TO.C,D9*%
X136280000Y-74000000D03*
D22*
X143900000Y-74000000D03*
%TD*%
D21*
%TO.C,D10*%
X155330000Y-150200000D03*
D22*
X162950000Y-150200000D03*
%TD*%
D21*
%TO.C,D11*%
X155330000Y-131150000D03*
D22*
X162950000Y-131150000D03*
%TD*%
D21*
%TO.C,D18*%
X174380000Y-74000000D03*
D22*
X182000000Y-74000000D03*
%TD*%
D17*
%TO.C,S4*%
X125605000Y-88075000D03*
D18*
X123065000Y-82995000D03*
D19*
X120525000Y-88075000D03*
D18*
X116715000Y-85535000D03*
D17*
X115445000Y-88075000D03*
D20*
X113440000Y-85535000D03*
X126367000Y-82995000D03*
%TD*%
D17*
%TO.C,S10*%
X163705000Y-145225000D03*
D18*
X161165000Y-140145000D03*
D19*
X158625000Y-145225000D03*
D18*
X154815000Y-142685000D03*
D17*
X153545000Y-145225000D03*
D20*
X151540000Y-142685000D03*
X164467000Y-140145000D03*
%TD*%
D19*
%TO.C,S15*%
X185930000Y-147638000D03*
X185930000Y-123762000D03*
D17*
X182755000Y-135700000D03*
D18*
X180215000Y-130620000D03*
D19*
X177675000Y-135700000D03*
D18*
X173865000Y-133160000D03*
D17*
X172595000Y-135700000D03*
D23*
X170690000Y-147638000D03*
X170690000Y-123762000D03*
D20*
X170590000Y-133160000D03*
X183517000Y-130620000D03*
%TD*%
D21*
%TO.C,D15*%
X174380000Y-140675000D03*
D22*
X182000000Y-140675000D03*
%TD*%
D21*
%TO.C,D13*%
X155330000Y-93050000D03*
D22*
X162950000Y-93050000D03*
%TD*%
D21*
%TO.C,D2*%
X117230000Y-131150000D03*
D22*
X124850000Y-131150000D03*
%TD*%
D21*
%TO.C,D6*%
X136280000Y-131150000D03*
D22*
X143900000Y-131150000D03*
%TD*%
D17*
%TO.C,S12*%
X163705000Y-107125000D03*
D18*
X161165000Y-102045000D03*
D19*
X158625000Y-107125000D03*
D18*
X154815000Y-104585000D03*
D17*
X153545000Y-107125000D03*
D20*
X151540000Y-104585000D03*
X164467000Y-102045000D03*
%TD*%
D21*
%TO.C,D5*%
X117230000Y-74000000D03*
D22*
X124850000Y-74000000D03*
%TD*%
D19*
%TO.C,S1*%
X141988000Y-153480000D03*
D23*
X141988000Y-138240000D03*
D17*
X135130000Y-145225000D03*
D18*
X132590000Y-140145000D03*
D19*
X130050000Y-145225000D03*
D18*
X126240000Y-142685000D03*
D17*
X124970000Y-145225000D03*
D19*
X118112000Y-153480000D03*
D23*
X118112000Y-138240000D03*
D20*
X122965000Y-142685000D03*
X135892000Y-140145000D03*
%TD*%
D17*
%TO.C,S14*%
X163705000Y-69025000D03*
D18*
X161165000Y-63945000D03*
D19*
X158625000Y-69025000D03*
D18*
X154815000Y-66485000D03*
D17*
X153545000Y-69025000D03*
D20*
X151540000Y-66485000D03*
X164467000Y-63945000D03*
%TD*%
D21*
%TO.C,D1*%
X126755000Y-150200000D03*
D22*
X134375000Y-150200000D03*
%TD*%
D21*
%TO.C,D12*%
X155330000Y-112100000D03*
D22*
X162950000Y-112100000D03*
%TD*%
D21*
%TO.C,D17*%
X174380000Y-93050000D03*
D22*
X182000000Y-93050000D03*
%TD*%
D17*
%TO.C,S13*%
X163705000Y-88075000D03*
D18*
X161165000Y-82995000D03*
D19*
X158625000Y-88075000D03*
D18*
X154815000Y-85535000D03*
D17*
X153545000Y-88075000D03*
D20*
X151540000Y-85535000D03*
X164467000Y-82995000D03*
%TD*%
D17*
%TO.C,S17*%
X182755000Y-88075000D03*
D18*
X180215000Y-82995000D03*
D19*
X177675000Y-88075000D03*
D18*
X173865000Y-85535000D03*
D17*
X172595000Y-88075000D03*
D20*
X170590000Y-85535000D03*
X183517000Y-82995000D03*
%TD*%
D21*
%TO.C,D8*%
X136280000Y-93050000D03*
D22*
X143900000Y-93050000D03*
%TD*%
D17*
%TO.C,S18*%
X182755000Y-69025000D03*
D18*
X180215000Y-63945000D03*
D19*
X177675000Y-69025000D03*
D18*
X173865000Y-66485000D03*
D17*
X172595000Y-69025000D03*
D20*
X170590000Y-66485000D03*
X183517000Y-63945000D03*
%TD*%
D21*
%TO.C,D14*%
X155330000Y-74000000D03*
D22*
X162950000Y-74000000D03*
%TD*%
D17*
%TO.C,S16*%
X182755000Y-107125000D03*
D18*
X180215000Y-102045000D03*
D19*
X177675000Y-107125000D03*
D18*
X173865000Y-104585000D03*
D17*
X172595000Y-107125000D03*
D20*
X170590000Y-104585000D03*
X183517000Y-102045000D03*
%TD*%
D17*
%TO.C,S3*%
X125605000Y-107125000D03*
D18*
X123065000Y-102045000D03*
D19*
X120525000Y-107125000D03*
D18*
X116715000Y-104585000D03*
D17*
X115445000Y-107125000D03*
D20*
X113440000Y-104585000D03*
X126367000Y-102045000D03*
%TD*%
D17*
%TO.C,S6*%
X144655000Y-126175000D03*
D18*
X142115000Y-121095000D03*
D19*
X139575000Y-126175000D03*
D18*
X135765000Y-123635000D03*
D17*
X134495000Y-126175000D03*
D20*
X132490000Y-123635000D03*
X145417000Y-121095000D03*
%TD*%
M02*
