%TF.GenerationSoftware,KiCad,Pcbnew,9.0.6*%
%TF.CreationDate,2026-01-02T18:32:11-05:00*%
%TF.ProjectId,nopanpad,6e6f7061-6e70-4616-942e-6b696361645f,first one lol*%
%TF.SameCoordinates,Original*%
%TF.FileFunction,Legend,Top*%
%TF.FilePolarity,Positive*%
%FSLAX46Y46*%
G04 Gerber Fmt 4.6, Leading zero omitted, Abs format (unit mm)*
G04 Created by KiCad (PCBNEW 9.0.6) date 2026-01-02 18:32:11*
%MOMM*%
%LPD*%
G01*
G04 APERTURE LIST*
G04 Aperture macros list*
%AMRoundRect*
0 Rectangle with rounded corners*
0 $1 Rounding radius*
0 $2 $3 $4 $5 $6 $7 $8 $9 X,Y pos of 4 corners*
0 Add a 4 corners polygon primitive as box body*
4,1,4,$2,$3,$4,$5,$6,$7,$8,$9,$2,$3,0*
0 Add four circle primitives for the rounded corners*
1,1,$1+$1,$2,$3*
1,1,$1+$1,$4,$5*
1,1,$1+$1,$6,$7*
1,1,$1+$1,$8,$9*
0 Add four rect primitives between the rounded corners*
20,1,$1+$1,$2,$3,$4,$5,0*
20,1,$1+$1,$4,$5,$6,$7,0*
20,1,$1+$1,$6,$7,$8,$9,0*
20,1,$1+$1,$8,$9,$2,$3,0*%
G04 Aperture macros list end*
%ADD10C,0.100000*%
%ADD11C,0.300000*%
%ADD12C,2.000000*%
%ADD13C,0.150000*%
%ADD14C,0.120000*%
%ADD15RoundRect,0.250000X0.625000X-0.350000X0.625000X0.350000X-0.625000X0.350000X-0.625000X-0.350000X0*%
%ADD16O,1.750000X1.200000*%
%ADD17O,2.200000X3.500000*%
%ADD18R,1.500000X2.500000*%
%ADD19O,1.500000X2.500000*%
%ADD20C,1.700000*%
%ADD21R,1.700000X1.700000*%
%ADD22C,1.701800*%
%ADD23C,3.000000*%
%ADD24C,3.987800*%
%ADD25RoundRect,0.250000X-0.650000X-0.650000X0.650000X-0.650000X0.650000X0.650000X-0.650000X0.650000X0*%
%ADD26C,1.800000*%
%ADD27C,3.048000*%
G04 APERTURE END LIST*
D10*
X146303884Y-33491466D02*
X147065789Y-33491466D01*
D11*
X111411653Y-32800828D02*
X110911653Y-32086542D01*
X110554510Y-32800828D02*
X110554510Y-31300828D01*
X110554510Y-31300828D02*
X111125939Y-31300828D01*
X111125939Y-31300828D02*
X111268796Y-31372257D01*
X111268796Y-31372257D02*
X111340225Y-31443685D01*
X111340225Y-31443685D02*
X111411653Y-31586542D01*
X111411653Y-31586542D02*
X111411653Y-31800828D01*
X111411653Y-31800828D02*
X111340225Y-31943685D01*
X111340225Y-31943685D02*
X111268796Y-32015114D01*
X111268796Y-32015114D02*
X111125939Y-32086542D01*
X111125939Y-32086542D02*
X110554510Y-32086542D01*
X112054510Y-32015114D02*
X112554510Y-32015114D01*
X112768796Y-32800828D02*
X112054510Y-32800828D01*
X112054510Y-32800828D02*
X112054510Y-31300828D01*
X112054510Y-31300828D02*
X112768796Y-31300828D01*
X113340225Y-32729400D02*
X113554511Y-32800828D01*
X113554511Y-32800828D02*
X113911653Y-32800828D01*
X113911653Y-32800828D02*
X114054511Y-32729400D01*
X114054511Y-32729400D02*
X114125939Y-32657971D01*
X114125939Y-32657971D02*
X114197368Y-32515114D01*
X114197368Y-32515114D02*
X114197368Y-32372257D01*
X114197368Y-32372257D02*
X114125939Y-32229400D01*
X114125939Y-32229400D02*
X114054511Y-32157971D01*
X114054511Y-32157971D02*
X113911653Y-32086542D01*
X113911653Y-32086542D02*
X113625939Y-32015114D01*
X113625939Y-32015114D02*
X113483082Y-31943685D01*
X113483082Y-31943685D02*
X113411653Y-31872257D01*
X113411653Y-31872257D02*
X113340225Y-31729400D01*
X113340225Y-31729400D02*
X113340225Y-31586542D01*
X113340225Y-31586542D02*
X113411653Y-31443685D01*
X113411653Y-31443685D02*
X113483082Y-31372257D01*
X113483082Y-31372257D02*
X113625939Y-31300828D01*
X113625939Y-31300828D02*
X113983082Y-31300828D01*
X113983082Y-31300828D02*
X114197368Y-31372257D01*
X114840224Y-32015114D02*
X115340224Y-32015114D01*
X115554510Y-32800828D02*
X114840224Y-32800828D01*
X114840224Y-32800828D02*
X114840224Y-31300828D01*
X114840224Y-31300828D02*
X115554510Y-31300828D01*
X115983082Y-31300828D02*
X116840225Y-31300828D01*
X116411653Y-32800828D02*
X116411653Y-31300828D01*
D12*
X125683530Y-53774684D02*
X117023276Y-58774684D01*
X124446351Y-54488970D02*
X125422083Y-54750416D01*
X125422083Y-54750416D02*
X126754959Y-55630453D01*
X126754959Y-55630453D02*
X127826387Y-57486221D01*
X127826387Y-57486221D02*
X127922083Y-59080543D01*
X127922083Y-59080543D02*
X127042047Y-60413419D01*
X127042047Y-60413419D02*
X120237562Y-64341990D01*
X124880419Y-72383655D02*
X124784723Y-70789333D01*
X124784723Y-70789333D02*
X125046170Y-69813600D01*
X125046170Y-69813600D02*
X125926206Y-68480725D01*
X125926206Y-68480725D02*
X129637744Y-66337868D01*
X129637744Y-66337868D02*
X131232066Y-66242172D01*
X131232066Y-66242172D02*
X132207798Y-66503619D01*
X132207798Y-66503619D02*
X133540673Y-67383655D01*
X133540673Y-67383655D02*
X134612102Y-69239424D01*
X134612102Y-69239424D02*
X134707798Y-70833746D01*
X134707798Y-70833746D02*
X134446351Y-71809478D01*
X134446351Y-71809478D02*
X133566315Y-73142353D01*
X133566315Y-73142353D02*
X129854778Y-75285211D01*
X129854778Y-75285211D02*
X128260455Y-75380907D01*
X128260455Y-75380907D02*
X127284723Y-75119460D01*
X127284723Y-75119460D02*
X125951848Y-74239424D01*
X125951848Y-74239424D02*
X124880419Y-72383655D01*
X139254959Y-77281088D02*
X126264578Y-84781088D01*
X138636370Y-77638231D02*
X139969245Y-78518268D01*
X139969245Y-78518268D02*
X141397816Y-80992626D01*
X141397816Y-80992626D02*
X141493512Y-82586948D01*
X141493512Y-82586948D02*
X141232066Y-83562680D01*
X141232066Y-83562680D02*
X140352029Y-84895556D01*
X140352029Y-84895556D02*
X136640492Y-87038413D01*
X136640492Y-87038413D02*
X135046170Y-87134109D01*
X135046170Y-87134109D02*
X134070438Y-86872662D01*
X134070438Y-86872662D02*
X132737562Y-85992626D01*
X132737562Y-85992626D02*
X131308991Y-83518268D01*
X131308991Y-83518268D02*
X131213295Y-81923946D01*
X140594705Y-99601597D02*
X147399191Y-95673026D01*
X147399191Y-95673026D02*
X148279227Y-94340150D01*
X148279227Y-94340150D02*
X148183531Y-92745828D01*
X148183531Y-92745828D02*
X146754959Y-90271470D01*
X146754959Y-90271470D02*
X145422084Y-89391434D01*
X141213295Y-99244454D02*
X139880420Y-98364418D01*
X139880420Y-98364418D02*
X138094705Y-95271470D01*
X138094705Y-95271470D02*
X137999009Y-93677148D01*
X137999009Y-93677148D02*
X138879045Y-92344273D01*
X138879045Y-92344273D02*
X140116225Y-91629987D01*
X140116225Y-91629987D02*
X141710547Y-91534291D01*
X141710547Y-91534291D02*
X143043422Y-92414327D01*
X143043422Y-92414327D02*
X144829136Y-95507275D01*
X144829136Y-95507275D02*
X146162012Y-96387311D01*
X152826388Y-100787493D02*
X144166134Y-105787493D01*
X151589209Y-101501779D02*
X152564941Y-101763225D01*
X152564941Y-101763225D02*
X153897817Y-102643262D01*
X153897817Y-102643262D02*
X154969245Y-104499030D01*
X154969245Y-104499030D02*
X155064941Y-106093352D01*
X155064941Y-106093352D02*
X154184905Y-107426228D01*
X154184905Y-107426228D02*
X147380420Y-111354799D01*
X152189028Y-116826410D02*
X151927581Y-117802142D01*
X151927581Y-117802142D02*
X150951849Y-117540695D01*
X150951849Y-117540695D02*
X151213295Y-116564963D01*
X151213295Y-116564963D02*
X152189028Y-116826410D01*
X152189028Y-116826410D02*
X150951849Y-117540695D01*
X155900565Y-114683552D02*
X162966497Y-109779249D01*
X162966497Y-109779249D02*
X163942230Y-110040695D01*
X163942230Y-110040695D02*
X163680783Y-111016428D01*
X163680783Y-111016428D02*
X155900565Y-114683552D01*
X155900565Y-114683552D02*
X163942230Y-110040695D01*
X163183531Y-118726591D02*
X150193150Y-126226591D01*
X162564942Y-119083734D02*
X163897817Y-119963770D01*
X163897817Y-119963770D02*
X165326388Y-122438128D01*
X165326388Y-122438128D02*
X165422084Y-124032450D01*
X165422084Y-124032450D02*
X165160638Y-125008183D01*
X165160638Y-125008183D02*
X164280601Y-126341058D01*
X164280601Y-126341058D02*
X160569064Y-128483915D01*
X160569064Y-128483915D02*
X158974742Y-128579611D01*
X158974742Y-128579611D02*
X157999010Y-128318165D01*
X157999010Y-128318165D02*
X156666134Y-127438128D01*
X156666134Y-127438128D02*
X155237563Y-124963770D01*
X155237563Y-124963770D02*
X155141867Y-123369448D01*
X164523277Y-141047099D02*
X171327763Y-137118528D01*
X171327763Y-137118528D02*
X172207799Y-135785653D01*
X172207799Y-135785653D02*
X172112103Y-134191331D01*
X172112103Y-134191331D02*
X170683531Y-131716972D01*
X170683531Y-131716972D02*
X169350656Y-130836936D01*
X165141867Y-140689957D02*
X163808992Y-139809920D01*
X163808992Y-139809920D02*
X162023277Y-136716972D01*
X162023277Y-136716972D02*
X161927581Y-135122650D01*
X161927581Y-135122650D02*
X162807617Y-133789775D01*
X162807617Y-133789775D02*
X164044797Y-133075489D01*
X164044797Y-133075489D02*
X165639119Y-132979793D01*
X165639119Y-132979793D02*
X166971994Y-133859830D01*
X166971994Y-133859830D02*
X168757708Y-136952777D01*
X168757708Y-136952777D02*
X170090584Y-137832814D01*
X171308992Y-152800302D02*
X184299373Y-145300302D01*
X171927581Y-152443159D02*
X170594706Y-151563123D01*
X170594706Y-151563123D02*
X169166135Y-149088764D01*
X169166135Y-149088764D02*
X169070439Y-147494442D01*
X169070439Y-147494442D02*
X169331885Y-146518710D01*
X169331885Y-146518710D02*
X170211922Y-145185835D01*
X170211922Y-145185835D02*
X173923459Y-143042977D01*
X173923459Y-143042977D02*
X175517781Y-142947281D01*
X175517781Y-142947281D02*
X176493513Y-143208728D01*
X176493513Y-143208728D02*
X177826389Y-144088764D01*
X177826389Y-144088764D02*
X179254960Y-146563123D01*
X179254960Y-146563123D02*
X179350656Y-148157445D01*
D10*
X146303884Y-30491466D02*
X147065789Y-30491466D01*
X146684836Y-30872419D02*
X146684836Y-30110514D01*
X124303884Y-154872419D02*
X124303884Y-153872419D01*
X125970550Y-154824800D02*
X125875312Y-154872419D01*
X125875312Y-154872419D02*
X125684836Y-154872419D01*
X125684836Y-154872419D02*
X125589598Y-154824800D01*
X125589598Y-154824800D02*
X125541979Y-154777180D01*
X125541979Y-154777180D02*
X125494360Y-154681942D01*
X125494360Y-154681942D02*
X125494360Y-154396228D01*
X125494360Y-154396228D02*
X125541979Y-154300990D01*
X125541979Y-154300990D02*
X125589598Y-154253371D01*
X125589598Y-154253371D02*
X125684836Y-154205752D01*
X125684836Y-154205752D02*
X125875312Y-154205752D01*
X125875312Y-154205752D02*
X125970550Y-154253371D01*
X126827693Y-154872419D02*
X126827693Y-154348609D01*
X126827693Y-154348609D02*
X126780074Y-154253371D01*
X126780074Y-154253371D02*
X126684836Y-154205752D01*
X126684836Y-154205752D02*
X126494360Y-154205752D01*
X126494360Y-154205752D02*
X126399122Y-154253371D01*
X126827693Y-154824800D02*
X126732455Y-154872419D01*
X126732455Y-154872419D02*
X126494360Y-154872419D01*
X126494360Y-154872419D02*
X126399122Y-154824800D01*
X126399122Y-154824800D02*
X126351503Y-154729561D01*
X126351503Y-154729561D02*
X126351503Y-154634323D01*
X126351503Y-154634323D02*
X126399122Y-154539085D01*
X126399122Y-154539085D02*
X126494360Y-154491466D01*
X126494360Y-154491466D02*
X126732455Y-154491466D01*
X126732455Y-154491466D02*
X126827693Y-154443847D01*
X127303884Y-154205752D02*
X127303884Y-154872419D01*
X127303884Y-154300990D02*
X127351503Y-154253371D01*
X127351503Y-154253371D02*
X127446741Y-154205752D01*
X127446741Y-154205752D02*
X127589598Y-154205752D01*
X127589598Y-154205752D02*
X127684836Y-154253371D01*
X127684836Y-154253371D02*
X127732455Y-154348609D01*
X127732455Y-154348609D02*
X127732455Y-154872419D01*
X128970551Y-154205752D02*
X128970551Y-155205752D01*
X128970551Y-154253371D02*
X129065789Y-154205752D01*
X129065789Y-154205752D02*
X129256265Y-154205752D01*
X129256265Y-154205752D02*
X129351503Y-154253371D01*
X129351503Y-154253371D02*
X129399122Y-154300990D01*
X129399122Y-154300990D02*
X129446741Y-154396228D01*
X129446741Y-154396228D02*
X129446741Y-154681942D01*
X129446741Y-154681942D02*
X129399122Y-154777180D01*
X129399122Y-154777180D02*
X129351503Y-154824800D01*
X129351503Y-154824800D02*
X129256265Y-154872419D01*
X129256265Y-154872419D02*
X129065789Y-154872419D01*
X129065789Y-154872419D02*
X128970551Y-154824800D01*
X130303884Y-154205752D02*
X130303884Y-154872419D01*
X129875313Y-154205752D02*
X129875313Y-154729561D01*
X129875313Y-154729561D02*
X129922932Y-154824800D01*
X129922932Y-154824800D02*
X130018170Y-154872419D01*
X130018170Y-154872419D02*
X130161027Y-154872419D01*
X130161027Y-154872419D02*
X130256265Y-154824800D01*
X130256265Y-154824800D02*
X130303884Y-154777180D01*
X130637218Y-154205752D02*
X131018170Y-154205752D01*
X130780075Y-153872419D02*
X130780075Y-154729561D01*
X130780075Y-154729561D02*
X130827694Y-154824800D01*
X130827694Y-154824800D02*
X130922932Y-154872419D01*
X130922932Y-154872419D02*
X131018170Y-154872419D01*
X132541980Y-154872419D02*
X132541980Y-154348609D01*
X132541980Y-154348609D02*
X132494361Y-154253371D01*
X132494361Y-154253371D02*
X132399123Y-154205752D01*
X132399123Y-154205752D02*
X132208647Y-154205752D01*
X132208647Y-154205752D02*
X132113409Y-154253371D01*
X132541980Y-154824800D02*
X132446742Y-154872419D01*
X132446742Y-154872419D02*
X132208647Y-154872419D01*
X132208647Y-154872419D02*
X132113409Y-154824800D01*
X132113409Y-154824800D02*
X132065790Y-154729561D01*
X132065790Y-154729561D02*
X132065790Y-154634323D01*
X132065790Y-154634323D02*
X132113409Y-154539085D01*
X132113409Y-154539085D02*
X132208647Y-154491466D01*
X132208647Y-154491466D02*
X132446742Y-154491466D01*
X132446742Y-154491466D02*
X132541980Y-154443847D01*
X133018171Y-154205752D02*
X133018171Y-154872419D01*
X133018171Y-154300990D02*
X133065790Y-154253371D01*
X133065790Y-154253371D02*
X133161028Y-154205752D01*
X133161028Y-154205752D02*
X133303885Y-154205752D01*
X133303885Y-154205752D02*
X133399123Y-154253371D01*
X133399123Y-154253371D02*
X133446742Y-154348609D01*
X133446742Y-154348609D02*
X133446742Y-154872419D01*
X133827695Y-154205752D02*
X134065790Y-154872419D01*
X134303885Y-154205752D02*
X134065790Y-154872419D01*
X134065790Y-154872419D02*
X133970552Y-155110514D01*
X133970552Y-155110514D02*
X133922933Y-155158133D01*
X133922933Y-155158133D02*
X133827695Y-155205752D01*
X135303886Y-154205752D02*
X135684838Y-154205752D01*
X135446743Y-153872419D02*
X135446743Y-154729561D01*
X135446743Y-154729561D02*
X135494362Y-154824800D01*
X135494362Y-154824800D02*
X135589600Y-154872419D01*
X135589600Y-154872419D02*
X135684838Y-154872419D01*
X136399124Y-154824800D02*
X136303886Y-154872419D01*
X136303886Y-154872419D02*
X136113410Y-154872419D01*
X136113410Y-154872419D02*
X136018172Y-154824800D01*
X136018172Y-154824800D02*
X135970553Y-154729561D01*
X135970553Y-154729561D02*
X135970553Y-154348609D01*
X135970553Y-154348609D02*
X136018172Y-154253371D01*
X136018172Y-154253371D02*
X136113410Y-154205752D01*
X136113410Y-154205752D02*
X136303886Y-154205752D01*
X136303886Y-154205752D02*
X136399124Y-154253371D01*
X136399124Y-154253371D02*
X136446743Y-154348609D01*
X136446743Y-154348609D02*
X136446743Y-154443847D01*
X136446743Y-154443847D02*
X135970553Y-154539085D01*
X136780077Y-154872419D02*
X137303886Y-154205752D01*
X136780077Y-154205752D02*
X137303886Y-154872419D01*
X137541982Y-154205752D02*
X137922934Y-154205752D01*
X137684839Y-153872419D02*
X137684839Y-154729561D01*
X137684839Y-154729561D02*
X137732458Y-154824800D01*
X137732458Y-154824800D02*
X137827696Y-154872419D01*
X137827696Y-154872419D02*
X137922934Y-154872419D01*
X139018173Y-154872419D02*
X139018173Y-153872419D01*
X140161030Y-154205752D02*
X140351506Y-154872419D01*
X140351506Y-154872419D02*
X140541982Y-154396228D01*
X140541982Y-154396228D02*
X140732458Y-154872419D01*
X140732458Y-154872419D02*
X140922934Y-154205752D01*
X141732458Y-154872419D02*
X141732458Y-154348609D01*
X141732458Y-154348609D02*
X141684839Y-154253371D01*
X141684839Y-154253371D02*
X141589601Y-154205752D01*
X141589601Y-154205752D02*
X141399125Y-154205752D01*
X141399125Y-154205752D02*
X141303887Y-154253371D01*
X141732458Y-154824800D02*
X141637220Y-154872419D01*
X141637220Y-154872419D02*
X141399125Y-154872419D01*
X141399125Y-154872419D02*
X141303887Y-154824800D01*
X141303887Y-154824800D02*
X141256268Y-154729561D01*
X141256268Y-154729561D02*
X141256268Y-154634323D01*
X141256268Y-154634323D02*
X141303887Y-154539085D01*
X141303887Y-154539085D02*
X141399125Y-154491466D01*
X141399125Y-154491466D02*
X141637220Y-154491466D01*
X141637220Y-154491466D02*
X141732458Y-154443847D01*
X142208649Y-154205752D02*
X142208649Y-154872419D01*
X142208649Y-154300990D02*
X142256268Y-154253371D01*
X142256268Y-154253371D02*
X142351506Y-154205752D01*
X142351506Y-154205752D02*
X142494363Y-154205752D01*
X142494363Y-154205752D02*
X142589601Y-154253371D01*
X142589601Y-154253371D02*
X142637220Y-154348609D01*
X142637220Y-154348609D02*
X142637220Y-154872419D01*
X142970554Y-154205752D02*
X143351506Y-154205752D01*
X143113411Y-153872419D02*
X143113411Y-154729561D01*
X143113411Y-154729561D02*
X143161030Y-154824800D01*
X143161030Y-154824800D02*
X143256268Y-154872419D01*
X143256268Y-154872419D02*
X143351506Y-154872419D01*
X144446745Y-154872419D02*
X144446745Y-153872419D01*
X144875316Y-154872419D02*
X144875316Y-154348609D01*
X144875316Y-154348609D02*
X144827697Y-154253371D01*
X144827697Y-154253371D02*
X144732459Y-154205752D01*
X144732459Y-154205752D02*
X144589602Y-154205752D01*
X144589602Y-154205752D02*
X144494364Y-154253371D01*
X144494364Y-154253371D02*
X144446745Y-154300990D01*
X145732459Y-154824800D02*
X145637221Y-154872419D01*
X145637221Y-154872419D02*
X145446745Y-154872419D01*
X145446745Y-154872419D02*
X145351507Y-154824800D01*
X145351507Y-154824800D02*
X145303888Y-154729561D01*
X145303888Y-154729561D02*
X145303888Y-154348609D01*
X145303888Y-154348609D02*
X145351507Y-154253371D01*
X145351507Y-154253371D02*
X145446745Y-154205752D01*
X145446745Y-154205752D02*
X145637221Y-154205752D01*
X145637221Y-154205752D02*
X145732459Y-154253371D01*
X145732459Y-154253371D02*
X145780078Y-154348609D01*
X145780078Y-154348609D02*
X145780078Y-154443847D01*
X145780078Y-154443847D02*
X145303888Y-154539085D01*
X146208650Y-154872419D02*
X146208650Y-154205752D01*
X146208650Y-154396228D02*
X146256269Y-154300990D01*
X146256269Y-154300990D02*
X146303888Y-154253371D01*
X146303888Y-154253371D02*
X146399126Y-154205752D01*
X146399126Y-154205752D02*
X146494364Y-154205752D01*
X147208650Y-154824800D02*
X147113412Y-154872419D01*
X147113412Y-154872419D02*
X146922936Y-154872419D01*
X146922936Y-154872419D02*
X146827698Y-154824800D01*
X146827698Y-154824800D02*
X146780079Y-154729561D01*
X146780079Y-154729561D02*
X146780079Y-154348609D01*
X146780079Y-154348609D02*
X146827698Y-154253371D01*
X146827698Y-154253371D02*
X146922936Y-154205752D01*
X146922936Y-154205752D02*
X147113412Y-154205752D01*
X147113412Y-154205752D02*
X147208650Y-154253371D01*
X147208650Y-154253371D02*
X147256269Y-154348609D01*
X147256269Y-154348609D02*
X147256269Y-154443847D01*
X147256269Y-154443847D02*
X146780079Y-154539085D01*
X148446746Y-154872419D02*
X148446746Y-154205752D01*
X148446746Y-154396228D02*
X148494365Y-154300990D01*
X148494365Y-154300990D02*
X148541984Y-154253371D01*
X148541984Y-154253371D02*
X148637222Y-154205752D01*
X148637222Y-154205752D02*
X148732460Y-154205752D01*
X149065794Y-154872419D02*
X149065794Y-154205752D01*
X149065794Y-153872419D02*
X149018175Y-153920038D01*
X149018175Y-153920038D02*
X149065794Y-153967657D01*
X149065794Y-153967657D02*
X149113413Y-153920038D01*
X149113413Y-153920038D02*
X149065794Y-153872419D01*
X149065794Y-153872419D02*
X149065794Y-153967657D01*
X149970555Y-154205752D02*
X149970555Y-155015276D01*
X149970555Y-155015276D02*
X149922936Y-155110514D01*
X149922936Y-155110514D02*
X149875317Y-155158133D01*
X149875317Y-155158133D02*
X149780079Y-155205752D01*
X149780079Y-155205752D02*
X149637222Y-155205752D01*
X149637222Y-155205752D02*
X149541984Y-155158133D01*
X149970555Y-154824800D02*
X149875317Y-154872419D01*
X149875317Y-154872419D02*
X149684841Y-154872419D01*
X149684841Y-154872419D02*
X149589603Y-154824800D01*
X149589603Y-154824800D02*
X149541984Y-154777180D01*
X149541984Y-154777180D02*
X149494365Y-154681942D01*
X149494365Y-154681942D02*
X149494365Y-154396228D01*
X149494365Y-154396228D02*
X149541984Y-154300990D01*
X149541984Y-154300990D02*
X149589603Y-154253371D01*
X149589603Y-154253371D02*
X149684841Y-154205752D01*
X149684841Y-154205752D02*
X149875317Y-154205752D01*
X149875317Y-154205752D02*
X149970555Y-154253371D01*
X150446746Y-154872419D02*
X150446746Y-153872419D01*
X150875317Y-154872419D02*
X150875317Y-154348609D01*
X150875317Y-154348609D02*
X150827698Y-154253371D01*
X150827698Y-154253371D02*
X150732460Y-154205752D01*
X150732460Y-154205752D02*
X150589603Y-154205752D01*
X150589603Y-154205752D02*
X150494365Y-154253371D01*
X150494365Y-154253371D02*
X150446746Y-154300990D01*
X151208651Y-154205752D02*
X151589603Y-154205752D01*
X151351508Y-153872419D02*
X151351508Y-154729561D01*
X151351508Y-154729561D02*
X151399127Y-154824800D01*
X151399127Y-154824800D02*
X151494365Y-154872419D01*
X151494365Y-154872419D02*
X151589603Y-154872419D01*
X152065794Y-154777180D02*
X152113413Y-154824800D01*
X152113413Y-154824800D02*
X152065794Y-154872419D01*
X152065794Y-154872419D02*
X152018175Y-154824800D01*
X152018175Y-154824800D02*
X152065794Y-154777180D01*
X152065794Y-154777180D02*
X152065794Y-154872419D01*
X151875318Y-153920038D02*
X151970556Y-153872419D01*
X151970556Y-153872419D02*
X152208651Y-153872419D01*
X152208651Y-153872419D02*
X152303889Y-153920038D01*
X152303889Y-153920038D02*
X152351508Y-154015276D01*
X152351508Y-154015276D02*
X152351508Y-154110514D01*
X152351508Y-154110514D02*
X152303889Y-154205752D01*
X152303889Y-154205752D02*
X152256270Y-154253371D01*
X152256270Y-154253371D02*
X152161032Y-154300990D01*
X152161032Y-154300990D02*
X152113413Y-154348609D01*
X152113413Y-154348609D02*
X152065794Y-154443847D01*
X152065794Y-154443847D02*
X152065794Y-154491466D01*
X153732461Y-153872419D02*
X153922937Y-153872419D01*
X153922937Y-153872419D02*
X154018175Y-153920038D01*
X154018175Y-153920038D02*
X154113413Y-154015276D01*
X154113413Y-154015276D02*
X154161032Y-154205752D01*
X154161032Y-154205752D02*
X154161032Y-154539085D01*
X154161032Y-154539085D02*
X154113413Y-154729561D01*
X154113413Y-154729561D02*
X154018175Y-154824800D01*
X154018175Y-154824800D02*
X153922937Y-154872419D01*
X153922937Y-154872419D02*
X153732461Y-154872419D01*
X153732461Y-154872419D02*
X153637223Y-154824800D01*
X153637223Y-154824800D02*
X153541985Y-154729561D01*
X153541985Y-154729561D02*
X153494366Y-154539085D01*
X153494366Y-154539085D02*
X153494366Y-154205752D01*
X153494366Y-154205752D02*
X153541985Y-154015276D01*
X153541985Y-154015276D02*
X153637223Y-153920038D01*
X153637223Y-153920038D02*
X153732461Y-153872419D01*
X154589604Y-154872419D02*
X154589604Y-153872419D01*
X154684842Y-154491466D02*
X154970556Y-154872419D01*
X154970556Y-154205752D02*
X154589604Y-154586704D01*
X155827699Y-154872419D02*
X155827699Y-154348609D01*
X155827699Y-154348609D02*
X155780080Y-154253371D01*
X155780080Y-154253371D02*
X155684842Y-154205752D01*
X155684842Y-154205752D02*
X155494366Y-154205752D01*
X155494366Y-154205752D02*
X155399128Y-154253371D01*
X155827699Y-154824800D02*
X155732461Y-154872419D01*
X155732461Y-154872419D02*
X155494366Y-154872419D01*
X155494366Y-154872419D02*
X155399128Y-154824800D01*
X155399128Y-154824800D02*
X155351509Y-154729561D01*
X155351509Y-154729561D02*
X155351509Y-154634323D01*
X155351509Y-154634323D02*
X155399128Y-154539085D01*
X155399128Y-154539085D02*
X155494366Y-154491466D01*
X155494366Y-154491466D02*
X155732461Y-154491466D01*
X155732461Y-154491466D02*
X155827699Y-154443847D01*
X156208652Y-154205752D02*
X156446747Y-154872419D01*
X156684842Y-154205752D02*
X156446747Y-154872419D01*
X156446747Y-154872419D02*
X156351509Y-155110514D01*
X156351509Y-155110514D02*
X156303890Y-155158133D01*
X156303890Y-155158133D02*
X156208652Y-155205752D01*
X157113414Y-154824800D02*
X157113414Y-154872419D01*
X157113414Y-154872419D02*
X157065795Y-154967657D01*
X157065795Y-154967657D02*
X157018176Y-155015276D01*
X158732461Y-154824800D02*
X158637223Y-154872419D01*
X158637223Y-154872419D02*
X158446747Y-154872419D01*
X158446747Y-154872419D02*
X158351509Y-154824800D01*
X158351509Y-154824800D02*
X158303890Y-154777180D01*
X158303890Y-154777180D02*
X158256271Y-154681942D01*
X158256271Y-154681942D02*
X158256271Y-154396228D01*
X158256271Y-154396228D02*
X158303890Y-154300990D01*
X158303890Y-154300990D02*
X158351509Y-154253371D01*
X158351509Y-154253371D02*
X158446747Y-154205752D01*
X158446747Y-154205752D02*
X158637223Y-154205752D01*
X158637223Y-154205752D02*
X158732461Y-154253371D01*
X159589604Y-154872419D02*
X159589604Y-154348609D01*
X159589604Y-154348609D02*
X159541985Y-154253371D01*
X159541985Y-154253371D02*
X159446747Y-154205752D01*
X159446747Y-154205752D02*
X159256271Y-154205752D01*
X159256271Y-154205752D02*
X159161033Y-154253371D01*
X159589604Y-154824800D02*
X159494366Y-154872419D01*
X159494366Y-154872419D02*
X159256271Y-154872419D01*
X159256271Y-154872419D02*
X159161033Y-154824800D01*
X159161033Y-154824800D02*
X159113414Y-154729561D01*
X159113414Y-154729561D02*
X159113414Y-154634323D01*
X159113414Y-154634323D02*
X159161033Y-154539085D01*
X159161033Y-154539085D02*
X159256271Y-154491466D01*
X159256271Y-154491466D02*
X159494366Y-154491466D01*
X159494366Y-154491466D02*
X159589604Y-154443847D01*
X160065795Y-154205752D02*
X160065795Y-154872419D01*
X160065795Y-154300990D02*
X160113414Y-154253371D01*
X160113414Y-154253371D02*
X160208652Y-154205752D01*
X160208652Y-154205752D02*
X160351509Y-154205752D01*
X160351509Y-154205752D02*
X160446747Y-154253371D01*
X160446747Y-154253371D02*
X160494366Y-154348609D01*
X160494366Y-154348609D02*
X160494366Y-154872419D01*
X161637224Y-154205752D02*
X161875319Y-154872419D01*
X162113414Y-154205752D02*
X161875319Y-154872419D01*
X161875319Y-154872419D02*
X161780081Y-155110514D01*
X161780081Y-155110514D02*
X161732462Y-155158133D01*
X161732462Y-155158133D02*
X161637224Y-155205752D01*
X162637224Y-154872419D02*
X162541986Y-154824800D01*
X162541986Y-154824800D02*
X162494367Y-154777180D01*
X162494367Y-154777180D02*
X162446748Y-154681942D01*
X162446748Y-154681942D02*
X162446748Y-154396228D01*
X162446748Y-154396228D02*
X162494367Y-154300990D01*
X162494367Y-154300990D02*
X162541986Y-154253371D01*
X162541986Y-154253371D02*
X162637224Y-154205752D01*
X162637224Y-154205752D02*
X162780081Y-154205752D01*
X162780081Y-154205752D02*
X162875319Y-154253371D01*
X162875319Y-154253371D02*
X162922938Y-154300990D01*
X162922938Y-154300990D02*
X162970557Y-154396228D01*
X162970557Y-154396228D02*
X162970557Y-154681942D01*
X162970557Y-154681942D02*
X162922938Y-154777180D01*
X162922938Y-154777180D02*
X162875319Y-154824800D01*
X162875319Y-154824800D02*
X162780081Y-154872419D01*
X162780081Y-154872419D02*
X162637224Y-154872419D01*
X163827700Y-154205752D02*
X163827700Y-154872419D01*
X163399129Y-154205752D02*
X163399129Y-154729561D01*
X163399129Y-154729561D02*
X163446748Y-154824800D01*
X163446748Y-154824800D02*
X163541986Y-154872419D01*
X163541986Y-154872419D02*
X163684843Y-154872419D01*
X163684843Y-154872419D02*
X163780081Y-154824800D01*
X163780081Y-154824800D02*
X163827700Y-154777180D01*
X165065796Y-154872419D02*
X165065796Y-154205752D01*
X165065796Y-154300990D02*
X165113415Y-154253371D01*
X165113415Y-154253371D02*
X165208653Y-154205752D01*
X165208653Y-154205752D02*
X165351510Y-154205752D01*
X165351510Y-154205752D02*
X165446748Y-154253371D01*
X165446748Y-154253371D02*
X165494367Y-154348609D01*
X165494367Y-154348609D02*
X165494367Y-154872419D01*
X165494367Y-154348609D02*
X165541986Y-154253371D01*
X165541986Y-154253371D02*
X165637224Y-154205752D01*
X165637224Y-154205752D02*
X165780081Y-154205752D01*
X165780081Y-154205752D02*
X165875320Y-154253371D01*
X165875320Y-154253371D02*
X165922939Y-154348609D01*
X165922939Y-154348609D02*
X165922939Y-154872419D01*
X166827700Y-154872419D02*
X166827700Y-154348609D01*
X166827700Y-154348609D02*
X166780081Y-154253371D01*
X166780081Y-154253371D02*
X166684843Y-154205752D01*
X166684843Y-154205752D02*
X166494367Y-154205752D01*
X166494367Y-154205752D02*
X166399129Y-154253371D01*
X166827700Y-154824800D02*
X166732462Y-154872419D01*
X166732462Y-154872419D02*
X166494367Y-154872419D01*
X166494367Y-154872419D02*
X166399129Y-154824800D01*
X166399129Y-154824800D02*
X166351510Y-154729561D01*
X166351510Y-154729561D02*
X166351510Y-154634323D01*
X166351510Y-154634323D02*
X166399129Y-154539085D01*
X166399129Y-154539085D02*
X166494367Y-154491466D01*
X166494367Y-154491466D02*
X166732462Y-154491466D01*
X166732462Y-154491466D02*
X166827700Y-154443847D01*
X167303891Y-154872419D02*
X167303891Y-153872419D01*
X167399129Y-154491466D02*
X167684843Y-154872419D01*
X167684843Y-154205752D02*
X167303891Y-154586704D01*
X168494367Y-154824800D02*
X168399129Y-154872419D01*
X168399129Y-154872419D02*
X168208653Y-154872419D01*
X168208653Y-154872419D02*
X168113415Y-154824800D01*
X168113415Y-154824800D02*
X168065796Y-154729561D01*
X168065796Y-154729561D02*
X168065796Y-154348609D01*
X168065796Y-154348609D02*
X168113415Y-154253371D01*
X168113415Y-154253371D02*
X168208653Y-154205752D01*
X168208653Y-154205752D02*
X168399129Y-154205752D01*
X168399129Y-154205752D02*
X168494367Y-154253371D01*
X168494367Y-154253371D02*
X168541986Y-154348609D01*
X168541986Y-154348609D02*
X168541986Y-154443847D01*
X168541986Y-154443847D02*
X168065796Y-154539085D01*
X169732463Y-154872419D02*
X169732463Y-154205752D01*
X169732463Y-153872419D02*
X169684844Y-153920038D01*
X169684844Y-153920038D02*
X169732463Y-153967657D01*
X169732463Y-153967657D02*
X169780082Y-153920038D01*
X169780082Y-153920038D02*
X169732463Y-153872419D01*
X169732463Y-153872419D02*
X169732463Y-153967657D01*
X170065796Y-154205752D02*
X170446748Y-154205752D01*
X170208653Y-153872419D02*
X170208653Y-154729561D01*
X170208653Y-154729561D02*
X170256272Y-154824800D01*
X170256272Y-154824800D02*
X170351510Y-154872419D01*
X170351510Y-154872419D02*
X170446748Y-154872419D01*
X171494368Y-154824800D02*
X171589606Y-154872419D01*
X171589606Y-154872419D02*
X171780082Y-154872419D01*
X171780082Y-154872419D02*
X171875320Y-154824800D01*
X171875320Y-154824800D02*
X171922939Y-154729561D01*
X171922939Y-154729561D02*
X171922939Y-154681942D01*
X171922939Y-154681942D02*
X171875320Y-154586704D01*
X171875320Y-154586704D02*
X171780082Y-154539085D01*
X171780082Y-154539085D02*
X171637225Y-154539085D01*
X171637225Y-154539085D02*
X171541987Y-154491466D01*
X171541987Y-154491466D02*
X171494368Y-154396228D01*
X171494368Y-154396228D02*
X171494368Y-154348609D01*
X171494368Y-154348609D02*
X171541987Y-154253371D01*
X171541987Y-154253371D02*
X171637225Y-154205752D01*
X171637225Y-154205752D02*
X171780082Y-154205752D01*
X171780082Y-154205752D02*
X171875320Y-154253371D01*
X172780082Y-154872419D02*
X172780082Y-154348609D01*
X172780082Y-154348609D02*
X172732463Y-154253371D01*
X172732463Y-154253371D02*
X172637225Y-154205752D01*
X172637225Y-154205752D02*
X172446749Y-154205752D01*
X172446749Y-154205752D02*
X172351511Y-154253371D01*
X172780082Y-154824800D02*
X172684844Y-154872419D01*
X172684844Y-154872419D02*
X172446749Y-154872419D01*
X172446749Y-154872419D02*
X172351511Y-154824800D01*
X172351511Y-154824800D02*
X172303892Y-154729561D01*
X172303892Y-154729561D02*
X172303892Y-154634323D01*
X172303892Y-154634323D02*
X172351511Y-154539085D01*
X172351511Y-154539085D02*
X172446749Y-154491466D01*
X172446749Y-154491466D02*
X172684844Y-154491466D01*
X172684844Y-154491466D02*
X172780082Y-154443847D01*
X173161035Y-154205752D02*
X173399130Y-154872419D01*
X173637225Y-154205752D02*
X173399130Y-154872419D01*
X173399130Y-154872419D02*
X173303892Y-155110514D01*
X173303892Y-155110514D02*
X173256273Y-155158133D01*
X173256273Y-155158133D02*
X173161035Y-155205752D01*
X174732464Y-154824800D02*
X174827702Y-154872419D01*
X174827702Y-154872419D02*
X175018178Y-154872419D01*
X175018178Y-154872419D02*
X175113416Y-154824800D01*
X175113416Y-154824800D02*
X175161035Y-154729561D01*
X175161035Y-154729561D02*
X175161035Y-154681942D01*
X175161035Y-154681942D02*
X175113416Y-154586704D01*
X175113416Y-154586704D02*
X175018178Y-154539085D01*
X175018178Y-154539085D02*
X174875321Y-154539085D01*
X174875321Y-154539085D02*
X174780083Y-154491466D01*
X174780083Y-154491466D02*
X174732464Y-154396228D01*
X174732464Y-154396228D02*
X174732464Y-154348609D01*
X174732464Y-154348609D02*
X174780083Y-154253371D01*
X174780083Y-154253371D02*
X174875321Y-154205752D01*
X174875321Y-154205752D02*
X175018178Y-154205752D01*
X175018178Y-154205752D02*
X175113416Y-154253371D01*
X175732464Y-154872419D02*
X175637226Y-154824800D01*
X175637226Y-154824800D02*
X175589607Y-154777180D01*
X175589607Y-154777180D02*
X175541988Y-154681942D01*
X175541988Y-154681942D02*
X175541988Y-154396228D01*
X175541988Y-154396228D02*
X175589607Y-154300990D01*
X175589607Y-154300990D02*
X175637226Y-154253371D01*
X175637226Y-154253371D02*
X175732464Y-154205752D01*
X175732464Y-154205752D02*
X175875321Y-154205752D01*
X175875321Y-154205752D02*
X175970559Y-154253371D01*
X175970559Y-154253371D02*
X176018178Y-154300990D01*
X176018178Y-154300990D02*
X176065797Y-154396228D01*
X176065797Y-154396228D02*
X176065797Y-154681942D01*
X176065797Y-154681942D02*
X176018178Y-154777180D01*
X176018178Y-154777180D02*
X175970559Y-154824800D01*
X175970559Y-154824800D02*
X175875321Y-154872419D01*
X175875321Y-154872419D02*
X175732464Y-154872419D01*
X176494369Y-154872419D02*
X176494369Y-154205752D01*
X176494369Y-154300990D02*
X176541988Y-154253371D01*
X176541988Y-154253371D02*
X176637226Y-154205752D01*
X176637226Y-154205752D02*
X176780083Y-154205752D01*
X176780083Y-154205752D02*
X176875321Y-154253371D01*
X176875321Y-154253371D02*
X176922940Y-154348609D01*
X176922940Y-154348609D02*
X176922940Y-154872419D01*
X176922940Y-154348609D02*
X176970559Y-154253371D01*
X176970559Y-154253371D02*
X177065797Y-154205752D01*
X177065797Y-154205752D02*
X177208654Y-154205752D01*
X177208654Y-154205752D02*
X177303893Y-154253371D01*
X177303893Y-154253371D02*
X177351512Y-154348609D01*
X177351512Y-154348609D02*
X177351512Y-154872419D01*
X178208654Y-154824800D02*
X178113416Y-154872419D01*
X178113416Y-154872419D02*
X177922940Y-154872419D01*
X177922940Y-154872419D02*
X177827702Y-154824800D01*
X177827702Y-154824800D02*
X177780083Y-154729561D01*
X177780083Y-154729561D02*
X177780083Y-154348609D01*
X177780083Y-154348609D02*
X177827702Y-154253371D01*
X177827702Y-154253371D02*
X177922940Y-154205752D01*
X177922940Y-154205752D02*
X178113416Y-154205752D01*
X178113416Y-154205752D02*
X178208654Y-154253371D01*
X178208654Y-154253371D02*
X178256273Y-154348609D01*
X178256273Y-154348609D02*
X178256273Y-154443847D01*
X178256273Y-154443847D02*
X177780083Y-154539085D01*
X178541988Y-154205752D02*
X178922940Y-154205752D01*
X178684845Y-153872419D02*
X178684845Y-154729561D01*
X178684845Y-154729561D02*
X178732464Y-154824800D01*
X178732464Y-154824800D02*
X178827702Y-154872419D01*
X178827702Y-154872419D02*
X178922940Y-154872419D01*
X179256274Y-154872419D02*
X179256274Y-153872419D01*
X179684845Y-154872419D02*
X179684845Y-154348609D01*
X179684845Y-154348609D02*
X179637226Y-154253371D01*
X179637226Y-154253371D02*
X179541988Y-154205752D01*
X179541988Y-154205752D02*
X179399131Y-154205752D01*
X179399131Y-154205752D02*
X179303893Y-154253371D01*
X179303893Y-154253371D02*
X179256274Y-154300990D01*
X180161036Y-154872419D02*
X180161036Y-154205752D01*
X180161036Y-153872419D02*
X180113417Y-153920038D01*
X180113417Y-153920038D02*
X180161036Y-153967657D01*
X180161036Y-153967657D02*
X180208655Y-153920038D01*
X180208655Y-153920038D02*
X180161036Y-153872419D01*
X180161036Y-153872419D02*
X180161036Y-153967657D01*
X180637226Y-154205752D02*
X180637226Y-154872419D01*
X180637226Y-154300990D02*
X180684845Y-154253371D01*
X180684845Y-154253371D02*
X180780083Y-154205752D01*
X180780083Y-154205752D02*
X180922940Y-154205752D01*
X180922940Y-154205752D02*
X181018178Y-154253371D01*
X181018178Y-154253371D02*
X181065797Y-154348609D01*
X181065797Y-154348609D02*
X181065797Y-154872419D01*
X181970559Y-154205752D02*
X181970559Y-155015276D01*
X181970559Y-155015276D02*
X181922940Y-155110514D01*
X181922940Y-155110514D02*
X181875321Y-155158133D01*
X181875321Y-155158133D02*
X181780083Y-155205752D01*
X181780083Y-155205752D02*
X181637226Y-155205752D01*
X181637226Y-155205752D02*
X181541988Y-155158133D01*
X181970559Y-154824800D02*
X181875321Y-154872419D01*
X181875321Y-154872419D02*
X181684845Y-154872419D01*
X181684845Y-154872419D02*
X181589607Y-154824800D01*
X181589607Y-154824800D02*
X181541988Y-154777180D01*
X181541988Y-154777180D02*
X181494369Y-154681942D01*
X181494369Y-154681942D02*
X181494369Y-154396228D01*
X181494369Y-154396228D02*
X181541988Y-154300990D01*
X181541988Y-154300990D02*
X181589607Y-154253371D01*
X181589607Y-154253371D02*
X181684845Y-154205752D01*
X181684845Y-154205752D02*
X181875321Y-154205752D01*
X181875321Y-154205752D02*
X181970559Y-154253371D01*
X183351512Y-154872419D02*
X183256274Y-154824800D01*
X183256274Y-154824800D02*
X183208655Y-154729561D01*
X183208655Y-154729561D02*
X183208655Y-153872419D01*
X183732465Y-154872419D02*
X183732465Y-154205752D01*
X183732465Y-153872419D02*
X183684846Y-153920038D01*
X183684846Y-153920038D02*
X183732465Y-153967657D01*
X183732465Y-153967657D02*
X183780084Y-153920038D01*
X183780084Y-153920038D02*
X183732465Y-153872419D01*
X183732465Y-153872419D02*
X183732465Y-153967657D01*
X184208655Y-154872419D02*
X184208655Y-153872419D01*
X184303893Y-154491466D02*
X184589607Y-154872419D01*
X184589607Y-154205752D02*
X184208655Y-154586704D01*
X185399131Y-154824800D02*
X185303893Y-154872419D01*
X185303893Y-154872419D02*
X185113417Y-154872419D01*
X185113417Y-154872419D02*
X185018179Y-154824800D01*
X185018179Y-154824800D02*
X184970560Y-154729561D01*
X184970560Y-154729561D02*
X184970560Y-154348609D01*
X184970560Y-154348609D02*
X185018179Y-154253371D01*
X185018179Y-154253371D02*
X185113417Y-154205752D01*
X185113417Y-154205752D02*
X185303893Y-154205752D01*
X185303893Y-154205752D02*
X185399131Y-154253371D01*
X185399131Y-154253371D02*
X185446750Y-154348609D01*
X185446750Y-154348609D02*
X185446750Y-154443847D01*
X185446750Y-154443847D02*
X184970560Y-154539085D01*
X185922941Y-154824800D02*
X185922941Y-154872419D01*
X185922941Y-154872419D02*
X185875322Y-154967657D01*
X185875322Y-154967657D02*
X185827703Y-155015276D01*
X187065798Y-153872419D02*
X187065798Y-154062895D01*
X187446750Y-153872419D02*
X187446750Y-154062895D01*
X187732465Y-153872419D02*
X188303893Y-153872419D01*
X188018179Y-154872419D02*
X188018179Y-153872419D01*
D13*
X144454819Y-33190476D02*
X145169104Y-33190476D01*
X145169104Y-33190476D02*
X145311961Y-33238095D01*
X145311961Y-33238095D02*
X145407200Y-33333333D01*
X145407200Y-33333333D02*
X145454819Y-33476190D01*
X145454819Y-33476190D02*
X145454819Y-33571428D01*
X145407200Y-32761904D02*
X145454819Y-32619047D01*
X145454819Y-32619047D02*
X145454819Y-32380952D01*
X145454819Y-32380952D02*
X145407200Y-32285714D01*
X145407200Y-32285714D02*
X145359580Y-32238095D01*
X145359580Y-32238095D02*
X145264342Y-32190476D01*
X145264342Y-32190476D02*
X145169104Y-32190476D01*
X145169104Y-32190476D02*
X145073866Y-32238095D01*
X145073866Y-32238095D02*
X145026247Y-32285714D01*
X145026247Y-32285714D02*
X144978628Y-32380952D01*
X144978628Y-32380952D02*
X144931009Y-32571428D01*
X144931009Y-32571428D02*
X144883390Y-32666666D01*
X144883390Y-32666666D02*
X144835771Y-32714285D01*
X144835771Y-32714285D02*
X144740533Y-32761904D01*
X144740533Y-32761904D02*
X144645295Y-32761904D01*
X144645295Y-32761904D02*
X144550057Y-32714285D01*
X144550057Y-32714285D02*
X144502438Y-32666666D01*
X144502438Y-32666666D02*
X144454819Y-32571428D01*
X144454819Y-32571428D02*
X144454819Y-32333333D01*
X144454819Y-32333333D02*
X144502438Y-32190476D01*
X144454819Y-31904761D02*
X144454819Y-31333333D01*
X145454819Y-31619047D02*
X144454819Y-31619047D01*
X145454819Y-30476190D02*
X145454819Y-31047618D01*
X145454819Y-30761904D02*
X144454819Y-30761904D01*
X144454819Y-30761904D02*
X144597676Y-30857142D01*
X144597676Y-30857142D02*
X144692914Y-30952380D01*
X144692914Y-30952380D02*
X144740533Y-31047618D01*
X136689819Y-49233094D02*
X135689819Y-49233094D01*
X135689819Y-49233094D02*
X135689819Y-48852142D01*
X135689819Y-48852142D02*
X135737438Y-48756904D01*
X135737438Y-48756904D02*
X135785057Y-48709285D01*
X135785057Y-48709285D02*
X135880295Y-48661666D01*
X135880295Y-48661666D02*
X136023152Y-48661666D01*
X136023152Y-48661666D02*
X136118390Y-48709285D01*
X136118390Y-48709285D02*
X136166009Y-48756904D01*
X136166009Y-48756904D02*
X136213628Y-48852142D01*
X136213628Y-48852142D02*
X136213628Y-49233094D01*
X135689819Y-48328332D02*
X135689819Y-47661666D01*
X135689819Y-47661666D02*
X136689819Y-48090237D01*
X123989819Y-40769285D02*
X122989819Y-40769285D01*
X122989819Y-40769285D02*
X122989819Y-40388333D01*
X122989819Y-40388333D02*
X123037438Y-40293095D01*
X123037438Y-40293095D02*
X123085057Y-40245476D01*
X123085057Y-40245476D02*
X123180295Y-40197857D01*
X123180295Y-40197857D02*
X123323152Y-40197857D01*
X123323152Y-40197857D02*
X123418390Y-40245476D01*
X123418390Y-40245476D02*
X123466009Y-40293095D01*
X123466009Y-40293095D02*
X123513628Y-40388333D01*
X123513628Y-40388333D02*
X123513628Y-40769285D01*
X123085057Y-39816904D02*
X123037438Y-39769285D01*
X123037438Y-39769285D02*
X122989819Y-39674047D01*
X122989819Y-39674047D02*
X122989819Y-39435952D01*
X122989819Y-39435952D02*
X123037438Y-39340714D01*
X123037438Y-39340714D02*
X123085057Y-39293095D01*
X123085057Y-39293095D02*
X123180295Y-39245476D01*
X123180295Y-39245476D02*
X123275533Y-39245476D01*
X123275533Y-39245476D02*
X123418390Y-39293095D01*
X123418390Y-39293095D02*
X123989819Y-39864523D01*
X123989819Y-39864523D02*
X123989819Y-39245476D01*
X123989819Y-38293095D02*
X123989819Y-38864523D01*
X123989819Y-38578809D02*
X122989819Y-38578809D01*
X122989819Y-38578809D02*
X123132676Y-38674047D01*
X123132676Y-38674047D02*
X123227914Y-38769285D01*
X123227914Y-38769285D02*
X123275533Y-38864523D01*
X118909819Y-40102619D02*
X118433628Y-40435952D01*
X118909819Y-40674047D02*
X117909819Y-40674047D01*
X117909819Y-40674047D02*
X117909819Y-40293095D01*
X117909819Y-40293095D02*
X117957438Y-40197857D01*
X117957438Y-40197857D02*
X118005057Y-40150238D01*
X118005057Y-40150238D02*
X118100295Y-40102619D01*
X118100295Y-40102619D02*
X118243152Y-40102619D01*
X118243152Y-40102619D02*
X118338390Y-40150238D01*
X118338390Y-40150238D02*
X118386009Y-40197857D01*
X118386009Y-40197857D02*
X118433628Y-40293095D01*
X118433628Y-40293095D02*
X118433628Y-40674047D01*
X118862200Y-39721666D02*
X118909819Y-39578809D01*
X118909819Y-39578809D02*
X118909819Y-39340714D01*
X118909819Y-39340714D02*
X118862200Y-39245476D01*
X118862200Y-39245476D02*
X118814580Y-39197857D01*
X118814580Y-39197857D02*
X118719342Y-39150238D01*
X118719342Y-39150238D02*
X118624104Y-39150238D01*
X118624104Y-39150238D02*
X118528866Y-39197857D01*
X118528866Y-39197857D02*
X118481247Y-39245476D01*
X118481247Y-39245476D02*
X118433628Y-39340714D01*
X118433628Y-39340714D02*
X118386009Y-39531190D01*
X118386009Y-39531190D02*
X118338390Y-39626428D01*
X118338390Y-39626428D02*
X118290771Y-39674047D01*
X118290771Y-39674047D02*
X118195533Y-39721666D01*
X118195533Y-39721666D02*
X118100295Y-39721666D01*
X118100295Y-39721666D02*
X118005057Y-39674047D01*
X118005057Y-39674047D02*
X117957438Y-39626428D01*
X117957438Y-39626428D02*
X117909819Y-39531190D01*
X117909819Y-39531190D02*
X117909819Y-39293095D01*
X117909819Y-39293095D02*
X117957438Y-39150238D01*
X117909819Y-38864523D02*
X117909819Y-38293095D01*
X118909819Y-38578809D02*
X117909819Y-38578809D01*
X129069819Y-49233094D02*
X128069819Y-49233094D01*
X128069819Y-49233094D02*
X128069819Y-48852142D01*
X128069819Y-48852142D02*
X128117438Y-48756904D01*
X128117438Y-48756904D02*
X128165057Y-48709285D01*
X128165057Y-48709285D02*
X128260295Y-48661666D01*
X128260295Y-48661666D02*
X128403152Y-48661666D01*
X128403152Y-48661666D02*
X128498390Y-48709285D01*
X128498390Y-48709285D02*
X128546009Y-48756904D01*
X128546009Y-48756904D02*
X128593628Y-48852142D01*
X128593628Y-48852142D02*
X128593628Y-49233094D01*
X128403152Y-47804523D02*
X129069819Y-47804523D01*
X128022200Y-48042618D02*
X128736485Y-48280713D01*
X128736485Y-48280713D02*
X128736485Y-47661666D01*
X115417438Y-40316904D02*
X115369819Y-40412142D01*
X115369819Y-40412142D02*
X115369819Y-40554999D01*
X115369819Y-40554999D02*
X115417438Y-40697856D01*
X115417438Y-40697856D02*
X115512676Y-40793094D01*
X115512676Y-40793094D02*
X115607914Y-40840713D01*
X115607914Y-40840713D02*
X115798390Y-40888332D01*
X115798390Y-40888332D02*
X115941247Y-40888332D01*
X115941247Y-40888332D02*
X116131723Y-40840713D01*
X116131723Y-40840713D02*
X116226961Y-40793094D01*
X116226961Y-40793094D02*
X116322200Y-40697856D01*
X116322200Y-40697856D02*
X116369819Y-40554999D01*
X116369819Y-40554999D02*
X116369819Y-40459761D01*
X116369819Y-40459761D02*
X116322200Y-40316904D01*
X116322200Y-40316904D02*
X116274580Y-40269285D01*
X116274580Y-40269285D02*
X115941247Y-40269285D01*
X115941247Y-40269285D02*
X115941247Y-40459761D01*
X116369819Y-39840713D02*
X115369819Y-39840713D01*
X115369819Y-39840713D02*
X116369819Y-39269285D01*
X116369819Y-39269285D02*
X115369819Y-39269285D01*
X116369819Y-38793094D02*
X115369819Y-38793094D01*
X115369819Y-38793094D02*
X115369819Y-38554999D01*
X115369819Y-38554999D02*
X115417438Y-38412142D01*
X115417438Y-38412142D02*
X115512676Y-38316904D01*
X115512676Y-38316904D02*
X115607914Y-38269285D01*
X115607914Y-38269285D02*
X115798390Y-38221666D01*
X115798390Y-38221666D02*
X115941247Y-38221666D01*
X115941247Y-38221666D02*
X116131723Y-38269285D01*
X116131723Y-38269285D02*
X116226961Y-38316904D01*
X116226961Y-38316904D02*
X116322200Y-38412142D01*
X116322200Y-38412142D02*
X116369819Y-38554999D01*
X116369819Y-38554999D02*
X116369819Y-38793094D01*
X139229819Y-49233094D02*
X138229819Y-49233094D01*
X138229819Y-49233094D02*
X138229819Y-48852142D01*
X138229819Y-48852142D02*
X138277438Y-48756904D01*
X138277438Y-48756904D02*
X138325057Y-48709285D01*
X138325057Y-48709285D02*
X138420295Y-48661666D01*
X138420295Y-48661666D02*
X138563152Y-48661666D01*
X138563152Y-48661666D02*
X138658390Y-48709285D01*
X138658390Y-48709285D02*
X138706009Y-48756904D01*
X138706009Y-48756904D02*
X138753628Y-48852142D01*
X138753628Y-48852142D02*
X138753628Y-49233094D01*
X138658390Y-48090237D02*
X138610771Y-48185475D01*
X138610771Y-48185475D02*
X138563152Y-48233094D01*
X138563152Y-48233094D02*
X138467914Y-48280713D01*
X138467914Y-48280713D02*
X138420295Y-48280713D01*
X138420295Y-48280713D02*
X138325057Y-48233094D01*
X138325057Y-48233094D02*
X138277438Y-48185475D01*
X138277438Y-48185475D02*
X138229819Y-48090237D01*
X138229819Y-48090237D02*
X138229819Y-47899761D01*
X138229819Y-47899761D02*
X138277438Y-47804523D01*
X138277438Y-47804523D02*
X138325057Y-47756904D01*
X138325057Y-47756904D02*
X138420295Y-47709285D01*
X138420295Y-47709285D02*
X138467914Y-47709285D01*
X138467914Y-47709285D02*
X138563152Y-47756904D01*
X138563152Y-47756904D02*
X138610771Y-47804523D01*
X138610771Y-47804523D02*
X138658390Y-47899761D01*
X138658390Y-47899761D02*
X138658390Y-48090237D01*
X138658390Y-48090237D02*
X138706009Y-48185475D01*
X138706009Y-48185475D02*
X138753628Y-48233094D01*
X138753628Y-48233094D02*
X138848866Y-48280713D01*
X138848866Y-48280713D02*
X139039342Y-48280713D01*
X139039342Y-48280713D02*
X139134580Y-48233094D01*
X139134580Y-48233094D02*
X139182200Y-48185475D01*
X139182200Y-48185475D02*
X139229819Y-48090237D01*
X139229819Y-48090237D02*
X139229819Y-47899761D01*
X139229819Y-47899761D02*
X139182200Y-47804523D01*
X139182200Y-47804523D02*
X139134580Y-47756904D01*
X139134580Y-47756904D02*
X139039342Y-47709285D01*
X139039342Y-47709285D02*
X138848866Y-47709285D01*
X138848866Y-47709285D02*
X138753628Y-47756904D01*
X138753628Y-47756904D02*
X138706009Y-47804523D01*
X138706009Y-47804523D02*
X138658390Y-47899761D01*
X141769819Y-40769285D02*
X140769819Y-40769285D01*
X140769819Y-40769285D02*
X140769819Y-40388333D01*
X140769819Y-40388333D02*
X140817438Y-40293095D01*
X140817438Y-40293095D02*
X140865057Y-40245476D01*
X140865057Y-40245476D02*
X140960295Y-40197857D01*
X140960295Y-40197857D02*
X141103152Y-40197857D01*
X141103152Y-40197857D02*
X141198390Y-40245476D01*
X141198390Y-40245476D02*
X141246009Y-40293095D01*
X141246009Y-40293095D02*
X141293628Y-40388333D01*
X141293628Y-40388333D02*
X141293628Y-40769285D01*
X141769819Y-39245476D02*
X141769819Y-39816904D01*
X141769819Y-39531190D02*
X140769819Y-39531190D01*
X140769819Y-39531190D02*
X140912676Y-39626428D01*
X140912676Y-39626428D02*
X141007914Y-39721666D01*
X141007914Y-39721666D02*
X141055533Y-39816904D01*
X140769819Y-38626428D02*
X140769819Y-38531190D01*
X140769819Y-38531190D02*
X140817438Y-38435952D01*
X140817438Y-38435952D02*
X140865057Y-38388333D01*
X140865057Y-38388333D02*
X140960295Y-38340714D01*
X140960295Y-38340714D02*
X141150771Y-38293095D01*
X141150771Y-38293095D02*
X141388866Y-38293095D01*
X141388866Y-38293095D02*
X141579342Y-38340714D01*
X141579342Y-38340714D02*
X141674580Y-38388333D01*
X141674580Y-38388333D02*
X141722200Y-38435952D01*
X141722200Y-38435952D02*
X141769819Y-38531190D01*
X141769819Y-38531190D02*
X141769819Y-38626428D01*
X141769819Y-38626428D02*
X141722200Y-38721666D01*
X141722200Y-38721666D02*
X141674580Y-38769285D01*
X141674580Y-38769285D02*
X141579342Y-38816904D01*
X141579342Y-38816904D02*
X141388866Y-38864523D01*
X141388866Y-38864523D02*
X141150771Y-38864523D01*
X141150771Y-38864523D02*
X140960295Y-38816904D01*
X140960295Y-38816904D02*
X140865057Y-38769285D01*
X140865057Y-38769285D02*
X140817438Y-38721666D01*
X140817438Y-38721666D02*
X140769819Y-38626428D01*
X124072117Y-49244125D02*
X123072117Y-49244125D01*
X123072117Y-49244125D02*
X123072117Y-48863173D01*
X123072117Y-48863173D02*
X123119736Y-48767935D01*
X123119736Y-48767935D02*
X123167355Y-48720316D01*
X123167355Y-48720316D02*
X123262593Y-48672697D01*
X123262593Y-48672697D02*
X123405450Y-48672697D01*
X123405450Y-48672697D02*
X123500688Y-48720316D01*
X123500688Y-48720316D02*
X123548307Y-48767935D01*
X123548307Y-48767935D02*
X123595926Y-48863173D01*
X123595926Y-48863173D02*
X123595926Y-49244125D01*
X123167355Y-48291744D02*
X123119736Y-48244125D01*
X123119736Y-48244125D02*
X123072117Y-48148887D01*
X123072117Y-48148887D02*
X123072117Y-47910792D01*
X123072117Y-47910792D02*
X123119736Y-47815554D01*
X123119736Y-47815554D02*
X123167355Y-47767935D01*
X123167355Y-47767935D02*
X123262593Y-47720316D01*
X123262593Y-47720316D02*
X123357831Y-47720316D01*
X123357831Y-47720316D02*
X123500688Y-47767935D01*
X123500688Y-47767935D02*
X124072117Y-48339363D01*
X124072117Y-48339363D02*
X124072117Y-47720316D01*
X120497438Y-49256904D02*
X120449819Y-49352142D01*
X120449819Y-49352142D02*
X120449819Y-49494999D01*
X120449819Y-49494999D02*
X120497438Y-49637856D01*
X120497438Y-49637856D02*
X120592676Y-49733094D01*
X120592676Y-49733094D02*
X120687914Y-49780713D01*
X120687914Y-49780713D02*
X120878390Y-49828332D01*
X120878390Y-49828332D02*
X121021247Y-49828332D01*
X121021247Y-49828332D02*
X121211723Y-49780713D01*
X121211723Y-49780713D02*
X121306961Y-49733094D01*
X121306961Y-49733094D02*
X121402200Y-49637856D01*
X121402200Y-49637856D02*
X121449819Y-49494999D01*
X121449819Y-49494999D02*
X121449819Y-49399761D01*
X121449819Y-49399761D02*
X121402200Y-49256904D01*
X121402200Y-49256904D02*
X121354580Y-49209285D01*
X121354580Y-49209285D02*
X121021247Y-49209285D01*
X121021247Y-49209285D02*
X121021247Y-49399761D01*
X121449819Y-48780713D02*
X120449819Y-48780713D01*
X120449819Y-48780713D02*
X121449819Y-48209285D01*
X121449819Y-48209285D02*
X120449819Y-48209285D01*
X121449819Y-47733094D02*
X120449819Y-47733094D01*
X120449819Y-47733094D02*
X120449819Y-47494999D01*
X120449819Y-47494999D02*
X120497438Y-47352142D01*
X120497438Y-47352142D02*
X120592676Y-47256904D01*
X120592676Y-47256904D02*
X120687914Y-47209285D01*
X120687914Y-47209285D02*
X120878390Y-47161666D01*
X120878390Y-47161666D02*
X121021247Y-47161666D01*
X121021247Y-47161666D02*
X121211723Y-47209285D01*
X121211723Y-47209285D02*
X121306961Y-47256904D01*
X121306961Y-47256904D02*
X121402200Y-47352142D01*
X121402200Y-47352142D02*
X121449819Y-47494999D01*
X121449819Y-47494999D02*
X121449819Y-47733094D01*
X131609819Y-40769285D02*
X130609819Y-40769285D01*
X130609819Y-40769285D02*
X130609819Y-40388333D01*
X130609819Y-40388333D02*
X130657438Y-40293095D01*
X130657438Y-40293095D02*
X130705057Y-40245476D01*
X130705057Y-40245476D02*
X130800295Y-40197857D01*
X130800295Y-40197857D02*
X130943152Y-40197857D01*
X130943152Y-40197857D02*
X131038390Y-40245476D01*
X131038390Y-40245476D02*
X131086009Y-40293095D01*
X131086009Y-40293095D02*
X131133628Y-40388333D01*
X131133628Y-40388333D02*
X131133628Y-40769285D01*
X131609819Y-39245476D02*
X131609819Y-39816904D01*
X131609819Y-39531190D02*
X130609819Y-39531190D01*
X130609819Y-39531190D02*
X130752676Y-39626428D01*
X130752676Y-39626428D02*
X130847914Y-39721666D01*
X130847914Y-39721666D02*
X130895533Y-39816904D01*
X131038390Y-38674047D02*
X130990771Y-38769285D01*
X130990771Y-38769285D02*
X130943152Y-38816904D01*
X130943152Y-38816904D02*
X130847914Y-38864523D01*
X130847914Y-38864523D02*
X130800295Y-38864523D01*
X130800295Y-38864523D02*
X130705057Y-38816904D01*
X130705057Y-38816904D02*
X130657438Y-38769285D01*
X130657438Y-38769285D02*
X130609819Y-38674047D01*
X130609819Y-38674047D02*
X130609819Y-38483571D01*
X130609819Y-38483571D02*
X130657438Y-38388333D01*
X130657438Y-38388333D02*
X130705057Y-38340714D01*
X130705057Y-38340714D02*
X130800295Y-38293095D01*
X130800295Y-38293095D02*
X130847914Y-38293095D01*
X130847914Y-38293095D02*
X130943152Y-38340714D01*
X130943152Y-38340714D02*
X130990771Y-38388333D01*
X130990771Y-38388333D02*
X131038390Y-38483571D01*
X131038390Y-38483571D02*
X131038390Y-38674047D01*
X131038390Y-38674047D02*
X131086009Y-38769285D01*
X131086009Y-38769285D02*
X131133628Y-38816904D01*
X131133628Y-38816904D02*
X131228866Y-38864523D01*
X131228866Y-38864523D02*
X131419342Y-38864523D01*
X131419342Y-38864523D02*
X131514580Y-38816904D01*
X131514580Y-38816904D02*
X131562200Y-38769285D01*
X131562200Y-38769285D02*
X131609819Y-38674047D01*
X131609819Y-38674047D02*
X131609819Y-38483571D01*
X131609819Y-38483571D02*
X131562200Y-38388333D01*
X131562200Y-38388333D02*
X131514580Y-38340714D01*
X131514580Y-38340714D02*
X131419342Y-38293095D01*
X131419342Y-38293095D02*
X131228866Y-38293095D01*
X131228866Y-38293095D02*
X131133628Y-38340714D01*
X131133628Y-38340714D02*
X131086009Y-38388333D01*
X131086009Y-38388333D02*
X131038390Y-38483571D01*
X113829819Y-49233094D02*
X112829819Y-49233094D01*
X112829819Y-49233094D02*
X112829819Y-48852142D01*
X112829819Y-48852142D02*
X112877438Y-48756904D01*
X112877438Y-48756904D02*
X112925057Y-48709285D01*
X112925057Y-48709285D02*
X113020295Y-48661666D01*
X113020295Y-48661666D02*
X113163152Y-48661666D01*
X113163152Y-48661666D02*
X113258390Y-48709285D01*
X113258390Y-48709285D02*
X113306009Y-48756904D01*
X113306009Y-48756904D02*
X113353628Y-48852142D01*
X113353628Y-48852142D02*
X113353628Y-49233094D01*
X113829819Y-47709285D02*
X113829819Y-48280713D01*
X113829819Y-47994999D02*
X112829819Y-47994999D01*
X112829819Y-47994999D02*
X112972676Y-48090237D01*
X112972676Y-48090237D02*
X113067914Y-48185475D01*
X113067914Y-48185475D02*
X113115533Y-48280713D01*
X144454819Y-52809524D02*
X143454819Y-52809524D01*
X143454819Y-52809524D02*
X143454819Y-52428572D01*
X143454819Y-52428572D02*
X143502438Y-52333334D01*
X143502438Y-52333334D02*
X143550057Y-52285715D01*
X143550057Y-52285715D02*
X143645295Y-52238096D01*
X143645295Y-52238096D02*
X143788152Y-52238096D01*
X143788152Y-52238096D02*
X143883390Y-52285715D01*
X143883390Y-52285715D02*
X143931009Y-52333334D01*
X143931009Y-52333334D02*
X143978628Y-52428572D01*
X143978628Y-52428572D02*
X143978628Y-52809524D01*
X143454819Y-51380953D02*
X143454819Y-51571429D01*
X143454819Y-51571429D02*
X143502438Y-51666667D01*
X143502438Y-51666667D02*
X143550057Y-51714286D01*
X143550057Y-51714286D02*
X143692914Y-51809524D01*
X143692914Y-51809524D02*
X143883390Y-51857143D01*
X143883390Y-51857143D02*
X144264342Y-51857143D01*
X144264342Y-51857143D02*
X144359580Y-51809524D01*
X144359580Y-51809524D02*
X144407200Y-51761905D01*
X144407200Y-51761905D02*
X144454819Y-51666667D01*
X144454819Y-51666667D02*
X144454819Y-51476191D01*
X144454819Y-51476191D02*
X144407200Y-51380953D01*
X144407200Y-51380953D02*
X144359580Y-51333334D01*
X144359580Y-51333334D02*
X144264342Y-51285715D01*
X144264342Y-51285715D02*
X144026247Y-51285715D01*
X144026247Y-51285715D02*
X143931009Y-51333334D01*
X143931009Y-51333334D02*
X143883390Y-51380953D01*
X143883390Y-51380953D02*
X143835771Y-51476191D01*
X143835771Y-51476191D02*
X143835771Y-51666667D01*
X143835771Y-51666667D02*
X143883390Y-51761905D01*
X143883390Y-51761905D02*
X143931009Y-51809524D01*
X143931009Y-51809524D02*
X144026247Y-51857143D01*
X144454819Y-50809524D02*
X144454819Y-50619048D01*
X144454819Y-50619048D02*
X144407200Y-50523810D01*
X144407200Y-50523810D02*
X144359580Y-50476191D01*
X144359580Y-50476191D02*
X144216723Y-50380953D01*
X144216723Y-50380953D02*
X144026247Y-50333334D01*
X144026247Y-50333334D02*
X143645295Y-50333334D01*
X143645295Y-50333334D02*
X143550057Y-50380953D01*
X143550057Y-50380953D02*
X143502438Y-50428572D01*
X143502438Y-50428572D02*
X143454819Y-50523810D01*
X143454819Y-50523810D02*
X143454819Y-50714286D01*
X143454819Y-50714286D02*
X143502438Y-50809524D01*
X143502438Y-50809524D02*
X143550057Y-50857143D01*
X143550057Y-50857143D02*
X143645295Y-50904762D01*
X143645295Y-50904762D02*
X143883390Y-50904762D01*
X143883390Y-50904762D02*
X143978628Y-50857143D01*
X143978628Y-50857143D02*
X144026247Y-50809524D01*
X144026247Y-50809524D02*
X144073866Y-50714286D01*
X144073866Y-50714286D02*
X144073866Y-50523810D01*
X144073866Y-50523810D02*
X144026247Y-50428572D01*
X144026247Y-50428572D02*
X143978628Y-50380953D01*
X143978628Y-50380953D02*
X143883390Y-50333334D01*
X144454819Y-49142857D02*
X143454819Y-49142857D01*
X144454819Y-48714286D02*
X143931009Y-48714286D01*
X143931009Y-48714286D02*
X143835771Y-48761905D01*
X143835771Y-48761905D02*
X143788152Y-48857143D01*
X143788152Y-48857143D02*
X143788152Y-49000000D01*
X143788152Y-49000000D02*
X143835771Y-49095238D01*
X143835771Y-49095238D02*
X143883390Y-49142857D01*
X144454819Y-47809524D02*
X143931009Y-47809524D01*
X143931009Y-47809524D02*
X143835771Y-47857143D01*
X143835771Y-47857143D02*
X143788152Y-47952381D01*
X143788152Y-47952381D02*
X143788152Y-48142857D01*
X143788152Y-48142857D02*
X143835771Y-48238095D01*
X144407200Y-47809524D02*
X144454819Y-47904762D01*
X144454819Y-47904762D02*
X144454819Y-48142857D01*
X144454819Y-48142857D02*
X144407200Y-48238095D01*
X144407200Y-48238095D02*
X144311961Y-48285714D01*
X144311961Y-48285714D02*
X144216723Y-48285714D01*
X144216723Y-48285714D02*
X144121485Y-48238095D01*
X144121485Y-48238095D02*
X144073866Y-48142857D01*
X144073866Y-48142857D02*
X144073866Y-47904762D01*
X144073866Y-47904762D02*
X144026247Y-47809524D01*
X144454819Y-47333333D02*
X143454819Y-47333333D01*
X144454819Y-46904762D02*
X143931009Y-46904762D01*
X143931009Y-46904762D02*
X143835771Y-46952381D01*
X143835771Y-46952381D02*
X143788152Y-47047619D01*
X143788152Y-47047619D02*
X143788152Y-47190476D01*
X143788152Y-47190476D02*
X143835771Y-47285714D01*
X143835771Y-47285714D02*
X143883390Y-47333333D01*
X144454819Y-46000000D02*
X143931009Y-46000000D01*
X143931009Y-46000000D02*
X143835771Y-46047619D01*
X143835771Y-46047619D02*
X143788152Y-46142857D01*
X143788152Y-46142857D02*
X143788152Y-46333333D01*
X143788152Y-46333333D02*
X143835771Y-46428571D01*
X144407200Y-46000000D02*
X144454819Y-46095238D01*
X144454819Y-46095238D02*
X144454819Y-46333333D01*
X144454819Y-46333333D02*
X144407200Y-46428571D01*
X144407200Y-46428571D02*
X144311961Y-46476190D01*
X144311961Y-46476190D02*
X144216723Y-46476190D01*
X144216723Y-46476190D02*
X144121485Y-46428571D01*
X144121485Y-46428571D02*
X144073866Y-46333333D01*
X144073866Y-46333333D02*
X144073866Y-46095238D01*
X144073866Y-46095238D02*
X144026247Y-46000000D01*
X143788152Y-44904761D02*
X143788152Y-44523809D01*
X144454819Y-44761904D02*
X143597676Y-44761904D01*
X143597676Y-44761904D02*
X143502438Y-44714285D01*
X143502438Y-44714285D02*
X143454819Y-44619047D01*
X143454819Y-44619047D02*
X143454819Y-44523809D01*
X143788152Y-43761904D02*
X144454819Y-43761904D01*
X143788152Y-44190475D02*
X144311961Y-44190475D01*
X144311961Y-44190475D02*
X144407200Y-44142856D01*
X144407200Y-44142856D02*
X144454819Y-44047618D01*
X144454819Y-44047618D02*
X144454819Y-43904761D01*
X144454819Y-43904761D02*
X144407200Y-43809523D01*
X144407200Y-43809523D02*
X144359580Y-43761904D01*
X143788152Y-43285713D02*
X144454819Y-43285713D01*
X143883390Y-43285713D02*
X143835771Y-43238094D01*
X143835771Y-43238094D02*
X143788152Y-43142856D01*
X143788152Y-43142856D02*
X143788152Y-42999999D01*
X143788152Y-42999999D02*
X143835771Y-42904761D01*
X143835771Y-42904761D02*
X143931009Y-42857142D01*
X143931009Y-42857142D02*
X144454819Y-42857142D01*
X143788152Y-42380951D02*
X144454819Y-42380951D01*
X143883390Y-42380951D02*
X143835771Y-42333332D01*
X143835771Y-42333332D02*
X143788152Y-42238094D01*
X143788152Y-42238094D02*
X143788152Y-42095237D01*
X143788152Y-42095237D02*
X143835771Y-41999999D01*
X143835771Y-41999999D02*
X143931009Y-41952380D01*
X143931009Y-41952380D02*
X144454819Y-41952380D01*
X143788152Y-41571427D02*
X144454819Y-41333332D01*
X143788152Y-41095237D02*
X144454819Y-41333332D01*
X144454819Y-41333332D02*
X144692914Y-41428570D01*
X144692914Y-41428570D02*
X144740533Y-41476189D01*
X144740533Y-41476189D02*
X144788152Y-41571427D01*
X126529819Y-40769285D02*
X125529819Y-40769285D01*
X125529819Y-40769285D02*
X125529819Y-40388333D01*
X125529819Y-40388333D02*
X125577438Y-40293095D01*
X125577438Y-40293095D02*
X125625057Y-40245476D01*
X125625057Y-40245476D02*
X125720295Y-40197857D01*
X125720295Y-40197857D02*
X125863152Y-40197857D01*
X125863152Y-40197857D02*
X125958390Y-40245476D01*
X125958390Y-40245476D02*
X126006009Y-40293095D01*
X126006009Y-40293095D02*
X126053628Y-40388333D01*
X126053628Y-40388333D02*
X126053628Y-40769285D01*
X125625057Y-39816904D02*
X125577438Y-39769285D01*
X125577438Y-39769285D02*
X125529819Y-39674047D01*
X125529819Y-39674047D02*
X125529819Y-39435952D01*
X125529819Y-39435952D02*
X125577438Y-39340714D01*
X125577438Y-39340714D02*
X125625057Y-39293095D01*
X125625057Y-39293095D02*
X125720295Y-39245476D01*
X125720295Y-39245476D02*
X125815533Y-39245476D01*
X125815533Y-39245476D02*
X125958390Y-39293095D01*
X125958390Y-39293095D02*
X126529819Y-39864523D01*
X126529819Y-39864523D02*
X126529819Y-39245476D01*
X125529819Y-38626428D02*
X125529819Y-38531190D01*
X125529819Y-38531190D02*
X125577438Y-38435952D01*
X125577438Y-38435952D02*
X125625057Y-38388333D01*
X125625057Y-38388333D02*
X125720295Y-38340714D01*
X125720295Y-38340714D02*
X125910771Y-38293095D01*
X125910771Y-38293095D02*
X126148866Y-38293095D01*
X126148866Y-38293095D02*
X126339342Y-38340714D01*
X126339342Y-38340714D02*
X126434580Y-38388333D01*
X126434580Y-38388333D02*
X126482200Y-38435952D01*
X126482200Y-38435952D02*
X126529819Y-38531190D01*
X126529819Y-38531190D02*
X126529819Y-38626428D01*
X126529819Y-38626428D02*
X126482200Y-38721666D01*
X126482200Y-38721666D02*
X126434580Y-38769285D01*
X126434580Y-38769285D02*
X126339342Y-38816904D01*
X126339342Y-38816904D02*
X126148866Y-38864523D01*
X126148866Y-38864523D02*
X125910771Y-38864523D01*
X125910771Y-38864523D02*
X125720295Y-38816904D01*
X125720295Y-38816904D02*
X125625057Y-38769285D01*
X125625057Y-38769285D02*
X125577438Y-38721666D01*
X125577438Y-38721666D02*
X125529819Y-38626428D01*
X129069819Y-40769285D02*
X128069819Y-40769285D01*
X128069819Y-40769285D02*
X128069819Y-40388333D01*
X128069819Y-40388333D02*
X128117438Y-40293095D01*
X128117438Y-40293095D02*
X128165057Y-40245476D01*
X128165057Y-40245476D02*
X128260295Y-40197857D01*
X128260295Y-40197857D02*
X128403152Y-40197857D01*
X128403152Y-40197857D02*
X128498390Y-40245476D01*
X128498390Y-40245476D02*
X128546009Y-40293095D01*
X128546009Y-40293095D02*
X128593628Y-40388333D01*
X128593628Y-40388333D02*
X128593628Y-40769285D01*
X129069819Y-39245476D02*
X129069819Y-39816904D01*
X129069819Y-39531190D02*
X128069819Y-39531190D01*
X128069819Y-39531190D02*
X128212676Y-39626428D01*
X128212676Y-39626428D02*
X128307914Y-39721666D01*
X128307914Y-39721666D02*
X128355533Y-39816904D01*
X129069819Y-38769285D02*
X129069819Y-38578809D01*
X129069819Y-38578809D02*
X129022200Y-38483571D01*
X129022200Y-38483571D02*
X128974580Y-38435952D01*
X128974580Y-38435952D02*
X128831723Y-38340714D01*
X128831723Y-38340714D02*
X128641247Y-38293095D01*
X128641247Y-38293095D02*
X128260295Y-38293095D01*
X128260295Y-38293095D02*
X128165057Y-38340714D01*
X128165057Y-38340714D02*
X128117438Y-38388333D01*
X128117438Y-38388333D02*
X128069819Y-38483571D01*
X128069819Y-38483571D02*
X128069819Y-38674047D01*
X128069819Y-38674047D02*
X128117438Y-38769285D01*
X128117438Y-38769285D02*
X128165057Y-38816904D01*
X128165057Y-38816904D02*
X128260295Y-38864523D01*
X128260295Y-38864523D02*
X128498390Y-38864523D01*
X128498390Y-38864523D02*
X128593628Y-38816904D01*
X128593628Y-38816904D02*
X128641247Y-38769285D01*
X128641247Y-38769285D02*
X128688866Y-38674047D01*
X128688866Y-38674047D02*
X128688866Y-38483571D01*
X128688866Y-38483571D02*
X128641247Y-38388333D01*
X128641247Y-38388333D02*
X128593628Y-38340714D01*
X128593628Y-38340714D02*
X128498390Y-38293095D01*
X120449819Y-40888332D02*
X121449819Y-40554999D01*
X121449819Y-40554999D02*
X120449819Y-40221666D01*
X121354580Y-39316904D02*
X121402200Y-39364523D01*
X121402200Y-39364523D02*
X121449819Y-39507380D01*
X121449819Y-39507380D02*
X121449819Y-39602618D01*
X121449819Y-39602618D02*
X121402200Y-39745475D01*
X121402200Y-39745475D02*
X121306961Y-39840713D01*
X121306961Y-39840713D02*
X121211723Y-39888332D01*
X121211723Y-39888332D02*
X121021247Y-39935951D01*
X121021247Y-39935951D02*
X120878390Y-39935951D01*
X120878390Y-39935951D02*
X120687914Y-39888332D01*
X120687914Y-39888332D02*
X120592676Y-39840713D01*
X120592676Y-39840713D02*
X120497438Y-39745475D01*
X120497438Y-39745475D02*
X120449819Y-39602618D01*
X120449819Y-39602618D02*
X120449819Y-39507380D01*
X120449819Y-39507380D02*
X120497438Y-39364523D01*
X120497438Y-39364523D02*
X120545057Y-39316904D01*
X121354580Y-38316904D02*
X121402200Y-38364523D01*
X121402200Y-38364523D02*
X121449819Y-38507380D01*
X121449819Y-38507380D02*
X121449819Y-38602618D01*
X121449819Y-38602618D02*
X121402200Y-38745475D01*
X121402200Y-38745475D02*
X121306961Y-38840713D01*
X121306961Y-38840713D02*
X121211723Y-38888332D01*
X121211723Y-38888332D02*
X121021247Y-38935951D01*
X121021247Y-38935951D02*
X120878390Y-38935951D01*
X120878390Y-38935951D02*
X120687914Y-38888332D01*
X120687914Y-38888332D02*
X120592676Y-38840713D01*
X120592676Y-38840713D02*
X120497438Y-38745475D01*
X120497438Y-38745475D02*
X120449819Y-38602618D01*
X120449819Y-38602618D02*
X120449819Y-38507380D01*
X120449819Y-38507380D02*
X120497438Y-38364523D01*
X120497438Y-38364523D02*
X120545057Y-38316904D01*
X134149819Y-49233094D02*
X133149819Y-49233094D01*
X133149819Y-49233094D02*
X133149819Y-48852142D01*
X133149819Y-48852142D02*
X133197438Y-48756904D01*
X133197438Y-48756904D02*
X133245057Y-48709285D01*
X133245057Y-48709285D02*
X133340295Y-48661666D01*
X133340295Y-48661666D02*
X133483152Y-48661666D01*
X133483152Y-48661666D02*
X133578390Y-48709285D01*
X133578390Y-48709285D02*
X133626009Y-48756904D01*
X133626009Y-48756904D02*
X133673628Y-48852142D01*
X133673628Y-48852142D02*
X133673628Y-49233094D01*
X133149819Y-47804523D02*
X133149819Y-47994999D01*
X133149819Y-47994999D02*
X133197438Y-48090237D01*
X133197438Y-48090237D02*
X133245057Y-48137856D01*
X133245057Y-48137856D02*
X133387914Y-48233094D01*
X133387914Y-48233094D02*
X133578390Y-48280713D01*
X133578390Y-48280713D02*
X133959342Y-48280713D01*
X133959342Y-48280713D02*
X134054580Y-48233094D01*
X134054580Y-48233094D02*
X134102200Y-48185475D01*
X134102200Y-48185475D02*
X134149819Y-48090237D01*
X134149819Y-48090237D02*
X134149819Y-47899761D01*
X134149819Y-47899761D02*
X134102200Y-47804523D01*
X134102200Y-47804523D02*
X134054580Y-47756904D01*
X134054580Y-47756904D02*
X133959342Y-47709285D01*
X133959342Y-47709285D02*
X133721247Y-47709285D01*
X133721247Y-47709285D02*
X133626009Y-47756904D01*
X133626009Y-47756904D02*
X133578390Y-47804523D01*
X133578390Y-47804523D02*
X133530771Y-47899761D01*
X133530771Y-47899761D02*
X133530771Y-48090237D01*
X133530771Y-48090237D02*
X133578390Y-48185475D01*
X133578390Y-48185475D02*
X133626009Y-48233094D01*
X133626009Y-48233094D02*
X133721247Y-48280713D01*
X134149819Y-40769285D02*
X133149819Y-40769285D01*
X133149819Y-40769285D02*
X133149819Y-40388333D01*
X133149819Y-40388333D02*
X133197438Y-40293095D01*
X133197438Y-40293095D02*
X133245057Y-40245476D01*
X133245057Y-40245476D02*
X133340295Y-40197857D01*
X133340295Y-40197857D02*
X133483152Y-40197857D01*
X133483152Y-40197857D02*
X133578390Y-40245476D01*
X133578390Y-40245476D02*
X133626009Y-40293095D01*
X133626009Y-40293095D02*
X133673628Y-40388333D01*
X133673628Y-40388333D02*
X133673628Y-40769285D01*
X134149819Y-39245476D02*
X134149819Y-39816904D01*
X134149819Y-39531190D02*
X133149819Y-39531190D01*
X133149819Y-39531190D02*
X133292676Y-39626428D01*
X133292676Y-39626428D02*
X133387914Y-39721666D01*
X133387914Y-39721666D02*
X133435533Y-39816904D01*
X133149819Y-38340714D02*
X133149819Y-38816904D01*
X133149819Y-38816904D02*
X133626009Y-38864523D01*
X133626009Y-38864523D02*
X133578390Y-38816904D01*
X133578390Y-38816904D02*
X133530771Y-38721666D01*
X133530771Y-38721666D02*
X133530771Y-38483571D01*
X133530771Y-38483571D02*
X133578390Y-38388333D01*
X133578390Y-38388333D02*
X133626009Y-38340714D01*
X133626009Y-38340714D02*
X133721247Y-38293095D01*
X133721247Y-38293095D02*
X133959342Y-38293095D01*
X133959342Y-38293095D02*
X134054580Y-38340714D01*
X134054580Y-38340714D02*
X134102200Y-38388333D01*
X134102200Y-38388333D02*
X134149819Y-38483571D01*
X134149819Y-38483571D02*
X134149819Y-38721666D01*
X134149819Y-38721666D02*
X134102200Y-38816904D01*
X134102200Y-38816904D02*
X134054580Y-38864523D01*
X131609819Y-49233094D02*
X130609819Y-49233094D01*
X130609819Y-49233094D02*
X130609819Y-48852142D01*
X130609819Y-48852142D02*
X130657438Y-48756904D01*
X130657438Y-48756904D02*
X130705057Y-48709285D01*
X130705057Y-48709285D02*
X130800295Y-48661666D01*
X130800295Y-48661666D02*
X130943152Y-48661666D01*
X130943152Y-48661666D02*
X131038390Y-48709285D01*
X131038390Y-48709285D02*
X131086009Y-48756904D01*
X131086009Y-48756904D02*
X131133628Y-48852142D01*
X131133628Y-48852142D02*
X131133628Y-49233094D01*
X130609819Y-47756904D02*
X130609819Y-48233094D01*
X130609819Y-48233094D02*
X131086009Y-48280713D01*
X131086009Y-48280713D02*
X131038390Y-48233094D01*
X131038390Y-48233094D02*
X130990771Y-48137856D01*
X130990771Y-48137856D02*
X130990771Y-47899761D01*
X130990771Y-47899761D02*
X131038390Y-47804523D01*
X131038390Y-47804523D02*
X131086009Y-47756904D01*
X131086009Y-47756904D02*
X131181247Y-47709285D01*
X131181247Y-47709285D02*
X131419342Y-47709285D01*
X131419342Y-47709285D02*
X131514580Y-47756904D01*
X131514580Y-47756904D02*
X131562200Y-47804523D01*
X131562200Y-47804523D02*
X131609819Y-47899761D01*
X131609819Y-47899761D02*
X131609819Y-48137856D01*
X131609819Y-48137856D02*
X131562200Y-48233094D01*
X131562200Y-48233094D02*
X131514580Y-48280713D01*
X126529819Y-49233094D02*
X125529819Y-49233094D01*
X125529819Y-49233094D02*
X125529819Y-48852142D01*
X125529819Y-48852142D02*
X125577438Y-48756904D01*
X125577438Y-48756904D02*
X125625057Y-48709285D01*
X125625057Y-48709285D02*
X125720295Y-48661666D01*
X125720295Y-48661666D02*
X125863152Y-48661666D01*
X125863152Y-48661666D02*
X125958390Y-48709285D01*
X125958390Y-48709285D02*
X126006009Y-48756904D01*
X126006009Y-48756904D02*
X126053628Y-48852142D01*
X126053628Y-48852142D02*
X126053628Y-49233094D01*
X125529819Y-48328332D02*
X125529819Y-47709285D01*
X125529819Y-47709285D02*
X125910771Y-48042618D01*
X125910771Y-48042618D02*
X125910771Y-47899761D01*
X125910771Y-47899761D02*
X125958390Y-47804523D01*
X125958390Y-47804523D02*
X126006009Y-47756904D01*
X126006009Y-47756904D02*
X126101247Y-47709285D01*
X126101247Y-47709285D02*
X126339342Y-47709285D01*
X126339342Y-47709285D02*
X126434580Y-47756904D01*
X126434580Y-47756904D02*
X126482200Y-47804523D01*
X126482200Y-47804523D02*
X126529819Y-47899761D01*
X126529819Y-47899761D02*
X126529819Y-48185475D01*
X126529819Y-48185475D02*
X126482200Y-48280713D01*
X126482200Y-48280713D02*
X126434580Y-48328332D01*
X139229819Y-40769285D02*
X138229819Y-40769285D01*
X138229819Y-40769285D02*
X138229819Y-40388333D01*
X138229819Y-40388333D02*
X138277438Y-40293095D01*
X138277438Y-40293095D02*
X138325057Y-40245476D01*
X138325057Y-40245476D02*
X138420295Y-40197857D01*
X138420295Y-40197857D02*
X138563152Y-40197857D01*
X138563152Y-40197857D02*
X138658390Y-40245476D01*
X138658390Y-40245476D02*
X138706009Y-40293095D01*
X138706009Y-40293095D02*
X138753628Y-40388333D01*
X138753628Y-40388333D02*
X138753628Y-40769285D01*
X139229819Y-39245476D02*
X139229819Y-39816904D01*
X139229819Y-39531190D02*
X138229819Y-39531190D01*
X138229819Y-39531190D02*
X138372676Y-39626428D01*
X138372676Y-39626428D02*
X138467914Y-39721666D01*
X138467914Y-39721666D02*
X138515533Y-39816904D01*
X138229819Y-38388333D02*
X138229819Y-38578809D01*
X138229819Y-38578809D02*
X138277438Y-38674047D01*
X138277438Y-38674047D02*
X138325057Y-38721666D01*
X138325057Y-38721666D02*
X138467914Y-38816904D01*
X138467914Y-38816904D02*
X138658390Y-38864523D01*
X138658390Y-38864523D02*
X139039342Y-38864523D01*
X139039342Y-38864523D02*
X139134580Y-38816904D01*
X139134580Y-38816904D02*
X139182200Y-38769285D01*
X139182200Y-38769285D02*
X139229819Y-38674047D01*
X139229819Y-38674047D02*
X139229819Y-38483571D01*
X139229819Y-38483571D02*
X139182200Y-38388333D01*
X139182200Y-38388333D02*
X139134580Y-38340714D01*
X139134580Y-38340714D02*
X139039342Y-38293095D01*
X139039342Y-38293095D02*
X138801247Y-38293095D01*
X138801247Y-38293095D02*
X138706009Y-38340714D01*
X138706009Y-38340714D02*
X138658390Y-38388333D01*
X138658390Y-38388333D02*
X138610771Y-38483571D01*
X138610771Y-38483571D02*
X138610771Y-38674047D01*
X138610771Y-38674047D02*
X138658390Y-38769285D01*
X138658390Y-38769285D02*
X138706009Y-38816904D01*
X138706009Y-38816904D02*
X138801247Y-38864523D01*
X113829819Y-40245476D02*
X113353628Y-40578809D01*
X113829819Y-40816904D02*
X112829819Y-40816904D01*
X112829819Y-40816904D02*
X112829819Y-40435952D01*
X112829819Y-40435952D02*
X112877438Y-40340714D01*
X112877438Y-40340714D02*
X112925057Y-40293095D01*
X112925057Y-40293095D02*
X113020295Y-40245476D01*
X113020295Y-40245476D02*
X113163152Y-40245476D01*
X113163152Y-40245476D02*
X113258390Y-40293095D01*
X113258390Y-40293095D02*
X113306009Y-40340714D01*
X113306009Y-40340714D02*
X113353628Y-40435952D01*
X113353628Y-40435952D02*
X113353628Y-40816904D01*
X113544104Y-39864523D02*
X113544104Y-39388333D01*
X113829819Y-39959761D02*
X112829819Y-39626428D01*
X112829819Y-39626428D02*
X113829819Y-39293095D01*
X112829819Y-39054999D02*
X113829819Y-38816904D01*
X113829819Y-38816904D02*
X113115533Y-38626428D01*
X113115533Y-38626428D02*
X113829819Y-38435952D01*
X113829819Y-38435952D02*
X112829819Y-38197857D01*
X117957438Y-49256904D02*
X117909819Y-49352142D01*
X117909819Y-49352142D02*
X117909819Y-49494999D01*
X117909819Y-49494999D02*
X117957438Y-49637856D01*
X117957438Y-49637856D02*
X118052676Y-49733094D01*
X118052676Y-49733094D02*
X118147914Y-49780713D01*
X118147914Y-49780713D02*
X118338390Y-49828332D01*
X118338390Y-49828332D02*
X118481247Y-49828332D01*
X118481247Y-49828332D02*
X118671723Y-49780713D01*
X118671723Y-49780713D02*
X118766961Y-49733094D01*
X118766961Y-49733094D02*
X118862200Y-49637856D01*
X118862200Y-49637856D02*
X118909819Y-49494999D01*
X118909819Y-49494999D02*
X118909819Y-49399761D01*
X118909819Y-49399761D02*
X118862200Y-49256904D01*
X118862200Y-49256904D02*
X118814580Y-49209285D01*
X118814580Y-49209285D02*
X118481247Y-49209285D01*
X118481247Y-49209285D02*
X118481247Y-49399761D01*
X118909819Y-48780713D02*
X117909819Y-48780713D01*
X117909819Y-48780713D02*
X118909819Y-48209285D01*
X118909819Y-48209285D02*
X117909819Y-48209285D01*
X118909819Y-47733094D02*
X117909819Y-47733094D01*
X117909819Y-47733094D02*
X117909819Y-47494999D01*
X117909819Y-47494999D02*
X117957438Y-47352142D01*
X117957438Y-47352142D02*
X118052676Y-47256904D01*
X118052676Y-47256904D02*
X118147914Y-47209285D01*
X118147914Y-47209285D02*
X118338390Y-47161666D01*
X118338390Y-47161666D02*
X118481247Y-47161666D01*
X118481247Y-47161666D02*
X118671723Y-47209285D01*
X118671723Y-47209285D02*
X118766961Y-47256904D01*
X118766961Y-47256904D02*
X118862200Y-47352142D01*
X118862200Y-47352142D02*
X118909819Y-47494999D01*
X118909819Y-47494999D02*
X118909819Y-47733094D01*
X116369819Y-54738094D02*
X115369819Y-54738094D01*
X115369819Y-54738094D02*
X115369819Y-54357142D01*
X115369819Y-54357142D02*
X115417438Y-54261904D01*
X115417438Y-54261904D02*
X115465057Y-54214285D01*
X115465057Y-54214285D02*
X115560295Y-54166666D01*
X115560295Y-54166666D02*
X115703152Y-54166666D01*
X115703152Y-54166666D02*
X115798390Y-54214285D01*
X115798390Y-54214285D02*
X115846009Y-54261904D01*
X115846009Y-54261904D02*
X115893628Y-54357142D01*
X115893628Y-54357142D02*
X115893628Y-54738094D01*
X115369819Y-53547618D02*
X115369819Y-53452380D01*
X115369819Y-53452380D02*
X115417438Y-53357142D01*
X115417438Y-53357142D02*
X115465057Y-53309523D01*
X115465057Y-53309523D02*
X115560295Y-53261904D01*
X115560295Y-53261904D02*
X115750771Y-53214285D01*
X115750771Y-53214285D02*
X115988866Y-53214285D01*
X115988866Y-53214285D02*
X116179342Y-53261904D01*
X116179342Y-53261904D02*
X116274580Y-53309523D01*
X116274580Y-53309523D02*
X116322200Y-53357142D01*
X116322200Y-53357142D02*
X116369819Y-53452380D01*
X116369819Y-53452380D02*
X116369819Y-53547618D01*
X116369819Y-53547618D02*
X116322200Y-53642856D01*
X116322200Y-53642856D02*
X116274580Y-53690475D01*
X116274580Y-53690475D02*
X116179342Y-53738094D01*
X116179342Y-53738094D02*
X115988866Y-53785713D01*
X115988866Y-53785713D02*
X115750771Y-53785713D01*
X115750771Y-53785713D02*
X115560295Y-53738094D01*
X115560295Y-53738094D02*
X115465057Y-53690475D01*
X115465057Y-53690475D02*
X115417438Y-53642856D01*
X115417438Y-53642856D02*
X115369819Y-53547618D01*
X136689819Y-40769285D02*
X135689819Y-40769285D01*
X135689819Y-40769285D02*
X135689819Y-40388333D01*
X135689819Y-40388333D02*
X135737438Y-40293095D01*
X135737438Y-40293095D02*
X135785057Y-40245476D01*
X135785057Y-40245476D02*
X135880295Y-40197857D01*
X135880295Y-40197857D02*
X136023152Y-40197857D01*
X136023152Y-40197857D02*
X136118390Y-40245476D01*
X136118390Y-40245476D02*
X136166009Y-40293095D01*
X136166009Y-40293095D02*
X136213628Y-40388333D01*
X136213628Y-40388333D02*
X136213628Y-40769285D01*
X136689819Y-39245476D02*
X136689819Y-39816904D01*
X136689819Y-39531190D02*
X135689819Y-39531190D01*
X135689819Y-39531190D02*
X135832676Y-39626428D01*
X135832676Y-39626428D02*
X135927914Y-39721666D01*
X135927914Y-39721666D02*
X135975533Y-39816904D01*
X136023152Y-38388333D02*
X136689819Y-38388333D01*
X135642200Y-38626428D02*
X136356485Y-38864523D01*
X136356485Y-38864523D02*
X136356485Y-38245476D01*
X178833333Y-50558152D02*
X179023809Y-51224819D01*
X179023809Y-51224819D02*
X179214285Y-50748628D01*
X179214285Y-50748628D02*
X179404761Y-51224819D01*
X179404761Y-51224819D02*
X179595237Y-50558152D01*
X179833333Y-50558152D02*
X180214285Y-50558152D01*
X179976190Y-50224819D02*
X179976190Y-51081961D01*
X179976190Y-51081961D02*
X180023809Y-51177200D01*
X180023809Y-51177200D02*
X180119047Y-51224819D01*
X180119047Y-51224819D02*
X180214285Y-51224819D01*
X180404762Y-50558152D02*
X180785714Y-50558152D01*
X180547619Y-51224819D02*
X180547619Y-50367676D01*
X180547619Y-50367676D02*
X180595238Y-50272438D01*
X180595238Y-50272438D02*
X180690476Y-50224819D01*
X180690476Y-50224819D02*
X180785714Y-50224819D01*
X181880953Y-51224819D02*
X181880953Y-50558152D01*
X181880953Y-50224819D02*
X181833334Y-50272438D01*
X181833334Y-50272438D02*
X181880953Y-50320057D01*
X181880953Y-50320057D02*
X181928572Y-50272438D01*
X181928572Y-50272438D02*
X181880953Y-50224819D01*
X181880953Y-50224819D02*
X181880953Y-50320057D01*
X182309524Y-51177200D02*
X182404762Y-51224819D01*
X182404762Y-51224819D02*
X182595238Y-51224819D01*
X182595238Y-51224819D02*
X182690476Y-51177200D01*
X182690476Y-51177200D02*
X182738095Y-51081961D01*
X182738095Y-51081961D02*
X182738095Y-51034342D01*
X182738095Y-51034342D02*
X182690476Y-50939104D01*
X182690476Y-50939104D02*
X182595238Y-50891485D01*
X182595238Y-50891485D02*
X182452381Y-50891485D01*
X182452381Y-50891485D02*
X182357143Y-50843866D01*
X182357143Y-50843866D02*
X182309524Y-50748628D01*
X182309524Y-50748628D02*
X182309524Y-50701009D01*
X182309524Y-50701009D02*
X182357143Y-50605771D01*
X182357143Y-50605771D02*
X182452381Y-50558152D01*
X182452381Y-50558152D02*
X182595238Y-50558152D01*
X182595238Y-50558152D02*
X182690476Y-50605771D01*
X183785715Y-50558152D02*
X184166667Y-50558152D01*
X183928572Y-50224819D02*
X183928572Y-51081961D01*
X183928572Y-51081961D02*
X183976191Y-51177200D01*
X183976191Y-51177200D02*
X184071429Y-51224819D01*
X184071429Y-51224819D02*
X184166667Y-51224819D01*
X184500001Y-51224819D02*
X184500001Y-50224819D01*
X184928572Y-51224819D02*
X184928572Y-50701009D01*
X184928572Y-50701009D02*
X184880953Y-50605771D01*
X184880953Y-50605771D02*
X184785715Y-50558152D01*
X184785715Y-50558152D02*
X184642858Y-50558152D01*
X184642858Y-50558152D02*
X184547620Y-50605771D01*
X184547620Y-50605771D02*
X184500001Y-50653390D01*
X185404763Y-51224819D02*
X185404763Y-50558152D01*
X185404763Y-50224819D02*
X185357144Y-50272438D01*
X185357144Y-50272438D02*
X185404763Y-50320057D01*
X185404763Y-50320057D02*
X185452382Y-50272438D01*
X185452382Y-50272438D02*
X185404763Y-50224819D01*
X185404763Y-50224819D02*
X185404763Y-50320057D01*
X185833334Y-51177200D02*
X185928572Y-51224819D01*
X185928572Y-51224819D02*
X186119048Y-51224819D01*
X186119048Y-51224819D02*
X186214286Y-51177200D01*
X186214286Y-51177200D02*
X186261905Y-51081961D01*
X186261905Y-51081961D02*
X186261905Y-51034342D01*
X186261905Y-51034342D02*
X186214286Y-50939104D01*
X186214286Y-50939104D02*
X186119048Y-50891485D01*
X186119048Y-50891485D02*
X185976191Y-50891485D01*
X185976191Y-50891485D02*
X185880953Y-50843866D01*
X185880953Y-50843866D02*
X185833334Y-50748628D01*
X185833334Y-50748628D02*
X185833334Y-50701009D01*
X185833334Y-50701009D02*
X185880953Y-50605771D01*
X185880953Y-50605771D02*
X185976191Y-50558152D01*
X185976191Y-50558152D02*
X186119048Y-50558152D01*
X186119048Y-50558152D02*
X186214286Y-50605771D01*
X186833334Y-51129580D02*
X186880953Y-51177200D01*
X186880953Y-51177200D02*
X186833334Y-51224819D01*
X186833334Y-51224819D02*
X186785715Y-51177200D01*
X186785715Y-51177200D02*
X186833334Y-51129580D01*
X186833334Y-51129580D02*
X186833334Y-51224819D01*
X186642858Y-50272438D02*
X186738096Y-50224819D01*
X186738096Y-50224819D02*
X186976191Y-50224819D01*
X186976191Y-50224819D02*
X187071429Y-50272438D01*
X187071429Y-50272438D02*
X187119048Y-50367676D01*
X187119048Y-50367676D02*
X187119048Y-50462914D01*
X187119048Y-50462914D02*
X187071429Y-50558152D01*
X187071429Y-50558152D02*
X187023810Y-50605771D01*
X187023810Y-50605771D02*
X186928572Y-50653390D01*
X186928572Y-50653390D02*
X186880953Y-50701009D01*
X186880953Y-50701009D02*
X186833334Y-50796247D01*
X186833334Y-50796247D02*
X186833334Y-50843866D01*
D14*
%TO.C,JST1*%
X147665000Y-28965000D02*
X147665000Y-29885000D01*
X147665000Y-29885000D02*
X149265000Y-29885000D01*
X147665000Y-34165000D02*
X147665000Y-35085000D01*
X147665000Y-35085000D02*
X155485000Y-35085000D01*
X149265000Y-28965000D02*
X149265000Y-29885000D01*
X149265000Y-29885000D02*
X149265000Y-30165000D01*
X149265000Y-33885000D02*
X148050000Y-33885000D01*
X149265000Y-33885000D02*
X149265000Y-34165000D01*
X149265000Y-34165000D02*
X147665000Y-34165000D01*
X149265000Y-35085000D02*
X149265000Y-34165000D01*
X151125000Y-31525000D02*
X155485000Y-31525000D01*
X151125000Y-32525000D02*
X151125000Y-31525000D01*
X151625000Y-29725000D02*
X153225000Y-29725000D01*
X151625000Y-30725000D02*
X151625000Y-29725000D01*
X151625000Y-33325000D02*
X151625000Y-34325000D01*
X151625000Y-34325000D02*
X153225000Y-34325000D01*
X153225000Y-29725000D02*
X153225000Y-30725000D01*
X153225000Y-30725000D02*
X151625000Y-30725000D01*
X153225000Y-33325000D02*
X151625000Y-33325000D01*
X153225000Y-33325000D02*
X155485000Y-33325000D01*
X153225000Y-33825000D02*
X155485000Y-33825000D01*
X153225000Y-34325000D02*
X153225000Y-33325000D01*
X155485000Y-28965000D02*
X147665000Y-28965000D01*
X155485000Y-32525000D02*
X151125000Y-32525000D01*
X155485000Y-35085000D02*
X155485000Y-28965000D01*
%TO.C,REF\u002A\u002A*%
X131900000Y-28700000D02*
X129600000Y-28700000D01*
X138200000Y-28700000D02*
X136000000Y-28700000D01*
X138200000Y-33300000D02*
X129600000Y-33300000D01*
%TO.C,MCU1*%
X112045000Y-35075000D02*
X142645000Y-35075000D01*
X112045000Y-37735000D02*
X112045000Y-35075000D01*
X112045000Y-37735000D02*
X142645000Y-37735000D01*
X112045000Y-50315000D02*
X142645000Y-50315000D01*
X112045000Y-52975000D02*
X112045000Y-50315000D01*
X112045000Y-52975000D02*
X142645000Y-52975000D01*
X114645000Y-50315000D02*
X114645000Y-52975000D01*
X142645000Y-37735000D02*
X142645000Y-35075000D01*
X142645000Y-52975000D02*
X142645000Y-50315000D01*
%TO.C,wtf is this?*%
X180670000Y-46730000D02*
X180670000Y-39050000D01*
X180670000Y-49330000D02*
X180670000Y-48000000D01*
X182000000Y-49330000D02*
X180670000Y-49330000D01*
X183270000Y-46730000D02*
X180670000Y-46730000D01*
X183270000Y-49330000D02*
X183270000Y-46730000D01*
X185870000Y-39050000D02*
X180670000Y-39050000D01*
X185870000Y-49330000D02*
X183270000Y-49330000D01*
X185870000Y-49330000D02*
X185870000Y-39050000D01*
%TD*%
%LPC*%
G36*
X114000000Y-28000000D02*
G01*
X116000000Y-28000000D01*
X116000000Y-30000000D01*
X114000000Y-30000000D01*
X114000000Y-28000000D01*
G37*
G36*
X111000000Y-28000000D02*
G01*
X113000000Y-28000000D01*
X113000000Y-30000000D01*
X111000000Y-30000000D01*
X111000000Y-28000000D01*
G37*
D15*
%TO.C,JST1*%
X149125000Y-33025000D03*
D16*
X149125000Y-31025000D03*
%TD*%
D17*
%TO.C,REF\u002A\u002A*%
X138000000Y-31000000D03*
X129800000Y-31000000D03*
D18*
X135900000Y-31000000D03*
D19*
X133900000Y-31000000D03*
X131900000Y-31000000D03*
%TD*%
D20*
%TO.C,MCU1*%
X113375000Y-36405000D03*
X115915000Y-36405000D03*
X118455000Y-36405000D03*
X120995000Y-36405000D03*
X123535000Y-36405000D03*
X126075000Y-36405000D03*
X128615000Y-36405000D03*
X131155000Y-36405000D03*
X133695000Y-36405000D03*
X136235000Y-36405000D03*
X138775000Y-36405000D03*
X141315000Y-36405000D03*
X141315000Y-51645000D03*
X138775000Y-51645000D03*
X136235000Y-51645000D03*
X133695000Y-51645000D03*
X131155000Y-51645000D03*
X128615000Y-51645000D03*
X126075000Y-51645000D03*
X123535000Y-51645000D03*
X120995000Y-51645000D03*
X118455000Y-51645000D03*
X115915000Y-51645000D03*
X113375000Y-51645000D03*
%TD*%
D21*
%TO.C,wtf is this?*%
X182000000Y-48000000D03*
D20*
X184540000Y-48000000D03*
X182000000Y-45460000D03*
X184540000Y-45460000D03*
X182000000Y-42920000D03*
X184540000Y-42920000D03*
X182000000Y-40380000D03*
X184540000Y-40380000D03*
%TD*%
D22*
%TO.C,S9*%
X144655000Y-69025000D03*
D23*
X142115000Y-63945000D03*
D24*
X139575000Y-69025000D03*
D23*
X135765000Y-66485000D03*
D22*
X134495000Y-69025000D03*
%TD*%
D25*
%TO.C,D3*%
X117230000Y-112100000D03*
D26*
X124850000Y-112100000D03*
%TD*%
D25*
%TO.C,D4*%
X117230000Y-93050000D03*
D26*
X124850000Y-93050000D03*
%TD*%
D22*
%TO.C,S2*%
X125605000Y-126175000D03*
D23*
X123065000Y-121095000D03*
D24*
X120525000Y-126175000D03*
D23*
X116715000Y-123635000D03*
D22*
X115445000Y-126175000D03*
%TD*%
%TO.C,S8*%
X144655000Y-88075000D03*
D23*
X142115000Y-82995000D03*
D24*
X139575000Y-88075000D03*
D23*
X135765000Y-85535000D03*
D22*
X134495000Y-88075000D03*
%TD*%
%TO.C,S7*%
X144655000Y-107125000D03*
D23*
X142115000Y-102045000D03*
D24*
X139575000Y-107125000D03*
D23*
X135765000Y-104585000D03*
D22*
X134495000Y-107125000D03*
%TD*%
D25*
%TO.C,D7*%
X136280000Y-112100000D03*
D26*
X143900000Y-112100000D03*
%TD*%
D22*
%TO.C,S11*%
X163705000Y-126175000D03*
D23*
X161165000Y-121095000D03*
D24*
X158625000Y-126175000D03*
D23*
X154815000Y-123635000D03*
D22*
X153545000Y-126175000D03*
%TD*%
%TO.C,S5*%
X125605000Y-69025000D03*
D23*
X123065000Y-63945000D03*
D24*
X120525000Y-69025000D03*
D23*
X116715000Y-66485000D03*
D22*
X115445000Y-69025000D03*
%TD*%
D25*
%TO.C,D16*%
X174380000Y-112100000D03*
D26*
X182000000Y-112100000D03*
%TD*%
D25*
%TO.C,D9*%
X136280000Y-74000000D03*
D26*
X143900000Y-74000000D03*
%TD*%
D25*
%TO.C,D10*%
X155330000Y-150200000D03*
D26*
X162950000Y-150200000D03*
%TD*%
D25*
%TO.C,D11*%
X155330000Y-131150000D03*
D26*
X162950000Y-131150000D03*
%TD*%
D25*
%TO.C,D18*%
X174380000Y-74000000D03*
D26*
X182000000Y-74000000D03*
%TD*%
D22*
%TO.C,S4*%
X125605000Y-88075000D03*
D23*
X123065000Y-82995000D03*
D24*
X120525000Y-88075000D03*
D23*
X116715000Y-85535000D03*
D22*
X115445000Y-88075000D03*
%TD*%
%TO.C,S10*%
X163705000Y-145225000D03*
D23*
X161165000Y-140145000D03*
D24*
X158625000Y-145225000D03*
D23*
X154815000Y-142685000D03*
D22*
X153545000Y-145225000D03*
%TD*%
D24*
%TO.C,S15*%
X185930000Y-147638000D03*
X185930000Y-123762000D03*
D22*
X182755000Y-135700000D03*
D23*
X180215000Y-130620000D03*
D24*
X177675000Y-135700000D03*
D23*
X173865000Y-133160000D03*
D22*
X172595000Y-135700000D03*
D27*
X170690000Y-147638000D03*
X170690000Y-123762000D03*
%TD*%
D25*
%TO.C,D15*%
X174380000Y-140675000D03*
D26*
X182000000Y-140675000D03*
%TD*%
D25*
%TO.C,D13*%
X155330000Y-93050000D03*
D26*
X162950000Y-93050000D03*
%TD*%
D25*
%TO.C,D2*%
X117230000Y-131150000D03*
D26*
X124850000Y-131150000D03*
%TD*%
D25*
%TO.C,D6*%
X136280000Y-131150000D03*
D26*
X143900000Y-131150000D03*
%TD*%
D22*
%TO.C,S12*%
X163705000Y-107125000D03*
D23*
X161165000Y-102045000D03*
D24*
X158625000Y-107125000D03*
D23*
X154815000Y-104585000D03*
D22*
X153545000Y-107125000D03*
%TD*%
D25*
%TO.C,D5*%
X117230000Y-74000000D03*
D26*
X124850000Y-74000000D03*
%TD*%
D24*
%TO.C,S1*%
X141988000Y-153480000D03*
D27*
X141988000Y-138240000D03*
D22*
X135130000Y-145225000D03*
D23*
X132590000Y-140145000D03*
D24*
X130050000Y-145225000D03*
D23*
X126240000Y-142685000D03*
D22*
X124970000Y-145225000D03*
D24*
X118112000Y-153480000D03*
D27*
X118112000Y-138240000D03*
%TD*%
D22*
%TO.C,S14*%
X163705000Y-69025000D03*
D23*
X161165000Y-63945000D03*
D24*
X158625000Y-69025000D03*
D23*
X154815000Y-66485000D03*
D22*
X153545000Y-69025000D03*
%TD*%
D25*
%TO.C,D1*%
X126755000Y-150200000D03*
D26*
X134375000Y-150200000D03*
%TD*%
D25*
%TO.C,D12*%
X155330000Y-112100000D03*
D26*
X162950000Y-112100000D03*
%TD*%
D25*
%TO.C,D17*%
X174380000Y-93050000D03*
D26*
X182000000Y-93050000D03*
%TD*%
D22*
%TO.C,S13*%
X163705000Y-88075000D03*
D23*
X161165000Y-82995000D03*
D24*
X158625000Y-88075000D03*
D23*
X154815000Y-85535000D03*
D22*
X153545000Y-88075000D03*
%TD*%
%TO.C,S17*%
X182755000Y-88075000D03*
D23*
X180215000Y-82995000D03*
D24*
X177675000Y-88075000D03*
D23*
X173865000Y-85535000D03*
D22*
X172595000Y-88075000D03*
%TD*%
D25*
%TO.C,D8*%
X136280000Y-93050000D03*
D26*
X143900000Y-93050000D03*
%TD*%
D22*
%TO.C,S18*%
X182755000Y-69025000D03*
D23*
X180215000Y-63945000D03*
D24*
X177675000Y-69025000D03*
D23*
X173865000Y-66485000D03*
D22*
X172595000Y-69025000D03*
%TD*%
D25*
%TO.C,D14*%
X155330000Y-74000000D03*
D26*
X162950000Y-74000000D03*
%TD*%
D22*
%TO.C,S16*%
X182755000Y-107125000D03*
D23*
X180215000Y-102045000D03*
D24*
X177675000Y-107125000D03*
D23*
X173865000Y-104585000D03*
D22*
X172595000Y-107125000D03*
%TD*%
%TO.C,S3*%
X125605000Y-107125000D03*
D23*
X123065000Y-102045000D03*
D24*
X120525000Y-107125000D03*
D23*
X116715000Y-104585000D03*
D22*
X115445000Y-107125000D03*
%TD*%
%TO.C,S6*%
X144655000Y-126175000D03*
D23*
X142115000Y-121095000D03*
D24*
X139575000Y-126175000D03*
D23*
X135765000Y-123635000D03*
D22*
X134495000Y-126175000D03*
%TD*%
%LPD*%
M02*
