%TF.GenerationSoftware,KiCad,Pcbnew,9.0.6*%
%TF.CreationDate,2026-01-02T18:32:11-05:00*%
%TF.ProjectId,nopanpad,6e6f7061-6e70-4616-942e-6b696361645f,first one lol*%
%TF.SameCoordinates,Original*%
%TF.FileFunction,Legend,Bot*%
%TF.FilePolarity,Positive*%
%FSLAX46Y46*%
G04 Gerber Fmt 4.6, Leading zero omitted, Abs format (unit mm)*
G04 Created by KiCad (PCBNEW 9.0.6) date 2026-01-02 18:32:11*
%MOMM*%
%LPD*%
G01*
G04 APERTURE LIST*
G04 Aperture macros list*
%AMRoundRect*
0 Rectangle with rounded corners*
0 $1 Rounding radius*
0 $2 $3 $4 $5 $6 $7 $8 $9 X,Y pos of 4 corners*
0 Add a 4 corners polygon primitive as box body*
4,1,4,$2,$3,$4,$5,$6,$7,$8,$9,$2,$3,0*
0 Add four circle primitives for the rounded corners*
1,1,$1+$1,$2,$3*
1,1,$1+$1,$4,$5*
1,1,$1+$1,$6,$7*
1,1,$1+$1,$8,$9*
0 Add four rect primitives between the rounded corners*
20,1,$1+$1,$2,$3,$4,$5,0*
20,1,$1+$1,$4,$5,$6,$7,0*
20,1,$1+$1,$6,$7,$8,$9,0*
20,1,$1+$1,$8,$9,$2,$3,0*%
G04 Aperture macros list end*
%ADD10C,2.000000*%
%ADD11C,0.300000*%
%ADD12C,0.137500*%
%ADD13C,0.100000*%
%ADD14C,0.150000*%
%ADD15C,0.120000*%
%ADD16RoundRect,0.250000X0.625000X-0.350000X0.625000X0.350000X-0.625000X0.350000X-0.625000X-0.350000X0*%
%ADD17O,1.750000X1.200000*%
%ADD18O,2.200000X3.500000*%
%ADD19R,1.500000X2.500000*%
%ADD20O,1.500000X2.500000*%
%ADD21C,1.700000*%
%ADD22R,1.700000X1.700000*%
%ADD23C,1.701800*%
%ADD24C,3.000000*%
%ADD25C,3.987800*%
%ADD26RoundRect,0.200000X1.075000X1.050000X-1.075000X1.050000X-1.075000X-1.050000X1.075000X-1.050000X0*%
%ADD27RoundRect,0.250000X-0.650000X-0.650000X0.650000X-0.650000X0.650000X0.650000X-0.650000X0.650000X0*%
%ADD28C,1.800000*%
%ADD29C,3.048000*%
G04 APERTURE END LIST*
D10*
X173556295Y-48062597D02*
X182216549Y-53062597D01*
X174793474Y-48776883D02*
X173817742Y-49038329D01*
X173817742Y-49038329D02*
X172484866Y-49918366D01*
X172484866Y-49918366D02*
X171413438Y-51774134D01*
X171413438Y-51774134D02*
X171317742Y-53368456D01*
X171317742Y-53368456D02*
X172197778Y-54701332D01*
X172197778Y-54701332D02*
X179002263Y-58629903D01*
X174359406Y-66671568D02*
X174455102Y-65077246D01*
X174455102Y-65077246D02*
X174193655Y-64101513D01*
X174193655Y-64101513D02*
X173313619Y-62768638D01*
X173313619Y-62768638D02*
X169602081Y-60625781D01*
X169602081Y-60625781D02*
X168007759Y-60530085D01*
X168007759Y-60530085D02*
X167032027Y-60791532D01*
X167032027Y-60791532D02*
X165699152Y-61671568D01*
X165699152Y-61671568D02*
X164627723Y-63527337D01*
X164627723Y-63527337D02*
X164532027Y-65121659D01*
X164532027Y-65121659D02*
X164793474Y-66097391D01*
X164793474Y-66097391D02*
X165673510Y-67430266D01*
X165673510Y-67430266D02*
X169385047Y-69573124D01*
X169385047Y-69573124D02*
X170979370Y-69668820D01*
X170979370Y-69668820D02*
X171955102Y-69407373D01*
X171955102Y-69407373D02*
X173287977Y-68527337D01*
X173287977Y-68527337D02*
X174359406Y-66671568D01*
X159984866Y-71569001D02*
X172975247Y-79069001D01*
X160603455Y-71926144D02*
X159270580Y-72806181D01*
X159270580Y-72806181D02*
X157842009Y-75280539D01*
X157842009Y-75280539D02*
X157746313Y-76874861D01*
X157746313Y-76874861D02*
X158007759Y-77850593D01*
X158007759Y-77850593D02*
X158887796Y-79183469D01*
X158887796Y-79183469D02*
X162599333Y-81326326D01*
X162599333Y-81326326D02*
X164193655Y-81422022D01*
X164193655Y-81422022D02*
X165169387Y-81160575D01*
X165169387Y-81160575D02*
X166502263Y-80280539D01*
X166502263Y-80280539D02*
X167930834Y-77806181D01*
X167930834Y-77806181D02*
X168026530Y-76211859D01*
X158645120Y-93889510D02*
X151840634Y-89960939D01*
X151840634Y-89960939D02*
X150960598Y-88628063D01*
X150960598Y-88628063D02*
X151056294Y-87033741D01*
X151056294Y-87033741D02*
X152484866Y-84559383D01*
X152484866Y-84559383D02*
X153817741Y-83679347D01*
X158026530Y-93532367D02*
X159359405Y-92652331D01*
X159359405Y-92652331D02*
X161145120Y-89559383D01*
X161145120Y-89559383D02*
X161240816Y-87965061D01*
X161240816Y-87965061D02*
X160360780Y-86632186D01*
X160360780Y-86632186D02*
X159123600Y-85917900D01*
X159123600Y-85917900D02*
X157529278Y-85822204D01*
X157529278Y-85822204D02*
X156196403Y-86702240D01*
X156196403Y-86702240D02*
X154410689Y-89795188D01*
X154410689Y-89795188D02*
X153077813Y-90675224D01*
X146413437Y-95075406D02*
X155073691Y-100075406D01*
X147650616Y-95789692D02*
X146674884Y-96051138D01*
X146674884Y-96051138D02*
X145342008Y-96931175D01*
X145342008Y-96931175D02*
X144270580Y-98786943D01*
X144270580Y-98786943D02*
X144174884Y-100381265D01*
X144174884Y-100381265D02*
X145054920Y-101714141D01*
X145054920Y-101714141D02*
X151859405Y-105642712D01*
X147050797Y-111114323D02*
X147312244Y-112090055D01*
X147312244Y-112090055D02*
X148287976Y-111828608D01*
X148287976Y-111828608D02*
X148026530Y-110852876D01*
X148026530Y-110852876D02*
X147050797Y-111114323D01*
X147050797Y-111114323D02*
X148287976Y-111828608D01*
X143339260Y-108971465D02*
X136273328Y-104067162D01*
X136273328Y-104067162D02*
X135297595Y-104328608D01*
X135297595Y-104328608D02*
X135559042Y-105304341D01*
X135559042Y-105304341D02*
X143339260Y-108971465D01*
X143339260Y-108971465D02*
X135297595Y-104328608D01*
X136056294Y-113014504D02*
X149046675Y-120514504D01*
X136674883Y-113371647D02*
X135342008Y-114251683D01*
X135342008Y-114251683D02*
X133913437Y-116726041D01*
X133913437Y-116726041D02*
X133817741Y-118320363D01*
X133817741Y-118320363D02*
X134079187Y-119296096D01*
X134079187Y-119296096D02*
X134959224Y-120628971D01*
X134959224Y-120628971D02*
X138670761Y-122771828D01*
X138670761Y-122771828D02*
X140265083Y-122867524D01*
X140265083Y-122867524D02*
X141240815Y-122606078D01*
X141240815Y-122606078D02*
X142573691Y-121726041D01*
X142573691Y-121726041D02*
X144002262Y-119251683D01*
X144002262Y-119251683D02*
X144097958Y-117657361D01*
X134716548Y-135335012D02*
X127912062Y-131406441D01*
X127912062Y-131406441D02*
X127032026Y-130073566D01*
X127032026Y-130073566D02*
X127127722Y-128479244D01*
X127127722Y-128479244D02*
X128556294Y-126004885D01*
X128556294Y-126004885D02*
X129889169Y-125124849D01*
X134097958Y-134977870D02*
X135430833Y-134097833D01*
X135430833Y-134097833D02*
X137216548Y-131004885D01*
X137216548Y-131004885D02*
X137312244Y-129410563D01*
X137312244Y-129410563D02*
X136432208Y-128077688D01*
X136432208Y-128077688D02*
X135195028Y-127363402D01*
X135195028Y-127363402D02*
X133600706Y-127267706D01*
X133600706Y-127267706D02*
X132267831Y-128147743D01*
X132267831Y-128147743D02*
X130482117Y-131240690D01*
X130482117Y-131240690D02*
X129149241Y-132120727D01*
X127930833Y-147088215D02*
X114940452Y-139588215D01*
X127312244Y-146731072D02*
X128645119Y-145851036D01*
X128645119Y-145851036D02*
X130073690Y-143376677D01*
X130073690Y-143376677D02*
X130169386Y-141782355D01*
X130169386Y-141782355D02*
X129907940Y-140806623D01*
X129907940Y-140806623D02*
X129027903Y-139473748D01*
X129027903Y-139473748D02*
X125316366Y-137330890D01*
X125316366Y-137330890D02*
X123722044Y-137235194D01*
X123722044Y-137235194D02*
X122746312Y-137496641D01*
X122746312Y-137496641D02*
X121413436Y-138376677D01*
X121413436Y-138376677D02*
X119984865Y-140851036D01*
X119984865Y-140851036D02*
X119889169Y-142445358D01*
D11*
X165445489Y-40970996D02*
X165445489Y-39470996D01*
X164945488Y-39970996D02*
X164374060Y-39970996D01*
X164731203Y-40970996D02*
X164731203Y-39685282D01*
X164731203Y-39685282D02*
X164659774Y-39542425D01*
X164659774Y-39542425D02*
X164516917Y-39470996D01*
X164516917Y-39470996D02*
X164374060Y-39470996D01*
X162945488Y-39970996D02*
X162374060Y-39970996D01*
X162731203Y-39470996D02*
X162731203Y-40756710D01*
X162731203Y-40756710D02*
X162659774Y-40899568D01*
X162659774Y-40899568D02*
X162516917Y-40970996D01*
X162516917Y-40970996D02*
X162374060Y-40970996D01*
X161874060Y-40970996D02*
X161874060Y-39470996D01*
X161231203Y-40970996D02*
X161231203Y-40185282D01*
X161231203Y-40185282D02*
X161302631Y-40042425D01*
X161302631Y-40042425D02*
X161445488Y-39970996D01*
X161445488Y-39970996D02*
X161659774Y-39970996D01*
X161659774Y-39970996D02*
X161802631Y-40042425D01*
X161802631Y-40042425D02*
X161874060Y-40113853D01*
X160516917Y-40970996D02*
X160516917Y-39970996D01*
X160516917Y-39470996D02*
X160588345Y-39542425D01*
X160588345Y-39542425D02*
X160516917Y-39613853D01*
X160516917Y-39613853D02*
X160445488Y-39542425D01*
X160445488Y-39542425D02*
X160516917Y-39470996D01*
X160516917Y-39470996D02*
X160516917Y-39613853D01*
X159874059Y-40899568D02*
X159731202Y-40970996D01*
X159731202Y-40970996D02*
X159445488Y-40970996D01*
X159445488Y-40970996D02*
X159302631Y-40899568D01*
X159302631Y-40899568D02*
X159231202Y-40756710D01*
X159231202Y-40756710D02*
X159231202Y-40685282D01*
X159231202Y-40685282D02*
X159302631Y-40542425D01*
X159302631Y-40542425D02*
X159445488Y-40470996D01*
X159445488Y-40470996D02*
X159659774Y-40470996D01*
X159659774Y-40470996D02*
X159802631Y-40399568D01*
X159802631Y-40399568D02*
X159874059Y-40256710D01*
X159874059Y-40256710D02*
X159874059Y-40185282D01*
X159874059Y-40185282D02*
X159802631Y-40042425D01*
X159802631Y-40042425D02*
X159659774Y-39970996D01*
X159659774Y-39970996D02*
X159445488Y-39970996D01*
X159445488Y-39970996D02*
X159302631Y-40042425D01*
X157659773Y-39970996D02*
X157088345Y-39970996D01*
X157445488Y-39470996D02*
X157445488Y-40756710D01*
X157445488Y-40756710D02*
X157374059Y-40899568D01*
X157374059Y-40899568D02*
X157231202Y-40970996D01*
X157231202Y-40970996D02*
X157088345Y-40970996D01*
X156588345Y-40970996D02*
X156588345Y-39470996D01*
X155945488Y-40970996D02*
X155945488Y-40185282D01*
X155945488Y-40185282D02*
X156016916Y-40042425D01*
X156016916Y-40042425D02*
X156159773Y-39970996D01*
X156159773Y-39970996D02*
X156374059Y-39970996D01*
X156374059Y-39970996D02*
X156516916Y-40042425D01*
X156516916Y-40042425D02*
X156588345Y-40113853D01*
X155231202Y-40970996D02*
X155231202Y-39970996D01*
X155231202Y-39470996D02*
X155302630Y-39542425D01*
X155302630Y-39542425D02*
X155231202Y-39613853D01*
X155231202Y-39613853D02*
X155159773Y-39542425D01*
X155159773Y-39542425D02*
X155231202Y-39470996D01*
X155231202Y-39470996D02*
X155231202Y-39613853D01*
X154516916Y-39970996D02*
X154516916Y-40970996D01*
X154516916Y-40113853D02*
X154445487Y-40042425D01*
X154445487Y-40042425D02*
X154302630Y-39970996D01*
X154302630Y-39970996D02*
X154088344Y-39970996D01*
X154088344Y-39970996D02*
X153945487Y-40042425D01*
X153945487Y-40042425D02*
X153874059Y-40185282D01*
X153874059Y-40185282D02*
X153874059Y-40970996D01*
X152516916Y-39970996D02*
X152516916Y-41185282D01*
X152516916Y-41185282D02*
X152588344Y-41328139D01*
X152588344Y-41328139D02*
X152659773Y-41399568D01*
X152659773Y-41399568D02*
X152802630Y-41470996D01*
X152802630Y-41470996D02*
X153016916Y-41470996D01*
X153016916Y-41470996D02*
X153159773Y-41399568D01*
X152516916Y-40899568D02*
X152659773Y-40970996D01*
X152659773Y-40970996D02*
X152945487Y-40970996D01*
X152945487Y-40970996D02*
X153088344Y-40899568D01*
X153088344Y-40899568D02*
X153159773Y-40828139D01*
X153159773Y-40828139D02*
X153231201Y-40685282D01*
X153231201Y-40685282D02*
X153231201Y-40256710D01*
X153231201Y-40256710D02*
X153159773Y-40113853D01*
X153159773Y-40113853D02*
X153088344Y-40042425D01*
X153088344Y-40042425D02*
X152945487Y-39970996D01*
X152945487Y-39970996D02*
X152659773Y-39970996D01*
X152659773Y-39970996D02*
X152516916Y-40042425D01*
X150802630Y-39970996D02*
X150516916Y-40970996D01*
X150516916Y-40970996D02*
X150231201Y-40256710D01*
X150231201Y-40256710D02*
X149945487Y-40970996D01*
X149945487Y-40970996D02*
X149659773Y-39970996D01*
X148874058Y-40970996D02*
X149016915Y-40899568D01*
X149016915Y-40899568D02*
X149088344Y-40828139D01*
X149088344Y-40828139D02*
X149159772Y-40685282D01*
X149159772Y-40685282D02*
X149159772Y-40256710D01*
X149159772Y-40256710D02*
X149088344Y-40113853D01*
X149088344Y-40113853D02*
X149016915Y-40042425D01*
X149016915Y-40042425D02*
X148874058Y-39970996D01*
X148874058Y-39970996D02*
X148659772Y-39970996D01*
X148659772Y-39970996D02*
X148516915Y-40042425D01*
X148516915Y-40042425D02*
X148445487Y-40113853D01*
X148445487Y-40113853D02*
X148374058Y-40256710D01*
X148374058Y-40256710D02*
X148374058Y-40685282D01*
X148374058Y-40685282D02*
X148445487Y-40828139D01*
X148445487Y-40828139D02*
X148516915Y-40899568D01*
X148516915Y-40899568D02*
X148659772Y-40970996D01*
X148659772Y-40970996D02*
X148874058Y-40970996D01*
X147731201Y-40970996D02*
X147731201Y-39970996D01*
X147731201Y-40256710D02*
X147659772Y-40113853D01*
X147659772Y-40113853D02*
X147588344Y-40042425D01*
X147588344Y-40042425D02*
X147445486Y-39970996D01*
X147445486Y-39970996D02*
X147302629Y-39970996D01*
X146802630Y-40970996D02*
X146802630Y-39470996D01*
X146659773Y-40399568D02*
X146231201Y-40970996D01*
X146231201Y-39970996D02*
X146802630Y-40542425D01*
X145659772Y-40899568D02*
X145516915Y-40970996D01*
X145516915Y-40970996D02*
X145231201Y-40970996D01*
X145231201Y-40970996D02*
X145088344Y-40899568D01*
X145088344Y-40899568D02*
X145016915Y-40756710D01*
X145016915Y-40756710D02*
X145016915Y-40685282D01*
X145016915Y-40685282D02*
X145088344Y-40542425D01*
X145088344Y-40542425D02*
X145231201Y-40470996D01*
X145231201Y-40470996D02*
X145445487Y-40470996D01*
X145445487Y-40470996D02*
X145588344Y-40399568D01*
X145588344Y-40399568D02*
X145659772Y-40256710D01*
X145659772Y-40256710D02*
X145659772Y-40185282D01*
X145659772Y-40185282D02*
X145588344Y-40042425D01*
X145588344Y-40042425D02*
X145445487Y-39970996D01*
X145445487Y-39970996D02*
X145231201Y-39970996D01*
X145231201Y-39970996D02*
X145088344Y-40042425D01*
X143231201Y-40970996D02*
X143231201Y-39470996D01*
X142445486Y-39470996D02*
X142588343Y-39756710D01*
X141802629Y-40970996D02*
X141802629Y-39970996D01*
X141802629Y-40113853D02*
X141731200Y-40042425D01*
X141731200Y-40042425D02*
X141588343Y-39970996D01*
X141588343Y-39970996D02*
X141374057Y-39970996D01*
X141374057Y-39970996D02*
X141231200Y-40042425D01*
X141231200Y-40042425D02*
X141159772Y-40185282D01*
X141159772Y-40185282D02*
X141159772Y-40970996D01*
X141159772Y-40185282D02*
X141088343Y-40042425D01*
X141088343Y-40042425D02*
X140945486Y-39970996D01*
X140945486Y-39970996D02*
X140731200Y-39970996D01*
X140731200Y-39970996D02*
X140588343Y-40042425D01*
X140588343Y-40042425D02*
X140516914Y-40185282D01*
X140516914Y-40185282D02*
X140516914Y-40970996D01*
X138016915Y-39970996D02*
X138016915Y-41185282D01*
X138016915Y-41185282D02*
X138088343Y-41328139D01*
X138088343Y-41328139D02*
X138159772Y-41399568D01*
X138159772Y-41399568D02*
X138302629Y-41470996D01*
X138302629Y-41470996D02*
X138516915Y-41470996D01*
X138516915Y-41470996D02*
X138659772Y-41399568D01*
X138016915Y-40899568D02*
X138159772Y-40970996D01*
X138159772Y-40970996D02*
X138445486Y-40970996D01*
X138445486Y-40970996D02*
X138588343Y-40899568D01*
X138588343Y-40899568D02*
X138659772Y-40828139D01*
X138659772Y-40828139D02*
X138731200Y-40685282D01*
X138731200Y-40685282D02*
X138731200Y-40256710D01*
X138731200Y-40256710D02*
X138659772Y-40113853D01*
X138659772Y-40113853D02*
X138588343Y-40042425D01*
X138588343Y-40042425D02*
X138445486Y-39970996D01*
X138445486Y-39970996D02*
X138159772Y-39970996D01*
X138159772Y-39970996D02*
X138016915Y-40042425D01*
X137088343Y-40970996D02*
X137231200Y-40899568D01*
X137231200Y-40899568D02*
X137302629Y-40828139D01*
X137302629Y-40828139D02*
X137374057Y-40685282D01*
X137374057Y-40685282D02*
X137374057Y-40256710D01*
X137374057Y-40256710D02*
X137302629Y-40113853D01*
X137302629Y-40113853D02*
X137231200Y-40042425D01*
X137231200Y-40042425D02*
X137088343Y-39970996D01*
X137088343Y-39970996D02*
X136874057Y-39970996D01*
X136874057Y-39970996D02*
X136731200Y-40042425D01*
X136731200Y-40042425D02*
X136659772Y-40113853D01*
X136659772Y-40113853D02*
X136588343Y-40256710D01*
X136588343Y-40256710D02*
X136588343Y-40685282D01*
X136588343Y-40685282D02*
X136659772Y-40828139D01*
X136659772Y-40828139D02*
X136731200Y-40899568D01*
X136731200Y-40899568D02*
X136874057Y-40970996D01*
X136874057Y-40970996D02*
X137088343Y-40970996D01*
X135945486Y-39970996D02*
X135945486Y-40970996D01*
X135945486Y-40113853D02*
X135874057Y-40042425D01*
X135874057Y-40042425D02*
X135731200Y-39970996D01*
X135731200Y-39970996D02*
X135516914Y-39970996D01*
X135516914Y-39970996D02*
X135374057Y-40042425D01*
X135374057Y-40042425D02*
X135302629Y-40185282D01*
X135302629Y-40185282D02*
X135302629Y-40970996D01*
X134588343Y-39970996D02*
X134588343Y-40970996D01*
X134588343Y-40113853D02*
X134516914Y-40042425D01*
X134516914Y-40042425D02*
X134374057Y-39970996D01*
X134374057Y-39970996D02*
X134159771Y-39970996D01*
X134159771Y-39970996D02*
X134016914Y-40042425D01*
X134016914Y-40042425D02*
X133945486Y-40185282D01*
X133945486Y-40185282D02*
X133945486Y-40970996D01*
X132588343Y-40970996D02*
X132588343Y-40185282D01*
X132588343Y-40185282D02*
X132659771Y-40042425D01*
X132659771Y-40042425D02*
X132802628Y-39970996D01*
X132802628Y-39970996D02*
X133088343Y-39970996D01*
X133088343Y-39970996D02*
X133231200Y-40042425D01*
X132588343Y-40899568D02*
X132731200Y-40970996D01*
X132731200Y-40970996D02*
X133088343Y-40970996D01*
X133088343Y-40970996D02*
X133231200Y-40899568D01*
X133231200Y-40899568D02*
X133302628Y-40756710D01*
X133302628Y-40756710D02*
X133302628Y-40613853D01*
X133302628Y-40613853D02*
X133231200Y-40470996D01*
X133231200Y-40470996D02*
X133088343Y-40399568D01*
X133088343Y-40399568D02*
X132731200Y-40399568D01*
X132731200Y-40399568D02*
X132588343Y-40328139D01*
X130731200Y-40970996D02*
X130731200Y-39470996D01*
X130731200Y-40042425D02*
X130588343Y-39970996D01*
X130588343Y-39970996D02*
X130302628Y-39970996D01*
X130302628Y-39970996D02*
X130159771Y-40042425D01*
X130159771Y-40042425D02*
X130088343Y-40113853D01*
X130088343Y-40113853D02*
X130016914Y-40256710D01*
X130016914Y-40256710D02*
X130016914Y-40685282D01*
X130016914Y-40685282D02*
X130088343Y-40828139D01*
X130088343Y-40828139D02*
X130159771Y-40899568D01*
X130159771Y-40899568D02*
X130302628Y-40970996D01*
X130302628Y-40970996D02*
X130588343Y-40970996D01*
X130588343Y-40970996D02*
X130731200Y-40899568D01*
X128802628Y-40899568D02*
X128945485Y-40970996D01*
X128945485Y-40970996D02*
X129231200Y-40970996D01*
X129231200Y-40970996D02*
X129374057Y-40899568D01*
X129374057Y-40899568D02*
X129445485Y-40756710D01*
X129445485Y-40756710D02*
X129445485Y-40185282D01*
X129445485Y-40185282D02*
X129374057Y-40042425D01*
X129374057Y-40042425D02*
X129231200Y-39970996D01*
X129231200Y-39970996D02*
X128945485Y-39970996D01*
X128945485Y-39970996D02*
X128802628Y-40042425D01*
X128802628Y-40042425D02*
X128731200Y-40185282D01*
X128731200Y-40185282D02*
X128731200Y-40328139D01*
X128731200Y-40328139D02*
X129445485Y-40470996D01*
X127016914Y-40899568D02*
X126874057Y-40970996D01*
X126874057Y-40970996D02*
X126588343Y-40970996D01*
X126588343Y-40970996D02*
X126445486Y-40899568D01*
X126445486Y-40899568D02*
X126374057Y-40756710D01*
X126374057Y-40756710D02*
X126374057Y-40685282D01*
X126374057Y-40685282D02*
X126445486Y-40542425D01*
X126445486Y-40542425D02*
X126588343Y-40470996D01*
X126588343Y-40470996D02*
X126802629Y-40470996D01*
X126802629Y-40470996D02*
X126945486Y-40399568D01*
X126945486Y-40399568D02*
X127016914Y-40256710D01*
X127016914Y-40256710D02*
X127016914Y-40185282D01*
X127016914Y-40185282D02*
X126945486Y-40042425D01*
X126945486Y-40042425D02*
X126802629Y-39970996D01*
X126802629Y-39970996D02*
X126588343Y-39970996D01*
X126588343Y-39970996D02*
X126445486Y-40042425D01*
X125516914Y-40970996D02*
X125659771Y-40899568D01*
X125659771Y-40899568D02*
X125731200Y-40828139D01*
X125731200Y-40828139D02*
X125802628Y-40685282D01*
X125802628Y-40685282D02*
X125802628Y-40256710D01*
X125802628Y-40256710D02*
X125731200Y-40113853D01*
X125731200Y-40113853D02*
X125659771Y-40042425D01*
X125659771Y-40042425D02*
X125516914Y-39970996D01*
X125516914Y-39970996D02*
X125302628Y-39970996D01*
X125302628Y-39970996D02*
X125159771Y-40042425D01*
X125159771Y-40042425D02*
X125088343Y-40113853D01*
X125088343Y-40113853D02*
X125016914Y-40256710D01*
X125016914Y-40256710D02*
X125016914Y-40685282D01*
X125016914Y-40685282D02*
X125088343Y-40828139D01*
X125088343Y-40828139D02*
X125159771Y-40899568D01*
X125159771Y-40899568D02*
X125302628Y-40970996D01*
X125302628Y-40970996D02*
X125516914Y-40970996D01*
X122588343Y-40970996D02*
X122588343Y-39470996D01*
X122588343Y-40899568D02*
X122731200Y-40970996D01*
X122731200Y-40970996D02*
X123016914Y-40970996D01*
X123016914Y-40970996D02*
X123159771Y-40899568D01*
X123159771Y-40899568D02*
X123231200Y-40828139D01*
X123231200Y-40828139D02*
X123302628Y-40685282D01*
X123302628Y-40685282D02*
X123302628Y-40256710D01*
X123302628Y-40256710D02*
X123231200Y-40113853D01*
X123231200Y-40113853D02*
X123159771Y-40042425D01*
X123159771Y-40042425D02*
X123016914Y-39970996D01*
X123016914Y-39970996D02*
X122731200Y-39970996D01*
X122731200Y-39970996D02*
X122588343Y-40042425D01*
X121231200Y-40970996D02*
X121231200Y-40185282D01*
X121231200Y-40185282D02*
X121302628Y-40042425D01*
X121302628Y-40042425D02*
X121445485Y-39970996D01*
X121445485Y-39970996D02*
X121731200Y-39970996D01*
X121731200Y-39970996D02*
X121874057Y-40042425D01*
X121231200Y-40899568D02*
X121374057Y-40970996D01*
X121374057Y-40970996D02*
X121731200Y-40970996D01*
X121731200Y-40970996D02*
X121874057Y-40899568D01*
X121874057Y-40899568D02*
X121945485Y-40756710D01*
X121945485Y-40756710D02*
X121945485Y-40613853D01*
X121945485Y-40613853D02*
X121874057Y-40470996D01*
X121874057Y-40470996D02*
X121731200Y-40399568D01*
X121731200Y-40399568D02*
X121374057Y-40399568D01*
X121374057Y-40399568D02*
X121231200Y-40328139D01*
X120516914Y-39970996D02*
X120516914Y-40970996D01*
X120516914Y-40113853D02*
X120445485Y-40042425D01*
X120445485Y-40042425D02*
X120302628Y-39970996D01*
X120302628Y-39970996D02*
X120088342Y-39970996D01*
X120088342Y-39970996D02*
X119945485Y-40042425D01*
X119945485Y-40042425D02*
X119874057Y-40185282D01*
X119874057Y-40185282D02*
X119874057Y-40970996D01*
X118516914Y-39970996D02*
X118516914Y-41185282D01*
X118516914Y-41185282D02*
X118588342Y-41328139D01*
X118588342Y-41328139D02*
X118659771Y-41399568D01*
X118659771Y-41399568D02*
X118802628Y-41470996D01*
X118802628Y-41470996D02*
X119016914Y-41470996D01*
X119016914Y-41470996D02*
X119159771Y-41399568D01*
X118516914Y-40899568D02*
X118659771Y-40970996D01*
X118659771Y-40970996D02*
X118945485Y-40970996D01*
X118945485Y-40970996D02*
X119088342Y-40899568D01*
X119088342Y-40899568D02*
X119159771Y-40828139D01*
X119159771Y-40828139D02*
X119231199Y-40685282D01*
X119231199Y-40685282D02*
X119231199Y-40256710D01*
X119231199Y-40256710D02*
X119159771Y-40113853D01*
X119159771Y-40113853D02*
X119088342Y-40042425D01*
X119088342Y-40042425D02*
X118945485Y-39970996D01*
X118945485Y-39970996D02*
X118659771Y-39970996D01*
X118659771Y-39970996D02*
X118516914Y-40042425D01*
X116659771Y-39970996D02*
X116659771Y-41470996D01*
X116659771Y-40042425D02*
X116516914Y-39970996D01*
X116516914Y-39970996D02*
X116231199Y-39970996D01*
X116231199Y-39970996D02*
X116088342Y-40042425D01*
X116088342Y-40042425D02*
X116016914Y-40113853D01*
X116016914Y-40113853D02*
X115945485Y-40256710D01*
X115945485Y-40256710D02*
X115945485Y-40685282D01*
X115945485Y-40685282D02*
X116016914Y-40828139D01*
X116016914Y-40828139D02*
X116088342Y-40899568D01*
X116088342Y-40899568D02*
X116231199Y-40970996D01*
X116231199Y-40970996D02*
X116516914Y-40970996D01*
X116516914Y-40970996D02*
X116659771Y-40899568D01*
X115302628Y-40970996D02*
X115302628Y-39970996D01*
X115302628Y-40256710D02*
X115231199Y-40113853D01*
X115231199Y-40113853D02*
X115159771Y-40042425D01*
X115159771Y-40042425D02*
X115016913Y-39970996D01*
X115016913Y-39970996D02*
X114874056Y-39970996D01*
X114159771Y-40970996D02*
X114302628Y-40899568D01*
X114302628Y-40899568D02*
X114374057Y-40828139D01*
X114374057Y-40828139D02*
X114445485Y-40685282D01*
X114445485Y-40685282D02*
X114445485Y-40256710D01*
X114445485Y-40256710D02*
X114374057Y-40113853D01*
X114374057Y-40113853D02*
X114302628Y-40042425D01*
X114302628Y-40042425D02*
X114159771Y-39970996D01*
X114159771Y-39970996D02*
X113945485Y-39970996D01*
X113945485Y-39970996D02*
X113802628Y-40042425D01*
X113802628Y-40042425D02*
X113731200Y-40113853D01*
X113731200Y-40113853D02*
X113659771Y-40256710D01*
X113659771Y-40256710D02*
X113659771Y-40685282D01*
X113659771Y-40685282D02*
X113731200Y-40828139D01*
X113731200Y-40828139D02*
X113802628Y-40899568D01*
X113802628Y-40899568D02*
X113945485Y-40970996D01*
X113945485Y-40970996D02*
X114159771Y-40970996D01*
X112374057Y-39970996D02*
X112374057Y-40970996D01*
X113016914Y-39970996D02*
X113016914Y-40756710D01*
X113016914Y-40756710D02*
X112945485Y-40899568D01*
X112945485Y-40899568D02*
X112802628Y-40970996D01*
X112802628Y-40970996D02*
X112588342Y-40970996D01*
X112588342Y-40970996D02*
X112445485Y-40899568D01*
X112445485Y-40899568D02*
X112374057Y-40828139D01*
X111016914Y-40970996D02*
X111016914Y-39470996D01*
X111016914Y-40899568D02*
X111159771Y-40970996D01*
X111159771Y-40970996D02*
X111445485Y-40970996D01*
X111445485Y-40970996D02*
X111588342Y-40899568D01*
X111588342Y-40899568D02*
X111659771Y-40828139D01*
X111659771Y-40828139D02*
X111731199Y-40685282D01*
X111731199Y-40685282D02*
X111731199Y-40256710D01*
X111731199Y-40256710D02*
X111659771Y-40113853D01*
X111659771Y-40113853D02*
X111588342Y-40042425D01*
X111588342Y-40042425D02*
X111445485Y-39970996D01*
X111445485Y-39970996D02*
X111159771Y-39970996D01*
X111159771Y-39970996D02*
X111016914Y-40042425D01*
X165445489Y-43385912D02*
X165445489Y-41885912D01*
X163588346Y-43385912D02*
X163588346Y-42385912D01*
X163588346Y-42528769D02*
X163516917Y-42457341D01*
X163516917Y-42457341D02*
X163374060Y-42385912D01*
X163374060Y-42385912D02*
X163159774Y-42385912D01*
X163159774Y-42385912D02*
X163016917Y-42457341D01*
X163016917Y-42457341D02*
X162945489Y-42600198D01*
X162945489Y-42600198D02*
X162945489Y-43385912D01*
X162945489Y-42600198D02*
X162874060Y-42457341D01*
X162874060Y-42457341D02*
X162731203Y-42385912D01*
X162731203Y-42385912D02*
X162516917Y-42385912D01*
X162516917Y-42385912D02*
X162374060Y-42457341D01*
X162374060Y-42457341D02*
X162302631Y-42600198D01*
X162302631Y-42600198D02*
X162302631Y-43385912D01*
X160945489Y-43385912D02*
X160945489Y-42600198D01*
X160945489Y-42600198D02*
X161016917Y-42457341D01*
X161016917Y-42457341D02*
X161159774Y-42385912D01*
X161159774Y-42385912D02*
X161445489Y-42385912D01*
X161445489Y-42385912D02*
X161588346Y-42457341D01*
X160945489Y-43314484D02*
X161088346Y-43385912D01*
X161088346Y-43385912D02*
X161445489Y-43385912D01*
X161445489Y-43385912D02*
X161588346Y-43314484D01*
X161588346Y-43314484D02*
X161659774Y-43171626D01*
X161659774Y-43171626D02*
X161659774Y-43028769D01*
X161659774Y-43028769D02*
X161588346Y-42885912D01*
X161588346Y-42885912D02*
X161445489Y-42814484D01*
X161445489Y-42814484D02*
X161088346Y-42814484D01*
X161088346Y-42814484D02*
X160945489Y-42743055D01*
X159588346Y-43385912D02*
X159588346Y-41885912D01*
X159588346Y-43314484D02*
X159731203Y-43385912D01*
X159731203Y-43385912D02*
X160016917Y-43385912D01*
X160016917Y-43385912D02*
X160159774Y-43314484D01*
X160159774Y-43314484D02*
X160231203Y-43243055D01*
X160231203Y-43243055D02*
X160302631Y-43100198D01*
X160302631Y-43100198D02*
X160302631Y-42671626D01*
X160302631Y-42671626D02*
X160231203Y-42528769D01*
X160231203Y-42528769D02*
X160159774Y-42457341D01*
X160159774Y-42457341D02*
X160016917Y-42385912D01*
X160016917Y-42385912D02*
X159731203Y-42385912D01*
X159731203Y-42385912D02*
X159588346Y-42457341D01*
X158302631Y-43314484D02*
X158445488Y-43385912D01*
X158445488Y-43385912D02*
X158731203Y-43385912D01*
X158731203Y-43385912D02*
X158874060Y-43314484D01*
X158874060Y-43314484D02*
X158945488Y-43171626D01*
X158945488Y-43171626D02*
X158945488Y-42600198D01*
X158945488Y-42600198D02*
X158874060Y-42457341D01*
X158874060Y-42457341D02*
X158731203Y-42385912D01*
X158731203Y-42385912D02*
X158445488Y-42385912D01*
X158445488Y-42385912D02*
X158302631Y-42457341D01*
X158302631Y-42457341D02*
X158231203Y-42600198D01*
X158231203Y-42600198D02*
X158231203Y-42743055D01*
X158231203Y-42743055D02*
X158945488Y-42885912D01*
X156659774Y-42385912D02*
X156088346Y-42385912D01*
X156445489Y-41885912D02*
X156445489Y-43171626D01*
X156445489Y-43171626D02*
X156374060Y-43314484D01*
X156374060Y-43314484D02*
X156231203Y-43385912D01*
X156231203Y-43385912D02*
X156088346Y-43385912D01*
X155588346Y-43385912D02*
X155588346Y-41885912D01*
X154945489Y-43385912D02*
X154945489Y-42600198D01*
X154945489Y-42600198D02*
X155016917Y-42457341D01*
X155016917Y-42457341D02*
X155159774Y-42385912D01*
X155159774Y-42385912D02*
X155374060Y-42385912D01*
X155374060Y-42385912D02*
X155516917Y-42457341D01*
X155516917Y-42457341D02*
X155588346Y-42528769D01*
X154231203Y-43385912D02*
X154231203Y-42385912D01*
X154231203Y-41885912D02*
X154302631Y-41957341D01*
X154302631Y-41957341D02*
X154231203Y-42028769D01*
X154231203Y-42028769D02*
X154159774Y-41957341D01*
X154159774Y-41957341D02*
X154231203Y-41885912D01*
X154231203Y-41885912D02*
X154231203Y-42028769D01*
X153588345Y-43314484D02*
X153445488Y-43385912D01*
X153445488Y-43385912D02*
X153159774Y-43385912D01*
X153159774Y-43385912D02*
X153016917Y-43314484D01*
X153016917Y-43314484D02*
X152945488Y-43171626D01*
X152945488Y-43171626D02*
X152945488Y-43100198D01*
X152945488Y-43100198D02*
X153016917Y-42957341D01*
X153016917Y-42957341D02*
X153159774Y-42885912D01*
X153159774Y-42885912D02*
X153374060Y-42885912D01*
X153374060Y-42885912D02*
X153516917Y-42814484D01*
X153516917Y-42814484D02*
X153588345Y-42671626D01*
X153588345Y-42671626D02*
X153588345Y-42600198D01*
X153588345Y-42600198D02*
X153516917Y-42457341D01*
X153516917Y-42457341D02*
X153374060Y-42385912D01*
X153374060Y-42385912D02*
X153159774Y-42385912D01*
X153159774Y-42385912D02*
X153016917Y-42457341D01*
X152302631Y-43243055D02*
X152231202Y-43314484D01*
X152231202Y-43314484D02*
X152302631Y-43385912D01*
X152302631Y-43385912D02*
X152374059Y-43314484D01*
X152374059Y-43314484D02*
X152302631Y-43243055D01*
X152302631Y-43243055D02*
X152302631Y-43385912D01*
X152302631Y-42814484D02*
X152374059Y-41957341D01*
X152374059Y-41957341D02*
X152302631Y-41885912D01*
X152302631Y-41885912D02*
X152231202Y-41957341D01*
X152231202Y-41957341D02*
X152302631Y-42814484D01*
X152302631Y-42814484D02*
X152302631Y-41885912D01*
X150516916Y-42957341D02*
X149802631Y-42957341D01*
X150659773Y-43385912D02*
X150159773Y-41885912D01*
X150159773Y-41885912D02*
X149659773Y-43385912D01*
X148945488Y-43385912D02*
X149088345Y-43314484D01*
X149088345Y-43314484D02*
X149159774Y-43171626D01*
X149159774Y-43171626D02*
X149159774Y-41885912D01*
X148159774Y-43385912D02*
X148302631Y-43314484D01*
X148302631Y-43314484D02*
X148374060Y-43171626D01*
X148374060Y-43171626D02*
X148374060Y-41885912D01*
X146231203Y-43385912D02*
X146374060Y-43314484D01*
X146374060Y-43314484D02*
X146445489Y-43243055D01*
X146445489Y-43243055D02*
X146516917Y-43100198D01*
X146516917Y-43100198D02*
X146516917Y-42671626D01*
X146516917Y-42671626D02*
X146445489Y-42528769D01*
X146445489Y-42528769D02*
X146374060Y-42457341D01*
X146374060Y-42457341D02*
X146231203Y-42385912D01*
X146231203Y-42385912D02*
X146016917Y-42385912D01*
X146016917Y-42385912D02*
X145874060Y-42457341D01*
X145874060Y-42457341D02*
X145802632Y-42528769D01*
X145802632Y-42528769D02*
X145731203Y-42671626D01*
X145731203Y-42671626D02*
X145731203Y-43100198D01*
X145731203Y-43100198D02*
X145802632Y-43243055D01*
X145802632Y-43243055D02*
X145874060Y-43314484D01*
X145874060Y-43314484D02*
X146016917Y-43385912D01*
X146016917Y-43385912D02*
X146231203Y-43385912D01*
X145302631Y-42385912D02*
X144731203Y-42385912D01*
X145088346Y-43385912D02*
X145088346Y-42100198D01*
X145088346Y-42100198D02*
X145016917Y-41957341D01*
X145016917Y-41957341D02*
X144874060Y-41885912D01*
X144874060Y-41885912D02*
X144731203Y-41885912D01*
X143302631Y-42385912D02*
X142731203Y-42385912D01*
X143088346Y-41885912D02*
X143088346Y-43171626D01*
X143088346Y-43171626D02*
X143016917Y-43314484D01*
X143016917Y-43314484D02*
X142874060Y-43385912D01*
X142874060Y-43385912D02*
X142731203Y-43385912D01*
X142231203Y-43385912D02*
X142231203Y-41885912D01*
X141588346Y-43385912D02*
X141588346Y-42600198D01*
X141588346Y-42600198D02*
X141659774Y-42457341D01*
X141659774Y-42457341D02*
X141802631Y-42385912D01*
X141802631Y-42385912D02*
X142016917Y-42385912D01*
X142016917Y-42385912D02*
X142159774Y-42457341D01*
X142159774Y-42457341D02*
X142231203Y-42528769D01*
X140874060Y-43385912D02*
X140874060Y-42385912D01*
X140874060Y-41885912D02*
X140945488Y-41957341D01*
X140945488Y-41957341D02*
X140874060Y-42028769D01*
X140874060Y-42028769D02*
X140802631Y-41957341D01*
X140802631Y-41957341D02*
X140874060Y-41885912D01*
X140874060Y-41885912D02*
X140874060Y-42028769D01*
X140231202Y-43314484D02*
X140088345Y-43385912D01*
X140088345Y-43385912D02*
X139802631Y-43385912D01*
X139802631Y-43385912D02*
X139659774Y-43314484D01*
X139659774Y-43314484D02*
X139588345Y-43171626D01*
X139588345Y-43171626D02*
X139588345Y-43100198D01*
X139588345Y-43100198D02*
X139659774Y-42957341D01*
X139659774Y-42957341D02*
X139802631Y-42885912D01*
X139802631Y-42885912D02*
X140016917Y-42885912D01*
X140016917Y-42885912D02*
X140159774Y-42814484D01*
X140159774Y-42814484D02*
X140231202Y-42671626D01*
X140231202Y-42671626D02*
X140231202Y-42600198D01*
X140231202Y-42600198D02*
X140159774Y-42457341D01*
X140159774Y-42457341D02*
X140016917Y-42385912D01*
X140016917Y-42385912D02*
X139802631Y-42385912D01*
X139802631Y-42385912D02*
X139659774Y-42457341D01*
X138945488Y-43243055D02*
X138874059Y-43314484D01*
X138874059Y-43314484D02*
X138945488Y-43385912D01*
X138945488Y-43385912D02*
X139016916Y-43314484D01*
X139016916Y-43314484D02*
X138945488Y-43243055D01*
X138945488Y-43243055D02*
X138945488Y-43385912D01*
X138945488Y-42814484D02*
X139016916Y-41957341D01*
X139016916Y-41957341D02*
X138945488Y-41885912D01*
X138945488Y-41885912D02*
X138874059Y-41957341D01*
X138874059Y-41957341D02*
X138945488Y-42814484D01*
X138945488Y-42814484D02*
X138945488Y-41885912D01*
X165445489Y-45657971D02*
X165374060Y-45729400D01*
X165374060Y-45729400D02*
X165445489Y-45800828D01*
X165445489Y-45800828D02*
X165516917Y-45729400D01*
X165516917Y-45729400D02*
X165445489Y-45657971D01*
X165445489Y-45657971D02*
X165445489Y-45800828D01*
X164731203Y-45657971D02*
X164659774Y-45729400D01*
X164659774Y-45729400D02*
X164731203Y-45800828D01*
X164731203Y-45800828D02*
X164802631Y-45729400D01*
X164802631Y-45729400D02*
X164731203Y-45657971D01*
X164731203Y-45657971D02*
X164731203Y-45800828D01*
X164016917Y-45657971D02*
X163945488Y-45729400D01*
X163945488Y-45729400D02*
X164016917Y-45800828D01*
X164016917Y-45800828D02*
X164088345Y-45729400D01*
X164088345Y-45729400D02*
X164016917Y-45657971D01*
X164016917Y-45657971D02*
X164016917Y-45800828D01*
X163445488Y-44800828D02*
X163159774Y-45800828D01*
X163159774Y-45800828D02*
X162874059Y-45086542D01*
X162874059Y-45086542D02*
X162588345Y-45800828D01*
X162588345Y-45800828D02*
X162302631Y-44800828D01*
X161159773Y-45729400D02*
X161302630Y-45800828D01*
X161302630Y-45800828D02*
X161588345Y-45800828D01*
X161588345Y-45800828D02*
X161731202Y-45729400D01*
X161731202Y-45729400D02*
X161802630Y-45586542D01*
X161802630Y-45586542D02*
X161802630Y-45015114D01*
X161802630Y-45015114D02*
X161731202Y-44872257D01*
X161731202Y-44872257D02*
X161588345Y-44800828D01*
X161588345Y-44800828D02*
X161302630Y-44800828D01*
X161302630Y-44800828D02*
X161159773Y-44872257D01*
X161159773Y-44872257D02*
X161088345Y-45015114D01*
X161088345Y-45015114D02*
X161088345Y-45157971D01*
X161088345Y-45157971D02*
X161802630Y-45300828D01*
X160231202Y-45800828D02*
X160374059Y-45729400D01*
X160374059Y-45729400D02*
X160445488Y-45586542D01*
X160445488Y-45586542D02*
X160445488Y-44300828D01*
X159445488Y-45800828D02*
X159588345Y-45729400D01*
X159588345Y-45729400D02*
X159659774Y-45586542D01*
X159659774Y-45586542D02*
X159659774Y-44300828D01*
X158802631Y-45729400D02*
X158802631Y-45800828D01*
X158802631Y-45800828D02*
X158874060Y-45943685D01*
X158874060Y-45943685D02*
X158945488Y-46015114D01*
X157016917Y-45800828D02*
X157016917Y-44300828D01*
X154516917Y-45800828D02*
X154516917Y-44300828D01*
X154516917Y-45729400D02*
X154659774Y-45800828D01*
X154659774Y-45800828D02*
X154945488Y-45800828D01*
X154945488Y-45800828D02*
X155088345Y-45729400D01*
X155088345Y-45729400D02*
X155159774Y-45657971D01*
X155159774Y-45657971D02*
X155231202Y-45515114D01*
X155231202Y-45515114D02*
X155231202Y-45086542D01*
X155231202Y-45086542D02*
X155159774Y-44943685D01*
X155159774Y-44943685D02*
X155088345Y-44872257D01*
X155088345Y-44872257D02*
X154945488Y-44800828D01*
X154945488Y-44800828D02*
X154659774Y-44800828D01*
X154659774Y-44800828D02*
X154516917Y-44872257D01*
X153231202Y-45729400D02*
X153374059Y-45800828D01*
X153374059Y-45800828D02*
X153659774Y-45800828D01*
X153659774Y-45800828D02*
X153802631Y-45729400D01*
X153802631Y-45729400D02*
X153874059Y-45586542D01*
X153874059Y-45586542D02*
X153874059Y-45015114D01*
X153874059Y-45015114D02*
X153802631Y-44872257D01*
X153802631Y-44872257D02*
X153659774Y-44800828D01*
X153659774Y-44800828D02*
X153374059Y-44800828D01*
X153374059Y-44800828D02*
X153231202Y-44872257D01*
X153231202Y-44872257D02*
X153159774Y-45015114D01*
X153159774Y-45015114D02*
X153159774Y-45157971D01*
X153159774Y-45157971D02*
X153874059Y-45300828D01*
X152588345Y-45729400D02*
X152445488Y-45800828D01*
X152445488Y-45800828D02*
X152159774Y-45800828D01*
X152159774Y-45800828D02*
X152016917Y-45729400D01*
X152016917Y-45729400D02*
X151945488Y-45586542D01*
X151945488Y-45586542D02*
X151945488Y-45515114D01*
X151945488Y-45515114D02*
X152016917Y-45372257D01*
X152016917Y-45372257D02*
X152159774Y-45300828D01*
X152159774Y-45300828D02*
X152374060Y-45300828D01*
X152374060Y-45300828D02*
X152516917Y-45229400D01*
X152516917Y-45229400D02*
X152588345Y-45086542D01*
X152588345Y-45086542D02*
X152588345Y-45015114D01*
X152588345Y-45015114D02*
X152516917Y-44872257D01*
X152516917Y-44872257D02*
X152374060Y-44800828D01*
X152374060Y-44800828D02*
X152159774Y-44800828D01*
X152159774Y-44800828D02*
X152016917Y-44872257D01*
X151302631Y-45800828D02*
X151302631Y-44800828D01*
X151302631Y-44300828D02*
X151374059Y-44372257D01*
X151374059Y-44372257D02*
X151302631Y-44443685D01*
X151302631Y-44443685D02*
X151231202Y-44372257D01*
X151231202Y-44372257D02*
X151302631Y-44300828D01*
X151302631Y-44300828D02*
X151302631Y-44443685D01*
X149945488Y-44800828D02*
X149945488Y-46015114D01*
X149945488Y-46015114D02*
X150016916Y-46157971D01*
X150016916Y-46157971D02*
X150088345Y-46229400D01*
X150088345Y-46229400D02*
X150231202Y-46300828D01*
X150231202Y-46300828D02*
X150445488Y-46300828D01*
X150445488Y-46300828D02*
X150588345Y-46229400D01*
X149945488Y-45729400D02*
X150088345Y-45800828D01*
X150088345Y-45800828D02*
X150374059Y-45800828D01*
X150374059Y-45800828D02*
X150516916Y-45729400D01*
X150516916Y-45729400D02*
X150588345Y-45657971D01*
X150588345Y-45657971D02*
X150659773Y-45515114D01*
X150659773Y-45515114D02*
X150659773Y-45086542D01*
X150659773Y-45086542D02*
X150588345Y-44943685D01*
X150588345Y-44943685D02*
X150516916Y-44872257D01*
X150516916Y-44872257D02*
X150374059Y-44800828D01*
X150374059Y-44800828D02*
X150088345Y-44800828D01*
X150088345Y-44800828D02*
X149945488Y-44872257D01*
X149231202Y-44800828D02*
X149231202Y-45800828D01*
X149231202Y-44943685D02*
X149159773Y-44872257D01*
X149159773Y-44872257D02*
X149016916Y-44800828D01*
X149016916Y-44800828D02*
X148802630Y-44800828D01*
X148802630Y-44800828D02*
X148659773Y-44872257D01*
X148659773Y-44872257D02*
X148588345Y-45015114D01*
X148588345Y-45015114D02*
X148588345Y-45800828D01*
X147302630Y-45729400D02*
X147445487Y-45800828D01*
X147445487Y-45800828D02*
X147731202Y-45800828D01*
X147731202Y-45800828D02*
X147874059Y-45729400D01*
X147874059Y-45729400D02*
X147945487Y-45586542D01*
X147945487Y-45586542D02*
X147945487Y-45015114D01*
X147945487Y-45015114D02*
X147874059Y-44872257D01*
X147874059Y-44872257D02*
X147731202Y-44800828D01*
X147731202Y-44800828D02*
X147445487Y-44800828D01*
X147445487Y-44800828D02*
X147302630Y-44872257D01*
X147302630Y-44872257D02*
X147231202Y-45015114D01*
X147231202Y-45015114D02*
X147231202Y-45157971D01*
X147231202Y-45157971D02*
X147945487Y-45300828D01*
X145945488Y-45800828D02*
X145945488Y-44300828D01*
X145945488Y-45729400D02*
X146088345Y-45800828D01*
X146088345Y-45800828D02*
X146374059Y-45800828D01*
X146374059Y-45800828D02*
X146516916Y-45729400D01*
X146516916Y-45729400D02*
X146588345Y-45657971D01*
X146588345Y-45657971D02*
X146659773Y-45515114D01*
X146659773Y-45515114D02*
X146659773Y-45086542D01*
X146659773Y-45086542D02*
X146588345Y-44943685D01*
X146588345Y-44943685D02*
X146516916Y-44872257D01*
X146516916Y-44872257D02*
X146374059Y-44800828D01*
X146374059Y-44800828D02*
X146088345Y-44800828D01*
X146088345Y-44800828D02*
X145945488Y-44872257D01*
X144088345Y-45800828D02*
X144088345Y-44800828D01*
X144088345Y-44300828D02*
X144159773Y-44372257D01*
X144159773Y-44372257D02*
X144088345Y-44443685D01*
X144088345Y-44443685D02*
X144016916Y-44372257D01*
X144016916Y-44372257D02*
X144088345Y-44300828D01*
X144088345Y-44300828D02*
X144088345Y-44443685D01*
X143588344Y-44800828D02*
X143016916Y-44800828D01*
X143374059Y-44300828D02*
X143374059Y-45586542D01*
X143374059Y-45586542D02*
X143302630Y-45729400D01*
X143302630Y-45729400D02*
X143159773Y-45800828D01*
X143159773Y-45800828D02*
X143016916Y-45800828D01*
X140731202Y-45800828D02*
X140731202Y-45015114D01*
X140731202Y-45015114D02*
X140802630Y-44872257D01*
X140802630Y-44872257D02*
X140945487Y-44800828D01*
X140945487Y-44800828D02*
X141231202Y-44800828D01*
X141231202Y-44800828D02*
X141374059Y-44872257D01*
X140731202Y-45729400D02*
X140874059Y-45800828D01*
X140874059Y-45800828D02*
X141231202Y-45800828D01*
X141231202Y-45800828D02*
X141374059Y-45729400D01*
X141374059Y-45729400D02*
X141445487Y-45586542D01*
X141445487Y-45586542D02*
X141445487Y-45443685D01*
X141445487Y-45443685D02*
X141374059Y-45300828D01*
X141374059Y-45300828D02*
X141231202Y-45229400D01*
X141231202Y-45229400D02*
X140874059Y-45229400D01*
X140874059Y-45229400D02*
X140731202Y-45157971D01*
X140231201Y-44800828D02*
X139659773Y-44800828D01*
X140016916Y-44300828D02*
X140016916Y-45586542D01*
X140016916Y-45586542D02*
X139945487Y-45729400D01*
X139945487Y-45729400D02*
X139802630Y-45800828D01*
X139802630Y-45800828D02*
X139659773Y-45800828D01*
X137802630Y-45800828D02*
X137945487Y-45729400D01*
X137945487Y-45729400D02*
X138016916Y-45586542D01*
X138016916Y-45586542D02*
X138016916Y-44300828D01*
X136659773Y-45729400D02*
X136802630Y-45800828D01*
X136802630Y-45800828D02*
X137088345Y-45800828D01*
X137088345Y-45800828D02*
X137231202Y-45729400D01*
X137231202Y-45729400D02*
X137302630Y-45586542D01*
X137302630Y-45586542D02*
X137302630Y-45015114D01*
X137302630Y-45015114D02*
X137231202Y-44872257D01*
X137231202Y-44872257D02*
X137088345Y-44800828D01*
X137088345Y-44800828D02*
X136802630Y-44800828D01*
X136802630Y-44800828D02*
X136659773Y-44872257D01*
X136659773Y-44872257D02*
X136588345Y-45015114D01*
X136588345Y-45015114D02*
X136588345Y-45157971D01*
X136588345Y-45157971D02*
X137302630Y-45300828D01*
X135302631Y-45800828D02*
X135302631Y-45015114D01*
X135302631Y-45015114D02*
X135374059Y-44872257D01*
X135374059Y-44872257D02*
X135516916Y-44800828D01*
X135516916Y-44800828D02*
X135802631Y-44800828D01*
X135802631Y-44800828D02*
X135945488Y-44872257D01*
X135302631Y-45729400D02*
X135445488Y-45800828D01*
X135445488Y-45800828D02*
X135802631Y-45800828D01*
X135802631Y-45800828D02*
X135945488Y-45729400D01*
X135945488Y-45729400D02*
X136016916Y-45586542D01*
X136016916Y-45586542D02*
X136016916Y-45443685D01*
X136016916Y-45443685D02*
X135945488Y-45300828D01*
X135945488Y-45300828D02*
X135802631Y-45229400D01*
X135802631Y-45229400D02*
X135445488Y-45229400D01*
X135445488Y-45229400D02*
X135302631Y-45157971D01*
X134659773Y-45729400D02*
X134516916Y-45800828D01*
X134516916Y-45800828D02*
X134231202Y-45800828D01*
X134231202Y-45800828D02*
X134088345Y-45729400D01*
X134088345Y-45729400D02*
X134016916Y-45586542D01*
X134016916Y-45586542D02*
X134016916Y-45515114D01*
X134016916Y-45515114D02*
X134088345Y-45372257D01*
X134088345Y-45372257D02*
X134231202Y-45300828D01*
X134231202Y-45300828D02*
X134445488Y-45300828D01*
X134445488Y-45300828D02*
X134588345Y-45229400D01*
X134588345Y-45229400D02*
X134659773Y-45086542D01*
X134659773Y-45086542D02*
X134659773Y-45015114D01*
X134659773Y-45015114D02*
X134588345Y-44872257D01*
X134588345Y-44872257D02*
X134445488Y-44800828D01*
X134445488Y-44800828D02*
X134231202Y-44800828D01*
X134231202Y-44800828D02*
X134088345Y-44872257D01*
X133588344Y-44800828D02*
X133016916Y-44800828D01*
X133374059Y-44300828D02*
X133374059Y-45586542D01*
X133374059Y-45586542D02*
X133302630Y-45729400D01*
X133302630Y-45729400D02*
X133159773Y-45800828D01*
X133159773Y-45800828D02*
X133016916Y-45800828D01*
X132516916Y-45657971D02*
X132445487Y-45729400D01*
X132445487Y-45729400D02*
X132516916Y-45800828D01*
X132516916Y-45800828D02*
X132588344Y-45729400D01*
X132588344Y-45729400D02*
X132516916Y-45657971D01*
X132516916Y-45657971D02*
X132516916Y-45800828D01*
D12*
X172769063Y-36001730D02*
X173135730Y-35477921D01*
X173397635Y-36001730D02*
X173397635Y-34901730D01*
X173397635Y-34901730D02*
X172978587Y-34901730D01*
X172978587Y-34901730D02*
X172873825Y-34954111D01*
X172873825Y-34954111D02*
X172821444Y-35006492D01*
X172821444Y-35006492D02*
X172769063Y-35111254D01*
X172769063Y-35111254D02*
X172769063Y-35268397D01*
X172769063Y-35268397D02*
X172821444Y-35373159D01*
X172821444Y-35373159D02*
X172873825Y-35425540D01*
X172873825Y-35425540D02*
X172978587Y-35477921D01*
X172978587Y-35477921D02*
X173397635Y-35477921D01*
X172297635Y-35425540D02*
X171930968Y-35425540D01*
X171773825Y-36001730D02*
X172297635Y-36001730D01*
X172297635Y-36001730D02*
X172297635Y-34901730D01*
X172297635Y-34901730D02*
X171773825Y-34901730D01*
X171354778Y-35949350D02*
X171197635Y-36001730D01*
X171197635Y-36001730D02*
X170935730Y-36001730D01*
X170935730Y-36001730D02*
X170830968Y-35949350D01*
X170830968Y-35949350D02*
X170778587Y-35896969D01*
X170778587Y-35896969D02*
X170726206Y-35792207D01*
X170726206Y-35792207D02*
X170726206Y-35687445D01*
X170726206Y-35687445D02*
X170778587Y-35582683D01*
X170778587Y-35582683D02*
X170830968Y-35530302D01*
X170830968Y-35530302D02*
X170935730Y-35477921D01*
X170935730Y-35477921D02*
X171145254Y-35425540D01*
X171145254Y-35425540D02*
X171250016Y-35373159D01*
X171250016Y-35373159D02*
X171302397Y-35320778D01*
X171302397Y-35320778D02*
X171354778Y-35216016D01*
X171354778Y-35216016D02*
X171354778Y-35111254D01*
X171354778Y-35111254D02*
X171302397Y-35006492D01*
X171302397Y-35006492D02*
X171250016Y-34954111D01*
X171250016Y-34954111D02*
X171145254Y-34901730D01*
X171145254Y-34901730D02*
X170883349Y-34901730D01*
X170883349Y-34901730D02*
X170726206Y-34954111D01*
X178030968Y-35425540D02*
X177873825Y-35477921D01*
X177873825Y-35477921D02*
X177821444Y-35530302D01*
X177821444Y-35530302D02*
X177769063Y-35635064D01*
X177769063Y-35635064D02*
X177769063Y-35792207D01*
X177769063Y-35792207D02*
X177821444Y-35896969D01*
X177821444Y-35896969D02*
X177873825Y-35949350D01*
X177873825Y-35949350D02*
X177978587Y-36001730D01*
X177978587Y-36001730D02*
X178397635Y-36001730D01*
X178397635Y-36001730D02*
X178397635Y-34901730D01*
X178397635Y-34901730D02*
X178030968Y-34901730D01*
X178030968Y-34901730D02*
X177926206Y-34954111D01*
X177926206Y-34954111D02*
X177873825Y-35006492D01*
X177873825Y-35006492D02*
X177821444Y-35111254D01*
X177821444Y-35111254D02*
X177821444Y-35216016D01*
X177821444Y-35216016D02*
X177873825Y-35320778D01*
X177873825Y-35320778D02*
X177926206Y-35373159D01*
X177926206Y-35373159D02*
X178030968Y-35425540D01*
X178030968Y-35425540D02*
X178397635Y-35425540D01*
X177297635Y-34901730D02*
X177297635Y-35792207D01*
X177297635Y-35792207D02*
X177245254Y-35896969D01*
X177245254Y-35896969D02*
X177192873Y-35949350D01*
X177192873Y-35949350D02*
X177088111Y-36001730D01*
X177088111Y-36001730D02*
X176878587Y-36001730D01*
X176878587Y-36001730D02*
X176773825Y-35949350D01*
X176773825Y-35949350D02*
X176721444Y-35896969D01*
X176721444Y-35896969D02*
X176669063Y-35792207D01*
X176669063Y-35792207D02*
X176669063Y-34901730D01*
X176197635Y-35949350D02*
X176040492Y-36001730D01*
X176040492Y-36001730D02*
X175778587Y-36001730D01*
X175778587Y-36001730D02*
X175673825Y-35949350D01*
X175673825Y-35949350D02*
X175621444Y-35896969D01*
X175621444Y-35896969D02*
X175569063Y-35792207D01*
X175569063Y-35792207D02*
X175569063Y-35687445D01*
X175569063Y-35687445D02*
X175621444Y-35582683D01*
X175621444Y-35582683D02*
X175673825Y-35530302D01*
X175673825Y-35530302D02*
X175778587Y-35477921D01*
X175778587Y-35477921D02*
X175988111Y-35425540D01*
X175988111Y-35425540D02*
X176092873Y-35373159D01*
X176092873Y-35373159D02*
X176145254Y-35320778D01*
X176145254Y-35320778D02*
X176197635Y-35216016D01*
X176197635Y-35216016D02*
X176197635Y-35111254D01*
X176197635Y-35111254D02*
X176145254Y-35006492D01*
X176145254Y-35006492D02*
X176092873Y-34954111D01*
X176092873Y-34954111D02*
X175988111Y-34901730D01*
X175988111Y-34901730D02*
X175726206Y-34901730D01*
X175726206Y-34901730D02*
X175569063Y-34954111D01*
X174888111Y-35477921D02*
X174888111Y-36001730D01*
X175254778Y-34901730D02*
X174888111Y-35477921D01*
X174888111Y-35477921D02*
X174521444Y-34901730D01*
X172769063Y-38896969D02*
X172821444Y-38949350D01*
X172821444Y-38949350D02*
X172978587Y-39001730D01*
X172978587Y-39001730D02*
X173083349Y-39001730D01*
X173083349Y-39001730D02*
X173240492Y-38949350D01*
X173240492Y-38949350D02*
X173345254Y-38844588D01*
X173345254Y-38844588D02*
X173397635Y-38739826D01*
X173397635Y-38739826D02*
X173450016Y-38530302D01*
X173450016Y-38530302D02*
X173450016Y-38373159D01*
X173450016Y-38373159D02*
X173397635Y-38163635D01*
X173397635Y-38163635D02*
X173345254Y-38058873D01*
X173345254Y-38058873D02*
X173240492Y-37954111D01*
X173240492Y-37954111D02*
X173083349Y-37901730D01*
X173083349Y-37901730D02*
X172978587Y-37901730D01*
X172978587Y-37901730D02*
X172821444Y-37954111D01*
X172821444Y-37954111D02*
X172769063Y-38006492D01*
X172350016Y-38949350D02*
X172192873Y-39001730D01*
X172192873Y-39001730D02*
X171930968Y-39001730D01*
X171930968Y-39001730D02*
X171826206Y-38949350D01*
X171826206Y-38949350D02*
X171773825Y-38896969D01*
X171773825Y-38896969D02*
X171721444Y-38792207D01*
X171721444Y-38792207D02*
X171721444Y-38687445D01*
X171721444Y-38687445D02*
X171773825Y-38582683D01*
X171773825Y-38582683D02*
X171826206Y-38530302D01*
X171826206Y-38530302D02*
X171930968Y-38477921D01*
X171930968Y-38477921D02*
X172140492Y-38425540D01*
X172140492Y-38425540D02*
X172245254Y-38373159D01*
X172245254Y-38373159D02*
X172297635Y-38320778D01*
X172297635Y-38320778D02*
X172350016Y-38216016D01*
X172350016Y-38216016D02*
X172350016Y-38111254D01*
X172350016Y-38111254D02*
X172297635Y-38006492D01*
X172297635Y-38006492D02*
X172245254Y-37954111D01*
X172245254Y-37954111D02*
X172140492Y-37901730D01*
X172140492Y-37901730D02*
X171878587Y-37901730D01*
X171878587Y-37901730D02*
X171721444Y-37954111D01*
X178397635Y-39001730D02*
X178397635Y-37901730D01*
X178397635Y-37901730D02*
X178135730Y-37901730D01*
X178135730Y-37901730D02*
X177978587Y-37954111D01*
X177978587Y-37954111D02*
X177873825Y-38058873D01*
X177873825Y-38058873D02*
X177821444Y-38163635D01*
X177821444Y-38163635D02*
X177769063Y-38373159D01*
X177769063Y-38373159D02*
X177769063Y-38530302D01*
X177769063Y-38530302D02*
X177821444Y-38739826D01*
X177821444Y-38739826D02*
X177873825Y-38844588D01*
X177873825Y-38844588D02*
X177978587Y-38949350D01*
X177978587Y-38949350D02*
X178135730Y-39001730D01*
X178135730Y-39001730D02*
X178397635Y-39001730D01*
X176511920Y-37849350D02*
X177454778Y-39263635D01*
X175516682Y-38896969D02*
X175569063Y-38949350D01*
X175569063Y-38949350D02*
X175726206Y-39001730D01*
X175726206Y-39001730D02*
X175830968Y-39001730D01*
X175830968Y-39001730D02*
X175988111Y-38949350D01*
X175988111Y-38949350D02*
X176092873Y-38844588D01*
X176092873Y-38844588D02*
X176145254Y-38739826D01*
X176145254Y-38739826D02*
X176197635Y-38530302D01*
X176197635Y-38530302D02*
X176197635Y-38373159D01*
X176197635Y-38373159D02*
X176145254Y-38163635D01*
X176145254Y-38163635D02*
X176092873Y-38058873D01*
X176092873Y-38058873D02*
X175988111Y-37954111D01*
X175988111Y-37954111D02*
X175830968Y-37901730D01*
X175830968Y-37901730D02*
X175726206Y-37901730D01*
X175726206Y-37901730D02*
X175569063Y-37954111D01*
X175569063Y-37954111D02*
X175516682Y-38006492D01*
X173450016Y-41949350D02*
X173292873Y-42001730D01*
X173292873Y-42001730D02*
X173030968Y-42001730D01*
X173030968Y-42001730D02*
X172926206Y-41949350D01*
X172926206Y-41949350D02*
X172873825Y-41896969D01*
X172873825Y-41896969D02*
X172821444Y-41792207D01*
X172821444Y-41792207D02*
X172821444Y-41687445D01*
X172821444Y-41687445D02*
X172873825Y-41582683D01*
X172873825Y-41582683D02*
X172926206Y-41530302D01*
X172926206Y-41530302D02*
X173030968Y-41477921D01*
X173030968Y-41477921D02*
X173240492Y-41425540D01*
X173240492Y-41425540D02*
X173345254Y-41373159D01*
X173345254Y-41373159D02*
X173397635Y-41320778D01*
X173397635Y-41320778D02*
X173450016Y-41216016D01*
X173450016Y-41216016D02*
X173450016Y-41111254D01*
X173450016Y-41111254D02*
X173397635Y-41006492D01*
X173397635Y-41006492D02*
X173345254Y-40954111D01*
X173345254Y-40954111D02*
X173240492Y-40901730D01*
X173240492Y-40901730D02*
X172978587Y-40901730D01*
X172978587Y-40901730D02*
X172821444Y-40954111D01*
X172350016Y-42001730D02*
X172350016Y-40901730D01*
X172350016Y-40901730D02*
X172088111Y-40901730D01*
X172088111Y-40901730D02*
X171930968Y-40954111D01*
X171930968Y-40954111D02*
X171826206Y-41058873D01*
X171826206Y-41058873D02*
X171773825Y-41163635D01*
X171773825Y-41163635D02*
X171721444Y-41373159D01*
X171721444Y-41373159D02*
X171721444Y-41530302D01*
X171721444Y-41530302D02*
X171773825Y-41739826D01*
X171773825Y-41739826D02*
X171826206Y-41844588D01*
X171826206Y-41844588D02*
X171930968Y-41949350D01*
X171930968Y-41949350D02*
X172088111Y-42001730D01*
X172088111Y-42001730D02*
X172350016Y-42001730D01*
X171302397Y-41687445D02*
X170778587Y-41687445D01*
X171407159Y-42001730D02*
X171040492Y-40901730D01*
X171040492Y-40901730D02*
X170673825Y-42001730D01*
X178450016Y-41949350D02*
X178292873Y-42001730D01*
X178292873Y-42001730D02*
X178030968Y-42001730D01*
X178030968Y-42001730D02*
X177926206Y-41949350D01*
X177926206Y-41949350D02*
X177873825Y-41896969D01*
X177873825Y-41896969D02*
X177821444Y-41792207D01*
X177821444Y-41792207D02*
X177821444Y-41687445D01*
X177821444Y-41687445D02*
X177873825Y-41582683D01*
X177873825Y-41582683D02*
X177926206Y-41530302D01*
X177926206Y-41530302D02*
X178030968Y-41477921D01*
X178030968Y-41477921D02*
X178240492Y-41425540D01*
X178240492Y-41425540D02*
X178345254Y-41373159D01*
X178345254Y-41373159D02*
X178397635Y-41320778D01*
X178397635Y-41320778D02*
X178450016Y-41216016D01*
X178450016Y-41216016D02*
X178450016Y-41111254D01*
X178450016Y-41111254D02*
X178397635Y-41006492D01*
X178397635Y-41006492D02*
X178345254Y-40954111D01*
X178345254Y-40954111D02*
X178240492Y-40901730D01*
X178240492Y-40901730D02*
X177978587Y-40901730D01*
X177978587Y-40901730D02*
X177821444Y-40954111D01*
X176721444Y-41896969D02*
X176773825Y-41949350D01*
X176773825Y-41949350D02*
X176930968Y-42001730D01*
X176930968Y-42001730D02*
X177035730Y-42001730D01*
X177035730Y-42001730D02*
X177192873Y-41949350D01*
X177192873Y-41949350D02*
X177297635Y-41844588D01*
X177297635Y-41844588D02*
X177350016Y-41739826D01*
X177350016Y-41739826D02*
X177402397Y-41530302D01*
X177402397Y-41530302D02*
X177402397Y-41373159D01*
X177402397Y-41373159D02*
X177350016Y-41163635D01*
X177350016Y-41163635D02*
X177297635Y-41058873D01*
X177297635Y-41058873D02*
X177192873Y-40954111D01*
X177192873Y-40954111D02*
X177035730Y-40901730D01*
X177035730Y-40901730D02*
X176930968Y-40901730D01*
X176930968Y-40901730D02*
X176773825Y-40954111D01*
X176773825Y-40954111D02*
X176721444Y-41006492D01*
X175726206Y-42001730D02*
X176250016Y-42001730D01*
X176250016Y-42001730D02*
X176250016Y-40901730D01*
X173554778Y-43901730D02*
X173188111Y-45001730D01*
X173188111Y-45001730D02*
X172821444Y-43901730D01*
X171826206Y-44896969D02*
X171878587Y-44949350D01*
X171878587Y-44949350D02*
X172035730Y-45001730D01*
X172035730Y-45001730D02*
X172140492Y-45001730D01*
X172140492Y-45001730D02*
X172297635Y-44949350D01*
X172297635Y-44949350D02*
X172402397Y-44844588D01*
X172402397Y-44844588D02*
X172454778Y-44739826D01*
X172454778Y-44739826D02*
X172507159Y-44530302D01*
X172507159Y-44530302D02*
X172507159Y-44373159D01*
X172507159Y-44373159D02*
X172454778Y-44163635D01*
X172454778Y-44163635D02*
X172402397Y-44058873D01*
X172402397Y-44058873D02*
X172297635Y-43954111D01*
X172297635Y-43954111D02*
X172140492Y-43901730D01*
X172140492Y-43901730D02*
X172035730Y-43901730D01*
X172035730Y-43901730D02*
X171878587Y-43954111D01*
X171878587Y-43954111D02*
X171826206Y-44006492D01*
X170726206Y-44896969D02*
X170778587Y-44949350D01*
X170778587Y-44949350D02*
X170935730Y-45001730D01*
X170935730Y-45001730D02*
X171040492Y-45001730D01*
X171040492Y-45001730D02*
X171197635Y-44949350D01*
X171197635Y-44949350D02*
X171302397Y-44844588D01*
X171302397Y-44844588D02*
X171354778Y-44739826D01*
X171354778Y-44739826D02*
X171407159Y-44530302D01*
X171407159Y-44530302D02*
X171407159Y-44373159D01*
X171407159Y-44373159D02*
X171354778Y-44163635D01*
X171354778Y-44163635D02*
X171302397Y-44058873D01*
X171302397Y-44058873D02*
X171197635Y-43954111D01*
X171197635Y-43954111D02*
X171040492Y-43901730D01*
X171040492Y-43901730D02*
X170935730Y-43901730D01*
X170935730Y-43901730D02*
X170778587Y-43954111D01*
X170778587Y-43954111D02*
X170726206Y-44006492D01*
X177821444Y-43954111D02*
X177926206Y-43901730D01*
X177926206Y-43901730D02*
X178083349Y-43901730D01*
X178083349Y-43901730D02*
X178240492Y-43954111D01*
X178240492Y-43954111D02*
X178345254Y-44058873D01*
X178345254Y-44058873D02*
X178397635Y-44163635D01*
X178397635Y-44163635D02*
X178450016Y-44373159D01*
X178450016Y-44373159D02*
X178450016Y-44530302D01*
X178450016Y-44530302D02*
X178397635Y-44739826D01*
X178397635Y-44739826D02*
X178345254Y-44844588D01*
X178345254Y-44844588D02*
X178240492Y-44949350D01*
X178240492Y-44949350D02*
X178083349Y-45001730D01*
X178083349Y-45001730D02*
X177978587Y-45001730D01*
X177978587Y-45001730D02*
X177821444Y-44949350D01*
X177821444Y-44949350D02*
X177769063Y-44896969D01*
X177769063Y-44896969D02*
X177769063Y-44530302D01*
X177769063Y-44530302D02*
X177978587Y-44530302D01*
X177297635Y-45001730D02*
X177297635Y-43901730D01*
X177297635Y-43901730D02*
X176669063Y-45001730D01*
X176669063Y-45001730D02*
X176669063Y-43901730D01*
X176145254Y-45001730D02*
X176145254Y-43901730D01*
X176145254Y-43901730D02*
X175883349Y-43901730D01*
X175883349Y-43901730D02*
X175726206Y-43954111D01*
X175726206Y-43954111D02*
X175621444Y-44058873D01*
X175621444Y-44058873D02*
X175569063Y-44163635D01*
X175569063Y-44163635D02*
X175516682Y-44373159D01*
X175516682Y-44373159D02*
X175516682Y-44530302D01*
X175516682Y-44530302D02*
X175569063Y-44739826D01*
X175569063Y-44739826D02*
X175621444Y-44844588D01*
X175621444Y-44844588D02*
X175726206Y-44949350D01*
X175726206Y-44949350D02*
X175883349Y-45001730D01*
X175883349Y-45001730D02*
X176145254Y-45001730D01*
D13*
X174000000Y-34000000D02*
X174000000Y-37000000D01*
X174000000Y-37000000D02*
X174000000Y-40000000D01*
X174000000Y-40000000D02*
X174000000Y-43000000D01*
X174000000Y-43000000D02*
X174000000Y-46000000D01*
X174000000Y-37000000D02*
X169000000Y-37000000D01*
X179000000Y-37000000D02*
X174000000Y-37000000D01*
X174000000Y-40000000D02*
X169000000Y-40000000D01*
X179000000Y-40000000D02*
X174000000Y-40000000D01*
X174000000Y-43000000D02*
X169000000Y-43000000D01*
X179000000Y-43000000D02*
X174000000Y-43000000D01*
X169000000Y-34000000D02*
X179000000Y-34000000D01*
X179000000Y-34000000D02*
X179000000Y-46000000D01*
X179000000Y-46000000D02*
X169000000Y-46000000D01*
X169000000Y-46000000D02*
X169000000Y-34000000D01*
D14*
X121778094Y-115024819D02*
X121778094Y-114024819D01*
X121778094Y-114024819D02*
X121539999Y-114024819D01*
X121539999Y-114024819D02*
X121397142Y-114072438D01*
X121397142Y-114072438D02*
X121301904Y-114167676D01*
X121301904Y-114167676D02*
X121254285Y-114262914D01*
X121254285Y-114262914D02*
X121206666Y-114453390D01*
X121206666Y-114453390D02*
X121206666Y-114596247D01*
X121206666Y-114596247D02*
X121254285Y-114786723D01*
X121254285Y-114786723D02*
X121301904Y-114881961D01*
X121301904Y-114881961D02*
X121397142Y-114977200D01*
X121397142Y-114977200D02*
X121539999Y-115024819D01*
X121539999Y-115024819D02*
X121778094Y-115024819D01*
X120873332Y-114024819D02*
X120254285Y-114024819D01*
X120254285Y-114024819D02*
X120587618Y-114405771D01*
X120587618Y-114405771D02*
X120444761Y-114405771D01*
X120444761Y-114405771D02*
X120349523Y-114453390D01*
X120349523Y-114453390D02*
X120301904Y-114501009D01*
X120301904Y-114501009D02*
X120254285Y-114596247D01*
X120254285Y-114596247D02*
X120254285Y-114834342D01*
X120254285Y-114834342D02*
X120301904Y-114929580D01*
X120301904Y-114929580D02*
X120349523Y-114977200D01*
X120349523Y-114977200D02*
X120444761Y-115024819D01*
X120444761Y-115024819D02*
X120730475Y-115024819D01*
X120730475Y-115024819D02*
X120825713Y-114977200D01*
X120825713Y-114977200D02*
X120873332Y-114929580D01*
X117491904Y-114454819D02*
X117491904Y-113454819D01*
X116920476Y-114454819D02*
X117349047Y-113883390D01*
X116920476Y-113454819D02*
X117491904Y-114026247D01*
X121778094Y-95974819D02*
X121778094Y-94974819D01*
X121778094Y-94974819D02*
X121539999Y-94974819D01*
X121539999Y-94974819D02*
X121397142Y-95022438D01*
X121397142Y-95022438D02*
X121301904Y-95117676D01*
X121301904Y-95117676D02*
X121254285Y-95212914D01*
X121254285Y-95212914D02*
X121206666Y-95403390D01*
X121206666Y-95403390D02*
X121206666Y-95546247D01*
X121206666Y-95546247D02*
X121254285Y-95736723D01*
X121254285Y-95736723D02*
X121301904Y-95831961D01*
X121301904Y-95831961D02*
X121397142Y-95927200D01*
X121397142Y-95927200D02*
X121539999Y-95974819D01*
X121539999Y-95974819D02*
X121778094Y-95974819D01*
X120349523Y-95308152D02*
X120349523Y-95974819D01*
X120587618Y-94927200D02*
X120825713Y-95641485D01*
X120825713Y-95641485D02*
X120206666Y-95641485D01*
X117491904Y-95404819D02*
X117491904Y-94404819D01*
X116920476Y-95404819D02*
X117349047Y-94833390D01*
X116920476Y-94404819D02*
X117491904Y-94976247D01*
X140828094Y-115024819D02*
X140828094Y-114024819D01*
X140828094Y-114024819D02*
X140589999Y-114024819D01*
X140589999Y-114024819D02*
X140447142Y-114072438D01*
X140447142Y-114072438D02*
X140351904Y-114167676D01*
X140351904Y-114167676D02*
X140304285Y-114262914D01*
X140304285Y-114262914D02*
X140256666Y-114453390D01*
X140256666Y-114453390D02*
X140256666Y-114596247D01*
X140256666Y-114596247D02*
X140304285Y-114786723D01*
X140304285Y-114786723D02*
X140351904Y-114881961D01*
X140351904Y-114881961D02*
X140447142Y-114977200D01*
X140447142Y-114977200D02*
X140589999Y-115024819D01*
X140589999Y-115024819D02*
X140828094Y-115024819D01*
X139923332Y-114024819D02*
X139256666Y-114024819D01*
X139256666Y-114024819D02*
X139685237Y-115024819D01*
X136541904Y-114454819D02*
X136541904Y-113454819D01*
X135970476Y-114454819D02*
X136399047Y-113883390D01*
X135970476Y-113454819D02*
X136541904Y-114026247D01*
X179404285Y-115024819D02*
X179404285Y-114024819D01*
X179404285Y-114024819D02*
X179166190Y-114024819D01*
X179166190Y-114024819D02*
X179023333Y-114072438D01*
X179023333Y-114072438D02*
X178928095Y-114167676D01*
X178928095Y-114167676D02*
X178880476Y-114262914D01*
X178880476Y-114262914D02*
X178832857Y-114453390D01*
X178832857Y-114453390D02*
X178832857Y-114596247D01*
X178832857Y-114596247D02*
X178880476Y-114786723D01*
X178880476Y-114786723D02*
X178928095Y-114881961D01*
X178928095Y-114881961D02*
X179023333Y-114977200D01*
X179023333Y-114977200D02*
X179166190Y-115024819D01*
X179166190Y-115024819D02*
X179404285Y-115024819D01*
X177880476Y-115024819D02*
X178451904Y-115024819D01*
X178166190Y-115024819D02*
X178166190Y-114024819D01*
X178166190Y-114024819D02*
X178261428Y-114167676D01*
X178261428Y-114167676D02*
X178356666Y-114262914D01*
X178356666Y-114262914D02*
X178451904Y-114310533D01*
X177023333Y-114024819D02*
X177213809Y-114024819D01*
X177213809Y-114024819D02*
X177309047Y-114072438D01*
X177309047Y-114072438D02*
X177356666Y-114120057D01*
X177356666Y-114120057D02*
X177451904Y-114262914D01*
X177451904Y-114262914D02*
X177499523Y-114453390D01*
X177499523Y-114453390D02*
X177499523Y-114834342D01*
X177499523Y-114834342D02*
X177451904Y-114929580D01*
X177451904Y-114929580D02*
X177404285Y-114977200D01*
X177404285Y-114977200D02*
X177309047Y-115024819D01*
X177309047Y-115024819D02*
X177118571Y-115024819D01*
X177118571Y-115024819D02*
X177023333Y-114977200D01*
X177023333Y-114977200D02*
X176975714Y-114929580D01*
X176975714Y-114929580D02*
X176928095Y-114834342D01*
X176928095Y-114834342D02*
X176928095Y-114596247D01*
X176928095Y-114596247D02*
X176975714Y-114501009D01*
X176975714Y-114501009D02*
X177023333Y-114453390D01*
X177023333Y-114453390D02*
X177118571Y-114405771D01*
X177118571Y-114405771D02*
X177309047Y-114405771D01*
X177309047Y-114405771D02*
X177404285Y-114453390D01*
X177404285Y-114453390D02*
X177451904Y-114501009D01*
X177451904Y-114501009D02*
X177499523Y-114596247D01*
X174641904Y-114454819D02*
X174641904Y-113454819D01*
X174070476Y-114454819D02*
X174499047Y-113883390D01*
X174070476Y-113454819D02*
X174641904Y-114026247D01*
X140828094Y-76924819D02*
X140828094Y-75924819D01*
X140828094Y-75924819D02*
X140589999Y-75924819D01*
X140589999Y-75924819D02*
X140447142Y-75972438D01*
X140447142Y-75972438D02*
X140351904Y-76067676D01*
X140351904Y-76067676D02*
X140304285Y-76162914D01*
X140304285Y-76162914D02*
X140256666Y-76353390D01*
X140256666Y-76353390D02*
X140256666Y-76496247D01*
X140256666Y-76496247D02*
X140304285Y-76686723D01*
X140304285Y-76686723D02*
X140351904Y-76781961D01*
X140351904Y-76781961D02*
X140447142Y-76877200D01*
X140447142Y-76877200D02*
X140589999Y-76924819D01*
X140589999Y-76924819D02*
X140828094Y-76924819D01*
X139780475Y-76924819D02*
X139589999Y-76924819D01*
X139589999Y-76924819D02*
X139494761Y-76877200D01*
X139494761Y-76877200D02*
X139447142Y-76829580D01*
X139447142Y-76829580D02*
X139351904Y-76686723D01*
X139351904Y-76686723D02*
X139304285Y-76496247D01*
X139304285Y-76496247D02*
X139304285Y-76115295D01*
X139304285Y-76115295D02*
X139351904Y-76020057D01*
X139351904Y-76020057D02*
X139399523Y-75972438D01*
X139399523Y-75972438D02*
X139494761Y-75924819D01*
X139494761Y-75924819D02*
X139685237Y-75924819D01*
X139685237Y-75924819D02*
X139780475Y-75972438D01*
X139780475Y-75972438D02*
X139828094Y-76020057D01*
X139828094Y-76020057D02*
X139875713Y-76115295D01*
X139875713Y-76115295D02*
X139875713Y-76353390D01*
X139875713Y-76353390D02*
X139828094Y-76448628D01*
X139828094Y-76448628D02*
X139780475Y-76496247D01*
X139780475Y-76496247D02*
X139685237Y-76543866D01*
X139685237Y-76543866D02*
X139494761Y-76543866D01*
X139494761Y-76543866D02*
X139399523Y-76496247D01*
X139399523Y-76496247D02*
X139351904Y-76448628D01*
X139351904Y-76448628D02*
X139304285Y-76353390D01*
X136541904Y-76354819D02*
X136541904Y-75354819D01*
X135970476Y-76354819D02*
X136399047Y-75783390D01*
X135970476Y-75354819D02*
X136541904Y-75926247D01*
X160354285Y-153124819D02*
X160354285Y-152124819D01*
X160354285Y-152124819D02*
X160116190Y-152124819D01*
X160116190Y-152124819D02*
X159973333Y-152172438D01*
X159973333Y-152172438D02*
X159878095Y-152267676D01*
X159878095Y-152267676D02*
X159830476Y-152362914D01*
X159830476Y-152362914D02*
X159782857Y-152553390D01*
X159782857Y-152553390D02*
X159782857Y-152696247D01*
X159782857Y-152696247D02*
X159830476Y-152886723D01*
X159830476Y-152886723D02*
X159878095Y-152981961D01*
X159878095Y-152981961D02*
X159973333Y-153077200D01*
X159973333Y-153077200D02*
X160116190Y-153124819D01*
X160116190Y-153124819D02*
X160354285Y-153124819D01*
X158830476Y-153124819D02*
X159401904Y-153124819D01*
X159116190Y-153124819D02*
X159116190Y-152124819D01*
X159116190Y-152124819D02*
X159211428Y-152267676D01*
X159211428Y-152267676D02*
X159306666Y-152362914D01*
X159306666Y-152362914D02*
X159401904Y-152410533D01*
X158211428Y-152124819D02*
X158116190Y-152124819D01*
X158116190Y-152124819D02*
X158020952Y-152172438D01*
X158020952Y-152172438D02*
X157973333Y-152220057D01*
X157973333Y-152220057D02*
X157925714Y-152315295D01*
X157925714Y-152315295D02*
X157878095Y-152505771D01*
X157878095Y-152505771D02*
X157878095Y-152743866D01*
X157878095Y-152743866D02*
X157925714Y-152934342D01*
X157925714Y-152934342D02*
X157973333Y-153029580D01*
X157973333Y-153029580D02*
X158020952Y-153077200D01*
X158020952Y-153077200D02*
X158116190Y-153124819D01*
X158116190Y-153124819D02*
X158211428Y-153124819D01*
X158211428Y-153124819D02*
X158306666Y-153077200D01*
X158306666Y-153077200D02*
X158354285Y-153029580D01*
X158354285Y-153029580D02*
X158401904Y-152934342D01*
X158401904Y-152934342D02*
X158449523Y-152743866D01*
X158449523Y-152743866D02*
X158449523Y-152505771D01*
X158449523Y-152505771D02*
X158401904Y-152315295D01*
X158401904Y-152315295D02*
X158354285Y-152220057D01*
X158354285Y-152220057D02*
X158306666Y-152172438D01*
X158306666Y-152172438D02*
X158211428Y-152124819D01*
X155591904Y-152554819D02*
X155591904Y-151554819D01*
X155020476Y-152554819D02*
X155449047Y-151983390D01*
X155020476Y-151554819D02*
X155591904Y-152126247D01*
X160354285Y-134074819D02*
X160354285Y-133074819D01*
X160354285Y-133074819D02*
X160116190Y-133074819D01*
X160116190Y-133074819D02*
X159973333Y-133122438D01*
X159973333Y-133122438D02*
X159878095Y-133217676D01*
X159878095Y-133217676D02*
X159830476Y-133312914D01*
X159830476Y-133312914D02*
X159782857Y-133503390D01*
X159782857Y-133503390D02*
X159782857Y-133646247D01*
X159782857Y-133646247D02*
X159830476Y-133836723D01*
X159830476Y-133836723D02*
X159878095Y-133931961D01*
X159878095Y-133931961D02*
X159973333Y-134027200D01*
X159973333Y-134027200D02*
X160116190Y-134074819D01*
X160116190Y-134074819D02*
X160354285Y-134074819D01*
X158830476Y-134074819D02*
X159401904Y-134074819D01*
X159116190Y-134074819D02*
X159116190Y-133074819D01*
X159116190Y-133074819D02*
X159211428Y-133217676D01*
X159211428Y-133217676D02*
X159306666Y-133312914D01*
X159306666Y-133312914D02*
X159401904Y-133360533D01*
X157878095Y-134074819D02*
X158449523Y-134074819D01*
X158163809Y-134074819D02*
X158163809Y-133074819D01*
X158163809Y-133074819D02*
X158259047Y-133217676D01*
X158259047Y-133217676D02*
X158354285Y-133312914D01*
X158354285Y-133312914D02*
X158449523Y-133360533D01*
X155591904Y-133504819D02*
X155591904Y-132504819D01*
X155020476Y-133504819D02*
X155449047Y-132933390D01*
X155020476Y-132504819D02*
X155591904Y-133076247D01*
X179404285Y-76924819D02*
X179404285Y-75924819D01*
X179404285Y-75924819D02*
X179166190Y-75924819D01*
X179166190Y-75924819D02*
X179023333Y-75972438D01*
X179023333Y-75972438D02*
X178928095Y-76067676D01*
X178928095Y-76067676D02*
X178880476Y-76162914D01*
X178880476Y-76162914D02*
X178832857Y-76353390D01*
X178832857Y-76353390D02*
X178832857Y-76496247D01*
X178832857Y-76496247D02*
X178880476Y-76686723D01*
X178880476Y-76686723D02*
X178928095Y-76781961D01*
X178928095Y-76781961D02*
X179023333Y-76877200D01*
X179023333Y-76877200D02*
X179166190Y-76924819D01*
X179166190Y-76924819D02*
X179404285Y-76924819D01*
X177880476Y-76924819D02*
X178451904Y-76924819D01*
X178166190Y-76924819D02*
X178166190Y-75924819D01*
X178166190Y-75924819D02*
X178261428Y-76067676D01*
X178261428Y-76067676D02*
X178356666Y-76162914D01*
X178356666Y-76162914D02*
X178451904Y-76210533D01*
X177309047Y-76353390D02*
X177404285Y-76305771D01*
X177404285Y-76305771D02*
X177451904Y-76258152D01*
X177451904Y-76258152D02*
X177499523Y-76162914D01*
X177499523Y-76162914D02*
X177499523Y-76115295D01*
X177499523Y-76115295D02*
X177451904Y-76020057D01*
X177451904Y-76020057D02*
X177404285Y-75972438D01*
X177404285Y-75972438D02*
X177309047Y-75924819D01*
X177309047Y-75924819D02*
X177118571Y-75924819D01*
X177118571Y-75924819D02*
X177023333Y-75972438D01*
X177023333Y-75972438D02*
X176975714Y-76020057D01*
X176975714Y-76020057D02*
X176928095Y-76115295D01*
X176928095Y-76115295D02*
X176928095Y-76162914D01*
X176928095Y-76162914D02*
X176975714Y-76258152D01*
X176975714Y-76258152D02*
X177023333Y-76305771D01*
X177023333Y-76305771D02*
X177118571Y-76353390D01*
X177118571Y-76353390D02*
X177309047Y-76353390D01*
X177309047Y-76353390D02*
X177404285Y-76401009D01*
X177404285Y-76401009D02*
X177451904Y-76448628D01*
X177451904Y-76448628D02*
X177499523Y-76543866D01*
X177499523Y-76543866D02*
X177499523Y-76734342D01*
X177499523Y-76734342D02*
X177451904Y-76829580D01*
X177451904Y-76829580D02*
X177404285Y-76877200D01*
X177404285Y-76877200D02*
X177309047Y-76924819D01*
X177309047Y-76924819D02*
X177118571Y-76924819D01*
X177118571Y-76924819D02*
X177023333Y-76877200D01*
X177023333Y-76877200D02*
X176975714Y-76829580D01*
X176975714Y-76829580D02*
X176928095Y-76734342D01*
X176928095Y-76734342D02*
X176928095Y-76543866D01*
X176928095Y-76543866D02*
X176975714Y-76448628D01*
X176975714Y-76448628D02*
X177023333Y-76401009D01*
X177023333Y-76401009D02*
X177118571Y-76353390D01*
X174641904Y-76354819D02*
X174641904Y-75354819D01*
X174070476Y-76354819D02*
X174499047Y-75783390D01*
X174070476Y-75354819D02*
X174641904Y-75926247D01*
X179404285Y-143599819D02*
X179404285Y-142599819D01*
X179404285Y-142599819D02*
X179166190Y-142599819D01*
X179166190Y-142599819D02*
X179023333Y-142647438D01*
X179023333Y-142647438D02*
X178928095Y-142742676D01*
X178928095Y-142742676D02*
X178880476Y-142837914D01*
X178880476Y-142837914D02*
X178832857Y-143028390D01*
X178832857Y-143028390D02*
X178832857Y-143171247D01*
X178832857Y-143171247D02*
X178880476Y-143361723D01*
X178880476Y-143361723D02*
X178928095Y-143456961D01*
X178928095Y-143456961D02*
X179023333Y-143552200D01*
X179023333Y-143552200D02*
X179166190Y-143599819D01*
X179166190Y-143599819D02*
X179404285Y-143599819D01*
X177880476Y-143599819D02*
X178451904Y-143599819D01*
X178166190Y-143599819D02*
X178166190Y-142599819D01*
X178166190Y-142599819D02*
X178261428Y-142742676D01*
X178261428Y-142742676D02*
X178356666Y-142837914D01*
X178356666Y-142837914D02*
X178451904Y-142885533D01*
X176975714Y-142599819D02*
X177451904Y-142599819D01*
X177451904Y-142599819D02*
X177499523Y-143076009D01*
X177499523Y-143076009D02*
X177451904Y-143028390D01*
X177451904Y-143028390D02*
X177356666Y-142980771D01*
X177356666Y-142980771D02*
X177118571Y-142980771D01*
X177118571Y-142980771D02*
X177023333Y-143028390D01*
X177023333Y-143028390D02*
X176975714Y-143076009D01*
X176975714Y-143076009D02*
X176928095Y-143171247D01*
X176928095Y-143171247D02*
X176928095Y-143409342D01*
X176928095Y-143409342D02*
X176975714Y-143504580D01*
X176975714Y-143504580D02*
X177023333Y-143552200D01*
X177023333Y-143552200D02*
X177118571Y-143599819D01*
X177118571Y-143599819D02*
X177356666Y-143599819D01*
X177356666Y-143599819D02*
X177451904Y-143552200D01*
X177451904Y-143552200D02*
X177499523Y-143504580D01*
X174641904Y-143029819D02*
X174641904Y-142029819D01*
X174070476Y-143029819D02*
X174499047Y-142458390D01*
X174070476Y-142029819D02*
X174641904Y-142601247D01*
X160354285Y-95974819D02*
X160354285Y-94974819D01*
X160354285Y-94974819D02*
X160116190Y-94974819D01*
X160116190Y-94974819D02*
X159973333Y-95022438D01*
X159973333Y-95022438D02*
X159878095Y-95117676D01*
X159878095Y-95117676D02*
X159830476Y-95212914D01*
X159830476Y-95212914D02*
X159782857Y-95403390D01*
X159782857Y-95403390D02*
X159782857Y-95546247D01*
X159782857Y-95546247D02*
X159830476Y-95736723D01*
X159830476Y-95736723D02*
X159878095Y-95831961D01*
X159878095Y-95831961D02*
X159973333Y-95927200D01*
X159973333Y-95927200D02*
X160116190Y-95974819D01*
X160116190Y-95974819D02*
X160354285Y-95974819D01*
X158830476Y-95974819D02*
X159401904Y-95974819D01*
X159116190Y-95974819D02*
X159116190Y-94974819D01*
X159116190Y-94974819D02*
X159211428Y-95117676D01*
X159211428Y-95117676D02*
X159306666Y-95212914D01*
X159306666Y-95212914D02*
X159401904Y-95260533D01*
X158497142Y-94974819D02*
X157878095Y-94974819D01*
X157878095Y-94974819D02*
X158211428Y-95355771D01*
X158211428Y-95355771D02*
X158068571Y-95355771D01*
X158068571Y-95355771D02*
X157973333Y-95403390D01*
X157973333Y-95403390D02*
X157925714Y-95451009D01*
X157925714Y-95451009D02*
X157878095Y-95546247D01*
X157878095Y-95546247D02*
X157878095Y-95784342D01*
X157878095Y-95784342D02*
X157925714Y-95879580D01*
X157925714Y-95879580D02*
X157973333Y-95927200D01*
X157973333Y-95927200D02*
X158068571Y-95974819D01*
X158068571Y-95974819D02*
X158354285Y-95974819D01*
X158354285Y-95974819D02*
X158449523Y-95927200D01*
X158449523Y-95927200D02*
X158497142Y-95879580D01*
X155591904Y-95404819D02*
X155591904Y-94404819D01*
X155020476Y-95404819D02*
X155449047Y-94833390D01*
X155020476Y-94404819D02*
X155591904Y-94976247D01*
X121778094Y-134074819D02*
X121778094Y-133074819D01*
X121778094Y-133074819D02*
X121539999Y-133074819D01*
X121539999Y-133074819D02*
X121397142Y-133122438D01*
X121397142Y-133122438D02*
X121301904Y-133217676D01*
X121301904Y-133217676D02*
X121254285Y-133312914D01*
X121254285Y-133312914D02*
X121206666Y-133503390D01*
X121206666Y-133503390D02*
X121206666Y-133646247D01*
X121206666Y-133646247D02*
X121254285Y-133836723D01*
X121254285Y-133836723D02*
X121301904Y-133931961D01*
X121301904Y-133931961D02*
X121397142Y-134027200D01*
X121397142Y-134027200D02*
X121539999Y-134074819D01*
X121539999Y-134074819D02*
X121778094Y-134074819D01*
X120825713Y-133170057D02*
X120778094Y-133122438D01*
X120778094Y-133122438D02*
X120682856Y-133074819D01*
X120682856Y-133074819D02*
X120444761Y-133074819D01*
X120444761Y-133074819D02*
X120349523Y-133122438D01*
X120349523Y-133122438D02*
X120301904Y-133170057D01*
X120301904Y-133170057D02*
X120254285Y-133265295D01*
X120254285Y-133265295D02*
X120254285Y-133360533D01*
X120254285Y-133360533D02*
X120301904Y-133503390D01*
X120301904Y-133503390D02*
X120873332Y-134074819D01*
X120873332Y-134074819D02*
X120254285Y-134074819D01*
X117491904Y-133504819D02*
X117491904Y-132504819D01*
X116920476Y-133504819D02*
X117349047Y-132933390D01*
X116920476Y-132504819D02*
X117491904Y-133076247D01*
X140828094Y-134074819D02*
X140828094Y-133074819D01*
X140828094Y-133074819D02*
X140589999Y-133074819D01*
X140589999Y-133074819D02*
X140447142Y-133122438D01*
X140447142Y-133122438D02*
X140351904Y-133217676D01*
X140351904Y-133217676D02*
X140304285Y-133312914D01*
X140304285Y-133312914D02*
X140256666Y-133503390D01*
X140256666Y-133503390D02*
X140256666Y-133646247D01*
X140256666Y-133646247D02*
X140304285Y-133836723D01*
X140304285Y-133836723D02*
X140351904Y-133931961D01*
X140351904Y-133931961D02*
X140447142Y-134027200D01*
X140447142Y-134027200D02*
X140589999Y-134074819D01*
X140589999Y-134074819D02*
X140828094Y-134074819D01*
X139399523Y-133074819D02*
X139589999Y-133074819D01*
X139589999Y-133074819D02*
X139685237Y-133122438D01*
X139685237Y-133122438D02*
X139732856Y-133170057D01*
X139732856Y-133170057D02*
X139828094Y-133312914D01*
X139828094Y-133312914D02*
X139875713Y-133503390D01*
X139875713Y-133503390D02*
X139875713Y-133884342D01*
X139875713Y-133884342D02*
X139828094Y-133979580D01*
X139828094Y-133979580D02*
X139780475Y-134027200D01*
X139780475Y-134027200D02*
X139685237Y-134074819D01*
X139685237Y-134074819D02*
X139494761Y-134074819D01*
X139494761Y-134074819D02*
X139399523Y-134027200D01*
X139399523Y-134027200D02*
X139351904Y-133979580D01*
X139351904Y-133979580D02*
X139304285Y-133884342D01*
X139304285Y-133884342D02*
X139304285Y-133646247D01*
X139304285Y-133646247D02*
X139351904Y-133551009D01*
X139351904Y-133551009D02*
X139399523Y-133503390D01*
X139399523Y-133503390D02*
X139494761Y-133455771D01*
X139494761Y-133455771D02*
X139685237Y-133455771D01*
X139685237Y-133455771D02*
X139780475Y-133503390D01*
X139780475Y-133503390D02*
X139828094Y-133551009D01*
X139828094Y-133551009D02*
X139875713Y-133646247D01*
X136541904Y-133504819D02*
X136541904Y-132504819D01*
X135970476Y-133504819D02*
X136399047Y-132933390D01*
X135970476Y-132504819D02*
X136541904Y-133076247D01*
X121778094Y-76924819D02*
X121778094Y-75924819D01*
X121778094Y-75924819D02*
X121539999Y-75924819D01*
X121539999Y-75924819D02*
X121397142Y-75972438D01*
X121397142Y-75972438D02*
X121301904Y-76067676D01*
X121301904Y-76067676D02*
X121254285Y-76162914D01*
X121254285Y-76162914D02*
X121206666Y-76353390D01*
X121206666Y-76353390D02*
X121206666Y-76496247D01*
X121206666Y-76496247D02*
X121254285Y-76686723D01*
X121254285Y-76686723D02*
X121301904Y-76781961D01*
X121301904Y-76781961D02*
X121397142Y-76877200D01*
X121397142Y-76877200D02*
X121539999Y-76924819D01*
X121539999Y-76924819D02*
X121778094Y-76924819D01*
X120301904Y-75924819D02*
X120778094Y-75924819D01*
X120778094Y-75924819D02*
X120825713Y-76401009D01*
X120825713Y-76401009D02*
X120778094Y-76353390D01*
X120778094Y-76353390D02*
X120682856Y-76305771D01*
X120682856Y-76305771D02*
X120444761Y-76305771D01*
X120444761Y-76305771D02*
X120349523Y-76353390D01*
X120349523Y-76353390D02*
X120301904Y-76401009D01*
X120301904Y-76401009D02*
X120254285Y-76496247D01*
X120254285Y-76496247D02*
X120254285Y-76734342D01*
X120254285Y-76734342D02*
X120301904Y-76829580D01*
X120301904Y-76829580D02*
X120349523Y-76877200D01*
X120349523Y-76877200D02*
X120444761Y-76924819D01*
X120444761Y-76924819D02*
X120682856Y-76924819D01*
X120682856Y-76924819D02*
X120778094Y-76877200D01*
X120778094Y-76877200D02*
X120825713Y-76829580D01*
X117491904Y-76354819D02*
X117491904Y-75354819D01*
X116920476Y-76354819D02*
X117349047Y-75783390D01*
X116920476Y-75354819D02*
X117491904Y-75926247D01*
X131303094Y-153124819D02*
X131303094Y-152124819D01*
X131303094Y-152124819D02*
X131064999Y-152124819D01*
X131064999Y-152124819D02*
X130922142Y-152172438D01*
X130922142Y-152172438D02*
X130826904Y-152267676D01*
X130826904Y-152267676D02*
X130779285Y-152362914D01*
X130779285Y-152362914D02*
X130731666Y-152553390D01*
X130731666Y-152553390D02*
X130731666Y-152696247D01*
X130731666Y-152696247D02*
X130779285Y-152886723D01*
X130779285Y-152886723D02*
X130826904Y-152981961D01*
X130826904Y-152981961D02*
X130922142Y-153077200D01*
X130922142Y-153077200D02*
X131064999Y-153124819D01*
X131064999Y-153124819D02*
X131303094Y-153124819D01*
X129779285Y-153124819D02*
X130350713Y-153124819D01*
X130064999Y-153124819D02*
X130064999Y-152124819D01*
X130064999Y-152124819D02*
X130160237Y-152267676D01*
X130160237Y-152267676D02*
X130255475Y-152362914D01*
X130255475Y-152362914D02*
X130350713Y-152410533D01*
X127016904Y-152554819D02*
X127016904Y-151554819D01*
X126445476Y-152554819D02*
X126874047Y-151983390D01*
X126445476Y-151554819D02*
X127016904Y-152126247D01*
X160354285Y-115024819D02*
X160354285Y-114024819D01*
X160354285Y-114024819D02*
X160116190Y-114024819D01*
X160116190Y-114024819D02*
X159973333Y-114072438D01*
X159973333Y-114072438D02*
X159878095Y-114167676D01*
X159878095Y-114167676D02*
X159830476Y-114262914D01*
X159830476Y-114262914D02*
X159782857Y-114453390D01*
X159782857Y-114453390D02*
X159782857Y-114596247D01*
X159782857Y-114596247D02*
X159830476Y-114786723D01*
X159830476Y-114786723D02*
X159878095Y-114881961D01*
X159878095Y-114881961D02*
X159973333Y-114977200D01*
X159973333Y-114977200D02*
X160116190Y-115024819D01*
X160116190Y-115024819D02*
X160354285Y-115024819D01*
X158830476Y-115024819D02*
X159401904Y-115024819D01*
X159116190Y-115024819D02*
X159116190Y-114024819D01*
X159116190Y-114024819D02*
X159211428Y-114167676D01*
X159211428Y-114167676D02*
X159306666Y-114262914D01*
X159306666Y-114262914D02*
X159401904Y-114310533D01*
X158449523Y-114120057D02*
X158401904Y-114072438D01*
X158401904Y-114072438D02*
X158306666Y-114024819D01*
X158306666Y-114024819D02*
X158068571Y-114024819D01*
X158068571Y-114024819D02*
X157973333Y-114072438D01*
X157973333Y-114072438D02*
X157925714Y-114120057D01*
X157925714Y-114120057D02*
X157878095Y-114215295D01*
X157878095Y-114215295D02*
X157878095Y-114310533D01*
X157878095Y-114310533D02*
X157925714Y-114453390D01*
X157925714Y-114453390D02*
X158497142Y-115024819D01*
X158497142Y-115024819D02*
X157878095Y-115024819D01*
X155591904Y-114454819D02*
X155591904Y-113454819D01*
X155020476Y-114454819D02*
X155449047Y-113883390D01*
X155020476Y-113454819D02*
X155591904Y-114026247D01*
X179404285Y-95974819D02*
X179404285Y-94974819D01*
X179404285Y-94974819D02*
X179166190Y-94974819D01*
X179166190Y-94974819D02*
X179023333Y-95022438D01*
X179023333Y-95022438D02*
X178928095Y-95117676D01*
X178928095Y-95117676D02*
X178880476Y-95212914D01*
X178880476Y-95212914D02*
X178832857Y-95403390D01*
X178832857Y-95403390D02*
X178832857Y-95546247D01*
X178832857Y-95546247D02*
X178880476Y-95736723D01*
X178880476Y-95736723D02*
X178928095Y-95831961D01*
X178928095Y-95831961D02*
X179023333Y-95927200D01*
X179023333Y-95927200D02*
X179166190Y-95974819D01*
X179166190Y-95974819D02*
X179404285Y-95974819D01*
X177880476Y-95974819D02*
X178451904Y-95974819D01*
X178166190Y-95974819D02*
X178166190Y-94974819D01*
X178166190Y-94974819D02*
X178261428Y-95117676D01*
X178261428Y-95117676D02*
X178356666Y-95212914D01*
X178356666Y-95212914D02*
X178451904Y-95260533D01*
X177547142Y-94974819D02*
X176880476Y-94974819D01*
X176880476Y-94974819D02*
X177309047Y-95974819D01*
X174641904Y-95404819D02*
X174641904Y-94404819D01*
X174070476Y-95404819D02*
X174499047Y-94833390D01*
X174070476Y-94404819D02*
X174641904Y-94976247D01*
X140828094Y-95974819D02*
X140828094Y-94974819D01*
X140828094Y-94974819D02*
X140589999Y-94974819D01*
X140589999Y-94974819D02*
X140447142Y-95022438D01*
X140447142Y-95022438D02*
X140351904Y-95117676D01*
X140351904Y-95117676D02*
X140304285Y-95212914D01*
X140304285Y-95212914D02*
X140256666Y-95403390D01*
X140256666Y-95403390D02*
X140256666Y-95546247D01*
X140256666Y-95546247D02*
X140304285Y-95736723D01*
X140304285Y-95736723D02*
X140351904Y-95831961D01*
X140351904Y-95831961D02*
X140447142Y-95927200D01*
X140447142Y-95927200D02*
X140589999Y-95974819D01*
X140589999Y-95974819D02*
X140828094Y-95974819D01*
X139685237Y-95403390D02*
X139780475Y-95355771D01*
X139780475Y-95355771D02*
X139828094Y-95308152D01*
X139828094Y-95308152D02*
X139875713Y-95212914D01*
X139875713Y-95212914D02*
X139875713Y-95165295D01*
X139875713Y-95165295D02*
X139828094Y-95070057D01*
X139828094Y-95070057D02*
X139780475Y-95022438D01*
X139780475Y-95022438D02*
X139685237Y-94974819D01*
X139685237Y-94974819D02*
X139494761Y-94974819D01*
X139494761Y-94974819D02*
X139399523Y-95022438D01*
X139399523Y-95022438D02*
X139351904Y-95070057D01*
X139351904Y-95070057D02*
X139304285Y-95165295D01*
X139304285Y-95165295D02*
X139304285Y-95212914D01*
X139304285Y-95212914D02*
X139351904Y-95308152D01*
X139351904Y-95308152D02*
X139399523Y-95355771D01*
X139399523Y-95355771D02*
X139494761Y-95403390D01*
X139494761Y-95403390D02*
X139685237Y-95403390D01*
X139685237Y-95403390D02*
X139780475Y-95451009D01*
X139780475Y-95451009D02*
X139828094Y-95498628D01*
X139828094Y-95498628D02*
X139875713Y-95593866D01*
X139875713Y-95593866D02*
X139875713Y-95784342D01*
X139875713Y-95784342D02*
X139828094Y-95879580D01*
X139828094Y-95879580D02*
X139780475Y-95927200D01*
X139780475Y-95927200D02*
X139685237Y-95974819D01*
X139685237Y-95974819D02*
X139494761Y-95974819D01*
X139494761Y-95974819D02*
X139399523Y-95927200D01*
X139399523Y-95927200D02*
X139351904Y-95879580D01*
X139351904Y-95879580D02*
X139304285Y-95784342D01*
X139304285Y-95784342D02*
X139304285Y-95593866D01*
X139304285Y-95593866D02*
X139351904Y-95498628D01*
X139351904Y-95498628D02*
X139399523Y-95451009D01*
X139399523Y-95451009D02*
X139494761Y-95403390D01*
X136541904Y-95404819D02*
X136541904Y-94404819D01*
X135970476Y-95404819D02*
X136399047Y-94833390D01*
X135970476Y-94404819D02*
X136541904Y-94976247D01*
X160354285Y-76924819D02*
X160354285Y-75924819D01*
X160354285Y-75924819D02*
X160116190Y-75924819D01*
X160116190Y-75924819D02*
X159973333Y-75972438D01*
X159973333Y-75972438D02*
X159878095Y-76067676D01*
X159878095Y-76067676D02*
X159830476Y-76162914D01*
X159830476Y-76162914D02*
X159782857Y-76353390D01*
X159782857Y-76353390D02*
X159782857Y-76496247D01*
X159782857Y-76496247D02*
X159830476Y-76686723D01*
X159830476Y-76686723D02*
X159878095Y-76781961D01*
X159878095Y-76781961D02*
X159973333Y-76877200D01*
X159973333Y-76877200D02*
X160116190Y-76924819D01*
X160116190Y-76924819D02*
X160354285Y-76924819D01*
X158830476Y-76924819D02*
X159401904Y-76924819D01*
X159116190Y-76924819D02*
X159116190Y-75924819D01*
X159116190Y-75924819D02*
X159211428Y-76067676D01*
X159211428Y-76067676D02*
X159306666Y-76162914D01*
X159306666Y-76162914D02*
X159401904Y-76210533D01*
X157973333Y-76258152D02*
X157973333Y-76924819D01*
X158211428Y-75877200D02*
X158449523Y-76591485D01*
X158449523Y-76591485D02*
X157830476Y-76591485D01*
X155591904Y-76354819D02*
X155591904Y-75354819D01*
X155020476Y-76354819D02*
X155449047Y-75783390D01*
X155020476Y-75354819D02*
X155591904Y-75926247D01*
D15*
%TO.C,D3*%
X118320000Y-110630000D02*
X123760000Y-110630000D01*
X118320000Y-110960000D02*
X118320000Y-110630000D01*
X118320000Y-113240000D02*
X118320000Y-113570000D01*
X118320000Y-113570000D02*
X123760000Y-113570000D01*
X119100000Y-113570000D02*
X119100000Y-110630000D01*
X119220000Y-113570000D02*
X119220000Y-110630000D01*
X119340000Y-113570000D02*
X119340000Y-110630000D01*
X123760000Y-110630000D02*
X123760000Y-110960000D01*
X123760000Y-113570000D02*
X123760000Y-113240000D01*
%TO.C,D4*%
X118320000Y-91580000D02*
X123760000Y-91580000D01*
X118320000Y-91910000D02*
X118320000Y-91580000D01*
X118320000Y-94190000D02*
X118320000Y-94520000D01*
X118320000Y-94520000D02*
X123760000Y-94520000D01*
X119100000Y-94520000D02*
X119100000Y-91580000D01*
X119220000Y-94520000D02*
X119220000Y-91580000D01*
X119340000Y-94520000D02*
X119340000Y-91580000D01*
X123760000Y-91580000D02*
X123760000Y-91910000D01*
X123760000Y-94520000D02*
X123760000Y-94190000D01*
%TO.C,D7*%
X137370000Y-110630000D02*
X142810000Y-110630000D01*
X137370000Y-110960000D02*
X137370000Y-110630000D01*
X137370000Y-113240000D02*
X137370000Y-113570000D01*
X137370000Y-113570000D02*
X142810000Y-113570000D01*
X138150000Y-113570000D02*
X138150000Y-110630000D01*
X138270000Y-113570000D02*
X138270000Y-110630000D01*
X138390000Y-113570000D02*
X138390000Y-110630000D01*
X142810000Y-110630000D02*
X142810000Y-110960000D01*
X142810000Y-113570000D02*
X142810000Y-113240000D01*
%TO.C,D16*%
X175470000Y-110630000D02*
X180910000Y-110630000D01*
X175470000Y-110960000D02*
X175470000Y-110630000D01*
X175470000Y-113240000D02*
X175470000Y-113570000D01*
X175470000Y-113570000D02*
X180910000Y-113570000D01*
X176250000Y-113570000D02*
X176250000Y-110630000D01*
X176370000Y-113570000D02*
X176370000Y-110630000D01*
X176490000Y-113570000D02*
X176490000Y-110630000D01*
X180910000Y-110630000D02*
X180910000Y-110960000D01*
X180910000Y-113570000D02*
X180910000Y-113240000D01*
%TO.C,D9*%
X137370000Y-72530000D02*
X142810000Y-72530000D01*
X137370000Y-72860000D02*
X137370000Y-72530000D01*
X137370000Y-75140000D02*
X137370000Y-75470000D01*
X137370000Y-75470000D02*
X142810000Y-75470000D01*
X138150000Y-75470000D02*
X138150000Y-72530000D01*
X138270000Y-75470000D02*
X138270000Y-72530000D01*
X138390000Y-75470000D02*
X138390000Y-72530000D01*
X142810000Y-72530000D02*
X142810000Y-72860000D01*
X142810000Y-75470000D02*
X142810000Y-75140000D01*
%TO.C,D10*%
X156420000Y-148730000D02*
X161860000Y-148730000D01*
X156420000Y-149060000D02*
X156420000Y-148730000D01*
X156420000Y-151340000D02*
X156420000Y-151670000D01*
X156420000Y-151670000D02*
X161860000Y-151670000D01*
X157200000Y-151670000D02*
X157200000Y-148730000D01*
X157320000Y-151670000D02*
X157320000Y-148730000D01*
X157440000Y-151670000D02*
X157440000Y-148730000D01*
X161860000Y-148730000D02*
X161860000Y-149060000D01*
X161860000Y-151670000D02*
X161860000Y-151340000D01*
%TO.C,D11*%
X156420000Y-129680000D02*
X161860000Y-129680000D01*
X156420000Y-130010000D02*
X156420000Y-129680000D01*
X156420000Y-132290000D02*
X156420000Y-132620000D01*
X156420000Y-132620000D02*
X161860000Y-132620000D01*
X157200000Y-132620000D02*
X157200000Y-129680000D01*
X157320000Y-132620000D02*
X157320000Y-129680000D01*
X157440000Y-132620000D02*
X157440000Y-129680000D01*
X161860000Y-129680000D02*
X161860000Y-130010000D01*
X161860000Y-132620000D02*
X161860000Y-132290000D01*
%TO.C,D18*%
X175470000Y-72530000D02*
X180910000Y-72530000D01*
X175470000Y-72860000D02*
X175470000Y-72530000D01*
X175470000Y-75140000D02*
X175470000Y-75470000D01*
X175470000Y-75470000D02*
X180910000Y-75470000D01*
X176250000Y-75470000D02*
X176250000Y-72530000D01*
X176370000Y-75470000D02*
X176370000Y-72530000D01*
X176490000Y-75470000D02*
X176490000Y-72530000D01*
X180910000Y-72530000D02*
X180910000Y-72860000D01*
X180910000Y-75470000D02*
X180910000Y-75140000D01*
%TO.C,D15*%
X175470000Y-139205000D02*
X180910000Y-139205000D01*
X175470000Y-139535000D02*
X175470000Y-139205000D01*
X175470000Y-141815000D02*
X175470000Y-142145000D01*
X175470000Y-142145000D02*
X180910000Y-142145000D01*
X176250000Y-142145000D02*
X176250000Y-139205000D01*
X176370000Y-142145000D02*
X176370000Y-139205000D01*
X176490000Y-142145000D02*
X176490000Y-139205000D01*
X180910000Y-139205000D02*
X180910000Y-139535000D01*
X180910000Y-142145000D02*
X180910000Y-141815000D01*
%TO.C,D13*%
X156420000Y-91580000D02*
X161860000Y-91580000D01*
X156420000Y-91910000D02*
X156420000Y-91580000D01*
X156420000Y-94190000D02*
X156420000Y-94520000D01*
X156420000Y-94520000D02*
X161860000Y-94520000D01*
X157200000Y-94520000D02*
X157200000Y-91580000D01*
X157320000Y-94520000D02*
X157320000Y-91580000D01*
X157440000Y-94520000D02*
X157440000Y-91580000D01*
X161860000Y-91580000D02*
X161860000Y-91910000D01*
X161860000Y-94520000D02*
X161860000Y-94190000D01*
%TO.C,D2*%
X118320000Y-129680000D02*
X123760000Y-129680000D01*
X118320000Y-130010000D02*
X118320000Y-129680000D01*
X118320000Y-132290000D02*
X118320000Y-132620000D01*
X118320000Y-132620000D02*
X123760000Y-132620000D01*
X119100000Y-132620000D02*
X119100000Y-129680000D01*
X119220000Y-132620000D02*
X119220000Y-129680000D01*
X119340000Y-132620000D02*
X119340000Y-129680000D01*
X123760000Y-129680000D02*
X123760000Y-130010000D01*
X123760000Y-132620000D02*
X123760000Y-132290000D01*
%TO.C,D6*%
X137370000Y-129680000D02*
X142810000Y-129680000D01*
X137370000Y-130010000D02*
X137370000Y-129680000D01*
X137370000Y-132290000D02*
X137370000Y-132620000D01*
X137370000Y-132620000D02*
X142810000Y-132620000D01*
X138150000Y-132620000D02*
X138150000Y-129680000D01*
X138270000Y-132620000D02*
X138270000Y-129680000D01*
X138390000Y-132620000D02*
X138390000Y-129680000D01*
X142810000Y-129680000D02*
X142810000Y-130010000D01*
X142810000Y-132620000D02*
X142810000Y-132290000D01*
%TO.C,D5*%
X118320000Y-72530000D02*
X123760000Y-72530000D01*
X118320000Y-72860000D02*
X118320000Y-72530000D01*
X118320000Y-75140000D02*
X118320000Y-75470000D01*
X118320000Y-75470000D02*
X123760000Y-75470000D01*
X119100000Y-75470000D02*
X119100000Y-72530000D01*
X119220000Y-75470000D02*
X119220000Y-72530000D01*
X119340000Y-75470000D02*
X119340000Y-72530000D01*
X123760000Y-72530000D02*
X123760000Y-72860000D01*
X123760000Y-75470000D02*
X123760000Y-75140000D01*
%TO.C,D1*%
X127845000Y-148730000D02*
X133285000Y-148730000D01*
X127845000Y-149060000D02*
X127845000Y-148730000D01*
X127845000Y-151340000D02*
X127845000Y-151670000D01*
X127845000Y-151670000D02*
X133285000Y-151670000D01*
X128625000Y-151670000D02*
X128625000Y-148730000D01*
X128745000Y-151670000D02*
X128745000Y-148730000D01*
X128865000Y-151670000D02*
X128865000Y-148730000D01*
X133285000Y-148730000D02*
X133285000Y-149060000D01*
X133285000Y-151670000D02*
X133285000Y-151340000D01*
%TO.C,D12*%
X156420000Y-110630000D02*
X161860000Y-110630000D01*
X156420000Y-110960000D02*
X156420000Y-110630000D01*
X156420000Y-113240000D02*
X156420000Y-113570000D01*
X156420000Y-113570000D02*
X161860000Y-113570000D01*
X157200000Y-113570000D02*
X157200000Y-110630000D01*
X157320000Y-113570000D02*
X157320000Y-110630000D01*
X157440000Y-113570000D02*
X157440000Y-110630000D01*
X161860000Y-110630000D02*
X161860000Y-110960000D01*
X161860000Y-113570000D02*
X161860000Y-113240000D01*
%TO.C,D17*%
X175470000Y-91580000D02*
X180910000Y-91580000D01*
X175470000Y-91910000D02*
X175470000Y-91580000D01*
X175470000Y-94190000D02*
X175470000Y-94520000D01*
X175470000Y-94520000D02*
X180910000Y-94520000D01*
X176250000Y-94520000D02*
X176250000Y-91580000D01*
X176370000Y-94520000D02*
X176370000Y-91580000D01*
X176490000Y-94520000D02*
X176490000Y-91580000D01*
X180910000Y-91580000D02*
X180910000Y-91910000D01*
X180910000Y-94520000D02*
X180910000Y-94190000D01*
%TO.C,D8*%
X137370000Y-91580000D02*
X142810000Y-91580000D01*
X137370000Y-91910000D02*
X137370000Y-91580000D01*
X137370000Y-94190000D02*
X137370000Y-94520000D01*
X137370000Y-94520000D02*
X142810000Y-94520000D01*
X138150000Y-94520000D02*
X138150000Y-91580000D01*
X138270000Y-94520000D02*
X138270000Y-91580000D01*
X138390000Y-94520000D02*
X138390000Y-91580000D01*
X142810000Y-91580000D02*
X142810000Y-91910000D01*
X142810000Y-94520000D02*
X142810000Y-94190000D01*
%TO.C,D14*%
X156420000Y-72530000D02*
X161860000Y-72530000D01*
X156420000Y-72860000D02*
X156420000Y-72530000D01*
X156420000Y-75140000D02*
X156420000Y-75470000D01*
X156420000Y-75470000D02*
X161860000Y-75470000D01*
X157200000Y-75470000D02*
X157200000Y-72530000D01*
X157320000Y-75470000D02*
X157320000Y-72530000D01*
X157440000Y-75470000D02*
X157440000Y-72530000D01*
X161860000Y-72530000D02*
X161860000Y-72860000D01*
X161860000Y-75470000D02*
X161860000Y-75140000D01*
%TD*%
%LPC*%
D16*
%TO.C,JST1*%
X149125000Y-33025000D03*
D17*
X149125000Y-31025000D03*
%TD*%
D18*
%TO.C,REF\u002A\u002A*%
X138000000Y-31000000D03*
X129800000Y-31000000D03*
D19*
X135900000Y-31000000D03*
D20*
X133900000Y-31000000D03*
X131900000Y-31000000D03*
%TD*%
D21*
%TO.C,MCU1*%
X113375000Y-36405000D03*
X115915000Y-36405000D03*
X118455000Y-36405000D03*
X120995000Y-36405000D03*
X123535000Y-36405000D03*
X126075000Y-36405000D03*
X128615000Y-36405000D03*
X131155000Y-36405000D03*
X133695000Y-36405000D03*
X136235000Y-36405000D03*
X138775000Y-36405000D03*
X141315000Y-36405000D03*
X141315000Y-51645000D03*
X138775000Y-51645000D03*
X136235000Y-51645000D03*
X133695000Y-51645000D03*
X131155000Y-51645000D03*
X128615000Y-51645000D03*
X126075000Y-51645000D03*
X123535000Y-51645000D03*
X120995000Y-51645000D03*
X118455000Y-51645000D03*
X115915000Y-51645000D03*
X113375000Y-51645000D03*
%TD*%
D22*
%TO.C,wtf is this?*%
X182000000Y-48000000D03*
D21*
X184540000Y-48000000D03*
X182000000Y-45460000D03*
X184540000Y-45460000D03*
X182000000Y-42920000D03*
X184540000Y-42920000D03*
X182000000Y-40380000D03*
X184540000Y-40380000D03*
%TD*%
D23*
%TO.C,S9*%
X144655000Y-69025000D03*
D24*
X142115000Y-63945000D03*
D25*
X139575000Y-69025000D03*
D24*
X135765000Y-66485000D03*
D23*
X134495000Y-69025000D03*
D26*
X132490000Y-66485000D03*
X145417000Y-63945000D03*
%TD*%
D27*
%TO.C,D3*%
X117230000Y-112100000D03*
D28*
X124850000Y-112100000D03*
%TD*%
D27*
%TO.C,D4*%
X117230000Y-93050000D03*
D28*
X124850000Y-93050000D03*
%TD*%
D23*
%TO.C,S2*%
X125605000Y-126175000D03*
D24*
X123065000Y-121095000D03*
D25*
X120525000Y-126175000D03*
D24*
X116715000Y-123635000D03*
D23*
X115445000Y-126175000D03*
D26*
X113440000Y-123635000D03*
X126367000Y-121095000D03*
%TD*%
D23*
%TO.C,S8*%
X144655000Y-88075000D03*
D24*
X142115000Y-82995000D03*
D25*
X139575000Y-88075000D03*
D24*
X135765000Y-85535000D03*
D23*
X134495000Y-88075000D03*
D26*
X132490000Y-85535000D03*
X145417000Y-82995000D03*
%TD*%
D23*
%TO.C,S7*%
X144655000Y-107125000D03*
D24*
X142115000Y-102045000D03*
D25*
X139575000Y-107125000D03*
D24*
X135765000Y-104585000D03*
D23*
X134495000Y-107125000D03*
D26*
X132490000Y-104585000D03*
X145417000Y-102045000D03*
%TD*%
D27*
%TO.C,D7*%
X136280000Y-112100000D03*
D28*
X143900000Y-112100000D03*
%TD*%
D23*
%TO.C,S11*%
X163705000Y-126175000D03*
D24*
X161165000Y-121095000D03*
D25*
X158625000Y-126175000D03*
D24*
X154815000Y-123635000D03*
D23*
X153545000Y-126175000D03*
D26*
X151540000Y-123635000D03*
X164467000Y-121095000D03*
%TD*%
D23*
%TO.C,S5*%
X125605000Y-69025000D03*
D24*
X123065000Y-63945000D03*
D25*
X120525000Y-69025000D03*
D24*
X116715000Y-66485000D03*
D23*
X115445000Y-69025000D03*
D26*
X113440000Y-66485000D03*
X126367000Y-63945000D03*
%TD*%
D27*
%TO.C,D16*%
X174380000Y-112100000D03*
D28*
X182000000Y-112100000D03*
%TD*%
D27*
%TO.C,D9*%
X136280000Y-74000000D03*
D28*
X143900000Y-74000000D03*
%TD*%
D27*
%TO.C,D10*%
X155330000Y-150200000D03*
D28*
X162950000Y-150200000D03*
%TD*%
D27*
%TO.C,D11*%
X155330000Y-131150000D03*
D28*
X162950000Y-131150000D03*
%TD*%
D27*
%TO.C,D18*%
X174380000Y-74000000D03*
D28*
X182000000Y-74000000D03*
%TD*%
D23*
%TO.C,S4*%
X125605000Y-88075000D03*
D24*
X123065000Y-82995000D03*
D25*
X120525000Y-88075000D03*
D24*
X116715000Y-85535000D03*
D23*
X115445000Y-88075000D03*
D26*
X113440000Y-85535000D03*
X126367000Y-82995000D03*
%TD*%
D23*
%TO.C,S10*%
X163705000Y-145225000D03*
D24*
X161165000Y-140145000D03*
D25*
X158625000Y-145225000D03*
D24*
X154815000Y-142685000D03*
D23*
X153545000Y-145225000D03*
D26*
X151540000Y-142685000D03*
X164467000Y-140145000D03*
%TD*%
D25*
%TO.C,S15*%
X185930000Y-147638000D03*
X185930000Y-123762000D03*
D23*
X182755000Y-135700000D03*
D24*
X180215000Y-130620000D03*
D25*
X177675000Y-135700000D03*
D24*
X173865000Y-133160000D03*
D23*
X172595000Y-135700000D03*
D29*
X170690000Y-147638000D03*
X170690000Y-123762000D03*
D26*
X170590000Y-133160000D03*
X183517000Y-130620000D03*
%TD*%
D27*
%TO.C,D15*%
X174380000Y-140675000D03*
D28*
X182000000Y-140675000D03*
%TD*%
D27*
%TO.C,D13*%
X155330000Y-93050000D03*
D28*
X162950000Y-93050000D03*
%TD*%
D27*
%TO.C,D2*%
X117230000Y-131150000D03*
D28*
X124850000Y-131150000D03*
%TD*%
D27*
%TO.C,D6*%
X136280000Y-131150000D03*
D28*
X143900000Y-131150000D03*
%TD*%
D23*
%TO.C,S12*%
X163705000Y-107125000D03*
D24*
X161165000Y-102045000D03*
D25*
X158625000Y-107125000D03*
D24*
X154815000Y-104585000D03*
D23*
X153545000Y-107125000D03*
D26*
X151540000Y-104585000D03*
X164467000Y-102045000D03*
%TD*%
D27*
%TO.C,D5*%
X117230000Y-74000000D03*
D28*
X124850000Y-74000000D03*
%TD*%
D25*
%TO.C,S1*%
X141988000Y-153480000D03*
D29*
X141988000Y-138240000D03*
D23*
X135130000Y-145225000D03*
D24*
X132590000Y-140145000D03*
D25*
X130050000Y-145225000D03*
D24*
X126240000Y-142685000D03*
D23*
X124970000Y-145225000D03*
D25*
X118112000Y-153480000D03*
D29*
X118112000Y-138240000D03*
D26*
X122965000Y-142685000D03*
X135892000Y-140145000D03*
%TD*%
D23*
%TO.C,S14*%
X163705000Y-69025000D03*
D24*
X161165000Y-63945000D03*
D25*
X158625000Y-69025000D03*
D24*
X154815000Y-66485000D03*
D23*
X153545000Y-69025000D03*
D26*
X151540000Y-66485000D03*
X164467000Y-63945000D03*
%TD*%
D27*
%TO.C,D1*%
X126755000Y-150200000D03*
D28*
X134375000Y-150200000D03*
%TD*%
D27*
%TO.C,D12*%
X155330000Y-112100000D03*
D28*
X162950000Y-112100000D03*
%TD*%
D27*
%TO.C,D17*%
X174380000Y-93050000D03*
D28*
X182000000Y-93050000D03*
%TD*%
D23*
%TO.C,S13*%
X163705000Y-88075000D03*
D24*
X161165000Y-82995000D03*
D25*
X158625000Y-88075000D03*
D24*
X154815000Y-85535000D03*
D23*
X153545000Y-88075000D03*
D26*
X151540000Y-85535000D03*
X164467000Y-82995000D03*
%TD*%
D23*
%TO.C,S17*%
X182755000Y-88075000D03*
D24*
X180215000Y-82995000D03*
D25*
X177675000Y-88075000D03*
D24*
X173865000Y-85535000D03*
D23*
X172595000Y-88075000D03*
D26*
X170590000Y-85535000D03*
X183517000Y-82995000D03*
%TD*%
D27*
%TO.C,D8*%
X136280000Y-93050000D03*
D28*
X143900000Y-93050000D03*
%TD*%
D23*
%TO.C,S18*%
X182755000Y-69025000D03*
D24*
X180215000Y-63945000D03*
D25*
X177675000Y-69025000D03*
D24*
X173865000Y-66485000D03*
D23*
X172595000Y-69025000D03*
D26*
X170590000Y-66485000D03*
X183517000Y-63945000D03*
%TD*%
D27*
%TO.C,D14*%
X155330000Y-74000000D03*
D28*
X162950000Y-74000000D03*
%TD*%
D23*
%TO.C,S16*%
X182755000Y-107125000D03*
D24*
X180215000Y-102045000D03*
D25*
X177675000Y-107125000D03*
D24*
X173865000Y-104585000D03*
D23*
X172595000Y-107125000D03*
D26*
X170590000Y-104585000D03*
X183517000Y-102045000D03*
%TD*%
D23*
%TO.C,S3*%
X125605000Y-107125000D03*
D24*
X123065000Y-102045000D03*
D25*
X120525000Y-107125000D03*
D24*
X116715000Y-104585000D03*
D23*
X115445000Y-107125000D03*
D26*
X113440000Y-104585000D03*
X126367000Y-102045000D03*
%TD*%
D23*
%TO.C,S6*%
X144655000Y-126175000D03*
D24*
X142115000Y-121095000D03*
D25*
X139575000Y-126175000D03*
D24*
X135765000Y-123635000D03*
D23*
X134495000Y-126175000D03*
D26*
X132490000Y-123635000D03*
X145417000Y-121095000D03*
%TD*%
%LPD*%
M02*
