<svg width="82.7mm" height="130.25mm" viewBox="0 0 82.7 130.25" xmlns="http://www.w3.org/2000/svg"><g id="svgGroup" stroke-linecap="round" fill-rule="evenodd" font-size="9pt" stroke="#000" stroke-width="0.25mm" fill="none" style="stroke:#000;stroke-width:0.25mm;fill:none"><path d="M 0 130.25 L 0.5 0 L 81.7 0 L 82.7 130.25 L 0 130.25 Z M 3 127.75 L 79.2 127.75 L 79.2 32.5 L 3 32.5 L 3 127.75 Z M 5 32.025 L 3 30.025 L 3 6.025 L 5 4.025 L 77.2 4.025 L 79.2 6.025 L 79.2 30.025 L 77.2 32.025 L 5 32.025 Z M 4 31.025 L 78.2 31.025 L 78.2 5.025 L 4 5.025 L 4 31.025 Z M 13.05 127.225 L 31.05 127.225 L 31.05 109.225 L 13.05 109.225 L 13.05 127.225 Z M 3.525 108.175 L 21.525 108.175 L 21.525 90.175 L 3.525 90.175 L 3.525 108.175 Z M 3.525 89.125 L 21.525 89.125 L 21.525 71.125 L 3.525 71.125 L 3.525 89.125 Z M 3.525 70.075 L 21.525 70.075 L 21.525 52.075 L 3.525 52.075 L 3.525 70.075 Z M 3.525 51.025 L 21.525 51.025 L 21.525 33.025 L 3.525 33.025 L 3.525 51.025 Z M 22.575 108.175 L 40.575 108.175 L 40.575 90.175 L 22.575 90.175 L 22.575 108.175 Z M 22.575 89.125 L 40.575 89.125 L 40.575 71.125 L 22.575 71.125 L 22.575 89.125 Z M 22.575 70.075 L 40.575 70.075 L 40.575 52.075 L 22.575 52.075 L 22.575 70.075 Z M 22.575 51.025 L 40.575 51.025 L 40.575 33.025 L 22.575 33.025 L 22.575 51.025 Z M 41.625 127.225 L 59.625 127.225 L 59.625 109.225 L 41.625 109.225 L 41.625 127.225 Z M 41.625 108.175 L 59.625 108.175 L 59.625 90.175 L 41.625 90.175 L 41.625 108.175 Z M 41.625 89.125 L 59.625 89.125 L 59.625 71.125 L 41.625 71.125 L 41.625 89.125 Z M 41.625 70.075 L 59.625 70.075 L 59.625 52.075 L 41.625 52.075 L 41.625 70.075 Z M 41.625 51.025 L 59.625 51.025 L 59.625 33.025 L 41.625 33.025 L 41.625 51.025 Z M 60.675 117.7 L 78.675 117.7 L 78.675 99.7 L 60.675 99.7 L 60.675 117.7 Z M 60.675 89.125 L 78.675 89.125 L 78.675 71.125 L 60.675 71.125 L 60.675 89.125 Z M 60.675 70.075 L 78.675 70.075 L 78.675 52.075 L 60.675 52.075 L 60.675 70.075 Z M 60.675 51.025 L 78.675 51.025 L 78.675 33.025 L 60.675 33.025 L 60.675 51.025 Z M 15.05 125.225 L 29.05 125.225 L 29.05 111.225 L 15.05 111.225 L 15.05 125.225 Z M 5.525 106.175 L 19.525 106.175 L 19.525 92.175 L 5.525 92.175 L 5.525 106.175 Z M 5.525 87.125 L 19.525 87.125 L 19.525 73.125 L 5.525 73.125 L 5.525 87.125 Z M 5.525 68.075 L 19.525 68.075 L 19.525 54.075 L 5.525 54.075 L 5.525 68.075 Z M 5.525 49.025 L 19.525 49.025 L 19.525 35.025 L 5.525 35.025 L 5.525 49.025 Z M 24.575 106.175 L 38.575 106.175 L 38.575 92.175 L 24.575 92.175 L 24.575 106.175 Z M 24.575 87.125 L 38.575 87.125 L 38.575 73.125 L 24.575 73.125 L 24.575 87.125 Z M 24.575 68.075 L 38.575 68.075 L 38.575 54.075 L 24.575 54.075 L 24.575 68.075 Z M 24.575 49.025 L 38.575 49.025 L 38.575 35.025 L 24.575 35.025 L 24.575 49.025 Z M 43.625 125.225 L 57.625 125.225 L 57.625 111.225 L 43.625 111.225 L 43.625 125.225 Z M 43.625 106.175 L 57.625 106.175 L 57.625 92.175 L 43.625 92.175 L 43.625 106.175 Z M 43.625 87.125 L 57.625 87.125 L 57.625 73.125 L 43.625 73.125 L 43.625 87.125 Z M 43.625 68.075 L 57.625 68.075 L 57.625 54.075 L 43.625 54.075 L 43.625 68.075 Z M 43.625 49.025 L 57.625 49.025 L 57.625 35.025 L 43.625 35.025 L 43.625 49.025 Z M 62.675 115.7 L 76.675 115.7 L 76.675 101.7 L 62.675 101.7 L 62.675 115.7 Z M 62.675 87.125 L 76.675 87.125 L 76.675 73.125 L 62.675 73.125 L 62.675 87.125 Z M 62.675 68.075 L 76.675 68.075 L 76.675 54.075 L 62.675 54.075 L 62.675 68.075 Z M 62.675 49.025 L 76.675 49.025 L 76.675 35.025 L 62.675 35.025 L 62.675 49.025 Z" vector-effect="non-scaling-stroke"/></g></svg>