0
SECTION
2
HEADER
9
$INSUNITS
70
4
0
ENDSEC
0
SECTION
2
TABLES
0
TABLE
2
LTYPE
0
LTYPE
72
65
70
64
2
CONTINUOUS
3
______
73
0
40
0
0
ENDTAB
0
TABLE
2
LAYER
0
ENDTAB
0
ENDSEC
0
SECTION
2
ENTITIES
0
LINE
8
0
10
187.475
20
-212.025
11
187.975
21
-81.775
0
LINE
8
0
10
187.975
20
-81.775
11
269.175
21
-81.775
0
LINE
8
0
10
269.175
20
-81.775
11
270.175
21
-212.025
0
LINE
8
0
10
270.175
20
-212.025
11
187.475
21
-212.025
0
LINE
8
0
10
202.525
20
-207
11
216.525
21
-207
0
LINE
8
0
10
216.525
20
-207
11
216.525
21
-193
0
LINE
8
0
10
202.525
20
-193
11
216.525
21
-193
0
LINE
8
0
10
202.525
20
-207
11
202.525
21
-193
0
LINE
8
0
10
193
20
-187.95
11
207
21
-187.95
0
LINE
8
0
10
207
20
-187.95
11
207
21
-173.95
0
LINE
8
0
10
193
20
-173.95
11
207
21
-173.95
0
LINE
8
0
10
193
20
-187.95
11
193
21
-173.95
0
LINE
8
0
10
193
20
-168.9
11
207
21
-168.9
0
LINE
8
0
10
207
20
-168.9
11
207
21
-154.9
0
LINE
8
0
10
193
20
-154.9
11
207
21
-154.9
0
LINE
8
0
10
193
20
-168.9
11
193
21
-154.9
0
LINE
8
0
10
193
20
-149.85
11
207
21
-149.85
0
LINE
8
0
10
207
20
-149.85
11
207
21
-135.85
0
LINE
8
0
10
193
20
-135.85
11
207
21
-135.85
0
LINE
8
0
10
193
20
-149.85
11
193
21
-135.85
0
LINE
8
0
10
193
20
-130.8
11
207
21
-130.8
0
LINE
8
0
10
207
20
-130.8
11
207
21
-116.8
0
LINE
8
0
10
193
20
-116.8
11
207
21
-116.8
0
LINE
8
0
10
193
20
-130.8
11
193
21
-116.8
0
LINE
8
0
10
212.05
20
-187.95
11
226.05
21
-187.95
0
LINE
8
0
10
226.05
20
-187.95
11
226.05
21
-173.95
0
LINE
8
0
10
212.05
20
-173.95
11
226.05
21
-173.95
0
LINE
8
0
10
212.05
20
-187.95
11
212.05
21
-173.95
0
LINE
8
0
10
212.05
20
-168.9
11
226.05
21
-168.9
0
LINE
8
0
10
226.05
20
-168.9
11
226.05
21
-154.9
0
LINE
8
0
10
212.05
20
-154.9
11
226.05
21
-154.9
0
LINE
8
0
10
212.05
20
-168.9
11
212.05
21
-154.9
0
LINE
8
0
10
212.05
20
-149.85
11
226.05
21
-149.85
0
LINE
8
0
10
226.05
20
-149.85
11
226.05
21
-135.85
0
LINE
8
0
10
212.05
20
-135.85
11
226.05
21
-135.85
0
LINE
8
0
10
212.05
20
-149.85
11
212.05
21
-135.85
0
LINE
8
0
10
212.05
20
-130.8
11
226.05
21
-130.8
0
LINE
8
0
10
226.05
20
-130.8
11
226.05
21
-116.8
0
LINE
8
0
10
212.05
20
-116.8
11
226.05
21
-116.8
0
LINE
8
0
10
212.05
20
-130.8
11
212.05
21
-116.8
0
LINE
8
0
10
231.1
20
-207
11
245.1
21
-207
0
LINE
8
0
10
245.1
20
-207
11
245.1
21
-193
0
LINE
8
0
10
231.1
20
-193
11
245.1
21
-193
0
LINE
8
0
10
231.1
20
-207
11
231.1
21
-193
0
LINE
8
0
10
231.1
20
-187.95
11
245.1
21
-187.95
0
LINE
8
0
10
245.1
20
-187.95
11
245.1
21
-173.95
0
LINE
8
0
10
231.1
20
-173.95
11
245.1
21
-173.95
0
LINE
8
0
10
231.1
20
-187.95
11
231.1
21
-173.95
0
LINE
8
0
10
231.1
20
-168.9
11
245.1
21
-168.9
0
LINE
8
0
10
245.1
20
-168.9
11
245.1
21
-154.9
0
LINE
8
0
10
231.1
20
-154.9
11
245.1
21
-154.9
0
LINE
8
0
10
231.1
20
-168.9
11
231.1
21
-154.9
0
LINE
8
0
10
231.1
20
-149.85
11
245.1
21
-149.85
0
LINE
8
0
10
245.1
20
-149.85
11
245.1
21
-135.85
0
LINE
8
0
10
231.1
20
-135.85
11
245.1
21
-135.85
0
LINE
8
0
10
231.1
20
-149.85
11
231.1
21
-135.85
0
LINE
8
0
10
231.1
20
-130.8
11
245.1
21
-130.8
0
LINE
8
0
10
245.1
20
-130.8
11
245.1
21
-116.8
0
LINE
8
0
10
231.1
20
-116.8
11
245.1
21
-116.8
0
LINE
8
0
10
231.1
20
-130.8
11
231.1
21
-116.8
0
LINE
8
0
10
250.15
20
-197.475
11
264.15
21
-197.475
0
LINE
8
0
10
264.15
20
-197.475
11
264.15
21
-183.475
0
LINE
8
0
10
250.15
20
-183.475
11
264.15
21
-183.475
0
LINE
8
0
10
250.15
20
-197.475
11
250.15
21
-183.475
0
LINE
8
0
10
250.15
20
-168.9
11
264.15
21
-168.9
0
LINE
8
0
10
264.15
20
-168.9
11
264.15
21
-154.9
0
LINE
8
0
10
250.15
20
-154.9
11
264.15
21
-154.9
0
LINE
8
0
10
250.15
20
-168.9
11
250.15
21
-154.9
0
LINE
8
0
10
250.15
20
-149.85
11
264.15
21
-149.85
0
LINE
8
0
10
264.15
20
-149.85
11
264.15
21
-135.85
0
LINE
8
0
10
250.15
20
-135.85
11
264.15
21
-135.85
0
LINE
8
0
10
250.15
20
-149.85
11
250.15
21
-135.85
0
LINE
8
0
10
250.15
20
-130.8
11
264.15
21
-130.8
0
LINE
8
0
10
264.15
20
-130.8
11
264.15
21
-116.8
0
LINE
8
0
10
250.15
20
-116.8
11
264.15
21
-116.8
0
LINE
8
0
10
250.15
20
-130.8
11
250.15
21
-116.8
0
LINE
8
0
10
192.475
20
-113.8
11
190.475
21
-111.8
0
LINE
8
0
10
190.475
20
-111.8
11
190.475
21
-87.8
0
LINE
8
0
10
190.475
20
-87.8
11
192.475
21
-85.8
0
LINE
8
0
10
192.475
20
-85.8
11
264.675
21
-85.8
0
LINE
8
0
10
264.675
20
-85.8
11
266.675
21
-87.8
0
LINE
8
0
10
266.675
20
-87.8
11
266.675
21
-111.8
0
LINE
8
0
10
266.675
20
-111.8
11
264.675
21
-113.8
0
LINE
8
0
10
264.675
20
-113.8
11
192.475
21
-113.8
0
LINE
8
0
10
190.475
20
-209.525
11
266.675
21
-209.525
0
LINE
8
0
10
190.475
20
-209.525
11
190.475
21
-114.275
0
LINE
8
0
10
190.475
20
-114.275
11
266.675
21
-114.275
0
LINE
8
0
10
266.675
20
-209.525
11
266.675
21
-114.275
0
LINE
8
0
10
191.475
20
-112.8
11
265.675
21
-112.8
0
LINE
8
0
10
265.675
20
-112.8
11
265.675
21
-86.8
0
LINE
8
0
10
265.675
20
-86.8
11
191.475
21
-86.8
0
LINE
8
0
10
191.475
20
-86.8
11
191.475
21
-112.8
0
LINE
8
0
10
200.525
20
-209
11
218.525
21
-209
0
LINE
8
0
10
218.525
20
-209
11
218.525
21
-191
0
LINE
8
0
10
218.525
20
-191
11
200.525
21
-191
0
LINE
8
0
10
200.525
20
-191
11
200.525
21
-209
0
LINE
8
0
10
191
20
-189.95
11
209
21
-189.95
0
LINE
8
0
10
209
20
-189.95
11
209
21
-171.95
0
LINE
8
0
10
209
20
-171.95
11
191
21
-171.95
0
LINE
8
0
10
191
20
-171.95
11
191
21
-189.95
0
LINE
8
0
10
191
20
-170.9
11
209
21
-170.9
0
LINE
8
0
10
209
20
-170.9
11
209
21
-152.9
0
LINE
8
0
10
209
20
-152.9
11
191
21
-152.9
0
LINE
8
0
10
191
20
-152.9
11
191
21
-170.9
0
LINE
8
0
10
191
20
-151.85
11
209
21
-151.85
0
LINE
8
0
10
209
20
-151.85
11
209
21
-133.85
0
LINE
8
0
10
209
20
-133.85
11
191
21
-133.85
0
LINE
8
0
10
191
20
-133.85
11
191
21
-151.85
0
LINE
8
0
10
191
20
-132.8
11
209
21
-132.8
0
LINE
8
0
10
209
20
-132.8
11
209
21
-114.8
0
LINE
8
0
10
209
20
-114.8
11
191
21
-114.8
0
LINE
8
0
10
191
20
-114.8
11
191
21
-132.8
0
LINE
8
0
10
210.05
20
-189.95
11
228.05
21
-189.95
0
LINE
8
0
10
228.05
20
-189.95
11
228.05
21
-171.95
0
LINE
8
0
10
228.05
20
-171.95
11
210.05
21
-171.95
0
LINE
8
0
10
210.05
20
-171.95
11
210.05
21
-189.95
0
LINE
8
0
10
210.05
20
-170.9
11
228.05
21
-170.9
0
LINE
8
0
10
228.05
20
-170.9
11
228.05
21
-152.9
0
LINE
8
0
10
228.05
20
-152.9
11
210.05
21
-152.9
0
LINE
8
0
10
210.05
20
-152.9
11
210.05
21
-170.9
0
LINE
8
0
10
210.05
20
-151.85
11
228.05
21
-151.85
0
LINE
8
0
10
228.05
20
-151.85
11
228.05
21
-133.85
0
LINE
8
0
10
228.05
20
-133.85
11
210.05
21
-133.85
0
LINE
8
0
10
210.05
20
-133.85
11
210.05
21
-151.85
0
LINE
8
0
10
210.05
20
-132.8
11
228.05
21
-132.8
0
LINE
8
0
10
228.05
20
-132.8
11
228.05
21
-114.8
0
LINE
8
0
10
228.05
20
-114.8
11
210.05
21
-114.8
0
LINE
8
0
10
210.05
20
-114.8
11
210.05
21
-132.8
0
LINE
8
0
10
229.1
20
-209
11
247.1
21
-209
0
LINE
8
0
10
247.1
20
-209
11
247.1
21
-191
0
LINE
8
0
10
247.1
20
-191
11
229.1
21
-191
0
LINE
8
0
10
229.1
20
-191
11
229.1
21
-209
0
LINE
8
0
10
229.1
20
-189.95
11
247.1
21
-189.95
0
LINE
8
0
10
247.1
20
-189.95
11
247.1
21
-171.95
0
LINE
8
0
10
247.1
20
-171.95
11
229.1
21
-171.95
0
LINE
8
0
10
229.1
20
-171.95
11
229.1
21
-189.95
0
LINE
8
0
10
229.1
20
-170.9
11
247.1
21
-170.9
0
LINE
8
0
10
247.1
20
-170.9
11
247.1
21
-152.9
0
LINE
8
0
10
247.1
20
-152.9
11
229.1
21
-152.9
0
LINE
8
0
10
229.1
20
-152.9
11
229.1
21
-170.9
0
LINE
8
0
10
229.1
20
-151.85
11
247.1
21
-151.85
0
LINE
8
0
10
247.1
20
-151.85
11
247.1
21
-133.85
0
LINE
8
0
10
247.1
20
-133.85
11
229.1
21
-133.85
0
LINE
8
0
10
229.1
20
-133.85
11
229.1
21
-151.85
0
LINE
8
0
10
229.1
20
-132.8
11
247.1
21
-132.8
0
LINE
8
0
10
247.1
20
-132.8
11
247.1
21
-114.8
0
LINE
8
0
10
247.1
20
-114.8
11
229.1
21
-114.8
0
LINE
8
0
10
229.1
20
-114.8
11
229.1
21
-132.8
0
LINE
8
0
10
248.15
20
-199.475
11
266.15
21
-199.475
0
LINE
8
0
10
266.15
20
-199.475
11
266.15
21
-181.475
0
LINE
8
0
10
266.15
20
-181.475
11
248.15
21
-181.475
0
LINE
8
0
10
248.15
20
-181.475
11
248.15
21
-199.475
0
LINE
8
0
10
248.15
20
-170.9
11
266.15
21
-170.9
0
LINE
8
0
10
266.15
20
-170.9
11
266.15
21
-152.9
0
LINE
8
0
10
266.15
20
-152.9
11
248.15
21
-152.9
0
LINE
8
0
10
248.15
20
-152.9
11
248.15
21
-170.9
0
LINE
8
0
10
248.15
20
-151.85
11
266.15
21
-151.85
0
LINE
8
0
10
266.15
20
-151.85
11
266.15
21
-133.85
0
LINE
8
0
10
266.15
20
-133.85
11
248.15
21
-133.85
0
LINE
8
0
10
248.15
20
-133.85
11
248.15
21
-151.85
0
LINE
8
0
10
248.15
20
-132.8
11
266.15
21
-132.8
0
LINE
8
0
10
266.15
20
-132.8
11
266.15
21
-114.8
0
LINE
8
0
10
266.15
20
-114.8
11
248.15
21
-114.8
0
LINE
8
0
10
248.15
20
-114.8
11
248.15
21
-132.8
0
ENDSEC
0
EOF