<svg width="82.7mm" height="130.25mm" viewBox="0 0 82.7 130.25" xmlns="http://www.w3.org/2000/svg"><g id="svgGroup" stroke-linecap="round" fill-rule="evenodd" font-size="9pt" stroke="#000" stroke-width="0.25mm" fill="none" style="stroke:#000;stroke-width:0.25mm;fill:none"><path d="M 0 130.25 L 0.5 0 L 81.7 0 L 82.7 130.25 L 0 130.25 Z M 5 32.025 L 3 30.025 L 3 6.025 L 5 4.025 L 77.2 4.025 L 79.2 6.025 L 79.2 30.025 L 77.2 32.025 L 5 32.025 Z M 15.05 125.225 L 29.05 125.225 L 29.05 111.225 L 15.05 111.225 L 15.05 125.225 Z M 5.525 106.175 L 19.525 106.175 L 19.525 92.175 L 5.525 92.175 L 5.525 106.175 Z M 5.525 87.125 L 19.525 87.125 L 19.525 73.125 L 5.525 73.125 L 5.525 87.125 Z M 5.525 68.075 L 19.525 68.075 L 19.525 54.075 L 5.525 54.075 L 5.525 68.075 Z M 5.525 49.025 L 19.525 49.025 L 19.525 35.025 L 5.525 35.025 L 5.525 49.025 Z M 24.575 106.175 L 38.575 106.175 L 38.575 92.175 L 24.575 92.175 L 24.575 106.175 Z M 24.575 87.125 L 38.575 87.125 L 38.575 73.125 L 24.575 73.125 L 24.575 87.125 Z M 24.575 68.075 L 38.575 68.075 L 38.575 54.075 L 24.575 54.075 L 24.575 68.075 Z M 24.575 49.025 L 38.575 49.025 L 38.575 35.025 L 24.575 35.025 L 24.575 49.025 Z M 43.625 125.225 L 57.625 125.225 L 57.625 111.225 L 43.625 111.225 L 43.625 125.225 Z M 43.625 106.175 L 57.625 106.175 L 57.625 92.175 L 43.625 92.175 L 43.625 106.175 Z M 43.625 87.125 L 57.625 87.125 L 57.625 73.125 L 43.625 73.125 L 43.625 87.125 Z M 43.625 68.075 L 57.625 68.075 L 57.625 54.075 L 43.625 54.075 L 43.625 68.075 Z M 43.625 49.025 L 57.625 49.025 L 57.625 35.025 L 43.625 35.025 L 43.625 49.025 Z M 62.675 115.7 L 76.675 115.7 L 76.675 101.7 L 62.675 101.7 L 62.675 115.7 Z M 62.675 87.125 L 76.675 87.125 L 76.675 73.125 L 62.675 73.125 L 62.675 87.125 Z M 62.675 68.075 L 76.675 68.075 L 76.675 54.075 L 62.675 54.075 L 62.675 68.075 Z M 62.675 49.025 L 76.675 49.025 L 76.675 35.025 L 62.675 35.025 L 62.675 49.025 Z" vector-effect="non-scaling-stroke"/></g></svg>