0
SECTION
2
HEADER
9
$INSUNITS
70
4
0
ENDSEC
0
SECTION
2
TABLES
0
TABLE
2
LTYPE
0
LTYPE
72
65
70
64
2
CONTINUOUS
3
______
73
0
40
0
0
ENDTAB
0
TABLE
2
LAYER
0
ENDTAB
0
ENDSEC
0
SECTION
2
ENTITIES
0
LINE
8
0
10
200.525
20
-209
11
218.525
21
-209
0
LINE
8
0
10
218.525
20
-209
11
218.525
21
-191
0
LINE
8
0
10
218.525
20
-191
11
200.525
21
-191
0
LINE
8
0
10
200.525
20
-191
11
200.525
21
-209
0
LINE
8
0
10
191
20
-189.95
11
209
21
-189.95
0
LINE
8
0
10
209
20
-189.95
11
209
21
-171.95
0
LINE
8
0
10
209
20
-171.95
11
191
21
-171.95
0
LINE
8
0
10
191
20
-171.95
11
191
21
-189.95
0
LINE
8
0
10
191
20
-170.9
11
209
21
-170.9
0
LINE
8
0
10
209
20
-170.9
11
209
21
-152.9
0
LINE
8
0
10
209
20
-152.9
11
191
21
-152.9
0
LINE
8
0
10
191
20
-152.9
11
191
21
-170.9
0
LINE
8
0
10
191
20
-151.85
11
209
21
-151.85
0
LINE
8
0
10
209
20
-151.85
11
209
21
-133.85
0
LINE
8
0
10
209
20
-133.85
11
191
21
-133.85
0
LINE
8
0
10
191
20
-133.85
11
191
21
-151.85
0
LINE
8
0
10
191
20
-132.8
11
209
21
-132.8
0
LINE
8
0
10
209
20
-132.8
11
209
21
-114.8
0
LINE
8
0
10
209
20
-114.8
11
191
21
-114.8
0
LINE
8
0
10
191
20
-114.8
11
191
21
-132.8
0
LINE
8
0
10
210.05
20
-189.95
11
228.05
21
-189.95
0
LINE
8
0
10
228.05
20
-189.95
11
228.05
21
-171.95
0
LINE
8
0
10
228.05
20
-171.95
11
210.05
21
-171.95
0
LINE
8
0
10
210.05
20
-171.95
11
210.05
21
-189.95
0
LINE
8
0
10
210.05
20
-170.9
11
228.05
21
-170.9
0
LINE
8
0
10
228.05
20
-170.9
11
228.05
21
-152.9
0
LINE
8
0
10
228.05
20
-152.9
11
210.05
21
-152.9
0
LINE
8
0
10
210.05
20
-152.9
11
210.05
21
-170.9
0
LINE
8
0
10
210.05
20
-151.85
11
228.05
21
-151.85
0
LINE
8
0
10
228.05
20
-151.85
11
228.05
21
-133.85
0
LINE
8
0
10
228.05
20
-133.85
11
210.05
21
-133.85
0
LINE
8
0
10
210.05
20
-133.85
11
210.05
21
-151.85
0
LINE
8
0
10
210.05
20
-132.8
11
228.05
21
-132.8
0
LINE
8
0
10
228.05
20
-132.8
11
228.05
21
-114.8
0
LINE
8
0
10
228.05
20
-114.8
11
210.05
21
-114.8
0
LINE
8
0
10
210.05
20
-114.8
11
210.05
21
-132.8
0
LINE
8
0
10
229.1
20
-209
11
247.1
21
-209
0
LINE
8
0
10
247.1
20
-209
11
247.1
21
-191
0
LINE
8
0
10
247.1
20
-191
11
229.1
21
-191
0
LINE
8
0
10
229.1
20
-191
11
229.1
21
-209
0
LINE
8
0
10
229.1
20
-189.95
11
247.1
21
-189.95
0
LINE
8
0
10
247.1
20
-189.95
11
247.1
21
-171.95
0
LINE
8
0
10
247.1
20
-171.95
11
229.1
21
-171.95
0
LINE
8
0
10
229.1
20
-171.95
11
229.1
21
-189.95
0
LINE
8
0
10
229.1
20
-170.9
11
247.1
21
-170.9
0
LINE
8
0
10
247.1
20
-170.9
11
247.1
21
-152.9
0
LINE
8
0
10
247.1
20
-152.9
11
229.1
21
-152.9
0
LINE
8
0
10
229.1
20
-152.9
11
229.1
21
-170.9
0
LINE
8
0
10
229.1
20
-151.85
11
247.1
21
-151.85
0
LINE
8
0
10
247.1
20
-151.85
11
247.1
21
-133.85
0
LINE
8
0
10
247.1
20
-133.85
11
229.1
21
-133.85
0
LINE
8
0
10
229.1
20
-133.85
11
229.1
21
-151.85
0
LINE
8
0
10
229.1
20
-132.8
11
247.1
21
-132.8
0
LINE
8
0
10
247.1
20
-132.8
11
247.1
21
-114.8
0
LINE
8
0
10
247.1
20
-114.8
11
229.1
21
-114.8
0
LINE
8
0
10
229.1
20
-114.8
11
229.1
21
-132.8
0
LINE
8
0
10
248.15
20
-199.475
11
266.15
21
-199.475
0
LINE
8
0
10
266.15
20
-199.475
11
266.15
21
-181.475
0
LINE
8
0
10
266.15
20
-181.475
11
248.15
21
-181.475
0
LINE
8
0
10
248.15
20
-181.475
11
248.15
21
-199.475
0
LINE
8
0
10
248.15
20
-170.9
11
266.15
21
-170.9
0
LINE
8
0
10
266.15
20
-170.9
11
266.15
21
-152.9
0
LINE
8
0
10
266.15
20
-152.9
11
248.15
21
-152.9
0
LINE
8
0
10
248.15
20
-152.9
11
248.15
21
-170.9
0
LINE
8
0
10
248.15
20
-151.85
11
266.15
21
-151.85
0
LINE
8
0
10
266.15
20
-151.85
11
266.15
21
-133.85
0
LINE
8
0
10
266.15
20
-133.85
11
248.15
21
-133.85
0
LINE
8
0
10
248.15
20
-133.85
11
248.15
21
-151.85
0
LINE
8
0
10
248.15
20
-132.8
11
266.15
21
-132.8
0
LINE
8
0
10
266.15
20
-132.8
11
266.15
21
-114.8
0
LINE
8
0
10
266.15
20
-114.8
11
248.15
21
-114.8
0
LINE
8
0
10
248.15
20
-114.8
11
248.15
21
-132.8
0
ENDSEC
0
EOF