<svg width="75.15mm" height="94.2mm" viewBox="0 0 75.15 94.2" xmlns="http://www.w3.org/2000/svg"><g id="svgGroup" stroke-linecap="round" fill-rule="evenodd" font-size="9pt" stroke="#000" stroke-width="0.25mm" fill="none" style="stroke:#000;stroke-width:0.25mm;fill:none"><path d="M 9.525 94.2 L 27.525 94.2 L 27.525 76.2 L 9.525 76.2 L 9.525 94.2 Z M 0 75.15 L 18 75.15 L 18 57.15 L 0 57.15 L 0 75.15 Z M 0 56.1 L 18 56.1 L 18 38.1 L 0 38.1 L 0 56.1 Z M 0 37.05 L 18 37.05 L 18 19.05 L 0 19.05 L 0 37.05 Z M 0 18 L 18 18 L 18 0 L 0 0 L 0 18 Z M 19.05 75.15 L 37.05 75.15 L 37.05 57.15 L 19.05 57.15 L 19.05 75.15 Z M 19.05 56.1 L 37.05 56.1 L 37.05 38.1 L 19.05 38.1 L 19.05 56.1 Z M 19.05 37.05 L 37.05 37.05 L 37.05 19.05 L 19.05 19.05 L 19.05 37.05 Z M 19.05 18 L 37.05 18 L 37.05 0 L 19.05 0 L 19.05 18 Z M 38.1 94.2 L 56.1 94.2 L 56.1 76.2 L 38.1 76.2 L 38.1 94.2 Z M 38.1 75.15 L 56.1 75.15 L 56.1 57.15 L 38.1 57.15 L 38.1 75.15 Z M 38.1 56.1 L 56.1 56.1 L 56.1 38.1 L 38.1 38.1 L 38.1 56.1 Z M 38.1 37.05 L 56.1 37.05 L 56.1 19.05 L 38.1 19.05 L 38.1 37.05 Z M 38.1 18 L 56.1 18 L 56.1 0 L 38.1 0 L 38.1 18 Z M 57.15 84.675 L 75.15 84.675 L 75.15 66.675 L 57.15 66.675 L 57.15 84.675 Z M 57.15 56.1 L 75.15 56.1 L 75.15 38.1 L 57.15 38.1 L 57.15 56.1 Z M 57.15 37.05 L 75.15 37.05 L 75.15 19.05 L 57.15 19.05 L 57.15 37.05 Z M 57.15 18 L 75.15 18 L 75.15 0 L 57.15 0 L 57.15 18 Z" vector-effect="non-scaling-stroke"/></g></svg>