<svg width="71.15mm" height="90.2mm" viewBox="0 0 71.15 90.2" xmlns="http://www.w3.org/2000/svg"><g id="svgGroup" stroke-linecap="round" fill-rule="evenodd" font-size="9pt" stroke="#000" stroke-width="0.25mm" fill="none" style="stroke:#000;stroke-width:0.25mm;fill:none"><path d="M 9.525 90.2 L 23.525 90.2 L 23.525 76.2 L 9.525 76.2 L 9.525 90.2 Z M 0 71.15 L 14 71.15 L 14 57.15 L 0 57.15 L 0 71.15 Z M 0 52.1 L 14 52.1 L 14 38.1 L 0 38.1 L 0 52.1 Z M 0 33.05 L 14 33.05 L 14 19.05 L 0 19.05 L 0 33.05 Z M 0 14 L 14 14 L 14 0 L 0 0 L 0 14 Z M 19.05 71.15 L 33.05 71.15 L 33.05 57.15 L 19.05 57.15 L 19.05 71.15 Z M 19.05 52.1 L 33.05 52.1 L 33.05 38.1 L 19.05 38.1 L 19.05 52.1 Z M 19.05 33.05 L 33.05 33.05 L 33.05 19.05 L 19.05 19.05 L 19.05 33.05 Z M 19.05 14 L 33.05 14 L 33.05 0 L 19.05 0 L 19.05 14 Z M 38.1 90.2 L 52.1 90.2 L 52.1 76.2 L 38.1 76.2 L 38.1 90.2 Z M 38.1 71.15 L 52.1 71.15 L 52.1 57.15 L 38.1 57.15 L 38.1 71.15 Z M 38.1 52.1 L 52.1 52.1 L 52.1 38.1 L 38.1 38.1 L 38.1 52.1 Z M 38.1 33.05 L 52.1 33.05 L 52.1 19.05 L 38.1 19.05 L 38.1 33.05 Z M 38.1 14 L 52.1 14 L 52.1 0 L 38.1 0 L 38.1 14 Z M 57.15 80.675 L 71.15 80.675 L 71.15 66.675 L 57.15 66.675 L 57.15 80.675 Z M 57.15 52.1 L 71.15 52.1 L 71.15 38.1 L 57.15 38.1 L 57.15 52.1 Z M 57.15 33.05 L 71.15 33.05 L 71.15 19.05 L 57.15 19.05 L 57.15 33.05 Z M 57.15 14 L 71.15 14 L 71.15 0 L 57.15 0 L 57.15 14 Z" vector-effect="non-scaling-stroke"/></g></svg>