0
SECTION
2
HEADER
9
$INSUNITS
70
4
0
ENDSEC
0
SECTION
2
TABLES
0
TABLE
2
LTYPE
0
LTYPE
72
65
70
64
2
CONTINUOUS
3
______
73
0
40
0
0
ENDTAB
0
TABLE
2
LAYER
0
ENDTAB
0
ENDSEC
0
SECTION
2
ENTITIES
0
LINE
8
0
10
202.525
20
-207
11
216.525
21
-207
0
LINE
8
0
10
216.525
20
-207
11
216.525
21
-193
0
LINE
8
0
10
216.525
20
-193
11
202.525
21
-193
0
LINE
8
0
10
202.525
20
-193
11
202.525
21
-207
0
LINE
8
0
10
193
20
-187.95
11
207
21
-187.95
0
LINE
8
0
10
207
20
-187.95
11
207
21
-173.95
0
LINE
8
0
10
207
20
-173.95
11
193
21
-173.95
0
LINE
8
0
10
193
20
-173.95
11
193
21
-187.95
0
LINE
8
0
10
193
20
-168.9
11
207
21
-168.9
0
LINE
8
0
10
207
20
-168.9
11
207
21
-154.9
0
LINE
8
0
10
207
20
-154.9
11
193
21
-154.9
0
LINE
8
0
10
193
20
-154.9
11
193
21
-168.9
0
LINE
8
0
10
193
20
-149.85
11
207
21
-149.85
0
LINE
8
0
10
207
20
-149.85
11
207
21
-135.85
0
LINE
8
0
10
207
20
-135.85
11
193
21
-135.85
0
LINE
8
0
10
193
20
-135.85
11
193
21
-149.85
0
LINE
8
0
10
193
20
-130.8
11
207
21
-130.8
0
LINE
8
0
10
207
20
-130.8
11
207
21
-116.8
0
LINE
8
0
10
207
20
-116.8
11
193
21
-116.8
0
LINE
8
0
10
193
20
-116.8
11
193
21
-130.8
0
LINE
8
0
10
212.05
20
-187.95
11
226.05
21
-187.95
0
LINE
8
0
10
226.05
20
-187.95
11
226.05
21
-173.95
0
LINE
8
0
10
226.05
20
-173.95
11
212.05
21
-173.95
0
LINE
8
0
10
212.05
20
-173.95
11
212.05
21
-187.95
0
LINE
8
0
10
212.05
20
-168.9
11
226.05
21
-168.9
0
LINE
8
0
10
226.05
20
-168.9
11
226.05
21
-154.9
0
LINE
8
0
10
226.05
20
-154.9
11
212.05
21
-154.9
0
LINE
8
0
10
212.05
20
-154.9
11
212.05
21
-168.9
0
LINE
8
0
10
212.05
20
-149.85
11
226.05
21
-149.85
0
LINE
8
0
10
226.05
20
-149.85
11
226.05
21
-135.85
0
LINE
8
0
10
226.05
20
-135.85
11
212.05
21
-135.85
0
LINE
8
0
10
212.05
20
-135.85
11
212.05
21
-149.85
0
LINE
8
0
10
212.05
20
-130.8
11
226.05
21
-130.8
0
LINE
8
0
10
226.05
20
-130.8
11
226.05
21
-116.8
0
LINE
8
0
10
226.05
20
-116.8
11
212.05
21
-116.8
0
LINE
8
0
10
212.05
20
-116.8
11
212.05
21
-130.8
0
LINE
8
0
10
231.1
20
-207
11
245.1
21
-207
0
LINE
8
0
10
245.1
20
-207
11
245.1
21
-193
0
LINE
8
0
10
245.1
20
-193
11
231.1
21
-193
0
LINE
8
0
10
231.1
20
-193
11
231.1
21
-207
0
LINE
8
0
10
231.1
20
-187.95
11
245.1
21
-187.95
0
LINE
8
0
10
245.1
20
-187.95
11
245.1
21
-173.95
0
LINE
8
0
10
245.1
20
-173.95
11
231.1
21
-173.95
0
LINE
8
0
10
231.1
20
-173.95
11
231.1
21
-187.95
0
LINE
8
0
10
231.1
20
-168.9
11
245.1
21
-168.9
0
LINE
8
0
10
245.1
20
-168.9
11
245.1
21
-154.9
0
LINE
8
0
10
245.1
20
-154.9
11
231.1
21
-154.9
0
LINE
8
0
10
231.1
20
-154.9
11
231.1
21
-168.9
0
LINE
8
0
10
231.1
20
-149.85
11
245.1
21
-149.85
0
LINE
8
0
10
245.1
20
-149.85
11
245.1
21
-135.85
0
LINE
8
0
10
245.1
20
-135.85
11
231.1
21
-135.85
0
LINE
8
0
10
231.1
20
-135.85
11
231.1
21
-149.85
0
LINE
8
0
10
231.1
20
-130.8
11
245.1
21
-130.8
0
LINE
8
0
10
245.1
20
-130.8
11
245.1
21
-116.8
0
LINE
8
0
10
245.1
20
-116.8
11
231.1
21
-116.8
0
LINE
8
0
10
231.1
20
-116.8
11
231.1
21
-130.8
0
LINE
8
0
10
250.15
20
-197.475
11
264.15
21
-197.475
0
LINE
8
0
10
264.15
20
-197.475
11
264.15
21
-183.475
0
LINE
8
0
10
264.15
20
-183.475
11
250.15
21
-183.475
0
LINE
8
0
10
250.15
20
-183.475
11
250.15
21
-197.475
0
LINE
8
0
10
250.15
20
-168.9
11
264.15
21
-168.9
0
LINE
8
0
10
264.15
20
-168.9
11
264.15
21
-154.9
0
LINE
8
0
10
264.15
20
-154.9
11
250.15
21
-154.9
0
LINE
8
0
10
250.15
20
-154.9
11
250.15
21
-168.9
0
LINE
8
0
10
250.15
20
-149.85
11
264.15
21
-149.85
0
LINE
8
0
10
264.15
20
-149.85
11
264.15
21
-135.85
0
LINE
8
0
10
264.15
20
-135.85
11
250.15
21
-135.85
0
LINE
8
0
10
250.15
20
-135.85
11
250.15
21
-149.85
0
LINE
8
0
10
250.15
20
-130.8
11
264.15
21
-130.8
0
LINE
8
0
10
264.15
20
-130.8
11
264.15
21
-116.8
0
LINE
8
0
10
264.15
20
-116.8
11
250.15
21
-116.8
0
LINE
8
0
10
250.15
20
-116.8
11
250.15
21
-130.8
0
ENDSEC
0
EOF