<svg width="75.2mm" height="94.25mm" viewBox="0 0 75.2 94.25" xmlns="http://www.w3.org/2000/svg"><g id="svgGroup" stroke-linecap="round" fill-rule="evenodd" font-size="9pt" stroke="#000" stroke-width="0.25mm" fill="none" style="stroke:#000;stroke-width:0.25mm;fill:none"><path d="M 0 76.2 L 37.1 76.2 L 37.1 94.25 L 0 94.25 L 0 76.2 Z M 57.15 57.15 L 75.2 57.15 L 75.2 94.25 L 57.15 94.25 L 57.15 57.15 Z M 0 57.15 L 18.05 57.15 L 18.05 75.2 L 0 75.2 L 0 57.15 Z M 0 38.1 L 18.05 38.1 L 18.05 56.15 L 0 56.15 L 0 38.1 Z M 0 19.05 L 18.05 19.05 L 18.05 37.1 L 0 37.1 L 0 19.05 Z M 19.05 57.15 L 37.1 57.15 L 37.1 75.2 L 19.05 75.2 L 19.05 57.15 Z M 19.05 38.1 L 37.1 38.1 L 37.1 56.15 L 19.05 56.15 L 19.05 38.1 Z M 19.05 19.05 L 37.1 19.05 L 37.1 37.1 L 19.05 37.1 L 19.05 19.05 Z M 38.1 76.2 L 56.15 76.2 L 56.15 94.25 L 38.1 94.25 L 38.1 76.2 Z M 38.1 57.15 L 56.15 57.15 L 56.15 75.2 L 38.1 75.2 L 38.1 57.15 Z M 38.1 38.1 L 56.15 38.1 L 56.15 56.15 L 38.1 56.15 L 38.1 38.1 Z M 38.1 19.05 L 56.15 19.05 L 56.15 37.1 L 38.1 37.1 L 38.1 19.05 Z M 0 0 L 18.05 0 L 18.05 18.05 L 0 18.05 L 0 0 Z M 19.05 0 L 37.1 0 L 37.1 18.05 L 19.05 18.05 L 19.05 0 Z M 38.1 0 L 56.15 0 L 56.15 18.05 L 38.1 18.05 L 38.1 0 Z M 57.15 38.1 L 75.2 38.1 L 75.2 56.15 L 57.15 56.15 L 57.15 38.1 Z M 57.15 19.05 L 75.2 19.05 L 75.2 37.1 L 57.15 37.1 L 57.15 19.05 Z M 57.15 0 L 75.2 0 L 75.2 18.05 L 57.15 18.05 L 57.15 0 Z" vector-effect="non-scaling-stroke"/></g></svg>