M48
; DRILL file {KiCad 9.0.6} date 2026-01-02T18:16:13-0500
; FORMAT={-:-/ absolute / metric / decimal}
; #@! TF.CreationDate,2026-01-02T18:16:13-05:00
; #@! TF.GenerationSoftware,Kicad,Pcbnew,9.0.6
; #@! TF.FileFunction,NonPlated,1,2,NPTH
FMAT,2
METRIC
; #@! TA.AperFunction,NonPlated,NPTH,ComponentDrill
T1C1.702
; #@! TA.AperFunction,NonPlated,NPTH,ComponentDrill
T2C3.000
; #@! TA.AperFunction,NonPlated,NPTH,ComponentDrill
T3C3.048
; #@! TA.AperFunction,NonPlated,NPTH,ComponentDrill
T4C3.988
%
G90
G05
T1
X115.445Y-69.025
X115.445Y-88.075
X115.445Y-107.125
X115.445Y-126.175
X124.97Y-145.225
X125.605Y-69.025
X125.605Y-88.075
X125.605Y-107.125
X125.605Y-126.175
X134.495Y-69.025
X134.495Y-88.075
X134.495Y-107.125
X134.495Y-126.175
X135.13Y-145.225
X144.655Y-69.025
X144.655Y-88.075
X144.655Y-107.125
X144.655Y-126.175
X153.545Y-69.025
X153.545Y-88.075
X153.545Y-107.125
X153.545Y-126.175
X153.545Y-145.225
X163.705Y-69.025
X163.705Y-88.075
X163.705Y-107.125
X163.705Y-126.175
X163.705Y-145.225
X172.595Y-69.025
X172.595Y-88.075
X172.595Y-107.125
X172.595Y-135.7
X182.755Y-69.025
X182.755Y-88.075
X182.755Y-107.125
X182.755Y-135.7
T2
X116.715Y-66.485
X116.715Y-85.535
X116.715Y-104.585
X116.715Y-123.635
X123.065Y-63.945
X123.065Y-82.995
X123.065Y-102.045
X123.065Y-121.095
X126.24Y-142.685
X132.59Y-140.145
X135.765Y-66.485
X135.765Y-85.535
X135.765Y-104.585
X135.765Y-123.635
X142.115Y-63.945
X142.115Y-82.995
X142.115Y-102.045
X142.115Y-121.095
X154.815Y-66.485
X154.815Y-85.535
X154.815Y-104.585
X154.815Y-123.635
X154.815Y-142.685
X161.165Y-63.945
X161.165Y-82.995
X161.165Y-102.045
X161.165Y-121.095
X161.165Y-140.145
X173.865Y-66.485
X173.865Y-85.535
X173.865Y-104.585
X173.865Y-133.16
X180.215Y-63.945
X180.215Y-82.995
X180.215Y-102.045
X180.215Y-130.62
T3
X118.112Y-138.24
X141.988Y-138.24
X170.69Y-123.762
X170.69Y-147.638
T4
X118.112Y-153.48
X120.525Y-69.025
X120.525Y-88.075
X120.525Y-107.125
X120.525Y-126.175
X130.05Y-145.225
X139.575Y-69.025
X139.575Y-88.075
X139.575Y-107.125
X139.575Y-126.175
X141.988Y-153.48
X158.625Y-69.025
X158.625Y-88.075
X158.625Y-107.125
X158.625Y-126.175
X158.625Y-145.225
X177.675Y-69.025
X177.675Y-88.075
X177.675Y-107.125
X177.675Y-135.7
X185.93Y-123.762
X185.93Y-147.638
M30
