M48
; DRILL file {KiCad 9.0.6} date 2026-01-02T18:16:13-0500
; FORMAT={-:-/ absolute / metric / decimal}
; #@! TF.CreationDate,2026-01-02T18:16:13-05:00
; #@! TF.GenerationSoftware,Kicad,Pcbnew,9.0.6
; #@! TF.FileFunction,Plated,1,2,PTH
FMAT,2
METRIC
; #@! TA.AperFunction,Plated,PTH,ComponentDrill
T1C0.750
; #@! TA.AperFunction,Plated,PTH,ComponentDrill
T2C0.900
; #@! TA.AperFunction,Plated,PTH,ComponentDrill
T3C1.000
; #@! TA.AperFunction,Plated,PTH,ComponentDrill
T4C1.500
%
G90
G05
T1
X149.125Y-31.025
X149.125Y-33.025
T2
X117.23Y-74.0
X117.23Y-93.05
X117.23Y-112.1
X117.23Y-131.15
X124.85Y-74.0
X124.85Y-93.05
X124.85Y-112.1
X124.85Y-131.15
X126.755Y-150.2
X131.9Y-31.0
X133.9Y-31.0
X134.375Y-150.2
X135.9Y-31.0
X136.28Y-74.0
X136.28Y-93.05
X136.28Y-112.1
X136.28Y-131.15
X143.9Y-74.0
X143.9Y-93.05
X143.9Y-112.1
X143.9Y-131.15
X155.33Y-74.0
X155.33Y-93.05
X155.33Y-112.1
X155.33Y-131.15
X155.33Y-150.2
X162.95Y-74.0
X162.95Y-93.05
X162.95Y-112.1
X162.95Y-131.15
X162.95Y-150.2
X174.38Y-74.0
X174.38Y-93.05
X174.38Y-112.1
X174.38Y-140.675
X182.0Y-74.0
X182.0Y-93.05
X182.0Y-112.1
X182.0Y-140.675
T3
X113.375Y-36.405
X113.375Y-51.645
X115.915Y-36.405
X115.915Y-51.645
X118.455Y-36.405
X118.455Y-51.645
X120.995Y-36.405
X120.995Y-51.645
X123.535Y-36.405
X123.535Y-51.645
X126.075Y-36.405
X126.075Y-51.645
X128.615Y-36.405
X128.615Y-51.645
X131.155Y-36.405
X131.155Y-51.645
X133.695Y-36.405
X133.695Y-51.645
X136.235Y-36.405
X136.235Y-51.645
X138.775Y-36.405
X138.775Y-51.645
X141.315Y-36.405
X141.315Y-51.645
X182.0Y-40.38
X182.0Y-42.92
X182.0Y-45.46
X182.0Y-48.0
X184.54Y-40.38
X184.54Y-42.92
X184.54Y-45.46
X184.54Y-48.0
T4
X129.8Y-31.0
X138.0Y-31.0
M30
