solid ass_one
facet normal 0 0 1
outer loop
vertex 182.53388768841558 -212.79010508168665 2
vertex 182.47648024131263 -212.025 2
vertex 182.475039999999 -212.00580500000007 2
endloop
endfacet
facet normal 0 0 1
outer loop
vertex 182.53388768841558 -212.79010508168665 2
vertex 182.475039999999 -212.00580500000007 2
vertex 182.475039999999 -212.00580500000007 0
endloop
endfacet
facet normal 0 0 1
outer loop
vertex 182.53388768841558 -212.79010508168665 2
vertex 182.475039999999 -212.00580500000007 0
vertex 182.47648024131266 -212.025 0
endloop
endfacet
facet normal 0 0 1
outer loop
vertex 182.53388768841558 -212.79010508168665 2
vertex 182.47648024131266 -212.025 0
vertex 182.53388768841558 -212.79010508168665 0
endloop
endfacet
facet normal -0.9731267285602531 -0.23027021119028754 0
outer loop
vertex 182.714996295512 -213.5554738431352 2
vertex 182.53388768841558 -212.79010508168665 2
vertex 182.53388768841558 -212.79010508168665 0
endloop
endfacet
facet normal -0.9731267285602531 -0.23027021119028754 0
outer loop
vertex 182.714996295512 -213.5554738431352 2
vertex 182.53388768841558 -212.79010508168665 0
vertex 182.714996295512 -213.5554738431352 0
endloop
endfacet
facet normal -0.9249778900368947 -0.38002092434877094 0
outer loop
vertex 183.01388454476154 -214.28297331600518 2
vertex 182.714996295512 -213.5554738431352 2
vertex 182.714996295512 -213.5554738431352 0
endloop
endfacet
facet normal -0.9249778900368947 -0.38002092434877094 0
outer loop
vertex 183.01388454476154 -214.28297331600518 2
vertex 182.714996295512 -213.5554738431352 0
vertex 183.01388454476154 -214.28297331600518 0
endloop
endfacet
facet normal -0.8539417808564123 -0.5203685568015993 0
outer loop
vertex 183.42315686882995 -214.95460255399007 2
vertex 183.01388454476154 -214.28297331600518 2
vertex 183.01388454476154 -214.28297331600518 0
endloop
endfacet
facet normal -0.8539417808564123 -0.5203685568015993 0
outer loop
vertex 183.42315686882995 -214.95460255399007 2
vertex 183.01388454476154 -214.28297331600518 0
vertex 183.42315686882995 -214.95460255399007 0
endloop
endfacet
facet normal -0.7617760891481322 -0.6478404047311165 0
outer loop
vertex 183.93268640248408 -215.5537430407709 2
vertex 183.42315686882995 -214.95460255399007 2
vertex 183.42315686882995 -214.95460255399007 0
endloop
endfacet
facet normal -0.7617760891481322 -0.6478404047311165 0
outer loop
vertex 183.93268640248408 -215.5537430407709 2
vertex 183.42315686882995 -214.95460255399007 0
vertex 183.93268640248408 -215.5537430407709 0
endloop
endfacet
facet normal -0.6507613246996221 -0.7592823574107284 0
outer loop
vertex 184.52986555748808 -216.06556989175996 2
vertex 183.93268640248408 -215.5537430407709 2
vertex 183.93268640248408 -215.5537430407709 0
endloop
endfacet
facet normal -0.6507613246996221 -0.7592823574107284 0
outer loop
vertex 184.52986555748808 -216.06556989175996 2
vertex 183.93268640248408 -215.5537430407709 0
vertex 184.52986555748808 -216.06556989175996 0
endloop
endfacet
facet normal -0.5236443909646479 -0.8519369412176369 0
outer loop
vertex 185.19991797964664 -216.47741867484297 2.000000000000001
vertex 184.52986555748808 -216.06556989175996 2
vertex 184.52986555748808 -216.06556989175996 0
endloop
endfacet
facet normal -0.5236443909646479 -0.8519369412176369 0
outer loop
vertex 185.19991797964664 -216.47741867484297 2.000000000000001
vertex 184.52986555748808 -216.06556989175996 0
vertex 185.19991797964664 -216.47741867484297 0
endloop
endfacet
facet normal -0.3835706168194693 -0.9235115494203263 0
outer loop
vertex 185.92626416870445 -216.7790987739639 2
vertex 185.19991797964664 -216.47741867484297 2.000000000000001
vertex 185.19991797964664 -216.47741867484297 0
endloop
endfacet
facet normal -0.3835706168194693 -0.9235115494203263 0
outer loop
vertex 185.92626416870445 -216.7790987739639 2
vertex 185.19991797964664 -216.47741867484297 0
vertex 185.92626416870445 -216.7790987739639 0
endloop
endfacet
facet normal -0.2340059298452102 -0.9722351694920723 0
outer loop
vertex 186.69093171474216 -216.96314554139798 2.000000000000001
vertex 185.92626416870445 -216.7790987739639 2
vertex 185.92626416870445 -216.7790987739639 0
endloop
endfacet
facet normal -0.2340059298452102 -0.9722351694920723 0
outer loop
vertex 186.69093171474216 -216.96314554139798 2.000000000000001
vertex 185.92626416870445 -216.7790987739639 0
vertex 186.69093171474216 -216.96314554139798 0
endloop
endfacet
facet normal -0.07864477892766782 -0.9969027027485773 0
outer loop
vertex 187.4750000000002 -217.0249999999981 2
vertex 186.69093171474216 -216.96314554139798 2.000000000000001
vertex 186.69093171474216 -216.96314554139798 0
endloop
endfacet
facet normal -0.07864477892766782 -0.9969027027485773 0
outer loop
vertex 187.4750000000002 -217.0249999999981 2
vertex 186.69093171474216 -216.96314554139798 0
vertex 187.4750000000002 -217.0249999999981 0
endloop
endfacet
facet normal 3.9903227389004314e-8 -0.9999999999999993 0
outer loop
vertex 270.1749963000002 -217.02499670000438 2.000000000000001
vertex 187.4750000000002 -217.0249999999981 2
vertex 187.4750000000002 -217.0249999999981 0
endloop
endfacet
facet normal 3.9903227389004314e-8 -0.9999999999999993 0
outer loop
vertex 270.1749963000002 -217.02499670000438 2.000000000000001
vertex 187.4750000000002 -217.0249999999981 0
vertex 270.1749963000002 -217.02499670000438 0
endloop
endfacet
facet normal 0.07884032701423388 -0.996887256833133 0
outer loop
vertex 270.9609599916612 -216.96283758014903 2
vertex 270.1749963000002 -217.02499670000438 2.000000000000001
vertex 270.1749963000002 -217.02499670000438 0
endloop
endfacet
facet normal 0.07884032701423388 -0.996887256833133 0
outer loop
vertex 270.9609599916612 -216.96283758014903 2
vertex 270.1749963000002 -217.02499670000438 0
vertex 270.9609599916612 -216.96283758014903 0
endloop
endfacet
facet normal 0.23456359944628885 -0.9721007755447998 0
outer loop
vertex 271.72738157943695 -216.7779034551729 2.000000000000001
vertex 270.9609599916612 -216.96283758014903 2
vertex 270.9609599916612 -216.96283758014903 0
endloop
endfacet
facet normal 0.23456359944628885 -0.9721007755447998 0
outer loop
vertex 271.72738157943695 -216.7779034551729 2.000000000000001
vertex 270.9609599916612 -216.96283758014903 0
vertex 271.72738157943695 -216.7779034551729 0
endloop
endfacet
facet normal 0.3844546573890881 -0.9231438763333909 0
outer loop
vertex 272.455204674779 -216.47479254695935 2
vertex 271.72738157943695 -216.7779034551729 2.000000000000001
vertex 271.72738157943695 -216.7779034551729 0
endloop
endfacet
facet normal 0.3844546573890881 -0.9231438763333909 0
outer loop
vertex 272.455204674779 -216.47479254695935 2
vertex 271.72738157943695 -216.7779034551729 0
vertex 272.455204674779 -216.47479254695935 0
endloop
endfacet
facet normal 0.5247865935048783 -0.8512338287906241 0
outer loop
vertex 273.12633260620777 -216.061041437661 2
vertex 272.455204674779 -216.47479254695935 2
vertex 272.455204674779 -216.47479254695935 0
endloop
endfacet
facet normal 0.5247865935048783 -0.8512338287906241 0
outer loop
vertex 273.12633260620777 -216.061041437661 2
vertex 272.455204674779 -216.47479254695935 0
vertex 273.12633260620777 -216.061041437661 0
endloop
endfacet
facet normal 0.6520701794860836 -0.7581586120496071 0
outer loop
vertex 273.7240783768604 -215.54693767920568 2
vertex 273.12633260620777 -216.061041437661 2
vertex 273.12633260620777 -216.061041437661 0
endloop
endfacet
facet normal 0.6520701794860836 -0.7581586120496071 0
outer loop
vertex 273.7240783768604 -215.54693767920568 2
vertex 273.12633260620777 -216.061041437661 0
vertex 273.7240783768604 -215.54693767920568 0
endloop
endfacet
facet normal 0.7631406226019612 -0.6462324582800612 0
outer loop
vertex 274.233579571805 -214.9452640025835 2
vertex 273.7240783768604 -215.54693767920568 2
vertex 273.7240783768604 -215.54693767920568 0
endloop
endfacet
facet normal 0.7631406226019612 -0.6462324582800612 0
outer loop
vertex 274.233579571805 -214.9452640025835 2
vertex 273.7240783768604 -215.54693767920568 0
vertex 274.233579571805 -214.9452640025835 0
endloop
endfacet
facet normal 0.8552362554446713 -0.5182383113713004 0
outer loop
vertex 274.64216789869255 -214.27098048660415 2
vertex 274.233579571805 -214.9452640025835 2
vertex 274.233579571805 -214.9452640025835 0
endloop
endfacet
facet normal 0.8552362554446713 -0.5182383113713004 0
outer loop
vertex 274.64216789869255 -214.27098048660415 2
vertex 274.233579571805 -214.9452640025835 0
vertex 274.64216789869255 -214.27098048660415 0
endloop
endfacet
facet normal 0.9260672023236681 -0.37735863151704174 0
outer loop
vertex 274.93968417355427 -213.54085258891607 2.000000000000001
vertex 274.64216789869255 -214.27098048660415 2
vertex 274.64216789869255 -214.27098048660415 0
endloop
endfacet
facet normal 0.9260672023236681 -0.37735863151704174 0
outer loop
vertex 274.93968417355427 -213.54085258891607 2.000000000000001
vertex 274.64216789869255 -214.27098048660415 0
vertex 274.93968417355427 -213.54085258891607 0
endloop
endfacet
facet normal 0.9738723149804162 -0.2270962661839359 0
outer loop
vertex 275.11873091982375 -212.77303428785712 2
vertex 274.93968417355427 -213.54085258891607 2.000000000000001
vertex 274.93968417355427 -213.54085258891607 0
endloop
endfacet
facet normal 0.9738723149804162 -0.2270962661839359 0
outer loop
vertex 275.11873091982375 -212.77303428785712 2
vertex 274.93968417355427 -213.54085258891607 0
vertex 275.11873091982375 -212.77303428785712 0
endloop
endfacet
facet normal -0.0006530932477662948 0.00004660696446681062 0.9999997856484775
outer loop
vertex 275.1748526000012 -211.98661340000015 2.000000000000001
vertex 275.17211320113404 -212.025 2
vertex 275.11873091982375 -212.77303428785712 2
endloop
endfacet
facet normal -0.0006530932477662948 0.00004660696446681062 0.9999997856484775
outer loop
vertex 275.1748526000012 -211.98661340000015 2.000000000000001
vertex 275.11873091982375 -212.77303428785712 2
vertex 275.11873091982375 -212.77303428785712 0
endloop
endfacet
facet normal -0.0006530932477662948 0.00004660696446681062 0.9999997856484775
outer loop
vertex 275.1748526000012 -211.98661340000015 2.000000000000001
vertex 275.11873091982375 -212.77303428785712 0
vertex 275.1721132011341 -212.025 0
endloop
endfacet
facet normal -0.0006530932477662948 0.00004660696446681062 0.9999997856484775
outer loop
vertex 275.1748526000012 -211.98661340000015 2.000000000000001
vertex 275.1721132011341 -212.025 0
vertex 275.1748526000012 -211.98661340000015 0
endloop
endfacet
facet normal -6.332344029138533e-8 -4.861721042404638e-10 0.9999999999999981
outer loop
vertex 274.17484500000415 -81.73660499999997 2
vertex 274.17513978149196 -81.775 2
vertex 275.1748526000012 -211.98661340000015 2.000000000000001
endloop
endfacet
facet normal -6.332344029138533e-8 -4.861721042404638e-10 0.9999999999999981
outer loop
vertex 274.17484500000415 -81.73660499999997 2
vertex 275.1748526000012 -211.98661340000015 2.000000000000001
vertex 275.1748526000012 -211.98661340000015 0
endloop
endfacet
facet normal -6.332344029138533e-8 -4.861721042404638e-10 0.9999999999999981
outer loop
vertex 274.17484500000415 -81.73660499999997 2
vertex 275.1748526000012 -211.98661340000015 0
vertex 274.17513978149196 -81.775 0
endloop
endfacet
facet normal -6.332344029138533e-8 -4.861721042404638e-10 0.9999999999999981
outer loop
vertex 274.17484500000415 -81.73660499999997 2
vertex 274.17513978149196 -81.775 0
vertex 274.17484500000415 -81.73660499999997 0
endloop
endfacet
facet normal 0.9955363351962182 0.0943790511929593 0
outer loop
vertex 274.09298953099744 -80.87317087348536 2.000000000000001
vertex 274.17484500000415 -81.73660499999997 2
vertex 274.17484500000415 -81.73660499999997 0
endloop
endfacet
facet normal 0.9955363351962182 0.0943790511929593 0
outer loop
vertex 274.09298953099744 -80.87317087348536 2.000000000000001
vertex 274.17484500000415 -81.73660499999997 0
vertex 274.09298953099744 -80.87317087348536 0
endloop
endfacet
facet normal 0.9642497077273621 0.26499528514239057 0
outer loop
vertex 273.863157666033 -80.03687181065966 2
vertex 274.09298953099744 -80.87317087348536 2.000000000000001
vertex 274.09298953099744 -80.87317087348536 0
endloop
endfacet
facet normal 0.9642497077273621 0.26499528514239057 0
outer loop
vertex 273.863157666033 -80.03687181065966 2
vertex 274.09298953099744 -80.87317087348536 0
vertex 273.863157666033 -80.03687181065966 0
endloop
endfacet
facet normal 0.903950009603568 0.4276381415843415 0
outer loop
vertex 273.4922647591719 -79.25287100691257 2
vertex 273.863157666033 -80.03687181065966 2
vertex 273.863157666033 -80.03687181065966 0
endloop
endfacet
facet normal 0.903950009603568 0.4276381415843415 0
outer loop
vertex 273.4922647591719 -79.25287100691257 2
vertex 273.863157666033 -80.03687181065966 0
vertex 273.4922647591719 -79.25287100691257 0
endloop
endfacet
facet normal 0.8164515835081391 0.5774138998907565 0
outer loop
vertex 272.9914705152481 -78.54475806825965 2
vertex 273.4922647591719 -79.25287100691257 2
vertex 273.4922647591719 -79.25287100691257 0
endloop
endfacet
facet normal 0.8164515835081391 0.5774138998907565 0
outer loop
vertex 272.9914705152481 -78.54475806825965 2
vertex 273.4922647591719 -79.25287100691257 0
vertex 272.9914705152481 -78.54475806825965 0
endloop
endfacet
facet normal 0.7043871479145335 0.7098159943625032 0
outer loop
vertex 272.3758432082227 -77.9338392295571 2
vertex 272.9914705152481 -78.54475806825965 2
vertex 272.9914705152481 -78.54475806825965 0
endloop
endfacet
facet normal 0.7043871479145335 0.7098159943625032 0
outer loop
vertex 272.3758432082227 -77.9338392295571 2
vertex 272.9914705152481 -78.54475806825965 0
vertex 272.3758432082227 -77.9338392295571 0
endloop
endfacet
facet normal 0.5711285818720021 0.8208606111690803 0
outer loop
vertex 271.66390629568815 -77.43849627643661 2.000000000000001
vertex 272.3758432082227 -77.9338392295571 2
vertex 272.3758432082227 -77.9338392295571 0
endloop
endfacet
facet normal 0.5711285818720021 0.8208606111690803 0
outer loop
vertex 271.66390629568815 -77.43849627643661 2.000000000000001
vertex 272.3758432082227 -77.9338392295571 0
vertex 271.66390629568815 -77.43849627643661 0
endloop
endfacet
facet normal 0.42068546937212337 0.9072065563360731 0
outer loop
vertex 270.87708107109 -77.0736334603385 2.000000000000001
vertex 271.66390629568815 -77.43849627643661 2.000000000000001
vertex 271.66390629568815 -77.43849627643661 0
endloop
endfacet
facet normal 0.42068546937212337 0.9072065563360731 0
outer loop
vertex 270.87708107109 -77.0736334603385 2.000000000000001
vertex 271.66390629568815 -77.43849627643661 0
vertex 270.87708107109 -77.0736334603385 0
endloop
endfacet
facet normal 0.25758445596901325 0.9662557881033094 0
outer loop
vertex 270.03904212374687 -76.85022904817991 2
vertex 270.87708107109 -77.0736334603385 2.000000000000001
vertex 270.87708107109 -77.0736334603385 0
endloop
endfacet
facet normal 0.25758445596901325 0.9662557881033094 0
outer loop
vertex 270.03904212374687 -76.85022904817991 2
vertex 270.87708107109 -77.0736334603385 0
vertex 270.03904212374687 -76.85022904817991 0
endloop
endfacet
facet normal 0.08673827111184097 0.9962311339867516 0
outer loop
vertex 269.1750000000002 -76.77499999999915 2.000000000000001
vertex 270.03904212374687 -76.85022904817991 2
vertex 270.03904212374687 -76.85022904817991 0
endloop
endfacet
facet normal 0.08673827111184097 0.9962311339867516 0
outer loop
vertex 269.1750000000002 -76.77499999999915 2.000000000000001
vertex 270.03904212374687 -76.85022904817991 0
vertex 269.1750000000002 -76.77499999999915 0
endloop
endfacet
facet normal 4.01532827332016e-11 -0.0010350625296729529 0.9999994643226364
outer loop
vertex 187.9749984 -76.77500314999968 2
vertex 269.13661228407557 -76.77500000148919 2
vertex 269.1750000000002 -76.77499999999915 2.000000000000001
endloop
endfacet
facet normal 4.01532827332016e-11 -0.0010350625296729529 0.9999994643226364
outer loop
vertex 187.9749984 -76.77500314999968 2
vertex 269.1750000000002 -76.77499999999915 2.000000000000001
vertex 269.1750000000002 -76.77499999999915 0
endloop
endfacet
facet normal 4.01532827332016e-11 -0.0010350625296729529 0.9999994643226364
outer loop
vertex 187.9749984 -76.77500314999968 2
vertex 269.1750000000002 -76.77499999999915 0
vertex 269.1366122840755 -76.77500000148919 0
endloop
endfacet
facet normal 4.01532827332016e-11 -0.0010350625296729529 0.9999994643226364
outer loop
vertex 187.9749984 -76.77500314999968 2
vertex 269.1366122840755 -76.77500000148919 0
vertex 187.9749984 -76.77500314999968 0
endloop
endfacet
facet normal -0.08694380879498448 0.9962132171941012 0
outer loop
vertex 187.10885890957152 -76.85059486565582 2.000000000000001
vertex 187.9749984 -76.77500314999968 2
vertex 187.9749984 -76.77500314999968 0
endloop
endfacet
facet normal -0.08694380879498448 0.9962132171941012 0
outer loop
vertex 187.10885890957152 -76.85059486565582 2.000000000000001
vertex 187.9749984 -76.77500314999968 0
vertex 187.10885890957152 -76.85059486565582 0
endloop
endfacet
facet normal -0.25820130301202987 0.9660911381039006 0
outer loop
vertex 186.2689085137905 -77.07508329961728 2
vertex 187.10885890957152 -76.85059486565582 2.000000000000001
vertex 187.10885890957152 -76.85059486565582 0
endloop
endfacet
facet normal -0.25820130301202987 0.9660911381039006 0
outer loop
vertex 186.2689085137905 -77.07508329961728 2
vertex 187.10885890957152 -76.85059486565582 0
vertex 186.2689085137905 -77.07508329961728 0
endloop
endfacet
facet normal -0.4216517015414631 0.9067578742901486 0
outer loop
vertex 185.48054434673782 -77.44168071431402 2
vertex 186.2689085137905 -77.07508329961728 2
vertex 186.2689085137905 -77.07508329961728 0
endloop
endfacet
facet normal -0.4216517015414631 0.9067578742901486 0
outer loop
vertex 185.48054434673782 -77.44168071431402 2
vertex 186.2689085137905 -77.07508329961728 0
vertex 185.48054434673782 -77.44168071431402 0
endloop
endfacet
facet normal -0.572352841479302 0.8200074541432957 0
outer loop
vertex 184.76760375709262 -77.9393024983948 2.000000000000001
vertex 185.48054434673782 -77.44168071431402 2
vertex 185.48054434673782 -77.44168071431402 0
endloop
endfacet
facet normal -0.572352841479302 0.8200074541432957 0
outer loop
vertex 184.76760375709262 -77.9393024983948 2.000000000000001
vertex 185.48054434673782 -77.44168071431402 0
vertex 184.76760375709262 -77.9393024983948 0
endloop
endfacet
facet normal -0.7057480524834748 0.7084629040505807 0
outer loop
vertex 184.15164355087146 -78.55290232621999 2
vertex 184.76760375709262 -77.9393024983948 2.000000000000001
vertex 184.76760375709262 -77.9393024983948 0
endloop
endfacet
facet normal -0.7057480524834748 0.7084629040505807 0
outer loop
vertex 184.15164355087146 -78.55290232621999 2
vertex 184.76760375709262 -77.9393024983948 0
vertex 184.15164355087146 -78.55290232621999 0
endloop
endfacet
facet normal -0.8178039343950662 0.5754969373402 0
outer loop
vertex 183.6512881897429 -79.2639271056374 1.9999999999999996
vertex 184.15164355087146 -78.55290232621999 2
vertex 184.15164355087146 -78.55290232621999 0
endloop
endfacet
facet normal -0.8178039343950662 0.5754969373402 0
outer loop
vertex 183.6512881897429 -79.2639271056374 1.9999999999999996
vertex 184.15164355087146 -78.55290232621999 0
vertex 183.6512881897429 -79.2639271056374 0
endloop
endfacet
facet normal -0.9051323130173434 0.42512997533915886 0
outer loop
vertex 183.28166665305633 -80.05087795796103 2
vertex 183.6512881897429 -79.2639271056374 1.9999999999999996
vertex 183.6512881897429 -79.2639271056374 0
endloop
endfacet
facet normal -0.9051323130173434 0.42512997533915886 0
outer loop
vertex 183.28166665305633 -80.05087795796103 2
vertex 183.6512881897429 -79.2639271056374 0
vertex 183.28166665305633 -80.05087795796103 0
endloop
endfacet
facet normal -0.9650926865395185 0.26190858402873063 0
outer loop
vertex 183.05395499093981 -80.88996026816169 2
vertex 183.28166665305633 -80.05087795796103 2
vertex 183.28166665305633 -80.05087795796103 0
endloop
endfacet
facet normal -0.9650926865395185 0.26190858402873063 0
outer loop
vertex 183.05395499093981 -80.88996026816169 2
vertex 183.28166665305633 -80.05087795796103 0
vertex 183.05395499093981 -80.88996026816169 0
endloop
endfacet
facet normal -0.9958719284877922 0.09076949955797897 0
outer loop
vertex 182.97503680000068 -81.75580630000007 2.000000000000001
vertex 183.05395499093981 -80.88996026816169 2
vertex 183.05395499093981 -80.88996026816169 0
endloop
endfacet
facet normal -0.9958719284877922 0.09076949955797897 0
outer loop
vertex 182.97503680000068 -81.75580630000007 2.000000000000001
vertex 183.05395499093981 -80.88996026816169 0
vertex 182.97503680000068 -81.75580630000007 0
endloop
endfacet
facet normal 0.0013556658615833828 -0.00000520405834493346 -0.9999990810710725
outer loop
vertex 182.475039999999 -212.00580500000007 2
vertex 182.97496312024052 -81.775 2
vertex 182.97503680000068 -81.75580630000007 2.000000000000001
endloop
endfacet
facet normal 0.0013556658615833828 -0.00000520405834493346 -0.9999990810710725
outer loop
vertex 182.475039999999 -212.00580500000007 2
vertex 182.97503680000068 -81.75580630000007 2.000000000000001
vertex 182.97503680000068 -81.75580630000007 0
endloop
endfacet
facet normal 0.0013556658615833828 -0.00000520405834493346 -0.9999990810710725
outer loop
vertex 182.475039999999 -212.00580500000007 2
vertex 182.97503680000068 -81.75580630000007 0
vertex 182.9749631202405 -81.775 0
endloop
endfacet
facet normal 0.0013556658615833828 -0.00000520405834493346 -0.9999990810710725
outer loop
vertex 182.475039999999 -212.00580500000007 2
vertex 182.9749631202405 -81.775 0
vertex 182.475039999999 -212.00580500000007 0
endloop
endfacet
facet normal 0 1 0
outer loop
vertex 270.175 -212.025 2
vertex 270.175 -212.025 0
vertex 187.475 -212.025 0
endloop
endfacet
facet normal 0 1 0
outer loop
vertex 270.175 -212.025 2
vertex 187.475 -212.025 0
vertex 187.475 -212.025 2
endloop
endfacet
facet normal -0.9999705289681757 -0.007677316921103738 0
outer loop
vertex 270.175 -212.025 2
vertex 269.17499999999524 -81.77500000000008 2.000000000000001
vertex 269.17499999999524 -81.77500000000008 0
endloop
endfacet
facet normal -0.9999705289681757 -0.007677316921103738 0
outer loop
vertex 270.175 -212.025 2
vertex 269.17499999999524 -81.77500000000008 0
vertex 270.175 -212.025 0
endloop
endfacet
facet normal 0 -1 0
outer loop
vertex 269.17499999999524 -81.77500000000008 0
vertex 269.17499999999524 -81.77500000000008 2.000000000000001
vertex 187.975 -81.775 2
endloop
endfacet
facet normal 0 -1 0
outer loop
vertex 269.17499999999524 -81.77500000000008 0
vertex 187.975 -81.775 2
vertex 187.975 -81.775 0
endloop
endfacet
facet normal 0.9999926319977601 -0.0038387433090179 0
outer loop
vertex 187.975 -81.775 2
vertex 187.475 -212.025 2
vertex 187.475 -212.025 0
endloop
endfacet
facet normal 0.9999926319977601 -0.0038387433090179 0
outer loop
vertex 187.975 -81.775 2
vertex 187.475 -212.025 0
vertex 187.975 -81.775 0
endloop
endfacet
facet normal 0 0 -1
outer loop
vertex 269.1750000000002 -76.77499999999915 0
vertex 270.03904212374687 -76.85022904817991 0
vertex 270.87708107109 -77.0736334603385 0
endloop
endfacet
facet normal 0 0 -1
outer loop
vertex 269.1750000000002 -76.77499999999915 0
vertex 270.87708107109 -77.0736334603385 0
vertex 271.66390629568815 -77.43849627643661 0
endloop
endfacet
facet normal 0 0 -1
outer loop
vertex 269.1750000000002 -76.77499999999915 0
vertex 271.66390629568815 -77.43849627643661 0
vertex 272.3758432082227 -77.9338392295571 0
endloop
endfacet
facet normal 0 0 -1
outer loop
vertex 269.1750000000002 -76.77499999999915 0
vertex 272.3758432082227 -77.9338392295571 0
vertex 272.9914705152481 -78.54475806825965 0
endloop
endfacet
facet normal 0 0 -1
outer loop
vertex 269.1750000000002 -76.77499999999915 0
vertex 272.9914705152481 -78.54475806825965 0
vertex 273.4922647591719 -79.25287100691257 0
endloop
endfacet
facet normal 0 0 -1
outer loop
vertex 269.1750000000002 -76.77499999999915 0
vertex 273.4922647591719 -79.25287100691257 0
vertex 273.863157666033 -80.03687181065966 0
endloop
endfacet
facet normal 0 0 -1
outer loop
vertex 269.1750000000002 -76.77499999999915 0
vertex 273.863157666033 -80.03687181065966 0
vertex 274.09298953099744 -80.87317087348536 0
endloop
endfacet
facet normal 0 0 -1
outer loop
vertex 269.1750000000002 -76.77499999999915 0
vertex 274.09298953099744 -80.87317087348536 0
vertex 274.17484500000415 -81.73660499999997 0
endloop
endfacet
facet normal 0 0 -1
outer loop
vertex 269.1750000000002 -76.77499999999915 0
vertex 274.17484500000415 -81.73660499999997 0
vertex 274.17513978149196 -81.775 0
endloop
endfacet
facet normal 0 0 -1
outer loop
vertex 269.1750000000002 -76.77499999999915 0
vertex 274.17513978149196 -81.775 0
vertex 269.17499999999524 -81.77500000000008 0
endloop
endfacet
facet normal 0 0 -1
outer loop
vertex 269.1750000000002 -76.77499999999915 0
vertex 269.17499999999524 -81.77500000000008 0
vertex 187.975 -81.775 0
endloop
endfacet
facet normal 0 0 -1
outer loop
vertex 269.1750000000002 -76.77499999999915 0
vertex 187.975 -81.775 0
vertex 182.9749631202405 -81.775 0
endloop
endfacet
facet normal 0 0 -1
outer loop
vertex 269.1750000000002 -76.77499999999915 0
vertex 182.9749631202405 -81.775 0
vertex 182.97503680000068 -81.75580630000007 0
endloop
endfacet
facet normal 0 0 -1
outer loop
vertex 269.1750000000002 -76.77499999999915 0
vertex 182.97503680000068 -81.75580630000007 0
vertex 183.05395499093981 -80.88996026816169 0
endloop
endfacet
facet normal 0 0 -1
outer loop
vertex 269.1750000000002 -76.77499999999915 0
vertex 183.05395499093981 -80.88996026816169 0
vertex 183.28166665305633 -80.05087795796103 0
endloop
endfacet
facet normal 0 0 -1
outer loop
vertex 269.1750000000002 -76.77499999999915 0
vertex 183.28166665305633 -80.05087795796103 0
vertex 183.6512881897429 -79.2639271056374 0
endloop
endfacet
facet normal 0 0 -1
outer loop
vertex 269.1750000000002 -76.77499999999915 0
vertex 183.6512881897429 -79.2639271056374 0
vertex 184.15164355087146 -78.55290232621999 0
endloop
endfacet
facet normal 0 0 -1
outer loop
vertex 269.1750000000002 -76.77499999999915 0
vertex 184.15164355087146 -78.55290232621999 0
vertex 184.76760375709262 -77.9393024983948 0
endloop
endfacet
facet normal 0 0 -1
outer loop
vertex 269.1750000000002 -76.77499999999915 0
vertex 184.76760375709262 -77.9393024983948 0
vertex 185.48054434673782 -77.44168071431402 0
endloop
endfacet
facet normal 0 0 -1
outer loop
vertex 269.1750000000002 -76.77499999999915 0
vertex 185.48054434673782 -77.44168071431402 0
vertex 186.2689085137905 -77.07508329961728 0
endloop
endfacet
facet normal 0 0 -1
outer loop
vertex 269.1750000000002 -76.77499999999915 0
vertex 186.2689085137905 -77.07508329961728 0
vertex 187.10885890957152 -76.85059486565582 0
endloop
endfacet
facet normal 0 0 -1
outer loop
vertex 269.1750000000002 -76.77499999999915 0
vertex 187.10885890957152 -76.85059486565582 0
vertex 187.9749984 -76.77500314999968 0
endloop
endfacet
facet normal 0 0 -1
outer loop
vertex 269.1750000000002 -76.77499999999915 0
vertex 187.9749984 -76.77500314999968 0
vertex 269.1366122840755 -76.77500000148919 0
endloop
endfacet
facet normal 0 0 -1
outer loop
vertex 187.975 -81.775 0
vertex 187.475 -212.025 0
vertex 182.47648024131266 -212.025 0
endloop
endfacet
facet normal 0 0 -1
outer loop
vertex 187.975 -81.775 0
vertex 182.47648024131266 -212.025 0
vertex 182.475039999999 -212.00580500000007 0
endloop
endfacet
facet normal 0 0 -1
outer loop
vertex 187.975 -81.775 0
vertex 182.475039999999 -212.00580500000007 0
vertex 182.9749631202405 -81.775 0
endloop
endfacet
facet normal 0 0 -1
outer loop
vertex 274.17513978149196 -81.775 0
vertex 275.1748526000012 -211.98661340000015 0
vertex 275.1721132011341 -212.025 0
endloop
endfacet
facet normal 0 0 -1
outer loop
vertex 274.17513978149196 -81.775 0
vertex 275.1721132011341 -212.025 0
vertex 270.175 -212.025 0
endloop
endfacet
facet normal 0 0 -1
outer loop
vertex 274.17513978149196 -81.775 0
vertex 270.175 -212.025 0
vertex 269.17499999999524 -81.77500000000008 0
endloop
endfacet
facet normal 0 0 -1
outer loop
vertex 187.475 -212.025 0
vertex 270.175 -212.025 0
vertex 275.1721132011341 -212.025 0
endloop
endfacet
facet normal 0 0 -1
outer loop
vertex 187.475 -212.025 0
vertex 275.1721132011341 -212.025 0
vertex 275.11873091982375 -212.77303428785712 0
endloop
endfacet
facet normal 0 0 -1
outer loop
vertex 187.475 -212.025 0
vertex 275.11873091982375 -212.77303428785712 0
vertex 274.93968417355427 -213.54085258891607 0
endloop
endfacet
facet normal 0 0 -1
outer loop
vertex 187.475 -212.025 0
vertex 274.93968417355427 -213.54085258891607 0
vertex 274.64216789869255 -214.27098048660415 0
endloop
endfacet
facet normal 0 0 -1
outer loop
vertex 187.475 -212.025 0
vertex 274.64216789869255 -214.27098048660415 0
vertex 274.233579571805 -214.9452640025835 0
endloop
endfacet
facet normal 0 0 -1
outer loop
vertex 187.475 -212.025 0
vertex 274.233579571805 -214.9452640025835 0
vertex 273.7240783768604 -215.54693767920568 0
endloop
endfacet
facet normal 0 0 -1
outer loop
vertex 187.475 -212.025 0
vertex 273.7240783768604 -215.54693767920568 0
vertex 273.12633260620777 -216.061041437661 0
endloop
endfacet
facet normal 0 0 -1
outer loop
vertex 187.475 -212.025 0
vertex 273.12633260620777 -216.061041437661 0
vertex 272.455204674779 -216.47479254695935 0
endloop
endfacet
facet normal 0 0 -1
outer loop
vertex 187.475 -212.025 0
vertex 272.455204674779 -216.47479254695935 0
vertex 271.72738157943695 -216.7779034551729 0
endloop
endfacet
facet normal 0 0 -1
outer loop
vertex 187.475 -212.025 0
vertex 271.72738157943695 -216.7779034551729 0
vertex 270.9609599916612 -216.96283758014903 0
endloop
endfacet
facet normal 0 0 -1
outer loop
vertex 187.475 -212.025 0
vertex 270.9609599916612 -216.96283758014903 0
vertex 270.1749963000002 -217.02499670000438 0
endloop
endfacet
facet normal 0 0 -1
outer loop
vertex 187.475 -212.025 0
vertex 270.1749963000002 -217.02499670000438 0
vertex 187.4750000000002 -217.0249999999981 0
endloop
endfacet
facet normal 0 0 -1
outer loop
vertex 187.475 -212.025 0
vertex 187.4750000000002 -217.0249999999981 0
vertex 186.69093171474216 -216.96314554139798 0
endloop
endfacet
facet normal 0 0 -1
outer loop
vertex 187.475 -212.025 0
vertex 186.69093171474216 -216.96314554139798 0
vertex 185.92626416870445 -216.7790987739639 0
endloop
endfacet
facet normal 0 0 -1
outer loop
vertex 187.475 -212.025 0
vertex 185.92626416870445 -216.7790987739639 0
vertex 185.19991797964664 -216.47741867484297 0
endloop
endfacet
facet normal 0 0 -1
outer loop
vertex 187.475 -212.025 0
vertex 185.19991797964664 -216.47741867484297 0
vertex 184.52986555748808 -216.06556989175996 0
endloop
endfacet
facet normal 0 0 -1
outer loop
vertex 187.475 -212.025 0
vertex 184.52986555748808 -216.06556989175996 0
vertex 183.93268640248408 -215.5537430407709 0
endloop
endfacet
facet normal 0 0 -1
outer loop
vertex 187.475 -212.025 0
vertex 183.93268640248408 -215.5537430407709 0
vertex 183.42315686882995 -214.95460255399007 0
endloop
endfacet
facet normal 0 0 -1
outer loop
vertex 187.475 -212.025 0
vertex 183.42315686882995 -214.95460255399007 0
vertex 183.01388454476154 -214.28297331600518 0
endloop
endfacet
facet normal 0 0 -1
outer loop
vertex 187.475 -212.025 0
vertex 183.01388454476154 -214.28297331600518 0
vertex 182.714996295512 -213.5554738431352 0
endloop
endfacet
facet normal 0 0 -1
outer loop
vertex 187.475 -212.025 0
vertex 182.714996295512 -213.5554738431352 0
vertex 182.53388768841558 -212.79010508168665 0
endloop
endfacet
facet normal 0 0 -1
outer loop
vertex 187.475 -212.025 0
vertex 182.53388768841558 -212.79010508168665 0
vertex 182.47648024131266 -212.025 0
endloop
endfacet
facet normal 2.2460311818668095e-15 -1.4110890592188333e-14 1
outer loop
vertex 270.1749963000002 -217.02499670000438 2.000000000000001
vertex 270.9609599916612 -216.96283758014903 2
vertex 271.72738157943695 -216.7779034551729 2.000000000000001
endloop
endfacet
facet normal 2.2460311818668095e-15 -1.4110890592188333e-14 1
outer loop
vertex 270.1749963000002 -217.02499670000438 2.000000000000001
vertex 271.72738157943695 -216.7779034551729 2.000000000000001
vertex 272.455204674779 -216.47479254695935 2
endloop
endfacet
facet normal 2.2460311818668095e-15 -1.4110890592188333e-14 1
outer loop
vertex 270.1749963000002 -217.02499670000438 2.000000000000001
vertex 272.455204674779 -216.47479254695935 2
vertex 273.12633260620777 -216.061041437661 2
endloop
endfacet
facet normal 2.2460311818668095e-15 -1.4110890592188333e-14 1
outer loop
vertex 270.1749963000002 -217.02499670000438 2.000000000000001
vertex 273.12633260620777 -216.061041437661 2
vertex 273.7240783768604 -215.54693767920568 2
endloop
endfacet
facet normal 2.2460311818668095e-15 -1.4110890592188333e-14 1
outer loop
vertex 270.1749963000002 -217.02499670000438 2.000000000000001
vertex 273.7240783768604 -215.54693767920568 2
vertex 274.233579571805 -214.9452640025835 2
endloop
endfacet
facet normal 2.2460311818668095e-15 -1.4110890592188333e-14 1
outer loop
vertex 270.1749963000002 -217.02499670000438 2.000000000000001
vertex 274.233579571805 -214.9452640025835 2
vertex 274.64216789869255 -214.27098048660415 2
endloop
endfacet
facet normal 2.2460311818668095e-15 -1.4110890592188333e-14 1
outer loop
vertex 270.1749963000002 -217.02499670000438 2.000000000000001
vertex 274.64216789869255 -214.27098048660415 2
vertex 274.93968417355427 -213.54085258891607 2.000000000000001
endloop
endfacet
facet normal 2.2460311818668095e-15 -1.4110890592188333e-14 1
outer loop
vertex 270.1749963000002 -217.02499670000438 2.000000000000001
vertex 274.93968417355427 -213.54085258891607 2.000000000000001
vertex 275.11873091982375 -212.77303428785712 2
endloop
endfacet
facet normal 2.2460311818668095e-15 -1.4110890592188333e-14 1
outer loop
vertex 270.1749963000002 -217.02499670000438 2.000000000000001
vertex 275.11873091982375 -212.77303428785712 2
vertex 275.17211320113404 -212.025 2
endloop
endfacet
facet normal 2.2460311818668095e-15 -1.4110890592188333e-14 1
outer loop
vertex 270.1749963000002 -217.02499670000438 2.000000000000001
vertex 275.17211320113404 -212.025 2
vertex 270.175 -212.025 2
endloop
endfacet
facet normal 2.2460311818668095e-15 -1.4110890592188333e-14 1
outer loop
vertex 270.1749963000002 -217.02499670000438 2.000000000000001
vertex 270.175 -212.025 2
vertex 187.475 -212.025 2
endloop
endfacet
facet normal 2.2460311818668095e-15 -1.4110890592188333e-14 1
outer loop
vertex 270.1749963000002 -217.02499670000438 2.000000000000001
vertex 187.475 -212.025 2
vertex 182.47648024131263 -212.025 2
endloop
endfacet
facet normal 2.2460311818668095e-15 -1.4110890592188333e-14 1
outer loop
vertex 270.1749963000002 -217.02499670000438 2.000000000000001
vertex 182.47648024131263 -212.025 2
vertex 182.53388768841558 -212.79010508168665 2
endloop
endfacet
facet normal 2.2460311818668095e-15 -1.4110890592188333e-14 1
outer loop
vertex 270.1749963000002 -217.02499670000438 2.000000000000001
vertex 182.53388768841558 -212.79010508168665 2
vertex 182.714996295512 -213.5554738431352 2
endloop
endfacet
facet normal 2.2460311818668095e-15 -1.4110890592188333e-14 1
outer loop
vertex 270.1749963000002 -217.02499670000438 2.000000000000001
vertex 182.714996295512 -213.5554738431352 2
vertex 183.01388454476154 -214.28297331600518 2
endloop
endfacet
facet normal 2.2460311818668095e-15 -1.4110890592188333e-14 1
outer loop
vertex 270.1749963000002 -217.02499670000438 2.000000000000001
vertex 183.01388454476154 -214.28297331600518 2
vertex 183.42315686882995 -214.95460255399007 2
endloop
endfacet
facet normal 2.2460311818668095e-15 -1.4110890592188333e-14 1
outer loop
vertex 270.1749963000002 -217.02499670000438 2.000000000000001
vertex 183.42315686882995 -214.95460255399007 2
vertex 183.93268640248408 -215.5537430407709 2
endloop
endfacet
facet normal 2.2460311818668095e-15 -1.4110890592188333e-14 1
outer loop
vertex 270.1749963000002 -217.02499670000438 2.000000000000001
vertex 183.93268640248408 -215.5537430407709 2
vertex 184.52986555748808 -216.06556989175996 2
endloop
endfacet
facet normal 2.2460311818668095e-15 -1.4110890592188333e-14 1
outer loop
vertex 270.1749963000002 -217.02499670000438 2.000000000000001
vertex 184.52986555748808 -216.06556989175996 2
vertex 185.19991797964664 -216.47741867484297 2.000000000000001
endloop
endfacet
facet normal 2.2460311818668095e-15 -1.4110890592188333e-14 1
outer loop
vertex 270.1749963000002 -217.02499670000438 2.000000000000001
vertex 185.19991797964664 -216.47741867484297 2.000000000000001
vertex 185.92626416870445 -216.7790987739639 2
endloop
endfacet
facet normal 2.2460311818668095e-15 -1.4110890592188333e-14 1
outer loop
vertex 270.1749963000002 -217.02499670000438 2.000000000000001
vertex 185.92626416870445 -216.7790987739639 2
vertex 186.69093171474216 -216.96314554139798 2.000000000000001
endloop
endfacet
facet normal 2.2460311818668095e-15 -1.4110890592188333e-14 1
outer loop
vertex 270.1749963000002 -217.02499670000438 2.000000000000001
vertex 186.69093171474216 -216.96314554139798 2.000000000000001
vertex 187.4750000000002 -217.0249999999981 2
endloop
endfacet
facet normal 0 0 1
outer loop
vertex 187.475 -212.025 2
vertex 187.975 -81.775 2
vertex 182.97496312024052 -81.775 2
endloop
endfacet
facet normal 0 0 1
outer loop
vertex 187.475 -212.025 2
vertex 182.97496312024052 -81.775 2
vertex 182.475039999999 -212.00580500000007 2
endloop
endfacet
facet normal 0 0 1
outer loop
vertex 187.475 -212.025 2
vertex 182.475039999999 -212.00580500000007 2
vertex 182.47648024131263 -212.025 2
endloop
endfacet
facet normal 0 0 1
outer loop
vertex 275.17211320113404 -212.025 2
vertex 275.1748526000012 -211.98661340000015 2.000000000000001
vertex 274.17513978149196 -81.775 2
endloop
endfacet
facet normal 0 0 1
outer loop
vertex 275.17211320113404 -212.025 2
vertex 274.17513978149196 -81.775 2
vertex 269.17499999999524 -81.77500000000008 2.000000000000001
endloop
endfacet
facet normal 0 0 1
outer loop
vertex 275.17211320113404 -212.025 2
vertex 269.17499999999524 -81.77500000000008 2.000000000000001
vertex 270.175 -212.025 2
endloop
endfacet
facet normal 0 0.012499023551926019 0.9999218841540816
outer loop
vertex 187.975 -81.775 2
vertex 269.17499999999524 -81.77500000000008 2.000000000000001
vertex 274.17513978149196 -81.775 2
endloop
endfacet
facet normal 0 0.012499023551926019 0.9999218841540816
outer loop
vertex 187.975 -81.775 2
vertex 274.17513978149196 -81.775 2
vertex 274.17484500000415 -81.73660499999997 2
endloop
endfacet
facet normal 0 0.012499023551926019 0.9999218841540816
outer loop
vertex 187.975 -81.775 2
vertex 274.17484500000415 -81.73660499999997 2
vertex 274.09298953099744 -80.87317087348536 2.000000000000001
endloop
endfacet
facet normal 0 0.012499023551926019 0.9999218841540816
outer loop
vertex 187.975 -81.775 2
vertex 274.09298953099744 -80.87317087348536 2.000000000000001
vertex 273.863157666033 -80.03687181065966 2
endloop
endfacet
facet normal 0 0.012499023551926019 0.9999218841540816
outer loop
vertex 187.975 -81.775 2
vertex 273.863157666033 -80.03687181065966 2
vertex 273.4922647591719 -79.25287100691257 2
endloop
endfacet
facet normal 0 0.012499023551926019 0.9999218841540816
outer loop
vertex 187.975 -81.775 2
vertex 273.4922647591719 -79.25287100691257 2
vertex 272.9914705152481 -78.54475806825965 2
endloop
endfacet
facet normal 0 0.012499023551926019 0.9999218841540816
outer loop
vertex 187.975 -81.775 2
vertex 272.9914705152481 -78.54475806825965 2
vertex 272.3758432082227 -77.9338392295571 2
endloop
endfacet
facet normal 0 0.012499023551926019 0.9999218841540816
outer loop
vertex 187.975 -81.775 2
vertex 272.3758432082227 -77.9338392295571 2
vertex 271.66390629568815 -77.43849627643661 2.000000000000001
endloop
endfacet
facet normal 0 0.012499023551926019 0.9999218841540816
outer loop
vertex 187.975 -81.775 2
vertex 271.66390629568815 -77.43849627643661 2.000000000000001
vertex 270.87708107109 -77.0736334603385 2.000000000000001
endloop
endfacet
facet normal 0 0.012499023551926019 0.9999218841540816
outer loop
vertex 187.975 -81.775 2
vertex 270.87708107109 -77.0736334603385 2.000000000000001
vertex 270.03904212374687 -76.85022904817991 2
endloop
endfacet
facet normal 0 0.012499023551926019 0.9999218841540816
outer loop
vertex 187.975 -81.775 2
vertex 270.03904212374687 -76.85022904817991 2
vertex 269.1750000000002 -76.77499999999915 2.000000000000001
endloop
endfacet
facet normal 0 0.012499023551926019 0.9999218841540816
outer loop
vertex 187.975 -81.775 2
vertex 269.1750000000002 -76.77499999999915 2.000000000000001
vertex 269.13661228407557 -76.77500000148919 2
endloop
endfacet
facet normal 0 0.012499023551926019 0.9999218841540816
outer loop
vertex 187.975 -81.775 2
vertex 269.13661228407557 -76.77500000148919 2
vertex 187.9749984 -76.77500314999968 2
endloop
endfacet
facet normal 0 0.012499023551926019 0.9999218841540816
outer loop
vertex 187.975 -81.775 2
vertex 187.9749984 -76.77500314999968 2
vertex 187.10885890957152 -76.85059486565582 2.000000000000001
endloop
endfacet
facet normal 0 0.012499023551926019 0.9999218841540816
outer loop
vertex 187.975 -81.775 2
vertex 187.10885890957152 -76.85059486565582 2.000000000000001
vertex 186.2689085137905 -77.07508329961728 2
endloop
endfacet
facet normal 0 0.012499023551926019 0.9999218841540816
outer loop
vertex 187.975 -81.775 2
vertex 186.2689085137905 -77.07508329961728 2
vertex 185.48054434673782 -77.44168071431402 2
endloop
endfacet
facet normal 0 0.012499023551926019 0.9999218841540816
outer loop
vertex 187.975 -81.775 2
vertex 185.48054434673782 -77.44168071431402 2
vertex 184.76760375709262 -77.9393024983948 2.000000000000001
endloop
endfacet
facet normal 0 0.012499023551926019 0.9999218841540816
outer loop
vertex 187.975 -81.775 2
vertex 184.76760375709262 -77.9393024983948 2.000000000000001
vertex 184.15164355087146 -78.55290232621999 2
endloop
endfacet
facet normal 0 0.012499023551926019 0.9999218841540816
outer loop
vertex 187.975 -81.775 2
vertex 184.15164355087146 -78.55290232621999 2
vertex 183.6512881897429 -79.2639271056374 1.9999999999999996
endloop
endfacet
facet normal 0 0.012499023551926019 0.9999218841540816
outer loop
vertex 187.975 -81.775 2
vertex 183.6512881897429 -79.2639271056374 1.9999999999999996
vertex 183.28166665305633 -80.05087795796103 2
endloop
endfacet
facet normal 0 0.012499023551926019 0.9999218841540816
outer loop
vertex 187.975 -81.775 2
vertex 183.28166665305633 -80.05087795796103 2
vertex 183.05395499093981 -80.88996026816169 2
endloop
endfacet
facet normal 0 0.012499023551926019 0.9999218841540816
outer loop
vertex 187.975 -81.775 2
vertex 183.05395499093981 -80.88996026816169 2
vertex 182.97503680000068 -81.75580630000007 2.000000000000001
endloop
endfacet
facet normal 0 0.012499023551926019 0.9999218841540816
outer loop
vertex 187.975 -81.775 2
vertex 182.97503680000068 -81.75580630000007 2.000000000000001
vertex 182.97496312024052 -81.775 2
endloop
endfacet
endsolid csg.js
