solid master_class_in_blasting_ass
facet normal 0 0 -1
outer loop
vertex 182.9750368 -81.75580629999982 0
vertex 183.05395499094004 -80.88996026816166 0
vertex 183.28166665305636 -80.05087795796096 0
endloop
endfacet
facet normal 0 0 -1
outer loop
vertex 182.9750368 -81.75580629999982 0
vertex 183.28166665305636 -80.05087795796096 0
vertex 183.65128818974227 -79.26392710563717 0
endloop
endfacet
facet normal 0 0 -1
outer loop
vertex 182.9750368 -81.75580629999982 0
vertex 183.65128818974227 -79.26392710563717 0
vertex 184.15164355087182 -78.55290232622025 0
endloop
endfacet
facet normal 0 0 -1
outer loop
vertex 182.9750368 -81.75580629999982 0
vertex 184.15164355087182 -78.55290232622025 0
vertex 184.76760375709162 -77.93930249839372 0
endloop
endfacet
facet normal 0 0 -1
outer loop
vertex 182.9750368 -81.75580629999982 0
vertex 184.76760375709162 -77.93930249839372 0
vertex 185.48054434673767 -77.4416807143135 0
endloop
endfacet
facet normal 0 0 -1
outer loop
vertex 182.9750368 -81.75580629999982 0
vertex 185.48054434673767 -77.4416807143135 0
vertex 186.26890851379 -77.07508329961539 0
endloop
endfacet
facet normal 0 0 -1
outer loop
vertex 182.9750368 -81.75580629999982 0
vertex 186.26890851379 -77.07508329961539 0
vertex 187.10885890957138 -76.85059486565471 0
endloop
endfacet
facet normal 0 0 -1
outer loop
vertex 182.9750368 -81.75580629999982 0
vertex 187.10885890957138 -76.85059486565471 0
vertex 187.9749984 -76.77500314999999 0
endloop
endfacet
facet normal 0 0 -1
outer loop
vertex 182.9750368 -81.75580629999982 0
vertex 187.9749984 -76.77500314999999 0
vertex 269.175 -76.775 0
endloop
endfacet
facet normal 0 0 -1
outer loop
vertex 182.9750368 -81.75580629999982 0
vertex 269.175 -76.775 0
vertex 270.0390421237456 -76.85022904818442 0
endloop
endfacet
facet normal 0 0 -1
outer loop
vertex 182.9750368 -81.75580629999982 0
vertex 270.0390421237456 -76.85022904818442 0
vertex 270.87708107108955 -77.07363346033927 0
endloop
endfacet
facet normal 0 0 -1
outer loop
vertex 182.9750368 -81.75580629999982 0
vertex 270.87708107108955 -77.07363346033927 0
vertex 271.6639062956897 -77.43849627643438 0
endloop
endfacet
facet normal 0 0 -1
outer loop
vertex 182.9750368 -81.75580629999982 0
vertex 271.6639062956897 -77.43849627643438 0
vertex 272.37584320822367 -77.93383922955618 0
endloop
endfacet
facet normal 0 0 -1
outer loop
vertex 182.9750368 -81.75580629999982 0
vertex 272.37584320822367 -77.93383922955618 0
vertex 272.9914705152445 -78.54475806826188 0
endloop
endfacet
facet normal 0 0 -1
outer loop
vertex 182.9750368 -81.75580629999982 0
vertex 272.9914705152445 -78.54475806826188 0
vertex 273.49226475917476 -79.2528710069113 0
endloop
endfacet
facet normal 0 0 -1
outer loop
vertex 182.9750368 -81.75580629999982 0
vertex 273.49226475917476 -79.2528710069113 0
vertex 273.8631576660322 -80.0368718106599 0
endloop
endfacet
facet normal 0 0 -1
outer loop
vertex 182.9750368 -81.75580629999982 0
vertex 273.8631576660322 -80.0368718106599 0
vertex 274.092989530996 -80.87317087348582 0
endloop
endfacet
facet normal 0 0 -1
outer loop
vertex 182.9750368 -81.75580629999982 0
vertex 274.092989530996 -80.87317087348582 0
vertex 274.174845 -81.73660499999991 0
endloop
endfacet
facet normal 0 0 -1
outer loop
vertex 182.9750368 -81.75580629999982 0
vertex 274.174845 -81.73660499999991 0
vertex 275.1748526 -211.9866134000005 0
endloop
endfacet
facet normal 0 0 -1
outer loop
vertex 182.9750368 -81.75580629999982 0
vertex 275.1748526 -211.9866134000005 0
vertex 275.11873091982085 -212.7730342878562 0
endloop
endfacet
facet normal 0 0 -1
outer loop
vertex 182.9750368 -81.75580629999982 0
vertex 275.11873091982085 -212.7730342878562 0
vertex 274.93968417355234 -213.54085258891521 0
endloop
endfacet
facet normal 0 0 -1
outer loop
vertex 182.9750368 -81.75580629999982 0
vertex 274.93968417355234 -213.54085258891521 0
vertex 274.64216789869323 -214.27098048660463 0
endloop
endfacet
facet normal 0 0 -1
outer loop
vertex 182.9750368 -81.75580629999982 0
vertex 274.64216789869323 -214.27098048660463 0
vertex 274.23357957180485 -214.9452640025836 0
endloop
endfacet
facet normal 0 0 -1
outer loop
vertex 182.9750368 -81.75580629999982 0
vertex 274.23357957180485 -214.9452640025836 0
vertex 273.72407837686075 -215.54693767920602 0
endloop
endfacet
facet normal 0 0 -1
outer loop
vertex 182.9750368 -81.75580629999982 0
vertex 273.72407837686075 -215.54693767920602 0
vertex 273.12633260620646 -216.06104143765822 0
endloop
endfacet
facet normal 0 0 -1
outer loop
vertex 182.9750368 -81.75580629999982 0
vertex 273.12633260620646 -216.06104143765822 0
vertex 272.4552046747803 -216.4747925469621 0
endloop
endfacet
facet normal 0 0 -1
outer loop
vertex 182.9750368 -81.75580629999982 0
vertex 272.4552046747803 -216.4747925469621 0
vertex 271.7273815794355 -216.77790345516854 0
endloop
endfacet
facet normal 0 0 -1
outer loop
vertex 182.9750368 -81.75580629999982 0
vertex 271.7273815794355 -216.77790345516854 0
vertex 270.9609599916612 -216.96283758015258 0
endloop
endfacet
facet normal 0 0 -1
outer loop
vertex 182.9750368 -81.75580629999982 0
vertex 270.9609599916612 -216.96283758015258 0
vertex 270.1749963000002 -217.0249967 0
endloop
endfacet
facet normal 0 0 -1
outer loop
vertex 182.9750368 -81.75580629999982 0
vertex 270.1749963000002 -217.0249967 0
vertex 187.4750000000002 -217.02500000000003 0
endloop
endfacet
facet normal 0 0 -1
outer loop
vertex 182.9750368 -81.75580629999982 0
vertex 187.4750000000002 -217.02500000000003 0
vertex 186.6909317147424 -216.9631455413971 0
endloop
endfacet
facet normal 0 0 -1
outer loop
vertex 182.9750368 -81.75580629999982 0
vertex 186.6909317147424 -216.9631455413971 0
vertex 185.9262641687056 -216.7790987739609 0
endloop
endfacet
facet normal 0 0 -1
outer loop
vertex 182.9750368 -81.75580629999982 0
vertex 185.9262641687056 -216.7790987739609 0
vertex 185.19991797964465 -216.47741867484632 0
endloop
endfacet
facet normal 0 0 -1
outer loop
vertex 182.9750368 -81.75580629999982 0
vertex 185.19991797964465 -216.47741867484632 0
vertex 184.52986555749305 -216.0655698917539 0
endloop
endfacet
facet normal 0 0 -1
outer loop
vertex 182.9750368 -81.75580629999982 0
vertex 184.52986555749305 -216.0655698917539 0
vertex 183.93268640248112 -215.55374304077344 0
endloop
endfacet
facet normal 0 0 -1
outer loop
vertex 182.9750368 -81.75580629999982 0
vertex 183.93268640248112 -215.55374304077344 0
vertex 183.42315686883157 -214.95460255398928 0
endloop
endfacet
facet normal 0 0 -1
outer loop
vertex 182.9750368 -81.75580629999982 0
vertex 183.42315686883157 -214.95460255398928 0
vertex 183.01388454475767 -214.2829733160064 0
endloop
endfacet
facet normal 0 0 -1
outer loop
vertex 182.9750368 -81.75580629999982 0
vertex 183.01388454475767 -214.2829733160064 0
vertex 182.71499629551232 -213.5554738431351 0
endloop
endfacet
facet normal 0 0 -1
outer loop
vertex 182.9750368 -81.75580629999982 0
vertex 182.71499629551232 -213.5554738431351 0
vertex 182.53388768841657 -212.79010508168662 0
endloop
endfacet
facet normal 0 0 -1
outer loop
vertex 182.9750368 -81.75580629999982 0
vertex 182.53388768841657 -212.79010508168662 0
vertex 182.47504 -212.00580500000012 0
endloop
endfacet
facet normal 0 0 1
outer loop
vertex 187.97499840000026 -76.77500314999997 2
vertex 187.10885890957138 -76.85059486565473 2
vertex 186.26890851378997 -77.0750832996154 2
endloop
endfacet
facet normal 0 0 1
outer loop
vertex 187.97499840000026 -76.77500314999997 2
vertex 186.26890851378997 -77.0750832996154 2
vertex 185.4805443467376 -77.44168071431356 2
endloop
endfacet
facet normal 0 0 1
outer loop
vertex 187.97499840000026 -76.77500314999997 2
vertex 185.4805443467376 -77.44168071431356 2
vertex 184.76760375709173 -77.93930249839364 2
endloop
endfacet
facet normal 0 0 1
outer loop
vertex 187.97499840000026 -76.77500314999997 2
vertex 184.76760375709173 -77.93930249839364 2
vertex 184.15164355087168 -78.55290232622043 2
endloop
endfacet
facet normal 0 0 1
outer loop
vertex 187.97499840000026 -76.77500314999997 2
vertex 184.15164355087168 -78.55290232622043 2
vertex 183.6512881897423 -79.26392710563711 2
endloop
endfacet
facet normal 0 0 1
outer loop
vertex 187.97499840000026 -76.77500314999997 2
vertex 183.6512881897423 -79.26392710563711 2
vertex 183.2816666530564 -80.0508779579609 2
endloop
endfacet
facet normal 0 0 1
outer loop
vertex 187.97499840000026 -76.77500314999997 2
vertex 183.2816666530564 -80.0508779579609 2
vertex 183.05395499094 -80.88996026816179 2
endloop
endfacet
facet normal 0 0 1
outer loop
vertex 187.97499840000026 -76.77500314999997 2
vertex 183.05395499094 -80.88996026816179 2
vertex 182.97503680000003 -81.75580629999953 2
endloop
endfacet
facet normal 0 0 1
outer loop
vertex 187.97499840000026 -76.77500314999997 2
vertex 182.97503680000003 -81.75580629999953 2
vertex 182.47503999999998 -212.00580500000007 2
endloop
endfacet
facet normal 0 0 1
outer loop
vertex 187.97499840000026 -76.77500314999997 2
vertex 182.47503999999998 -212.00580500000007 2
vertex 182.53388768841654 -212.79010508168648 2
endloop
endfacet
facet normal 0 0 1
outer loop
vertex 187.97499840000026 -76.77500314999997 2
vertex 182.53388768841654 -212.79010508168648 2
vertex 182.71499629551235 -213.55547384313513 2
endloop
endfacet
facet normal 0 0 1
outer loop
vertex 187.97499840000026 -76.77500314999997 2
vertex 182.71499629551235 -213.55547384313513 2
vertex 183.01388454475776 -214.28297331600658 2
endloop
endfacet
facet normal 0 0 1
outer loop
vertex 187.97499840000026 -76.77500314999997 2
vertex 183.01388454475776 -214.28297331600658 2
vertex 183.42315686883143 -214.9546025539891 2
endloop
endfacet
facet normal 0 0 1
outer loop
vertex 187.97499840000026 -76.77500314999997 2
vertex 183.42315686883143 -214.9546025539891 2
vertex 183.93268640248124 -215.55374304077355 2
endloop
endfacet
facet normal 0 0 1
outer loop
vertex 187.97499840000026 -76.77500314999997 2
vertex 183.93268640248124 -215.55374304077355 2
vertex 184.52986555749308 -216.06556989175394 2
endloop
endfacet
facet normal 0 0 1
outer loop
vertex 187.97499840000026 -76.77500314999997 2
vertex 184.52986555749308 -216.06556989175394 2
vertex 185.1999179796448 -216.47741867484643 2
endloop
endfacet
facet normal 0 0 1
outer loop
vertex 187.97499840000026 -76.77500314999997 2
vertex 185.1999179796448 -216.47741867484643 2
vertex 185.92626416870544 -216.7790987739609 2
endloop
endfacet
facet normal 0 0 1
outer loop
vertex 187.97499840000026 -76.77500314999997 2
vertex 185.92626416870544 -216.7790987739609 2
vertex 186.69093171474228 -216.9631455413971 2
endloop
endfacet
facet normal 0 0 1
outer loop
vertex 187.97499840000026 -76.77500314999997 2
vertex 186.69093171474228 -216.9631455413971 2
vertex 187.47499999999985 -217.025 2
endloop
endfacet
facet normal 0 0 1
outer loop
vertex 187.97499840000026 -76.77500314999997 2
vertex 187.47499999999985 -217.025 2
vertex 270.1749963000002 -217.02499669999997 2
endloop
endfacet
facet normal 0 0 1
outer loop
vertex 187.97499840000026 -76.77500314999997 2
vertex 270.1749963000002 -217.02499669999997 2
vertex 270.96095999166147 -216.96283758015252 2
endloop
endfacet
facet normal 0 0 1
outer loop
vertex 187.97499840000026 -76.77500314999997 2
vertex 270.96095999166147 -216.96283758015252 2
vertex 271.7273815794356 -216.7779034551685 2
endloop
endfacet
facet normal 0 0 1
outer loop
vertex 187.97499840000026 -76.77500314999997 2
vertex 271.7273815794356 -216.7779034551685 2
vertex 272.4552046747804 -216.47479254696208 2
endloop
endfacet
facet normal 0 0 1
outer loop
vertex 187.97499840000026 -76.77500314999997 2
vertex 272.4552046747804 -216.47479254696208 2
vertex 273.12633260620635 -216.06104143765833 2
endloop
endfacet
facet normal 0 0 1
outer loop
vertex 187.97499840000026 -76.77500314999997 2
vertex 273.12633260620635 -216.06104143765833 2
vertex 273.72407837686046 -215.54693767920634 2
endloop
endfacet
facet normal 0 0 1
outer loop
vertex 187.97499840000026 -76.77500314999997 2
vertex 273.72407837686046 -215.54693767920634 2
vertex 274.23357957180497 -214.94526400258346 2
endloop
endfacet
facet normal 0 0 1
outer loop
vertex 187.97499840000026 -76.77500314999997 2
vertex 274.23357957180497 -214.94526400258346 2
vertex 274.6421678986931 -214.27098048660488 2
endloop
endfacet
facet normal 0 0 1
outer loop
vertex 187.97499840000026 -76.77500314999997 2
vertex 274.6421678986931 -214.27098048660488 2
vertex 274.9396841735523 -213.54085258891536 2
endloop
endfacet
facet normal 0 0 1
outer loop
vertex 187.97499840000026 -76.77500314999997 2
vertex 274.9396841735523 -213.54085258891536 2
vertex 275.1187309198208 -212.77303428785618 2
endloop
endfacet
facet normal 0 0 1
outer loop
vertex 187.97499840000026 -76.77500314999997 2
vertex 275.1187309198208 -212.77303428785618 2
vertex 275.1748526 -211.98661339999987 2
endloop
endfacet
facet normal 0 0 1
outer loop
vertex 187.97499840000026 -76.77500314999997 2
vertex 275.1748526 -211.98661339999987 2
vertex 274.174845 -81.73660499999957 2
endloop
endfacet
facet normal 0 0 1
outer loop
vertex 187.97499840000026 -76.77500314999997 2
vertex 274.174845 -81.73660499999957 2
vertex 274.092989530996 -80.87317087348588 2
endloop
endfacet
facet normal 0 0 1
outer loop
vertex 187.97499840000026 -76.77500314999997 2
vertex 274.092989530996 -80.87317087348588 2
vertex 273.8631576660321 -80.03687181065976 2
endloop
endfacet
facet normal 0 0 1
outer loop
vertex 187.97499840000026 -76.77500314999997 2
vertex 273.8631576660321 -80.03687181065976 2
vertex 273.49226475917476 -79.25287100691129 2
endloop
endfacet
facet normal 0 0 1
outer loop
vertex 187.97499840000026 -76.77500314999997 2
vertex 273.49226475917476 -79.25287100691129 2
vertex 272.99147051524454 -78.54475806826197 2
endloop
endfacet
facet normal 0 0 1
outer loop
vertex 187.97499840000026 -76.77500314999997 2
vertex 272.99147051524454 -78.54475806826197 2
vertex 272.3758432082236 -77.93383922955614 2
endloop
endfacet
facet normal 0 0 1
outer loop
vertex 187.97499840000026 -76.77500314999997 2
vertex 272.3758432082236 -77.93383922955614 2
vertex 271.6639062956897 -77.43849627643436 2
endloop
endfacet
facet normal 0 0 1
outer loop
vertex 187.97499840000026 -76.77500314999997 2
vertex 271.6639062956897 -77.43849627643436 2
vertex 270.87708107108955 -77.07363346033927 2
endloop
endfacet
facet normal 0 0 1
outer loop
vertex 187.97499840000026 -76.77500314999997 2
vertex 270.87708107108955 -77.07363346033927 2
vertex 270.0390421237456 -76.85022904818442 2
endloop
endfacet
facet normal 0 0 1
outer loop
vertex 187.97499840000026 -76.77500314999997 2
vertex 270.0390421237456 -76.85022904818442 2
vertex 269.17499999999995 -76.775 2
endloop
endfacet
facet normal -0.9971969214639149 -0.07482178708698933 0
outer loop
vertex 182.53388768841654 -212.79010508168648 2
vertex 182.47503999999998 -212.00580500000007 2
vertex 182.47504 -212.00580500000012 0
endloop
endfacet
facet normal -0.9971969214639149 -0.07482178708698933 0
outer loop
vertex 182.53388768841654 -212.79010508168648 2
vertex 182.47504 -212.00580500000012 0
vertex 182.53388768841657 -212.79010508168662 0
endloop
endfacet
facet normal -0.9731267285602531 -0.23027021119028754 0
outer loop
vertex 182.71499629551235 -213.55547384313513 2
vertex 182.53388768841654 -212.79010508168648 2
vertex 182.53388768841657 -212.79010508168662 0
endloop
endfacet
facet normal -0.9731267285602531 -0.23027021119028754 0
outer loop
vertex 182.71499629551235 -213.55547384313513 2
vertex 182.53388768841657 -212.79010508168662 0
vertex 182.71499629551232 -213.5554738431351 0
endloop
endfacet
facet normal -0.9249778900368947 -0.38002092434877094 0
outer loop
vertex 183.01388454475776 -214.28297331600658 2
vertex 182.71499629551235 -213.55547384313513 2
vertex 182.71499629551232 -213.5554738431351 0
endloop
endfacet
facet normal -0.9249778900368947 -0.38002092434877094 0
outer loop
vertex 183.01388454475776 -214.28297331600658 2
vertex 182.71499629551232 -213.5554738431351 0
vertex 183.01388454475767 -214.2829733160064 0
endloop
endfacet
facet normal -0.8539417808564123 -0.5203685568015993 0
outer loop
vertex 183.42315686883143 -214.9546025539891 2
vertex 183.01388454475776 -214.28297331600658 2
vertex 183.01388454475767 -214.2829733160064 0
endloop
endfacet
facet normal -0.8539417808564123 -0.5203685568015993 0
outer loop
vertex 183.42315686883143 -214.9546025539891 2
vertex 183.01388454475767 -214.2829733160064 0
vertex 183.42315686883157 -214.95460255398928 0
endloop
endfacet
facet normal -0.7617760891481322 -0.6478404047311165 0
outer loop
vertex 183.93268640248124 -215.55374304077355 2
vertex 183.42315686883143 -214.9546025539891 2
vertex 183.42315686883157 -214.95460255398928 0
endloop
endfacet
facet normal -0.7617760891481322 -0.6478404047311165 0
outer loop
vertex 183.93268640248124 -215.55374304077355 2
vertex 183.42315686883157 -214.95460255398928 0
vertex 183.93268640248112 -215.55374304077344 0
endloop
endfacet
facet normal -0.6507613246996221 -0.7592823574107284 0
outer loop
vertex 184.52986555749308 -216.06556989175394 2
vertex 183.93268640248124 -215.55374304077355 2
vertex 183.93268640248112 -215.55374304077344 0
endloop
endfacet
facet normal -0.6507613246996221 -0.7592823574107284 0
outer loop
vertex 184.52986555749308 -216.06556989175394 2
vertex 183.93268640248112 -215.55374304077344 0
vertex 184.52986555749305 -216.0655698917539 0
endloop
endfacet
facet normal -0.5236443909646479 -0.8519369412176369 0
outer loop
vertex 185.1999179796448 -216.47741867484643 2
vertex 184.52986555749308 -216.06556989175394 2
vertex 184.52986555749305 -216.0655698917539 0
endloop
endfacet
facet normal -0.5236443909646479 -0.8519369412176369 0
outer loop
vertex 185.1999179796448 -216.47741867484643 2
vertex 184.52986555749305 -216.0655698917539 0
vertex 185.19991797964465 -216.47741867484632 0
endloop
endfacet
facet normal -0.3835706168194693 -0.9235115494203263 0
outer loop
vertex 185.92626416870544 -216.7790987739609 2
vertex 185.1999179796448 -216.47741867484643 2
vertex 185.19991797964465 -216.47741867484632 0
endloop
endfacet
facet normal -0.3835706168194693 -0.9235115494203263 0
outer loop
vertex 185.92626416870544 -216.7790987739609 2
vertex 185.19991797964465 -216.47741867484632 0
vertex 185.9262641687056 -216.7790987739609 0
endloop
endfacet
facet normal -0.2340059298452102 -0.9722351694920723 0
outer loop
vertex 186.69093171474228 -216.9631455413971 2
vertex 185.92626416870544 -216.7790987739609 2
vertex 185.9262641687056 -216.7790987739609 0
endloop
endfacet
facet normal -0.2340059298452102 -0.9722351694920723 0
outer loop
vertex 186.69093171474228 -216.9631455413971 2
vertex 185.9262641687056 -216.7790987739609 0
vertex 186.6909317147424 -216.9631455413971 0
endloop
endfacet
facet normal -0.07864477892766782 -0.9969027027485773 0
outer loop
vertex 187.47499999999985 -217.025 2
vertex 186.69093171474228 -216.9631455413971 2
vertex 186.6909317147424 -216.9631455413971 0
endloop
endfacet
facet normal -0.07864477892766782 -0.9969027027485773 0
outer loop
vertex 187.47499999999985 -217.025 2
vertex 186.6909317147424 -216.9631455413971 0
vertex 187.4750000000002 -217.02500000000003 0
endloop
endfacet
facet normal 3.9903227389004314e-8 -0.9999999999999993 0
outer loop
vertex 270.1749963000002 -217.02499669999997 2
vertex 187.47499999999985 -217.025 2
vertex 187.4750000000002 -217.02500000000003 0
endloop
endfacet
facet normal 3.9903227389004314e-8 -0.9999999999999993 0
outer loop
vertex 270.1749963000002 -217.02499669999997 2
vertex 187.4750000000002 -217.02500000000003 0
vertex 270.1749963000002 -217.0249967 0
endloop
endfacet
facet normal 0.07884032701423388 -0.996887256833133 0
outer loop
vertex 270.96095999166147 -216.96283758015252 2
vertex 270.1749963000002 -217.02499669999997 2
vertex 270.1749963000002 -217.0249967 0
endloop
endfacet
facet normal 0.07884032701423388 -0.996887256833133 0
outer loop
vertex 270.96095999166147 -216.96283758015252 2
vertex 270.1749963000002 -217.0249967 0
vertex 270.9609599916612 -216.96283758015258 0
endloop
endfacet
facet normal 0.23456359944628885 -0.9721007755447998 0
outer loop
vertex 271.7273815794356 -216.7779034551685 2
vertex 270.96095999166147 -216.96283758015252 2
vertex 270.9609599916612 -216.96283758015258 0
endloop
endfacet
facet normal 0.23456359944628885 -0.9721007755447998 0
outer loop
vertex 271.7273815794356 -216.7779034551685 2
vertex 270.9609599916612 -216.96283758015258 0
vertex 271.7273815794355 -216.77790345516854 0
endloop
endfacet
facet normal 0.3844546573890881 -0.9231438763333909 0
outer loop
vertex 272.4552046747804 -216.47479254696208 2
vertex 271.7273815794356 -216.7779034551685 2
vertex 271.7273815794355 -216.77790345516854 0
endloop
endfacet
facet normal 0.3844546573890881 -0.9231438763333909 0
outer loop
vertex 272.4552046747804 -216.47479254696208 2
vertex 271.7273815794355 -216.77790345516854 0
vertex 272.4552046747803 -216.4747925469621 0
endloop
endfacet
facet normal 0.5247865935048783 -0.8512338287906241 0
outer loop
vertex 273.12633260620635 -216.06104143765833 2
vertex 272.4552046747804 -216.47479254696208 2
vertex 272.4552046747803 -216.4747925469621 0
endloop
endfacet
facet normal 0.5247865935048783 -0.8512338287906241 0
outer loop
vertex 273.12633260620635 -216.06104143765833 2
vertex 272.4552046747803 -216.4747925469621 0
vertex 273.12633260620646 -216.06104143765822 0
endloop
endfacet
facet normal 0.6520701794860836 -0.7581586120496071 0
outer loop
vertex 273.72407837686046 -215.54693767920634 2
vertex 273.12633260620635 -216.06104143765833 2
vertex 273.12633260620646 -216.06104143765822 0
endloop
endfacet
facet normal 0.6520701794860836 -0.7581586120496071 0
outer loop
vertex 273.72407837686046 -215.54693767920634 2
vertex 273.12633260620646 -216.06104143765822 0
vertex 273.72407837686075 -215.54693767920602 0
endloop
endfacet
facet normal 0.7631406226019612 -0.6462324582800612 0
outer loop
vertex 274.23357957180497 -214.94526400258346 2
vertex 273.72407837686046 -215.54693767920634 2
vertex 273.72407837686075 -215.54693767920602 0
endloop
endfacet
facet normal 0.7631406226019612 -0.6462324582800612 0
outer loop
vertex 274.23357957180497 -214.94526400258346 2
vertex 273.72407837686075 -215.54693767920602 0
vertex 274.23357957180485 -214.9452640025836 0
endloop
endfacet
facet normal 0.8552362554446713 -0.5182383113713004 0
outer loop
vertex 274.6421678986931 -214.27098048660488 2
vertex 274.23357957180497 -214.94526400258346 2
vertex 274.23357957180485 -214.9452640025836 0
endloop
endfacet
facet normal 0.8552362554446713 -0.5182383113713004 0
outer loop
vertex 274.6421678986931 -214.27098048660488 2
vertex 274.23357957180485 -214.9452640025836 0
vertex 274.64216789869323 -214.27098048660463 0
endloop
endfacet
facet normal 0.9260672023236681 -0.37735863151704174 0
outer loop
vertex 274.9396841735523 -213.54085258891536 2
vertex 274.6421678986931 -214.27098048660488 2
vertex 274.64216789869323 -214.27098048660463 0
endloop
endfacet
facet normal 0.9260672023236681 -0.37735863151704174 0
outer loop
vertex 274.9396841735523 -213.54085258891536 2
vertex 274.64216789869323 -214.27098048660463 0
vertex 274.93968417355234 -213.54085258891521 0
endloop
endfacet
facet normal 0.9738723149804162 -0.2270962661839359 0
outer loop
vertex 275.1187309198208 -212.77303428785618 2
vertex 274.9396841735523 -213.54085258891536 2
vertex 274.93968417355234 -213.54085258891521 0
endloop
endfacet
facet normal 0.9738723149804162 -0.2270962661839359 0
outer loop
vertex 275.1187309198208 -212.77303428785618 2
vertex 274.93968417355234 -213.54085258891521 0
vertex 275.11873091982085 -212.7730342878562 0
endloop
endfacet
facet normal 0.997463316395587 -0.07118238858816983 0
outer loop
vertex 275.1748526 -211.98661339999987 2
vertex 275.1187309198208 -212.77303428785618 2
vertex 275.11873091982085 -212.7730342878562 0
endloop
endfacet
facet normal 0.997463316395587 -0.07118238858816983 0
outer loop
vertex 275.1748526 -211.98661339999987 2
vertex 275.11873091982085 -212.7730342878562 0
vertex 275.1748526 -211.9866134000005 0
endloop
endfacet
facet normal 0.9999705285240359 0.007677374770082679 0
outer loop
vertex 274.174845 -81.73660499999957 2
vertex 275.1748526 -211.98661339999987 2
vertex 275.1748526 -211.9866134000005 0
endloop
endfacet
facet normal 0.9999705285240359 0.007677374770082679 0
outer loop
vertex 274.174845 -81.73660499999957 2
vertex 275.1748526 -211.9866134000005 0
vertex 274.174845 -81.73660499999991 0
endloop
endfacet
facet normal 0.9955363351962182 0.0943790511929593 0
outer loop
vertex 274.092989530996 -80.87317087348588 2
vertex 274.174845 -81.73660499999957 2
vertex 274.174845 -81.73660499999991 0
endloop
endfacet
facet normal 0.9955363351962182 0.0943790511929593 0
outer loop
vertex 274.092989530996 -80.87317087348588 2
vertex 274.174845 -81.73660499999991 0
vertex 274.092989530996 -80.87317087348582 0
endloop
endfacet
facet normal 0.9642497077273621 0.26499528514239057 0
outer loop
vertex 273.8631576660321 -80.03687181065976 2
vertex 274.092989530996 -80.87317087348588 2
vertex 274.092989530996 -80.87317087348582 0
endloop
endfacet
facet normal 0.9642497077273621 0.26499528514239057 0
outer loop
vertex 273.8631576660321 -80.03687181065976 2
vertex 274.092989530996 -80.87317087348582 0
vertex 273.8631576660322 -80.0368718106599 0
endloop
endfacet
facet normal 0.903950009603568 0.4276381415843415 0
outer loop
vertex 273.49226475917476 -79.25287100691129 2
vertex 273.8631576660321 -80.03687181065976 2
vertex 273.8631576660322 -80.0368718106599 0
endloop
endfacet
facet normal 0.903950009603568 0.4276381415843415 0
outer loop
vertex 273.49226475917476 -79.25287100691129 2
vertex 273.8631576660322 -80.0368718106599 0
vertex 273.49226475917476 -79.2528710069113 0
endloop
endfacet
facet normal 0.8164515835081391 0.5774138998907565 0
outer loop
vertex 272.99147051524454 -78.54475806826197 2
vertex 273.49226475917476 -79.25287100691129 2
vertex 273.49226475917476 -79.2528710069113 0
endloop
endfacet
facet normal 0.8164515835081391 0.5774138998907565 0
outer loop
vertex 272.99147051524454 -78.54475806826197 2
vertex 273.49226475917476 -79.2528710069113 0
vertex 272.9914705152445 -78.54475806826188 0
endloop
endfacet
facet normal 0.7043871479145335 0.7098159943625032 0
outer loop
vertex 272.3758432082236 -77.93383922955614 2
vertex 272.99147051524454 -78.54475806826197 2
vertex 272.9914705152445 -78.54475806826188 0
endloop
endfacet
facet normal 0.7043871479145335 0.7098159943625032 0
outer loop
vertex 272.3758432082236 -77.93383922955614 2
vertex 272.9914705152445 -78.54475806826188 0
vertex 272.37584320822367 -77.93383922955618 0
endloop
endfacet
facet normal 0.5711285818720021 0.8208606111690803 0
outer loop
vertex 271.6639062956897 -77.43849627643436 2
vertex 272.3758432082236 -77.93383922955614 2
vertex 272.37584320822367 -77.93383922955618 0
endloop
endfacet
facet normal 0.5711285818720021 0.8208606111690803 0
outer loop
vertex 271.6639062956897 -77.43849627643436 2
vertex 272.37584320822367 -77.93383922955618 0
vertex 271.6639062956897 -77.43849627643438 0
endloop
endfacet
facet normal 0.42068546937212337 0.9072065563360731 0
outer loop
vertex 270.87708107108955 -77.07363346033927 2
vertex 271.6639062956897 -77.43849627643436 2
vertex 271.6639062956897 -77.43849627643438 0
endloop
endfacet
facet normal 0.42068546937212337 0.9072065563360731 0
outer loop
vertex 270.87708107108955 -77.07363346033927 2
vertex 271.6639062956897 -77.43849627643438 0
vertex 270.87708107108955 -77.07363346033927 0
endloop
endfacet
facet normal 0.25758445596901325 0.9662557881033094 0
outer loop
vertex 270.0390421237456 -76.85022904818442 2
vertex 270.87708107108955 -77.07363346033927 2
vertex 270.87708107108955 -77.07363346033927 0
endloop
endfacet
facet normal 0.25758445596901325 0.9662557881033094 0
outer loop
vertex 270.0390421237456 -76.85022904818442 2
vertex 270.87708107108955 -77.07363346033927 0
vertex 270.0390421237456 -76.85022904818442 0
endloop
endfacet
facet normal 0.08673827111184097 0.9962311339867516 0
outer loop
vertex 269.17499999999995 -76.775 2
vertex 270.0390421237456 -76.85022904818442 2
vertex 270.0390421237456 -76.85022904818442 0
endloop
endfacet
facet normal 0.08673827111184097 0.9962311339867516 0
outer loop
vertex 269.17499999999995 -76.775 2
vertex 270.0390421237456 -76.85022904818442 0
vertex 269.175 -76.775 0
endloop
endfacet
facet normal -3.879310384036215e-8 0.9999999999999992 0
outer loop
vertex 187.97499840000026 -76.77500314999997 2
vertex 269.17499999999995 -76.775 2
vertex 269.175 -76.775 0
endloop
endfacet
facet normal -3.879310384036215e-8 0.9999999999999992 0
outer loop
vertex 187.97499840000026 -76.77500314999997 2
vertex 269.175 -76.775 0
vertex 187.9749984 -76.77500314999999 0
endloop
endfacet
facet normal -0.08694380879498448 0.9962132171941012 0
outer loop
vertex 187.10885890957138 -76.85059486565473 2
vertex 187.97499840000026 -76.77500314999997 2
vertex 187.9749984 -76.77500314999999 0
endloop
endfacet
facet normal -0.08694380879498448 0.9962132171941012 0
outer loop
vertex 187.10885890957138 -76.85059486565473 2
vertex 187.9749984 -76.77500314999999 0
vertex 187.10885890957138 -76.85059486565471 0
endloop
endfacet
facet normal -0.25820130301202987 0.9660911381039006 0
outer loop
vertex 186.26890851378997 -77.0750832996154 2
vertex 187.10885890957138 -76.85059486565473 2
vertex 187.10885890957138 -76.85059486565471 0
endloop
endfacet
facet normal -0.25820130301202987 0.9660911381039006 0
outer loop
vertex 186.26890851378997 -77.0750832996154 2
vertex 187.10885890957138 -76.85059486565471 0
vertex 186.26890851379 -77.07508329961539 0
endloop
endfacet
facet normal -0.4216517015414631 0.9067578742901486 0
outer loop
vertex 185.4805443467376 -77.44168071431356 2
vertex 186.26890851378997 -77.0750832996154 2
vertex 186.26890851379 -77.07508329961539 0
endloop
endfacet
facet normal -0.4216517015414631 0.9067578742901486 0
outer loop
vertex 185.4805443467376 -77.44168071431356 2
vertex 186.26890851379 -77.07508329961539 0
vertex 185.48054434673767 -77.4416807143135 0
endloop
endfacet
facet normal -0.572352841479302 0.8200074541432957 0
outer loop
vertex 184.76760375709173 -77.93930249839364 2
vertex 185.4805443467376 -77.44168071431356 2
vertex 185.48054434673767 -77.4416807143135 0
endloop
endfacet
facet normal -0.572352841479302 0.8200074541432957 0
outer loop
vertex 184.76760375709173 -77.93930249839364 2
vertex 185.48054434673767 -77.4416807143135 0
vertex 184.76760375709162 -77.93930249839372 0
endloop
endfacet
facet normal -0.7057480524834748 0.7084629040505807 0
outer loop
vertex 184.15164355087168 -78.55290232622043 2
vertex 184.76760375709173 -77.93930249839364 2
vertex 184.76760375709162 -77.93930249839372 0
endloop
endfacet
facet normal -0.7057480524834748 0.7084629040505807 0
outer loop
vertex 184.15164355087168 -78.55290232622043 2
vertex 184.76760375709162 -77.93930249839372 0
vertex 184.15164355087182 -78.55290232622025 0
endloop
endfacet
facet normal -0.8178039343950662 0.5754969373402 0
outer loop
vertex 183.6512881897423 -79.26392710563711 2
vertex 184.15164355087168 -78.55290232622043 2
vertex 184.15164355087182 -78.55290232622025 0
endloop
endfacet
facet normal -0.8178039343950662 0.5754969373402 0
outer loop
vertex 183.6512881897423 -79.26392710563711 2
vertex 184.15164355087182 -78.55290232622025 0
vertex 183.65128818974227 -79.26392710563717 0
endloop
endfacet
facet normal -0.9051323130173434 0.42512997533915886 0
outer loop
vertex 183.2816666530564 -80.0508779579609 2
vertex 183.6512881897423 -79.26392710563711 2
vertex 183.65128818974227 -79.26392710563717 0
endloop
endfacet
facet normal -0.9051323130173434 0.42512997533915886 0
outer loop
vertex 183.2816666530564 -80.0508779579609 2
vertex 183.65128818974227 -79.26392710563717 0
vertex 183.28166665305636 -80.05087795796096 0
endloop
endfacet
facet normal -0.9650926865395185 0.26190858402873063 0
outer loop
vertex 183.05395499094 -80.88996026816179 2
vertex 183.2816666530564 -80.0508779579609 2
vertex 183.28166665305636 -80.05087795796096 0
endloop
endfacet
facet normal -0.9650926865395185 0.26190858402873063 0
outer loop
vertex 183.05395499094 -80.88996026816179 2
vertex 183.28166665305636 -80.05087795796096 0
vertex 183.05395499094004 -80.88996026816166 0
endloop
endfacet
facet normal -0.9958719284877922 0.09076949955797897 0
outer loop
vertex 182.97503680000003 -81.75580629999953 2
vertex 183.05395499094 -80.88996026816179 2
vertex 183.05395499094004 -80.88996026816166 0
endloop
endfacet
facet normal -0.9958719284877922 0.09076949955797897 0
outer loop
vertex 182.97503680000003 -81.75580629999953 2
vertex 183.05395499094004 -80.88996026816166 0
vertex 182.9750368 -81.75580629999982 0
endloop
endfacet
facet normal -0.9999926320919221 0.0038387187797184197 0
outer loop
vertex 182.47503999999998 -212.00580500000007 2
vertex 182.97503680000003 -81.75580629999953 2
vertex 182.9750368 -81.75580629999982 0
endloop
endfacet
facet normal -0.9999926320919221 0.0038387187797184197 0
outer loop
vertex 182.47503999999998 -212.00580500000007 2
vertex 182.9750368 -81.75580629999982 0
vertex 182.47504 -212.00580500000012 0
endloop
endfacet
endsolid csg.js
