solid top
facet normal -0.9971969214639146 -0.07482178708699257 0
outer loop
vertex 182.53388768841563 -212.79010508168665 5
vertex 182.47503999999907 -212.00580500000007 5
vertex 182.47503999999907 -212.00580500000007 0
endloop
endfacet
facet normal -0.9971969214639146 -0.07482178708699257 0
outer loop
vertex 182.53388768841563 -212.79010508168665 5
vertex 182.47503999999907 -212.00580500000007 0
vertex 182.47648024131172 -212.025 0
endloop
endfacet
facet normal -0.9971969214639146 -0.07482178708699257 0
outer loop
vertex 182.53388768841563 -212.79010508168665 5
vertex 182.47648024131172 -212.025 0
vertex 182.53388768841563 -212.79010508168665 0
endloop
endfacet
facet normal -0.9731267285602531 -0.23027021119028754 0
outer loop
vertex 182.71499629551207 -213.5554738431352 5
vertex 182.53388768841563 -212.79010508168665 5
vertex 182.53388768841563 -212.79010508168665 0
endloop
endfacet
facet normal -0.9731267285602531 -0.23027021119028754 0
outer loop
vertex 182.71499629551207 -213.5554738431352 5
vertex 182.53388768841563 -212.79010508168665 0
vertex 182.71499629551207 -213.5554738431352 0
endloop
endfacet
facet normal -0.9249778900368947 -0.38002092434877094 0
outer loop
vertex 183.01388454476154 -214.28297331600518 5
vertex 182.71499629551207 -213.5554738431352 5
vertex 182.71499629551207 -213.5554738431352 0
endloop
endfacet
facet normal -0.9249778900368947 -0.38002092434877094 0
outer loop
vertex 183.01388454476154 -214.28297331600518 5
vertex 182.71499629551207 -213.5554738431352 0
vertex 183.01388454476154 -214.28297331600518 0
endloop
endfacet
facet normal -0.8539417808564123 -0.5203685568015993 0
outer loop
vertex 183.42315686882995 -214.95460255399007 5
vertex 183.01388454476154 -214.28297331600518 5
vertex 183.01388454476154 -214.28297331600518 0
endloop
endfacet
facet normal -0.8539417808564123 -0.5203685568015993 0
outer loop
vertex 183.42315686882995 -214.95460255399007 5
vertex 183.01388454476154 -214.28297331600518 0
vertex 183.42315686882995 -214.95460255399007 0
endloop
endfacet
facet normal -0.7617760891481322 -0.6478404047311165 0
outer loop
vertex 183.93268640248408 -215.5537430407709 5
vertex 183.42315686882995 -214.95460255399007 5
vertex 183.42315686882995 -214.95460255399007 0
endloop
endfacet
facet normal -0.7617760891481322 -0.6478404047311165 0
outer loop
vertex 183.93268640248408 -215.5537430407709 5
vertex 183.42315686882995 -214.95460255399007 0
vertex 183.93268640248408 -215.5537430407709 0
endloop
endfacet
facet normal -0.6507613246996222 -0.7592823574107284 0
outer loop
vertex 184.52986555749007 -216.0655698917578 5.000000000000002
vertex 183.93268640248408 -215.5537430407709 5
vertex 183.93268640248408 -215.5537430407709 0
endloop
endfacet
facet normal -0.6507613246996222 -0.7592823574107284 0
outer loop
vertex 184.52986555749007 -216.0655698917578 5.000000000000002
vertex 183.93268640248408 -215.5537430407709 0
vertex 184.52986555749007 -216.0655698917578 0
endloop
endfacet
facet normal -0.5236443909646208 -0.8519369412176533 0
outer loop
vertex 185.1999179796477 -216.4774186748412 5
vertex 184.52986555749007 -216.0655698917578 5.000000000000002
vertex 184.52986555749007 -216.0655698917578 0
endloop
endfacet
facet normal -0.5236443909646208 -0.8519369412176533 0
outer loop
vertex 185.1999179796477 -216.4774186748412 5
vertex 184.52986555749007 -216.0655698917578 0
vertex 185.1999179796477 -216.4774186748412 0
endloop
endfacet
facet normal -0.3835706168194693 -0.9235115494203263 0
outer loop
vertex 185.92626416870445 -216.7790987739639 5
vertex 185.1999179796477 -216.4774186748412 5
vertex 185.1999179796477 -216.4774186748412 0
endloop
endfacet
facet normal -0.3835706168194693 -0.9235115494203263 0
outer loop
vertex 185.92626416870445 -216.7790987739639 5
vertex 185.1999179796477 -216.4774186748412 0
vertex 185.92626416870445 -216.7790987739639 0
endloop
endfacet
facet normal -0.2340059298452102 -0.9722351694920723 0
outer loop
vertex 186.69093171474216 -216.96314554139798 5.000000000000002
vertex 185.92626416870445 -216.7790987739639 5
vertex 185.92626416870445 -216.7790987739639 0
endloop
endfacet
facet normal -0.2340059298452102 -0.9722351694920723 0
outer loop
vertex 186.69093171474216 -216.96314554139798 5.000000000000002
vertex 185.92626416870445 -216.7790987739639 0
vertex 186.69093171474216 -216.96314554139798 0
endloop
endfacet
facet normal -0.07864477892763941 -0.9969027027485795 0
outer loop
vertex 187.4750000000001 -217.02499999999904 5
vertex 186.69093171474216 -216.96314554139798 5.000000000000002
vertex 186.69093171474216 -216.96314554139798 0
endloop
endfacet
facet normal -0.07864477892763941 -0.9969027027485795 0
outer loop
vertex 187.4750000000001 -217.02499999999904 5
vertex 186.69093171474216 -216.96314554139798 0
vertex 187.4750000000001 -217.02499999999904 0
endloop
endfacet
facet normal 3.9903227389004314e-8 -0.9999999999999993 0
outer loop
vertex 270.1749963000002 -217.0249967000045 5.000000000000002
vertex 187.4750000000001 -217.02499999999904 5
vertex 187.4750000000001 -217.02499999999904 0
endloop
endfacet
facet normal 3.9903227389004314e-8 -0.9999999999999993 0
outer loop
vertex 270.1749963000002 -217.0249967000045 5.000000000000002
vertex 187.4750000000001 -217.02499999999904 0
vertex 270.1749963000002 -217.0249967000045 0
endloop
endfacet
facet normal 0.07884032701423388 -0.996887256833133 0
outer loop
vertex 270.9609599916612 -216.96283758014903 5
vertex 270.1749963000002 -217.0249967000045 5.000000000000002
vertex 270.1749963000002 -217.0249967000045 0
endloop
endfacet
facet normal 0.07884032701423388 -0.996887256833133 0
outer loop
vertex 270.9609599916612 -216.96283758014903 5
vertex 270.1749963000002 -217.0249967000045 0
vertex 270.9609599916612 -216.96283758014903 0
endloop
endfacet
facet normal 0.23456359944628885 -0.9721007755447998 0
outer loop
vertex 271.72738157943695 -216.7779034551729 5.000000000000002
vertex 270.9609599916612 -216.96283758014903 5
vertex 270.9609599916612 -216.96283758014903 0
endloop
endfacet
facet normal 0.23456359944628885 -0.9721007755447998 0
outer loop
vertex 271.72738157943695 -216.7779034551729 5.000000000000002
vertex 270.9609599916612 -216.96283758014903 0
vertex 271.72738157943695 -216.7779034551729 0
endloop
endfacet
facet normal 0.384454657389083 -0.923143876333393 0
outer loop
vertex 272.4552046747779 -216.47479254695685 5
vertex 271.72738157943695 -216.7779034551729 5.000000000000002
vertex 271.72738157943695 -216.7779034551729 0
endloop
endfacet
facet normal 0.384454657389083 -0.923143876333393 0
outer loop
vertex 272.4552046747779 -216.47479254695685 5
vertex 271.72738157943695 -216.7779034551729 0
vertex 272.4552046747779 -216.47479254695685 0
endloop
endfacet
facet normal 0.5247865935048783 -0.8512338287906241 0
outer loop
vertex 273.12633260620777 -216.061041437661 5
vertex 272.4552046747779 -216.47479254695685 5
vertex 272.4552046747779 -216.47479254695685 0
endloop
endfacet
facet normal 0.5247865935048783 -0.8512338287906241 0
outer loop
vertex 273.12633260620777 -216.061041437661 5
vertex 272.4552046747779 -216.47479254695685 0
vertex 273.12633260620777 -216.061041437661 0
endloop
endfacet
facet normal 0.6520701794860836 -0.7581586120496071 0
outer loop
vertex 273.7240783768604 -215.54693767920568 5
vertex 273.12633260620777 -216.061041437661 5
vertex 273.12633260620777 -216.061041437661 0
endloop
endfacet
facet normal 0.6520701794860836 -0.7581586120496071 0
outer loop
vertex 273.7240783768604 -215.54693767920568 5
vertex 273.12633260620777 -216.061041437661 0
vertex 273.7240783768604 -215.54693767920568 0
endloop
endfacet
facet normal 0.7631406226019612 -0.6462324582800612 0
outer loop
vertex 274.233579571805 -214.9452640025835 5
vertex 273.7240783768604 -215.54693767920568 5
vertex 273.7240783768604 -215.54693767920568 0
endloop
endfacet
facet normal 0.7631406226019612 -0.6462324582800612 0
outer loop
vertex 274.233579571805 -214.9452640025835 5
vertex 273.7240783768604 -215.54693767920568 0
vertex 274.233579571805 -214.9452640025835 0
endloop
endfacet
facet normal 0.8552362554446713 -0.5182383113713004 0
outer loop
vertex 274.64216789869255 -214.27098048660415 5
vertex 274.233579571805 -214.9452640025835 5
vertex 274.233579571805 -214.9452640025835 0
endloop
endfacet
facet normal 0.8552362554446713 -0.5182383113713004 0
outer loop
vertex 274.64216789869255 -214.27098048660415 5
vertex 274.233579571805 -214.9452640025835 0
vertex 274.64216789869255 -214.27098048660415 0
endloop
endfacet
facet normal 0.9260672023236681 -0.37735863151704174 0
outer loop
vertex 274.93968417355427 -213.54085258891607 5.000000000000002
vertex 274.64216789869255 -214.27098048660415 5
vertex 274.64216789869255 -214.27098048660415 0
endloop
endfacet
facet normal 0.9260672023236681 -0.37735863151704174 0
outer loop
vertex 274.93968417355427 -213.54085258891607 5.000000000000002
vertex 274.64216789869255 -214.27098048660415 0
vertex 274.93968417355427 -213.54085258891607 0
endloop
endfacet
facet normal 0.9738723149804162 -0.2270962661839359 0
outer loop
vertex 275.11873091982375 -212.77303428785712 5
vertex 274.93968417355427 -213.54085258891607 5.000000000000002
vertex 274.93968417355427 -213.54085258891607 0
endloop
endfacet
facet normal 0.9738723149804162 -0.2270962661839359 0
outer loop
vertex 275.11873091982375 -212.77303428785712 5
vertex 274.93968417355427 -213.54085258891607 0
vertex 275.11873091982375 -212.77303428785712 0
endloop
endfacet
facet normal 0.9974633163957538 -0.07118238858583195 0
outer loop
vertex 275.17485260000115 -211.98661340000015 5.000000000000002
vertex 275.11873091982375 -212.77303428785712 5
vertex 275.11873091982375 -212.77303428785712 0
endloop
endfacet
facet normal 0.9974633163957538 -0.07118238858583195 0
outer loop
vertex 275.17485260000115 -211.98661340000015 5.000000000000002
vertex 275.11873091982375 -212.77303428785712 0
vertex 275.1721132011353 -212.025 0
endloop
endfacet
facet normal 0.9974633163957538 -0.07118238858583195 0
outer loop
vertex 275.17485260000115 -211.98661340000015 5.000000000000002
vertex 275.1721132011353 -212.025 0
vertex 275.17485260000115 -211.98661340000015 0
endloop
endfacet
facet normal 0 0 1
outer loop
vertex 274.17484500000415 -81.73660499999997 5
vertex 274.21371972671983 -86.8 5
vertex 274.4133373537694 -112.8 5
endloop
endfacet
facet normal 0 0 1
outer loop
vertex 274.17484500000415 -81.73660499999997 5
vertex 274.4133373537694 -112.8 5
vertex 274.424661815304 -114.275 5
endloop
endfacet
facet normal 0 0 1
outer loop
vertex 274.17484500000415 -81.73660499999997 5
vertex 274.424661815304 -114.275 5
vertex 275.1559533143992 -209.525 5
endloop
endfacet
facet normal 0 0 1
outer loop
vertex 274.17484500000415 -81.73660499999997 5
vertex 275.1559533143992 -209.525 5
vertex 275.17485260000115 -211.98661340000015 5.000000000000002
endloop
endfacet
facet normal 0 0 1
outer loop
vertex 274.17484500000415 -81.73660499999997 5
vertex 275.17485260000115 -211.98661340000015 5.000000000000002
vertex 275.17485260000115 -211.98661340000015 0
endloop
endfacet
facet normal 0 0 1
outer loop
vertex 274.17484500000415 -81.73660499999997 5
vertex 275.17485260000115 -211.98661340000015 0
vertex 274.17513978149606 -81.775 0
endloop
endfacet
facet normal 0 0 1
outer loop
vertex 274.17484500000415 -81.73660499999997 5
vertex 274.17513978149606 -81.775 0
vertex 274.17484500000415 -81.73660499999997 0
endloop
endfacet
facet normal 0.9955363351962182 0.0943790511929593 0
outer loop
vertex 274.09298953099744 -80.87317087348536 5.000000000000002
vertex 274.17484500000415 -81.73660499999997 5
vertex 274.17484500000415 -81.73660499999997 0
endloop
endfacet
facet normal 0.9955363351962182 0.0943790511929593 0
outer loop
vertex 274.09298953099744 -80.87317087348536 5.000000000000002
vertex 274.17484500000415 -81.73660499999997 0
vertex 274.09298953099744 -80.87317087348536 0
endloop
endfacet
facet normal 0.9642497077273621 0.26499528514239057 0
outer loop
vertex 273.863157666033 -80.03687181065966 5
vertex 274.09298953099744 -80.87317087348536 5.000000000000002
vertex 274.09298953099744 -80.87317087348536 0
endloop
endfacet
facet normal 0.9642497077273621 0.26499528514239057 0
outer loop
vertex 273.863157666033 -80.03687181065966 5
vertex 274.09298953099744 -80.87317087348536 0
vertex 273.863157666033 -80.03687181065966 0
endloop
endfacet
facet normal 0.903950009603568 0.4276381415843415 0
outer loop
vertex 273.4922647591771 -79.25287100691011 5
vertex 273.863157666033 -80.03687181065966 5
vertex 273.863157666033 -80.03687181065966 0
endloop
endfacet
facet normal 0.903950009603568 0.4276381415843415 0
outer loop
vertex 273.4922647591771 -79.25287100691011 5
vertex 273.863157666033 -80.03687181065966 0
vertex 273.4922647591771 -79.25287100691011 0
endloop
endfacet
facet normal 0.8164515835081751 0.5774138998907051 0
outer loop
vertex 272.9914705152429 -78.54475806826329 5
vertex 273.4922647591771 -79.25287100691011 5
vertex 273.4922647591771 -79.25287100691011 0
endloop
endfacet
facet normal 0.8164515835081751 0.5774138998907051 0
outer loop
vertex 272.9914705152429 -78.54475806826329 5
vertex 273.4922647591771 -79.25287100691011 0
vertex 272.9914705152429 -78.54475806826329 0
endloop
endfacet
facet normal 0.7043871479145335 0.7098159943625032 0
outer loop
vertex 272.3758432082227 -77.9338392295571 5
vertex 272.9914705152429 -78.54475806826329 5
vertex 272.9914705152429 -78.54475806826329 0
endloop
endfacet
facet normal 0.7043871479145335 0.7098159943625032 0
outer loop
vertex 272.3758432082227 -77.9338392295571 5
vertex 272.9914705152429 -78.54475806826329 0
vertex 272.3758432082227 -77.9338392295571 0
endloop
endfacet
facet normal 0.5711285818719762 0.8208606111690981 0
outer loop
vertex 271.66390629569287 -77.43849627642983 5
vertex 272.3758432082227 -77.9338392295571 5
vertex 272.3758432082227 -77.9338392295571 0
endloop
endfacet
facet normal 0.5711285818719762 0.8208606111690981 0
outer loop
vertex 271.66390629569287 -77.43849627642983 5
vertex 272.3758432082227 -77.9338392295571 0
vertex 271.66390629569287 -77.43849627642983 0
endloop
endfacet
facet normal 0.42068546937213186 0.9072065563360691 0
outer loop
vertex 270.8770810710875 -77.07363346034398 5
vertex 271.66390629569287 -77.43849627642983 5
vertex 271.66390629569287 -77.43849627642983 0
endloop
endfacet
facet normal 0.42068546937213186 0.9072065563360691 0
outer loop
vertex 270.8770810710875 -77.07363346034398 5
vertex 271.66390629569287 -77.43849627642983 0
vertex 270.8770810710875 -77.07363346034398 0
endloop
endfacet
facet normal 0.2575844559690399 0.9662557881033024 0
outer loop
vertex 270.0390421237448 -76.85022904818747 5.000000000000002
vertex 270.8770810710875 -77.07363346034398 5
vertex 270.8770810710875 -77.07363346034398 0
endloop
endfacet
facet normal 0.2575844559690399 0.9662557881033024 0
outer loop
vertex 270.0390421237448 -76.85022904818747 5.000000000000002
vertex 270.8770810710875 -77.07363346034398 0
vertex 270.0390421237448 -76.85022904818747 0
endloop
endfacet
facet normal 0.08673827111184097 0.9962311339867516 0
outer loop
vertex 269.1750000000002 -76.77499999999907 5.000000000000002
vertex 270.0390421237448 -76.85022904818747 5.000000000000002
vertex 270.0390421237448 -76.85022904818747 0
endloop
endfacet
facet normal 0.08673827111184097 0.9962311339867516 0
outer loop
vertex 269.1750000000002 -76.77499999999907 5.000000000000002
vertex 270.0390421237448 -76.85022904818747 0
vertex 269.1750000000002 -76.77499999999907 0
endloop
endfacet
facet normal 5.075305255429036e-16 -1.2519084247921084e-8 -0.9999999999999999
outer loop
vertex 187.9749984 -76.77500314999965 5
vertex 265.675 -76.77499999999907 5
vertex 269.1750000000002 -76.77499999999907 5.000000000000002
endloop
endfacet
facet normal 5.075305255429036e-16 -1.2519084247921084e-8 -0.9999999999999999
outer loop
vertex 187.9749984 -76.77500314999965 5
vertex 269.1750000000002 -76.77499999999907 5.000000000000002
vertex 269.1750000000002 -76.77499999999907 0
endloop
endfacet
facet normal 5.075305255429036e-16 -1.2519084247921084e-8 -0.9999999999999999
outer loop
vertex 187.9749984 -76.77500314999965 5
vertex 269.1750000000002 -76.77499999999907 0
vertex 265.675 -76.77500000106278 0
endloop
endfacet
facet normal 5.075305255429036e-16 -1.2519084247921084e-8 -0.9999999999999999
outer loop
vertex 187.9749984 -76.77500314999965 5
vertex 265.675 -76.77500000106278 0
vertex 187.9749984 -76.77500314999965 0
endloop
endfacet
facet normal -0.08694380879498448 0.9962132171941012 0
outer loop
vertex 187.10885890957152 -76.85059486565582 5.000000000000002
vertex 187.9749984 -76.77500314999965 5
vertex 187.9749984 -76.77500314999965 0
endloop
endfacet
facet normal -0.08694380879498448 0.9962132171941012 0
outer loop
vertex 187.10885890957152 -76.85059486565582 5.000000000000002
vertex 187.9749984 -76.77500314999965 0
vertex 187.10885890957152 -76.85059486565582 0
endloop
endfacet
facet normal -0.25820130301202987 0.9660911381039006 0
outer loop
vertex 186.2689085137905 -77.07508329961728 5
vertex 187.10885890957152 -76.85059486565582 5.000000000000002
vertex 187.10885890957152 -76.85059486565582 0
endloop
endfacet
facet normal -0.25820130301202987 0.9660911381039006 0
outer loop
vertex 186.2689085137905 -77.07508329961728 5
vertex 187.10885890957152 -76.85059486565582 0
vertex 186.2689085137905 -77.07508329961728 0
endloop
endfacet
facet normal -0.4216517015414631 0.9067578742901486 0
outer loop
vertex 185.48054434673782 -77.44168071431402 5
vertex 186.2689085137905 -77.07508329961728 5
vertex 186.2689085137905 -77.07508329961728 0
endloop
endfacet
facet normal -0.4216517015414631 0.9067578742901486 0
outer loop
vertex 185.48054434673782 -77.44168071431402 5
vertex 186.2689085137905 -77.07508329961728 0
vertex 185.48054434673782 -77.44168071431402 0
endloop
endfacet
facet normal -0.572352841479302 0.8200074541432957 0
outer loop
vertex 184.76760375709262 -77.9393024983948 5.000000000000002
vertex 185.48054434673782 -77.44168071431402 5
vertex 185.48054434673782 -77.44168071431402 0
endloop
endfacet
facet normal -0.572352841479302 0.8200074541432957 0
outer loop
vertex 184.76760375709262 -77.9393024983948 5.000000000000002
vertex 185.48054434673782 -77.44168071431402 0
vertex 184.76760375709262 -77.9393024983948 0
endloop
endfacet
facet normal -0.7057480524834748 0.7084629040505807 0
outer loop
vertex 184.15164355087146 -78.55290232621999 5
vertex 184.76760375709262 -77.9393024983948 5.000000000000002
vertex 184.76760375709262 -77.9393024983948 0
endloop
endfacet
facet normal -0.7057480524834748 0.7084629040505807 0
outer loop
vertex 184.15164355087146 -78.55290232621999 5
vertex 184.76760375709262 -77.9393024983948 0
vertex 184.15164355087146 -78.55290232621999 0
endloop
endfacet
facet normal -0.8178039343950797 0.575496937340181 0
outer loop
vertex 183.65128818974233 -79.26392710563704 5
vertex 184.15164355087146 -78.55290232621999 5
vertex 184.15164355087146 -78.55290232621999 0
endloop
endfacet
facet normal -0.8178039343950797 0.575496937340181 0
outer loop
vertex 183.65128818974233 -79.26392710563704 5
vertex 184.15164355087146 -78.55290232621999 0
vertex 183.65128818974233 -79.26392710563704 0
endloop
endfacet
facet normal -0.9051323130173434 0.42512997533915886 0
outer loop
vertex 183.28166665305633 -80.05087795796103 5
vertex 183.65128818974233 -79.26392710563704 5
vertex 183.65128818974233 -79.26392710563704 0
endloop
endfacet
facet normal -0.9051323130173434 0.42512997533915886 0
outer loop
vertex 183.28166665305633 -80.05087795796103 5
vertex 183.65128818974233 -79.26392710563704 0
vertex 183.28166665305633 -80.05087795796103 0
endloop
endfacet
facet normal -0.9650926865395185 0.26190858402873063 0
outer loop
vertex 183.05395499093981 -80.88996026816169 5
vertex 183.28166665305633 -80.05087795796103 5
vertex 183.28166665305633 -80.05087795796103 0
endloop
endfacet
facet normal -0.9650926865395185 0.26190858402873063 0
outer loop
vertex 183.05395499093981 -80.88996026816169 5
vertex 183.28166665305633 -80.05087795796103 0
vertex 183.05395499093981 -80.88996026816169 0
endloop
endfacet
facet normal -0.9958719284877922 0.09076949955797897 0
outer loop
vertex 182.97503680000068 -81.75580630000007 5.000000000000002
vertex 183.05395499093981 -80.88996026816169 5
vertex 183.05395499093981 -80.88996026816169 0
endloop
endfacet
facet normal -0.9958719284877922 0.09076949955797897 0
outer loop
vertex 182.97503680000068 -81.75580630000007 5.000000000000002
vertex 183.05395499093981 -80.88996026816169 0
vertex 182.97503680000068 -81.75580630000007 0
endloop
endfacet
facet normal 0 0 1
outer loop
vertex 182.47503999999907 -212.00580500000007 5
vertex 182.48456318290826 -209.525 5
vertex 182.85020384068437 -114.275 5
endloop
endfacet
facet normal 0 0 1
outer loop
vertex 182.47503999999907 -212.00580500000007 5
vertex 182.85020384068437 -114.275 5
vertex 182.8558659926027 -112.8 5
endloop
endfacet
facet normal 0 0 1
outer loop
vertex 182.47503999999907 -212.00580500000007 5
vertex 182.8558659926027 -112.8 5
vertex 182.9556734162476 -86.8 5
endloop
endfacet
facet normal 0 0 1
outer loop
vertex 182.47503999999907 -212.00580500000007 5
vertex 182.9556734162476 -86.8 5
vertex 182.97503680000068 -81.75580630000007 5.000000000000002
endloop
endfacet
facet normal 0 0 1
outer loop
vertex 182.47503999999907 -212.00580500000007 5
vertex 182.97503680000068 -81.75580630000007 5.000000000000002
vertex 182.97503680000068 -81.75580630000007 0
endloop
endfacet
facet normal 0 0 1
outer loop
vertex 182.47503999999907 -212.00580500000007 5
vertex 182.97503680000068 -81.75580630000007 0
vertex 182.97496312024117 -81.775 0
endloop
endfacet
facet normal 0 0 1
outer loop
vertex 182.47503999999907 -212.00580500000007 5
vertex 182.97496312024117 -81.775 0
vertex 182.47503999999907 -212.00580500000007 0
endloop
endfacet
facet normal 4.49206236373969e-15 -2.8221781184401828e-14 1
outer loop
vertex 270.1749963000002 -217.0249967000045 5.000000000000002
vertex 270.9609599916612 -216.96283758014903 5
vertex 271.72738157943695 -216.7779034551729 5.000000000000002
endloop
endfacet
facet normal 4.49206236373969e-15 -2.8221781184401828e-14 1
outer loop
vertex 270.1749963000002 -217.0249967000045 5.000000000000002
vertex 271.72738157943695 -216.7779034551729 5.000000000000002
vertex 272.4552046747779 -216.47479254695685 5
endloop
endfacet
facet normal 4.49206236373969e-15 -2.8221781184401828e-14 1
outer loop
vertex 270.1749963000002 -217.0249967000045 5.000000000000002
vertex 272.4552046747779 -216.47479254695685 5
vertex 273.12633260620777 -216.061041437661 5
endloop
endfacet
facet normal 4.49206236373969e-15 -2.8221781184401828e-14 1
outer loop
vertex 270.1749963000002 -217.0249967000045 5.000000000000002
vertex 273.12633260620777 -216.061041437661 5
vertex 273.7240783768604 -215.54693767920568 5
endloop
endfacet
facet normal 4.49206236373969e-15 -2.8221781184401828e-14 1
outer loop
vertex 270.1749963000002 -217.0249967000045 5.000000000000002
vertex 273.7240783768604 -215.54693767920568 5
vertex 274.233579571805 -214.9452640025835 5
endloop
endfacet
facet normal 4.49206236373969e-15 -2.8221781184401828e-14 1
outer loop
vertex 270.1749963000002 -217.0249967000045 5.000000000000002
vertex 274.233579571805 -214.9452640025835 5
vertex 274.64216789869255 -214.27098048660415 5
endloop
endfacet
facet normal 4.49206236373969e-15 -2.8221781184401828e-14 1
outer loop
vertex 270.1749963000002 -217.0249967000045 5.000000000000002
vertex 274.64216789869255 -214.27098048660415 5
vertex 274.93968417355427 -213.54085258891607 5.000000000000002
endloop
endfacet
facet normal 4.49206236373969e-15 -2.8221781184401828e-14 1
outer loop
vertex 270.1749963000002 -217.0249967000045 5.000000000000002
vertex 274.93968417355427 -213.54085258891607 5.000000000000002
vertex 275.11873091982375 -212.77303428785712 5
endloop
endfacet
facet normal 4.49206236373969e-15 -2.8221781184401828e-14 1
outer loop
vertex 270.1749963000002 -217.0249967000045 5.000000000000002
vertex 275.11873091982375 -212.77303428785712 5
vertex 275.17485260000115 -211.98661340000015 5.000000000000002
endloop
endfacet
facet normal 4.49206236373969e-15 -2.8221781184401828e-14 1
outer loop
vertex 270.1749963000002 -217.0249967000045 5.000000000000002
vertex 275.17485260000115 -211.98661340000015 5.000000000000002
vertex 275.1559533143992 -209.525 5
endloop
endfacet
facet normal 4.49206236373969e-15 -2.8221781184401828e-14 1
outer loop
vertex 270.1749963000002 -217.0249967000045 5.000000000000002
vertex 275.1559533143992 -209.525 5
vertex 266.675 -209.525 5
endloop
endfacet
facet normal 4.49206236373969e-15 -2.8221781184401828e-14 1
outer loop
vertex 270.1749963000002 -217.0249967000045 5.000000000000002
vertex 266.675 -209.525 5
vertex 190.475 -209.525 5
endloop
endfacet
facet normal 4.49206236373969e-15 -2.8221781184401828e-14 1
outer loop
vertex 270.1749963000002 -217.0249967000045 5.000000000000002
vertex 190.475 -209.525 5
vertex 182.48456318290826 -209.525 5
endloop
endfacet
facet normal 4.49206236373969e-15 -2.8221781184401828e-14 1
outer loop
vertex 270.1749963000002 -217.0249967000045 5.000000000000002
vertex 182.48456318290826 -209.525 5
vertex 182.47503999999907 -212.00580500000007 5
endloop
endfacet
facet normal 4.49206236373969e-15 -2.8221781184401828e-14 1
outer loop
vertex 270.1749963000002 -217.0249967000045 5.000000000000002
vertex 182.47503999999907 -212.00580500000007 5
vertex 182.53388768841563 -212.79010508168665 5
endloop
endfacet
facet normal 4.49206236373969e-15 -2.8221781184401828e-14 1
outer loop
vertex 270.1749963000002 -217.0249967000045 5.000000000000002
vertex 182.53388768841563 -212.79010508168665 5
vertex 182.71499629551207 -213.5554738431352 5
endloop
endfacet
facet normal 4.49206236373969e-15 -2.8221781184401828e-14 1
outer loop
vertex 270.1749963000002 -217.0249967000045 5.000000000000002
vertex 182.71499629551207 -213.5554738431352 5
vertex 183.01388454476154 -214.28297331600518 5
endloop
endfacet
facet normal 4.49206236373969e-15 -2.8221781184401828e-14 1
outer loop
vertex 270.1749963000002 -217.0249967000045 5.000000000000002
vertex 183.01388454476154 -214.28297331600518 5
vertex 183.42315686882995 -214.95460255399007 5
endloop
endfacet
facet normal 4.49206236373969e-15 -2.8221781184401828e-14 1
outer loop
vertex 270.1749963000002 -217.0249967000045 5.000000000000002
vertex 183.42315686882995 -214.95460255399007 5
vertex 183.93268640248408 -215.5537430407709 5
endloop
endfacet
facet normal 4.49206236373969e-15 -2.8221781184401828e-14 1
outer loop
vertex 270.1749963000002 -217.0249967000045 5.000000000000002
vertex 183.93268640248408 -215.5537430407709 5
vertex 184.52986555749007 -216.0655698917578 5.000000000000002
endloop
endfacet
facet normal 4.49206236373969e-15 -2.8221781184401828e-14 1
outer loop
vertex 270.1749963000002 -217.0249967000045 5.000000000000002
vertex 184.52986555749007 -216.0655698917578 5.000000000000002
vertex 185.1999179796477 -216.4774186748412 5
endloop
endfacet
facet normal 4.49206236373969e-15 -2.8221781184401828e-14 1
outer loop
vertex 270.1749963000002 -217.0249967000045 5.000000000000002
vertex 185.1999179796477 -216.4774186748412 5
vertex 185.92626416870445 -216.7790987739639 5
endloop
endfacet
facet normal 4.49206236373969e-15 -2.8221781184401828e-14 1
outer loop
vertex 270.1749963000002 -217.0249967000045 5.000000000000002
vertex 185.92626416870445 -216.7790987739639 5
vertex 186.69093171474216 -216.96314554139798 5.000000000000002
endloop
endfacet
facet normal 4.49206236373969e-15 -2.8221781184401828e-14 1
outer loop
vertex 270.1749963000002 -217.0249967000045 5.000000000000002
vertex 186.69093171474216 -216.96314554139798 5.000000000000002
vertex 187.4750000000001 -217.02499999999904 5
endloop
endfacet
facet normal 0 0 1
outer loop
vertex 190.475 -209.525 5
vertex 190.475 -114.275 5
vertex 182.85020384068437 -114.275 5
endloop
endfacet
facet normal 0 0 1
outer loop
vertex 190.475 -209.525 5
vertex 182.85020384068437 -114.275 5
vertex 182.48456318290826 -209.525 5
endloop
endfacet
facet normal 0 0 1
outer loop
vertex 275.1559533143992 -209.525 5
vertex 274.424661815304 -114.275 5
vertex 266.675 -114.275 5
endloop
endfacet
facet normal 0 0 1
outer loop
vertex 275.1559533143992 -209.525 5
vertex 266.675 -114.275 5
vertex 266.675 -209.525 5
endloop
endfacet
facet normal 0 0 1
outer loop
vertex 190.475 -114.275 5
vertex 266.675 -114.275 5
vertex 274.424661815304 -114.275 5
endloop
endfacet
facet normal 0 0 1
outer loop
vertex 190.475 -114.275 5
vertex 274.424661815304 -114.275 5
vertex 274.4133373537694 -112.8 5
endloop
endfacet
facet normal 0 0 1
outer loop
vertex 190.475 -114.275 5
vertex 274.4133373537694 -112.8 5
vertex 265.675 -112.8 5
endloop
endfacet
facet normal 0 0 1
outer loop
vertex 190.475 -114.275 5
vertex 265.675 -112.8 5
vertex 191.475 -112.8 5
endloop
endfacet
facet normal 0 0 1
outer loop
vertex 190.475 -114.275 5
vertex 191.475 -112.8 5
vertex 182.8558659926027 -112.8 5
endloop
endfacet
facet normal 0 0 1
outer loop
vertex 190.475 -114.275 5
vertex 182.8558659926027 -112.8 5
vertex 182.85020384068437 -114.275 5
endloop
endfacet
facet normal 0 0 1
outer loop
vertex 191.475 -112.8 5
vertex 191.475 -86.8 5
vertex 182.9556734162476 -86.8 5
endloop
endfacet
facet normal 0 0 1
outer loop
vertex 191.475 -112.8 5
vertex 182.9556734162476 -86.8 5
vertex 182.8558659926027 -112.8 5
endloop
endfacet
facet normal 0 0 1
outer loop
vertex 274.4133373537694 -112.8 5
vertex 274.21371972671983 -86.8 5
vertex 265.675 -86.8 5
endloop
endfacet
facet normal 0 0 1
outer loop
vertex 274.4133373537694 -112.8 5
vertex 265.675 -86.8 5
vertex 265.675 -112.8 5
endloop
endfacet
facet normal 0 0 1
outer loop
vertex 191.475 -86.8 5
vertex 265.675 -86.8 5
vertex 274.21371972671983 -86.8 5
endloop
endfacet
facet normal 0 0 1
outer loop
vertex 191.475 -86.8 5
vertex 274.21371972671983 -86.8 5
vertex 274.17484500000415 -81.73660499999997 5
endloop
endfacet
facet normal 0 0 1
outer loop
vertex 191.475 -86.8 5
vertex 274.17484500000415 -81.73660499999997 5
vertex 274.09298953099744 -80.87317087348536 5.000000000000002
endloop
endfacet
facet normal 0 0 1
outer loop
vertex 191.475 -86.8 5
vertex 274.09298953099744 -80.87317087348536 5.000000000000002
vertex 273.863157666033 -80.03687181065966 5
endloop
endfacet
facet normal 0 0 1
outer loop
vertex 191.475 -86.8 5
vertex 273.863157666033 -80.03687181065966 5
vertex 273.4922647591771 -79.25287100691011 5
endloop
endfacet
facet normal 0 0 1
outer loop
vertex 191.475 -86.8 5
vertex 273.4922647591771 -79.25287100691011 5
vertex 272.9914705152429 -78.54475806826329 5
endloop
endfacet
facet normal 0 0 1
outer loop
vertex 191.475 -86.8 5
vertex 272.9914705152429 -78.54475806826329 5
vertex 272.3758432082227 -77.9338392295571 5
endloop
endfacet
facet normal 0 0 1
outer loop
vertex 191.475 -86.8 5
vertex 272.3758432082227 -77.9338392295571 5
vertex 271.66390629569287 -77.43849627642983 5
endloop
endfacet
facet normal 0 0 1
outer loop
vertex 191.475 -86.8 5
vertex 271.66390629569287 -77.43849627642983 5
vertex 270.8770810710875 -77.07363346034398 5
endloop
endfacet
facet normal 0 0 1
outer loop
vertex 191.475 -86.8 5
vertex 270.8770810710875 -77.07363346034398 5
vertex 270.0390421237448 -76.85022904818747 5.000000000000002
endloop
endfacet
facet normal 0 0 1
outer loop
vertex 191.475 -86.8 5
vertex 270.0390421237448 -76.85022904818747 5.000000000000002
vertex 269.1750000000002 -76.77499999999907 5.000000000000002
endloop
endfacet
facet normal 0 0 1
outer loop
vertex 191.475 -86.8 5
vertex 269.1750000000002 -76.77499999999907 5.000000000000002
vertex 265.675 -76.77499999999907 5
endloop
endfacet
facet normal 0 0 1
outer loop
vertex 191.475 -86.8 5
vertex 265.675 -76.77499999999907 5
vertex 187.9749984 -76.77500314999965 5
endloop
endfacet
facet normal 0 0 1
outer loop
vertex 191.475 -86.8 5
vertex 187.9749984 -76.77500314999965 5
vertex 187.10885890957152 -76.85059486565582 5.000000000000002
endloop
endfacet
facet normal 0 0 1
outer loop
vertex 191.475 -86.8 5
vertex 187.10885890957152 -76.85059486565582 5.000000000000002
vertex 186.2689085137905 -77.07508329961728 5
endloop
endfacet
facet normal 0 0 1
outer loop
vertex 191.475 -86.8 5
vertex 186.2689085137905 -77.07508329961728 5
vertex 185.48054434673782 -77.44168071431402 5
endloop
endfacet
facet normal 0 0 1
outer loop
vertex 191.475 -86.8 5
vertex 185.48054434673782 -77.44168071431402 5
vertex 184.76760375709262 -77.9393024983948 5.000000000000002
endloop
endfacet
facet normal 0 0 1
outer loop
vertex 191.475 -86.8 5
vertex 184.76760375709262 -77.9393024983948 5.000000000000002
vertex 184.15164355087146 -78.55290232621999 5
endloop
endfacet
facet normal 0 0 1
outer loop
vertex 191.475 -86.8 5
vertex 184.15164355087146 -78.55290232621999 5
vertex 183.65128818974233 -79.26392710563704 5
endloop
endfacet
facet normal 0 0 1
outer loop
vertex 191.475 -86.8 5
vertex 183.65128818974233 -79.26392710563704 5
vertex 183.28166665305633 -80.05087795796103 5
endloop
endfacet
facet normal 0 0 1
outer loop
vertex 191.475 -86.8 5
vertex 183.28166665305633 -80.05087795796103 5
vertex 183.05395499093981 -80.88996026816169 5
endloop
endfacet
facet normal 0 0 1
outer loop
vertex 191.475 -86.8 5
vertex 183.05395499093981 -80.88996026816169 5
vertex 182.97503680000068 -81.75580630000007 5.000000000000002
endloop
endfacet
facet normal 0 0 1
outer loop
vertex 191.475 -86.8 5
vertex 182.97503680000068 -81.75580630000007 5.000000000000002
vertex 182.9556734162476 -86.8 5
endloop
endfacet
facet normal 0 1 0
outer loop
vertex 270.175 -212.025 3
vertex 270.175 -212.025 0
vertex 187.475 -212.025 0
endloop
endfacet
facet normal 0 1 0
outer loop
vertex 270.175 -212.025 3
vertex 187.475 -212.025 0
vertex 187.475 -212.025 3
endloop
endfacet
facet normal 0 0 1
outer loop
vertex 270.175 -212.025 3
vertex 270.1558061420346 -209.525 3
vertex 269.4245201535508 -114.275 3
endloop
endfacet
facet normal 0 0 1
outer loop
vertex 270.175 -212.025 3
vertex 269.4245201535508 -114.275 3
vertex 269.41319577735123 -112.8 3
endloop
endfacet
facet normal 0 0 1
outer loop
vertex 270.175 -212.025 3
vertex 269.41319577735123 -112.8 3
vertex 269.2135796545105 -86.8 3
endloop
endfacet
facet normal 0 0 1
outer loop
vertex 270.175 -212.025 3
vertex 269.2135796545105 -86.8 3
vertex 269.17499999999524 -81.77500000000008 3.0000000000000018
endloop
endfacet
facet normal 0 0 1
outer loop
vertex 270.175 -212.025 3
vertex 269.17499999999524 -81.77500000000008 3.0000000000000018
vertex 269.17499999999524 -81.77500000000008 0
endloop
endfacet
facet normal 0 0 1
outer loop
vertex 270.175 -212.025 3
vertex 269.17499999999524 -81.77500000000008 0
vertex 270.175 -212.025 0
endloop
endfacet
facet normal 0 -1 0
outer loop
vertex 269.17499999999524 -81.77500000000008 0
vertex 269.17499999999524 -81.77500000000008 3.0000000000000018
vertex 187.975 -81.775 3
endloop
endfacet
facet normal 0 -1 0
outer loop
vertex 269.17499999999524 -81.77500000000008 0
vertex 187.975 -81.775 3
vertex 187.975 -81.775 0
endloop
endfacet
facet normal 0 0 1
outer loop
vertex 187.975 -81.775 3
vertex 187.95571017274472 -86.8 3
vertex 187.85590211132438 -112.8 3
endloop
endfacet
facet normal 0 0 1
outer loop
vertex 187.975 -81.775 3
vertex 187.85590211132438 -112.8 3
vertex 187.85023992322456 -114.275 3
endloop
endfacet
facet normal 0 0 1
outer loop
vertex 187.975 -81.775 3
vertex 187.85023992322456 -114.275 3
vertex 187.48459692898268 -209.525 3
endloop
endfacet
facet normal 0 0 1
outer loop
vertex 187.975 -81.775 3
vertex 187.48459692898268 -209.525 3
vertex 187.475 -212.025 3
endloop
endfacet
facet normal 0 0 1
outer loop
vertex 187.975 -81.775 3
vertex 187.475 -212.025 3
vertex 187.475 -212.025 0
endloop
endfacet
facet normal 0 0 1
outer loop
vertex 187.975 -81.775 3
vertex 187.475 -212.025 0
vertex 187.975 -81.775 0
endloop
endfacet
facet normal 0 3.535038486368714e-16 -1
outer loop
vertex 269.17499999999524 -81.77500000000008 3.0000000000000018
vertex 269.2135796545105 -86.8 3
vertex 265.675 -86.8 3
endloop
endfacet
facet normal 0 3.535038486368714e-16 -1
outer loop
vertex 269.17499999999524 -81.77500000000008 3.0000000000000018
vertex 265.675 -86.8 3
vertex 191.475 -86.8 3
endloop
endfacet
facet normal 0 3.535038486368714e-16 -1
outer loop
vertex 269.17499999999524 -81.77500000000008 3.0000000000000018
vertex 191.475 -86.8 3
vertex 187.95571017274472 -86.8 3
endloop
endfacet
facet normal 0 3.535038486368714e-16 -1
outer loop
vertex 269.17499999999524 -81.77500000000008 3.0000000000000018
vertex 187.95571017274472 -86.8 3
vertex 187.975 -81.775 3
endloop
endfacet
facet normal 0 0 -1
outer loop
vertex 191.475 -86.8 3
vertex 191.475 -112.8 3
vertex 187.85590211132438 -112.8 3
endloop
endfacet
facet normal 0 0 -1
outer loop
vertex 191.475 -86.8 3
vertex 187.85590211132438 -112.8 3
vertex 187.95571017274472 -86.8 3
endloop
endfacet
facet normal 0 0 -1
outer loop
vertex 269.2135796545105 -86.8 3
vertex 269.41319577735123 -112.8 3
vertex 265.675 -112.8 3
endloop
endfacet
facet normal 0 0 -1
outer loop
vertex 269.2135796545105 -86.8 3
vertex 265.675 -112.8 3
vertex 265.675 -86.8 3
endloop
endfacet
facet normal 0 0 -1
outer loop
vertex 191.475 -112.8 3
vertex 265.675 -112.8 3
vertex 269.41319577735123 -112.8 3
endloop
endfacet
facet normal 0 0 -1
outer loop
vertex 191.475 -112.8 3
vertex 269.41319577735123 -112.8 3
vertex 269.4245201535508 -114.275 3
endloop
endfacet
facet normal 0 0 -1
outer loop
vertex 191.475 -112.8 3
vertex 269.4245201535508 -114.275 3
vertex 266.675 -114.275 3
endloop
endfacet
facet normal 0 0 -1
outer loop
vertex 191.475 -112.8 3
vertex 266.675 -114.275 3
vertex 190.475 -114.275 3
endloop
endfacet
facet normal 0 0 -1
outer loop
vertex 191.475 -112.8 3
vertex 190.475 -114.275 3
vertex 187.85023992322456 -114.275 3
endloop
endfacet
facet normal 0 0 -1
outer loop
vertex 191.475 -112.8 3
vertex 187.85023992322456 -114.275 3
vertex 187.85590211132438 -112.8 3
endloop
endfacet
facet normal 0 0 -1
outer loop
vertex 190.475 -114.275 3
vertex 190.475 -209.525 3
vertex 187.48459692898268 -209.525 3
endloop
endfacet
facet normal 0 0 -1
outer loop
vertex 190.475 -114.275 3
vertex 187.48459692898268 -209.525 3
vertex 187.85023992322456 -114.275 3
endloop
endfacet
facet normal 0 0 -1
outer loop
vertex 269.4245201535508 -114.275 3
vertex 270.1558061420346 -209.525 3
vertex 266.675 -209.525 3
endloop
endfacet
facet normal 0 0 -1
outer loop
vertex 269.4245201535508 -114.275 3
vertex 266.675 -209.525 3
vertex 266.675 -114.275 3
endloop
endfacet
facet normal 0 0 -1
outer loop
vertex 190.475 -209.525 3
vertex 266.675 -209.525 3
vertex 270.1558061420346 -209.525 3
endloop
endfacet
facet normal 0 0 -1
outer loop
vertex 190.475 -209.525 3
vertex 270.1558061420346 -209.525 3
vertex 270.175 -212.025 3
endloop
endfacet
facet normal 0 0 -1
outer loop
vertex 190.475 -209.525 3
vertex 270.175 -212.025 3
vertex 187.475 -212.025 3
endloop
endfacet
facet normal 0 0 -1
outer loop
vertex 190.475 -209.525 3
vertex 187.475 -212.025 3
vertex 187.48459692898268 -209.525 3
endloop
endfacet
facet normal 0 1 0
outer loop
vertex 266.675 -209.525 5
vertex 266.675 -209.525 3
vertex 190.475 -209.525 3
endloop
endfacet
facet normal 0 1 0
outer loop
vertex 266.675 -209.525 5
vertex 190.475 -209.525 3
vertex 190.475 -209.525 5
endloop
endfacet
facet normal -1 0 0
outer loop
vertex 266.675 -114.275 5
vertex 266.675 -114.275 3
vertex 266.675 -209.525 3
endloop
endfacet
facet normal -1 0 0
outer loop
vertex 266.675 -114.275 5
vertex 266.675 -209.525 3
vertex 266.675 -209.525 5
endloop
endfacet
facet normal 0 -1 0
outer loop
vertex 266.675 -114.275 3
vertex 266.675 -114.275 5
vertex 190.475 -114.275 5
endloop
endfacet
facet normal 0 -1 0
outer loop
vertex 266.675 -114.275 3
vertex 190.475 -114.275 5
vertex 190.475 -114.275 3
endloop
endfacet
facet normal 1 0 0
outer loop
vertex 190.475 -114.275 3
vertex 190.475 -114.275 5
vertex 190.475 -209.525 5
endloop
endfacet
facet normal 1 0 0
outer loop
vertex 190.475 -114.275 3
vertex 190.475 -209.525 5
vertex 190.475 -209.525 3
endloop
endfacet
facet normal 0 1 0
outer loop
vertex 265.675 -112.8 5
vertex 265.675 -112.8 3
vertex 191.475 -112.8 3
endloop
endfacet
facet normal 0 1 0
outer loop
vertex 265.675 -112.8 5
vertex 191.475 -112.8 3
vertex 191.475 -112.8 5
endloop
endfacet
facet normal -1 0 0
outer loop
vertex 265.675 -86.8 5
vertex 265.675 -86.8 3
vertex 265.675 -112.8 3
endloop
endfacet
facet normal -1 0 0
outer loop
vertex 265.675 -86.8 5
vertex 265.675 -112.8 3
vertex 265.675 -112.8 5
endloop
endfacet
facet normal 0 -1 0
outer loop
vertex 265.675 -86.8 3
vertex 265.675 -86.8 5
vertex 191.475 -86.8 5
endloop
endfacet
facet normal 0 -1 0
outer loop
vertex 265.675 -86.8 3
vertex 191.475 -86.8 5
vertex 191.475 -86.8 3
endloop
endfacet
facet normal 1 0 0
outer loop
vertex 191.475 -86.8 3
vertex 191.475 -86.8 5
vertex 191.475 -112.8 5
endloop
endfacet
facet normal 1 0 0
outer loop
vertex 191.475 -86.8 3
vertex 191.475 -112.8 5
vertex 191.475 -112.8 3
endloop
endfacet
facet normal 0 0 -1
outer loop
vertex 269.1750000000002 -76.77499999999907 0
vertex 270.0390421237448 -76.85022904818747 0
vertex 270.8770810710875 -77.07363346034398 0
endloop
endfacet
facet normal 0 0 -1
outer loop
vertex 269.1750000000002 -76.77499999999907 0
vertex 270.8770810710875 -77.07363346034398 0
vertex 271.66390629569287 -77.43849627642983 0
endloop
endfacet
facet normal 0 0 -1
outer loop
vertex 269.1750000000002 -76.77499999999907 0
vertex 271.66390629569287 -77.43849627642983 0
vertex 272.3758432082227 -77.9338392295571 0
endloop
endfacet
facet normal 0 0 -1
outer loop
vertex 269.1750000000002 -76.77499999999907 0
vertex 272.3758432082227 -77.9338392295571 0
vertex 272.9914705152429 -78.54475806826329 0
endloop
endfacet
facet normal 0 0 -1
outer loop
vertex 269.1750000000002 -76.77499999999907 0
vertex 272.9914705152429 -78.54475806826329 0
vertex 273.4922647591771 -79.25287100691011 0
endloop
endfacet
facet normal 0 0 -1
outer loop
vertex 269.1750000000002 -76.77499999999907 0
vertex 273.4922647591771 -79.25287100691011 0
vertex 273.863157666033 -80.03687181065966 0
endloop
endfacet
facet normal 0 0 -1
outer loop
vertex 269.1750000000002 -76.77499999999907 0
vertex 273.863157666033 -80.03687181065966 0
vertex 274.09298953099744 -80.87317087348536 0
endloop
endfacet
facet normal 0 0 -1
outer loop
vertex 269.1750000000002 -76.77499999999907 0
vertex 274.09298953099744 -80.87317087348536 0
vertex 274.17484500000415 -81.73660499999997 0
endloop
endfacet
facet normal 0 0 -1
outer loop
vertex 269.1750000000002 -76.77499999999907 0
vertex 274.17484500000415 -81.73660499999997 0
vertex 274.17513978149606 -81.775 0
endloop
endfacet
facet normal 0 0 -1
outer loop
vertex 269.1750000000002 -76.77499999999907 0
vertex 274.17513978149606 -81.775 0
vertex 269.17499999999524 -81.77500000000008 0
endloop
endfacet
facet normal 0 0 -1
outer loop
vertex 269.1750000000002 -76.77499999999907 0
vertex 269.17499999999524 -81.77500000000008 0
vertex 187.975 -81.775 0
endloop
endfacet
facet normal 0 0 -1
outer loop
vertex 269.1750000000002 -76.77499999999907 0
vertex 187.975 -81.775 0
vertex 182.97496312024117 -81.775 0
endloop
endfacet
facet normal 0 0 -1
outer loop
vertex 269.1750000000002 -76.77499999999907 0
vertex 182.97496312024117 -81.775 0
vertex 182.97503680000068 -81.75580630000007 0
endloop
endfacet
facet normal 0 0 -1
outer loop
vertex 269.1750000000002 -76.77499999999907 0
vertex 182.97503680000068 -81.75580630000007 0
vertex 183.05395499093981 -80.88996026816169 0
endloop
endfacet
facet normal 0 0 -1
outer loop
vertex 269.1750000000002 -76.77499999999907 0
vertex 183.05395499093981 -80.88996026816169 0
vertex 183.28166665305633 -80.05087795796103 0
endloop
endfacet
facet normal 0 0 -1
outer loop
vertex 269.1750000000002 -76.77499999999907 0
vertex 183.28166665305633 -80.05087795796103 0
vertex 183.65128818974233 -79.26392710563704 0
endloop
endfacet
facet normal 0 0 -1
outer loop
vertex 269.1750000000002 -76.77499999999907 0
vertex 183.65128818974233 -79.26392710563704 0
vertex 184.15164355087146 -78.55290232621999 0
endloop
endfacet
facet normal 0 0 -1
outer loop
vertex 269.1750000000002 -76.77499999999907 0
vertex 184.15164355087146 -78.55290232621999 0
vertex 184.76760375709262 -77.9393024983948 0
endloop
endfacet
facet normal 0 0 -1
outer loop
vertex 269.1750000000002 -76.77499999999907 0
vertex 184.76760375709262 -77.9393024983948 0
vertex 185.48054434673782 -77.44168071431402 0
endloop
endfacet
facet normal 0 0 -1
outer loop
vertex 269.1750000000002 -76.77499999999907 0
vertex 185.48054434673782 -77.44168071431402 0
vertex 186.2689085137905 -77.07508329961728 0
endloop
endfacet
facet normal 0 0 -1
outer loop
vertex 269.1750000000002 -76.77499999999907 0
vertex 186.2689085137905 -77.07508329961728 0
vertex 187.10885890957152 -76.85059486565582 0
endloop
endfacet
facet normal 0 0 -1
outer loop
vertex 269.1750000000002 -76.77499999999907 0
vertex 187.10885890957152 -76.85059486565582 0
vertex 187.9749984 -76.77500314999965 0
endloop
endfacet
facet normal 0 0 -1
outer loop
vertex 269.1750000000002 -76.77499999999907 0
vertex 187.9749984 -76.77500314999965 0
vertex 265.675 -76.77500000106278 0
endloop
endfacet
facet normal 0 0 -1
outer loop
vertex 187.975 -81.775 0
vertex 187.475 -212.025 0
vertex 182.47648024131172 -212.025 0
endloop
endfacet
facet normal 0 0 -1
outer loop
vertex 187.975 -81.775 0
vertex 182.47648024131172 -212.025 0
vertex 182.47503999999907 -212.00580500000007 0
endloop
endfacet
facet normal 0 0 -1
outer loop
vertex 187.975 -81.775 0
vertex 182.47503999999907 -212.00580500000007 0
vertex 182.97496312024117 -81.775 0
endloop
endfacet
facet normal 0 0 -1
outer loop
vertex 274.17513978149606 -81.775 0
vertex 275.17485260000115 -211.98661340000015 0
vertex 275.1721132011353 -212.025 0
endloop
endfacet
facet normal 0 0 -1
outer loop
vertex 274.17513978149606 -81.775 0
vertex 275.1721132011353 -212.025 0
vertex 270.175 -212.025 0
endloop
endfacet
facet normal 0 0 -1
outer loop
vertex 274.17513978149606 -81.775 0
vertex 270.175 -212.025 0
vertex 269.17499999999524 -81.77500000000008 0
endloop
endfacet
facet normal 0 0 -1
outer loop
vertex 187.475 -212.025 0
vertex 270.175 -212.025 0
vertex 275.1721132011353 -212.025 0
endloop
endfacet
facet normal 0 0 -1
outer loop
vertex 187.475 -212.025 0
vertex 275.1721132011353 -212.025 0
vertex 275.11873091982375 -212.77303428785712 0
endloop
endfacet
facet normal 0 0 -1
outer loop
vertex 187.475 -212.025 0
vertex 275.11873091982375 -212.77303428785712 0
vertex 274.93968417355427 -213.54085258891607 0
endloop
endfacet
facet normal 0 0 -1
outer loop
vertex 187.475 -212.025 0
vertex 274.93968417355427 -213.54085258891607 0
vertex 274.64216789869255 -214.27098048660415 0
endloop
endfacet
facet normal 0 0 -1
outer loop
vertex 187.475 -212.025 0
vertex 274.64216789869255 -214.27098048660415 0
vertex 274.233579571805 -214.9452640025835 0
endloop
endfacet
facet normal 0 0 -1
outer loop
vertex 187.475 -212.025 0
vertex 274.233579571805 -214.9452640025835 0
vertex 273.7240783768604 -215.54693767920568 0
endloop
endfacet
facet normal 0 0 -1
outer loop
vertex 187.475 -212.025 0
vertex 273.7240783768604 -215.54693767920568 0
vertex 273.12633260620777 -216.061041437661 0
endloop
endfacet
facet normal 0 0 -1
outer loop
vertex 187.475 -212.025 0
vertex 273.12633260620777 -216.061041437661 0
vertex 272.4552046747779 -216.47479254695685 0
endloop
endfacet
facet normal 0 0 -1
outer loop
vertex 187.475 -212.025 0
vertex 272.4552046747779 -216.47479254695685 0
vertex 271.72738157943695 -216.7779034551729 0
endloop
endfacet
facet normal 0 0 -1
outer loop
vertex 187.475 -212.025 0
vertex 271.72738157943695 -216.7779034551729 0
vertex 270.9609599916612 -216.96283758014903 0
endloop
endfacet
facet normal 0 0 -1
outer loop
vertex 187.475 -212.025 0
vertex 270.9609599916612 -216.96283758014903 0
vertex 270.1749963000002 -217.0249967000045 0
endloop
endfacet
facet normal 0 0 -1
outer loop
vertex 187.475 -212.025 0
vertex 270.1749963000002 -217.0249967000045 0
vertex 187.4750000000001 -217.02499999999904 0
endloop
endfacet
facet normal 0 0 -1
outer loop
vertex 187.475 -212.025 0
vertex 187.4750000000001 -217.02499999999904 0
vertex 186.69093171474216 -216.96314554139798 0
endloop
endfacet
facet normal 0 0 -1
outer loop
vertex 187.475 -212.025 0
vertex 186.69093171474216 -216.96314554139798 0
vertex 185.92626416870445 -216.7790987739639 0
endloop
endfacet
facet normal 0 0 -1
outer loop
vertex 187.475 -212.025 0
vertex 185.92626416870445 -216.7790987739639 0
vertex 185.1999179796477 -216.4774186748412 0
endloop
endfacet
facet normal 0 0 -1
outer loop
vertex 187.475 -212.025 0
vertex 185.1999179796477 -216.4774186748412 0
vertex 184.52986555749007 -216.0655698917578 0
endloop
endfacet
facet normal 0 0 -1
outer loop
vertex 187.475 -212.025 0
vertex 184.52986555749007 -216.0655698917578 0
vertex 183.93268640248408 -215.5537430407709 0
endloop
endfacet
facet normal 0 0 -1
outer loop
vertex 187.475 -212.025 0
vertex 183.93268640248408 -215.5537430407709 0
vertex 183.42315686882995 -214.95460255399007 0
endloop
endfacet
facet normal 0 0 -1
outer loop
vertex 187.475 -212.025 0
vertex 183.42315686882995 -214.95460255399007 0
vertex 183.01388454476154 -214.28297331600518 0
endloop
endfacet
facet normal 0 0 -1
outer loop
vertex 187.475 -212.025 0
vertex 183.01388454476154 -214.28297331600518 0
vertex 182.71499629551207 -213.5554738431352 0
endloop
endfacet
facet normal 0 0 -1
outer loop
vertex 187.475 -212.025 0
vertex 182.71499629551207 -213.5554738431352 0
vertex 182.53388768841563 -212.79010508168665 0
endloop
endfacet
facet normal 0 0 -1
outer loop
vertex 187.475 -212.025 0
vertex 182.53388768841563 -212.79010508168665 0
vertex 182.47648024131172 -212.025 0
endloop
endfacet
endsolid csg.js
