solid xsection
facet normal 0 0 -1
outer loop
vertex 182.53388768841575 -212.79010508168665 -25
vertex 182.47648024131172 -212.025 -25
vertex 182.47503999999918 -212.00580500000007 -25
endloop
endfacet
facet normal 0 0 -1
outer loop
vertex 182.53388768841575 -212.79010508168665 -25
vertex 182.47503999999918 -212.00580500000007 -25
vertex 182.47503999999918 -212.00580500000007 -43.456799104439014
endloop
endfacet
facet normal 0 0 -1
outer loop
vertex 182.53388768841575 -212.79010508168665 -25
vertex 182.47503999999918 -212.00580500000007 -43.456799104439014
vertex 182.53388768841575 -212.79010508168665 -43.38818173849429
endloop
endfacet
facet normal -0.9971969214639149 -0.07482178708698933 0
outer loop
vertex 182.53388768841575 -212.79010508168665 5
vertex 182.47503999999918 -212.00580500000007 5
vertex 182.47503999999918 -212.00580500000007 0
endloop
endfacet
facet normal -0.9971969214639149 -0.07482178708698933 0
outer loop
vertex 182.53388768841575 -212.79010508168665 5
vertex 182.47503999999918 -212.00580500000007 0
vertex 182.53388768841575 -212.79010508168665 0
endloop
endfacet
facet normal -0.9731267285602531 -0.23027021119028754 0
outer loop
vertex 182.7149962955121 -213.55547384313522 -25
vertex 182.53388768841575 -212.79010508168665 -25
vertex 182.53388768841575 -212.79010508168665 -43.38818173849429
endloop
endfacet
facet normal -0.9731267285602531 -0.23027021119028754 0
outer loop
vertex 182.7149962955121 -213.55547384313522 -25
vertex 182.53388768841575 -212.79010508168665 -43.38818173849429
vertex 182.7149962955121 -213.55547384313522 -43.321220648451515
endloop
endfacet
facet normal -0.9731267285602531 -0.23027021119028754 0
outer loop
vertex 182.7149962955121 -213.55547384313522 5
vertex 182.53388768841575 -212.79010508168665 5
vertex 182.53388768841575 -212.79010508168665 0
endloop
endfacet
facet normal -0.9731267285602531 -0.23027021119028754 0
outer loop
vertex 182.7149962955121 -213.55547384313522 5
vertex 182.53388768841575 -212.79010508168665 0
vertex 182.7149962955121 -213.55547384313522 0
endloop
endfacet
facet normal -0.9249778900368827 -0.38002092434880025 0
outer loop
vertex 183.01388454476927 -214.282973316002 -25
vertex 182.7149962955121 -213.55547384313522 -25
vertex 182.7149962955121 -213.55547384313522 -43.321220648451515
endloop
endfacet
facet normal -0.9249778900368827 -0.38002092434880025 0
outer loop
vertex 183.01388454476927 -214.282973316002 -25
vertex 182.7149962955121 -213.55547384313522 -43.321220648451515
vertex 183.01388454476927 -214.282973316002 -43.25757269184817
endloop
endfacet
facet normal -0.9249778900368827 -0.38002092434880025 0
outer loop
vertex 183.01388454476927 -214.282973316002 5
vertex 182.7149962955121 -213.55547384313522 5
vertex 182.7149962955121 -213.55547384313522 0
endloop
endfacet
facet normal -0.9249778900368827 -0.38002092434880025 0
outer loop
vertex 183.01388454476927 -214.282973316002 5
vertex 182.7149962955121 -213.55547384313522 0
vertex 183.01388454476927 -214.282973316002 0
endloop
endfacet
facet normal -0.8539417808564123 -0.5203685568015993 0
outer loop
vertex 183.42315686882998 -214.95460255399013 -25
vertex 183.01388454476927 -214.282973316002 -25
vertex 183.01388454476927 -214.282973316002 -43.25757269184817
endloop
endfacet
facet normal -0.8539417808564123 -0.5203685568015993 0
outer loop
vertex 183.42315686882998 -214.95460255399013 -25
vertex 183.01388454476927 -214.282973316002 -43.25757269184817
vertex 183.42315686882998 -214.95460255399013 -43.19881274743843
endloop
endfacet
facet normal -0.8539417808564123 -0.5203685568015993 0
outer loop
vertex 183.42315686882998 -214.95460255399013 5
vertex 183.01388454476927 -214.282973316002 5
vertex 183.01388454476927 -214.282973316002 0
endloop
endfacet
facet normal -0.8539417808564123 -0.5203685568015993 0
outer loop
vertex 183.42315686882998 -214.95460255399013 5
vertex 183.01388454476927 -214.282973316002 0
vertex 183.42315686882998 -214.95460255399013 0
endloop
endfacet
facet normal -0.7617760891481324 -0.6478404047311165 0
outer loop
vertex 183.93268640248039 -215.55374304077412 -25.000000000000014
vertex 183.42315686882998 -214.95460255399013 -25
vertex 183.42315686882998 -214.95460255399013 -43.19881274743843
endloop
endfacet
facet normal -0.7617760891481324 -0.6478404047311165 0
outer loop
vertex 183.93268640248039 -215.55374304077412 -25.000000000000014
vertex 183.42315686882998 -214.95460255399013 -43.19881274743843
vertex 183.93268640248039 -215.55374304077412 -43.14639474697934
endloop
endfacet
facet normal -0.7617760891481324 -0.6478404047311165 0
outer loop
vertex 183.93268640248039 -215.55374304077412 5.000000000000002
vertex 183.42315686882998 -214.95460255399013 5
vertex 183.42315686882998 -214.95460255399013 0
endloop
endfacet
facet normal -0.7617760891481324 -0.6478404047311165 0
outer loop
vertex 183.93268640248039 -215.55374304077412 5.000000000000002
vertex 183.42315686882998 -214.95460255399013 0
vertex 183.93268640248039 -215.55374304077412 0
endloop
endfacet
facet normal -0.6507613246996357 -0.7592823574107169 0
outer loop
vertex 184.52986555748492 -216.06556989176374 -25
vertex 183.93268640248039 -215.55374304077412 -25.000000000000014
vertex 183.93268640248039 -215.55374304077412 -43.14639474697934
endloop
endfacet
facet normal -0.6507613246996357 -0.7592823574107169 0
outer loop
vertex 184.52986555748492 -216.06556989176374 -25
vertex 183.93268640248039 -215.55374304077412 -43.14639474697934
vertex 184.52986555748492 -216.06556989176374 -43.10161569983668
endloop
endfacet
facet normal -0.6507613246996357 -0.7592823574107169 0
outer loop
vertex 184.52986555748492 -216.06556989176374 5.000000000000002
vertex 183.93268640248039 -215.55374304077412 5.000000000000002
vertex 183.93268640248039 -215.55374304077412 0
endloop
endfacet
facet normal -0.6507613246996357 -0.7592823574107169 0
outer loop
vertex 184.52986555748492 -216.06556989176374 5.000000000000002
vertex 183.93268640248039 -215.55374304077412 0
vertex 184.52986555748492 -216.06556989176374 0
endloop
endfacet
facet normal -0.5236443909646074 -0.8519369412176616 0
outer loop
vertex 185.1999179796478 -216.477418674841 -25
vertex 184.52986555748492 -216.06556989176374 -25
vertex 184.52986555748492 -216.06556989176374 -43.10161569983668
endloop
endfacet
facet normal -0.5236443909646074 -0.8519369412176616 0
outer loop
vertex 185.1999179796478 -216.477418674841 -25
vertex 184.52986555748492 -216.06556989176374 -43.10161569983668
vertex 185.1999179796478 -216.477418674841 -43.06558360022454
endloop
endfacet
facet normal -0.5236443909646074 -0.8519369412176616 0
outer loop
vertex 185.1999179796478 -216.477418674841 5
vertex 184.52986555748492 -216.06556989176374 5.000000000000002
vertex 184.52986555748492 -216.06556989176374 0
endloop
endfacet
facet normal -0.5236443909646074 -0.8519369412176616 0
outer loop
vertex 185.1999179796478 -216.477418674841 5
vertex 184.52986555748492 -216.06556989176374 0
vertex 185.1999179796478 -216.477418674841 0
endloop
endfacet
facet normal -0.38357061681948396 -0.9235115494203203 0
outer loop
vertex 185.92626416870556 -216.77909877396127 -25.000000000000014
vertex 185.1999179796478 -216.477418674841 -25
vertex 185.1999179796478 -216.477418674841 -43.06558360022454
endloop
endfacet
facet normal -0.38357061681948396 -0.9235115494203203 0
outer loop
vertex 185.92626416870556 -216.77909877396127 -25.000000000000014
vertex 185.1999179796478 -216.477418674841 -43.06558360022454
vertex 185.92626416870556 -216.77909877396127 -43.039190011542644
endloop
endfacet
facet normal -0.38357061681948396 -0.9235115494203203 0
outer loop
vertex 185.92626416870556 -216.77909877396127 5.000000000000002
vertex 185.1999179796478 -216.477418674841 5
vertex 185.1999179796478 -216.477418674841 0
endloop
endfacet
facet normal -0.38357061681948396 -0.9235115494203203 0
outer loop
vertex 185.92626416870556 -216.77909877396127 5.000000000000002
vertex 185.1999179796478 -216.477418674841 0
vertex 185.92626416870556 -216.77909877396127 0
endloop
endfacet
facet normal -0.23400592984523866 -0.9722351694920655 0
outer loop
vertex 186.69093171474256 -216.96314554139616 -25
vertex 185.92626416870556 -216.77909877396127 -25.000000000000014
vertex 185.92626416870556 -216.77909877396127 -43.039190011542644
endloop
endfacet
facet normal -0.23400592984523866 -0.9722351694920655 0
outer loop
vertex 186.69093171474256 -216.96314554139616 -25
vertex 185.92626416870556 -216.77909877396127 -43.039190011542644
vertex 186.69093171474256 -216.96314554139616 -43.02308800583331
endloop
endfacet
facet normal -0.23400592984523866 -0.9722351694920655 0
outer loop
vertex 186.69093171474256 -216.96314554139616 5.000000000000002
vertex 185.92626416870556 -216.77909877396127 5.000000000000002
vertex 185.92626416870556 -216.77909877396127 0
endloop
endfacet
facet normal -0.23400592984523866 -0.9722351694920655 0
outer loop
vertex 186.69093171474256 -216.96314554139616 5.000000000000002
vertex 185.92626416870556 -216.77909877396127 0
vertex 186.69093171474256 -216.96314554139616 0
endloop
endfacet
facet normal -0.07864477892763942 -0.9969027027485795 0
outer loop
vertex 187.47500000000014 -217.02499999999907 -25
vertex 186.69093171474256 -216.96314554139616 -25
vertex 186.69093171474256 -216.96314554139616 -43.02308800583331
endloop
endfacet
facet normal -0.07864477892763942 -0.9969027027485795 0
outer loop
vertex 187.47500000000014 -217.02499999999907 -25
vertex 186.69093171474256 -216.96314554139616 -43.02308800583331
vertex 187.47500000000014 -217.02499999999907 -43.01767644191676
endloop
endfacet
facet normal -0.07864477892763942 -0.9969027027485795 0
outer loop
vertex 187.47500000000014 -217.02499999999907 5
vertex 186.69093171474256 -216.96314554139616 5.000000000000002
vertex 186.69093171474256 -216.96314554139616 0
endloop
endfacet
facet normal -0.07864477892763942 -0.9969027027485795 0
outer loop
vertex 187.47500000000014 -217.02499999999907 5
vertex 186.69093171474256 -216.96314554139616 0
vertex 187.47500000000014 -217.02499999999907 0
endloop
endfacet
facet normal -0.08694380879498462 0.996213217194101 0
outer loop
vertex 187.10885890957155 -76.85059486565633 -25.000000000000014
vertex 187.9749984000002 -76.77500315000161 -25
vertex 187.9749984000002 -76.77500315000161 -55
endloop
endfacet
facet normal -0.08694380879498462 0.996213217194101 0
outer loop
vertex 187.10885890957155 -76.85059486565633 -25.000000000000014
vertex 187.9749984000002 -76.77500315000161 -55
vertex 187.10885890957155 -76.85059486565633 -55
endloop
endfacet
facet normal -0.08694380879498462 0.996213217194101 0
outer loop
vertex 187.10885890957155 -76.85059486565633 5.000000000000002
vertex 187.9749984000002 -76.77500315000161 5
vertex 187.9749984000002 -76.77500315000161 0
endloop
endfacet
facet normal -0.08694380879498462 0.996213217194101 0
outer loop
vertex 187.10885890957155 -76.85059486565633 5.000000000000002
vertex 187.9749984000002 -76.77500315000161 0
vertex 187.10885890957155 -76.85059486565633 0
endloop
endfacet
facet normal -0.2582013030120299 0.9660911381039006 0
outer loop
vertex 186.2689085137905 -77.07508329961729 -25
vertex 187.10885890957155 -76.85059486565633 -25.000000000000014
vertex 187.10885890957155 -76.85059486565633 -55
endloop
endfacet
facet normal -0.2582013030120299 0.9660911381039006 0
outer loop
vertex 186.2689085137905 -77.07508329961729 -25
vertex 187.10885890957155 -76.85059486565633 -55
vertex 186.2689085137905 -77.07508329961729 -55
endloop
endfacet
facet normal -0.2582013030120299 0.9660911381039006 0
outer loop
vertex 186.2689085137905 -77.07508329961729 5
vertex 187.10885890957155 -76.85059486565633 5.000000000000002
vertex 187.10885890957155 -76.85059486565633 0
endloop
endfacet
facet normal -0.2582013030120299 0.9660911381039006 0
outer loop
vertex 186.2689085137905 -77.07508329961729 5
vertex 187.10885890957155 -76.85059486565633 0
vertex 186.2689085137905 -77.07508329961729 0
endloop
endfacet
facet normal -0.42165170154146037 0.90675787429015 0
outer loop
vertex 185.48054434673725 -77.44168071431272 -25.000000000000014
vertex 186.2689085137905 -77.07508329961729 -25
vertex 186.2689085137905 -77.07508329961729 -55
endloop
endfacet
facet normal -0.42165170154146037 0.90675787429015 0
outer loop
vertex 185.48054434673725 -77.44168071431272 -25.000000000000014
vertex 186.2689085137905 -77.07508329961729 -55
vertex 185.48054434673725 -77.44168071431272 -55.00000000000003
endloop
endfacet
facet normal -0.42165170154146037 0.90675787429015 0
outer loop
vertex 185.48054434673725 -77.44168071431272 5.000000000000002
vertex 186.2689085137905 -77.07508329961729 5
vertex 186.2689085137905 -77.07508329961729 0
endloop
endfacet
facet normal -0.42165170154146037 0.90675787429015 0
outer loop
vertex 185.48054434673725 -77.44168071431272 5.000000000000002
vertex 186.2689085137905 -77.07508329961729 0
vertex 185.48054434673725 -77.44168071431272 0
endloop
endfacet
facet normal -0.572352841479302 0.8200074541432957 0
outer loop
vertex 184.76760375709262 -77.9393024983948 -25.00000000000003
vertex 185.48054434673725 -77.44168071431272 -25.000000000000014
vertex 185.48054434673725 -77.44168071431272 -55.00000000000003
endloop
endfacet
facet normal -0.572352841479302 0.8200074541432957 0
outer loop
vertex 184.76760375709262 -77.9393024983948 -25.00000000000003
vertex 185.48054434673725 -77.44168071431272 -55.00000000000003
vertex 184.76760375709262 -77.9393024983948 -55.00000000000003
endloop
endfacet
facet normal -0.572352841479302 0.8200074541432957 0
outer loop
vertex 184.76760375709262 -77.9393024983948 5.0000000000000036
vertex 185.48054434673725 -77.44168071431272 5.000000000000002
vertex 185.48054434673725 -77.44168071431272 0
endloop
endfacet
facet normal -0.572352841479302 0.8200074541432957 0
outer loop
vertex 184.76760375709262 -77.9393024983948 5.0000000000000036
vertex 185.48054434673725 -77.44168071431272 0
vertex 184.76760375709262 -77.9393024983948 0
endloop
endfacet
facet normal -0.7057480524834748 0.7084629040505807 0
outer loop
vertex 184.15164355087146 -78.55290232621998 -25.000000000000014
vertex 184.76760375709262 -77.9393024983948 -25.00000000000003
vertex 184.76760375709262 -77.9393024983948 -55.00000000000003
endloop
endfacet
facet normal -0.7057480524834748 0.7084629040505807 0
outer loop
vertex 184.15164355087146 -78.55290232621998 -25.000000000000014
vertex 184.76760375709262 -77.9393024983948 -55.00000000000003
vertex 184.15164355087146 -78.55290232621998 -55
endloop
endfacet
facet normal -0.7057480524834748 0.7084629040505807 0
outer loop
vertex 184.15164355087146 -78.55290232621998 5
vertex 184.76760375709262 -77.9393024983948 5.0000000000000036
vertex 184.76760375709262 -77.9393024983948 0
endloop
endfacet
facet normal -0.7057480524834748 0.7084629040505807 0
outer loop
vertex 184.15164355087146 -78.55290232621998 5
vertex 184.76760375709262 -77.9393024983948 0
vertex 184.15164355087146 -78.55290232621998 0
endloop
endfacet
facet normal -0.8178039343950845 0.5754969373401745 0
outer loop
vertex 183.65128818974227 -79.263927105637 -25.00000000000003
vertex 184.15164355087146 -78.55290232621998 -25.000000000000014
vertex 184.15164355087146 -78.55290232621998 -55
endloop
endfacet
facet normal -0.8178039343950845 0.5754969373401745 0
outer loop
vertex 183.65128818974227 -79.263927105637 -25.00000000000003
vertex 184.15164355087146 -78.55290232621998 -55
vertex 183.65128818974227 -79.263927105637 -55.00000000000003
endloop
endfacet
facet normal -0.8178039343950845 0.5754969373401745 0
outer loop
vertex 183.65128818974227 -79.263927105637 5.000000000000002
vertex 184.15164355087146 -78.55290232621998 5
vertex 184.15164355087146 -78.55290232621998 0
endloop
endfacet
facet normal -0.8178039343950845 0.5754969373401745 0
outer loop
vertex 183.65128818974227 -79.263927105637 5.000000000000002
vertex 184.15164355087146 -78.55290232621998 0
vertex 183.65128818974227 -79.263927105637 0
endloop
endfacet
facet normal -0.9051323130173434 0.42512997533915886 0
outer loop
vertex 183.28166665305628 -80.050877957961 -25
vertex 183.65128818974227 -79.263927105637 -25.00000000000003
vertex 183.65128818974227 -79.263927105637 -55.00000000000003
endloop
endfacet
facet normal -0.9051323130173434 0.42512997533915886 0
outer loop
vertex 183.28166665305628 -80.050877957961 -25
vertex 183.65128818974227 -79.263927105637 -55.00000000000003
vertex 183.28166665305628 -80.050877957961 -55
endloop
endfacet
facet normal -0.9051323130173434 0.42512997533915886 0
outer loop
vertex 183.28166665305628 -80.050877957961 5
vertex 183.65128818974227 -79.263927105637 5.000000000000002
vertex 183.65128818974227 -79.263927105637 0
endloop
endfacet
facet normal -0.9051323130173434 0.42512997533915886 0
outer loop
vertex 183.28166665305628 -80.050877957961 5
vertex 183.65128818974227 -79.263927105637 0
vertex 183.28166665305628 -80.050877957961 0
endloop
endfacet
facet normal -0.9650926865395185 0.26190858402873063 0
outer loop
vertex 183.0539549909397 -80.88996026816166 -25
vertex 183.28166665305628 -80.050877957961 -25
vertex 183.28166665305628 -80.050877957961 -55
endloop
endfacet
facet normal -0.9650926865395185 0.26190858402873063 0
outer loop
vertex 183.0539549909397 -80.88996026816166 -25
vertex 183.28166665305628 -80.050877957961 -55
vertex 183.27745017661783 -80.06641502250032 -55
endloop
endfacet
facet normal -0.9650926865395185 0.26190858402873063 0
outer loop
vertex 183.0539549909397 -80.88996026816166 -25
vertex 183.27745017661783 -80.06641502250032 -55
vertex 183.0539549909397 -80.88996026816166 -54.927949127104384
endloop
endfacet
facet normal -0.9650926865395185 0.26190858402873063 0
outer loop
vertex 183.0539549909397 -80.88996026816166 5
vertex 183.28166665305628 -80.050877957961 5
vertex 183.28166665305628 -80.050877957961 0
endloop
endfacet
facet normal -0.9650926865395185 0.26190858402873063 0
outer loop
vertex 183.0539549909397 -80.88996026816166 5
vertex 183.28166665305628 -80.050877957961 0
vertex 183.0539549909397 -80.88996026816166 0
endloop
endfacet
facet normal -0.9958719284877922 0.09076949955797897 0
outer loop
vertex 182.97503680000074 -81.75580630000009 -25.000000000000014
vertex 183.0539549909397 -80.88996026816166 -25
vertex 183.0539549909397 -80.88996026816166 -54.927949127104384
endloop
endfacet
facet normal -0.9958719284877922 0.09076949955797897 0
outer loop
vertex 182.97503680000074 -81.75580630000009 -25.000000000000014
vertex 183.0539549909397 -80.88996026816166 -54.927949127104384
vertex 182.97503680000074 -81.75580630000009 -54.8521974149595
endloop
endfacet
facet normal -0.9958719284877922 0.09076949955797897 0
outer loop
vertex 182.97503680000074 -81.75580630000009 5.0000000000000036
vertex 183.0539549909397 -80.88996026816166 5
vertex 183.0539549909397 -80.88996026816166 0
endloop
endfacet
facet normal -0.9958719284877922 0.09076949955797897 0
outer loop
vertex 182.97503680000074 -81.75580630000009 5.0000000000000036
vertex 183.0539549909397 -80.88996026816166 0
vertex 182.97503680000074 -81.75580630000009 0
endloop
endfacet
facet normal -0.23693359141134676 0.000909528128222049 -0.9715254222198743
outer loop
vertex 182.47503999999918 -212.00580500000007 -25
vertex 182.97496312024117 -81.775 -25
vertex 182.97503680000074 -81.75580630000009 -25.000000000000014
endloop
endfacet
facet normal -0.23693359141134676 0.000909528128222049 -0.9715254222198743
outer loop
vertex 182.47503999999918 -212.00580500000007 -25
vertex 182.97503680000074 -81.75580630000009 -25.000000000000014
vertex 182.97503680000074 -81.75580630000009 -54.8521974149595
endloop
endfacet
facet normal -0.23693359141134676 0.000909528128222049 -0.9715254222198743
outer loop
vertex 182.47503999999918 -212.00580500000007 -25
vertex 182.97503680000074 -81.75580630000009 -54.8521974149595
vertex 182.47503999999918 -212.00580500000007 -43.456799104439014
endloop
endfacet
facet normal 0 0 1
outer loop
vertex 182.47503999999918 -212.00580500000007 5
vertex 182.48456318290826 -209.525 5
vertex 182.85020384068437 -114.275 5
endloop
endfacet
facet normal 0 0 1
outer loop
vertex 182.47503999999918 -212.00580500000007 5
vertex 182.85020384068437 -114.275 5
vertex 182.8558659926027 -112.8 5
endloop
endfacet
facet normal 0 0 1
outer loop
vertex 182.47503999999918 -212.00580500000007 5
vertex 182.8558659926027 -112.8 5
vertex 182.9556734162476 -86.8 5
endloop
endfacet
facet normal 0 0 1
outer loop
vertex 182.47503999999918 -212.00580500000007 5
vertex 182.9556734162476 -86.8 5
vertex 182.97503680000074 -81.75580630000009 5.0000000000000036
endloop
endfacet
facet normal 0 0 1
outer loop
vertex 182.47503999999918 -212.00580500000007 5
vertex 182.97503680000074 -81.75580630000009 5.0000000000000036
vertex 182.97503680000074 -81.75580630000009 0
endloop
endfacet
facet normal 0 0 1
outer loop
vertex 182.47503999999918 -212.00580500000007 5
vertex 182.97503680000074 -81.75580630000009 0
vertex 182.95951216331147 -85.8 0
endloop
endfacet
facet normal 0 0 1
outer loop
vertex 182.47503999999918 -212.00580500000007 5
vertex 182.95951216331147 -85.8 0
vertex 182.95183466918493 -87.8 0
endloop
endfacet
facet normal 0 0 1
outer loop
vertex 182.47503999999918 -212.00580500000007 5
vertex 182.95183466918493 -87.8 0
vertex 182.85970473966626 -111.8 0
endloop
endfacet
facet normal 0 0 1
outer loop
vertex 182.47503999999918 -212.00580500000007 5
vertex 182.85970473966626 -111.8 0
vertex 182.8520272455397 -113.8 0
endloop
endfacet
facet normal 0 0 1
outer loop
vertex 182.47503999999918 -212.00580500000007 5
vertex 182.8520272455397 -113.8 0
vertex 182.84051100434985 -116.8 0
endloop
endfacet
facet normal 0 0 1
outer loop
vertex 182.47503999999918 -212.00580500000007 5
vertex 182.84051100434985 -116.8 0
vertex 182.78676854546396 -130.8 0
endloop
endfacet
facet normal 0 0 1
outer loop
vertex 182.47503999999918 -212.00580500000007 5
vertex 182.78676854546396 -130.8 0
vertex 182.7673828727944 -135.85 0
endloop
endfacet
facet normal 0 0 1
outer loop
vertex 182.47503999999918 -212.00580500000007 5
vertex 182.7673828727944 -135.85 0
vertex 182.7136404139085 -149.85 0
endloop
endfacet
facet normal 0 0 1
outer loop
vertex 182.47503999999918 -212.00580500000007 5
vertex 182.7136404139085 -149.85 0
vertex 182.69425474123895 -154.9 0
endloop
endfacet
facet normal 0 0 1
outer loop
vertex 182.47503999999918 -212.00580500000007 5
vertex 182.69425474123895 -154.9 0
vertex 182.64051228235306 -168.9 0
endloop
endfacet
facet normal 0 0 1
outer loop
vertex 182.47503999999918 -212.00580500000007 5
vertex 182.64051228235306 -168.9 0
vertex 182.6211266096835 -173.95 0
endloop
endfacet
facet normal 0 0 1
outer loop
vertex 182.47503999999918 -212.00580500000007 5
vertex 182.6211266096835 -173.95 0
vertex 182.5673841507976 -187.95 0
endloop
endfacet
facet normal 0 0 1
outer loop
vertex 182.47503999999918 -212.00580500000007 5
vertex 182.5673841507976 -187.95 0
vertex 182.54799847812805 -193 0
endloop
endfacet
facet normal 0 0 1
outer loop
vertex 182.47503999999918 -212.00580500000007 5
vertex 182.54799847812805 -193 0
vertex 182.49425601924216 -207 0
endloop
endfacet
facet normal 0 0 1
outer loop
vertex 182.47503999999918 -212.00580500000007 5
vertex 182.49425601924216 -207 0
vertex 182.47503999999918 -212.00580500000007 0
endloop
endfacet
facet normal 0 0 1
outer loop
vertex 234.05 -217.02499814150747 5
vertex 234.05 -209.525 5
vertex 190.475 -209.525 5
endloop
endfacet
facet normal 0 0 1
outer loop
vertex 234.05 -217.02499814150747 5
vertex 190.475 -209.525 5
vertex 182.48456318290826 -209.525 5
endloop
endfacet
facet normal 0 0 1
outer loop
vertex 234.05 -217.02499814150747 5
vertex 182.48456318290826 -209.525 5
vertex 182.47503999999918 -212.00580500000007 5
endloop
endfacet
facet normal 0 0 1
outer loop
vertex 234.05 -217.02499814150747 5
vertex 182.47503999999918 -212.00580500000007 5
vertex 182.53388768841575 -212.79010508168665 5
endloop
endfacet
facet normal 0 0 1
outer loop
vertex 234.05 -217.02499814150747 5
vertex 182.53388768841575 -212.79010508168665 5
vertex 182.7149962955121 -213.55547384313522 5
endloop
endfacet
facet normal 0 0 1
outer loop
vertex 234.05 -217.02499814150747 5
vertex 182.7149962955121 -213.55547384313522 5
vertex 183.01388454476927 -214.282973316002 5
endloop
endfacet
facet normal 0 0 1
outer loop
vertex 234.05 -217.02499814150747 5
vertex 183.01388454476927 -214.282973316002 5
vertex 183.42315686882998 -214.95460255399013 5
endloop
endfacet
facet normal 0 0 1
outer loop
vertex 234.05 -217.02499814150747 5
vertex 183.42315686882998 -214.95460255399013 5
vertex 183.93268640248039 -215.55374304077412 5.000000000000002
endloop
endfacet
facet normal 0 0 1
outer loop
vertex 234.05 -217.02499814150747 5
vertex 183.93268640248039 -215.55374304077412 5.000000000000002
vertex 184.52986555748492 -216.06556989176374 5.000000000000002
endloop
endfacet
facet normal 0 0 1
outer loop
vertex 234.05 -217.02499814150747 5
vertex 184.52986555748492 -216.06556989176374 5.000000000000002
vertex 185.1999179796478 -216.477418674841 5
endloop
endfacet
facet normal 0 0 1
outer loop
vertex 234.05 -217.02499814150747 5
vertex 185.1999179796478 -216.477418674841 5
vertex 185.92626416870556 -216.77909877396127 5.000000000000002
endloop
endfacet
facet normal 0 0 1
outer loop
vertex 234.05 -217.02499814150747 5
vertex 185.92626416870556 -216.77909877396127 5.000000000000002
vertex 186.69093171474256 -216.96314554139616 5.000000000000002
endloop
endfacet
facet normal 0 0 1
outer loop
vertex 234.05 -217.02499814150747 5
vertex 186.69093171474256 -216.96314554139616 5.000000000000002
vertex 187.47500000000014 -217.02499999999907 5
endloop
endfacet
facet normal 0 0 1
outer loop
vertex 190.475 -209.525 5
vertex 190.475 -114.275 5
vertex 182.85020384068437 -114.275 5
endloop
endfacet
facet normal 0 0 1
outer loop
vertex 190.475 -209.525 5
vertex 182.85020384068437 -114.275 5
vertex 182.48456318290826 -209.525 5
endloop
endfacet
facet normal 0 0 1
outer loop
vertex 190.475 -114.275 5
vertex 234.05 -114.275 5
vertex 234.05 -112.8 5
endloop
endfacet
facet normal 0 0 1
outer loop
vertex 190.475 -114.275 5
vertex 234.05 -112.8 5
vertex 191.475 -112.8 5
endloop
endfacet
facet normal 0 0 1
outer loop
vertex 190.475 -114.275 5
vertex 191.475 -112.8 5
vertex 182.8558659926027 -112.8 5
endloop
endfacet
facet normal 0 0 1
outer loop
vertex 190.475 -114.275 5
vertex 182.8558659926027 -112.8 5
vertex 182.85020384068437 -114.275 5
endloop
endfacet
facet normal 0 0 1
outer loop
vertex 191.475 -112.8 5
vertex 191.475 -86.8 5
vertex 182.9556734162476 -86.8 5
endloop
endfacet
facet normal 0 0 1
outer loop
vertex 191.475 -112.8 5
vertex 182.9556734162476 -86.8 5
vertex 182.8558659926027 -112.8 5
endloop
endfacet
facet normal 0 0 1
outer loop
vertex 191.475 -86.8 5
vertex 234.05 -86.8 5
vertex 234.05 -76.77500128209387 5
endloop
endfacet
facet normal 0 0 1
outer loop
vertex 191.475 -86.8 5
vertex 234.05 -76.77500128209387 5
vertex 187.9749984000002 -76.77500315000161 5
endloop
endfacet
facet normal 0 0 1
outer loop
vertex 191.475 -86.8 5
vertex 187.9749984000002 -76.77500315000161 5
vertex 187.10885890957155 -76.85059486565633 5.000000000000002
endloop
endfacet
facet normal 0 0 1
outer loop
vertex 191.475 -86.8 5
vertex 187.10885890957155 -76.85059486565633 5.000000000000002
vertex 186.2689085137905 -77.07508329961729 5
endloop
endfacet
facet normal 0 0 1
outer loop
vertex 191.475 -86.8 5
vertex 186.2689085137905 -77.07508329961729 5
vertex 185.48054434673725 -77.44168071431272 5.000000000000002
endloop
endfacet
facet normal 0 0 1
outer loop
vertex 191.475 -86.8 5
vertex 185.48054434673725 -77.44168071431272 5.000000000000002
vertex 184.76760375709262 -77.9393024983948 5.0000000000000036
endloop
endfacet
facet normal 0 0 1
outer loop
vertex 191.475 -86.8 5
vertex 184.76760375709262 -77.9393024983948 5.0000000000000036
vertex 184.15164355087146 -78.55290232621998 5
endloop
endfacet
facet normal 0 0 1
outer loop
vertex 191.475 -86.8 5
vertex 184.15164355087146 -78.55290232621998 5
vertex 183.65128818974227 -79.263927105637 5.000000000000002
endloop
endfacet
facet normal 0 0 1
outer loop
vertex 191.475 -86.8 5
vertex 183.65128818974227 -79.263927105637 5.000000000000002
vertex 183.28166665305628 -80.050877957961 5
endloop
endfacet
facet normal 0 0 1
outer loop
vertex 191.475 -86.8 5
vertex 183.28166665305628 -80.050877957961 5
vertex 183.0539549909397 -80.88996026816166 5
endloop
endfacet
facet normal 0 0 1
outer loop
vertex 191.475 -86.8 5
vertex 183.0539549909397 -80.88996026816166 5
vertex 182.97503680000074 -81.75580630000009 5.0000000000000036
endloop
endfacet
facet normal 0 0 1
outer loop
vertex 191.475 -86.8 5
vertex 182.97503680000074 -81.75580630000009 5.0000000000000036
vertex 182.9556734162476 -86.8 5
endloop
endfacet
facet normal 0 0 -1
outer loop
vertex 234.05 -81.77500000000008 3
vertex 234.05 -86.8 3
vertex 191.475 -86.8 3
endloop
endfacet
facet normal 0 0 -1
outer loop
vertex 234.05 -81.77500000000008 3
vertex 191.475 -86.8 3
vertex 187.95571017274472 -86.8 3
endloop
endfacet
facet normal 0 0 -1
outer loop
vertex 234.05 -81.77500000000008 3
vertex 187.95571017274472 -86.8 3
vertex 187.975 -81.77500000000008 3
endloop
endfacet
facet normal 0 0 -1
outer loop
vertex 191.475 -86.8 3
vertex 191.475 -112.8 3
vertex 187.85590211132438 -112.8 3
endloop
endfacet
facet normal 0 0 -1
outer loop
vertex 191.475 -86.8 3
vertex 187.85590211132438 -112.8 3
vertex 187.95571017274472 -86.8 3
endloop
endfacet
facet normal 0 0 -1
outer loop
vertex 191.475 -112.8 3
vertex 234.05 -112.8 3
vertex 234.05 -114.275 3
endloop
endfacet
facet normal 0 0 -1
outer loop
vertex 191.475 -112.8 3
vertex 234.05 -114.275 3
vertex 190.475 -114.275 3
endloop
endfacet
facet normal 0 0 -1
outer loop
vertex 191.475 -112.8 3
vertex 190.475 -114.275 3
vertex 187.85023992322456 -114.275 3
endloop
endfacet
facet normal 0 0 -1
outer loop
vertex 191.475 -112.8 3
vertex 187.85023992322456 -114.275 3
vertex 187.85590211132438 -112.8 3
endloop
endfacet
facet normal 0 0 -1
outer loop
vertex 190.475 -114.275 3
vertex 190.475 -209.525 3
vertex 187.48459692898268 -209.525 3
endloop
endfacet
facet normal 0 0 -1
outer loop
vertex 190.475 -114.275 3
vertex 187.48459692898268 -209.525 3
vertex 187.85023992322456 -114.275 3
endloop
endfacet
facet normal 0 0 -1
outer loop
vertex 190.475 -209.525 3
vertex 234.05 -209.525 3
vertex 234.05 -212.025 3
endloop
endfacet
facet normal 0 0 -1
outer loop
vertex 190.475 -209.525 3
vertex 234.05 -212.025 3
vertex 187.475 -212.025 3
endloop
endfacet
facet normal 0 0 -1
outer loop
vertex 190.475 -209.525 3
vertex 187.475 -212.025 3
vertex 187.48459692898268 -209.525 3
endloop
endfacet
facet normal 1 0 0
outer loop
vertex 190.475 -87.8 0
vertex 190.475 -87.8 1
vertex 190.475 -111.8 1
endloop
endfacet
facet normal 1 0 0
outer loop
vertex 190.475 -87.8 0
vertex 190.475 -111.8 1
vertex 190.475 -111.8 0
endloop
endfacet
facet normal 1 0 0
outer loop
vertex 190.475 -114.275 3
vertex 190.475 -114.275 5
vertex 190.475 -209.525 5
endloop
endfacet
facet normal 1 0 0
outer loop
vertex 190.475 -114.275 3
vertex 190.475 -209.525 5
vertex 190.475 -209.525 3
endloop
endfacet
facet normal 1 0 0
outer loop
vertex 191.475 -86.8 3
vertex 191.475 -86.8 5
vertex 191.475 -112.8 5
endloop
endfacet
facet normal 1 0 0
outer loop
vertex 191.475 -86.8 3
vertex 191.475 -112.8 5
vertex 191.475 -112.8 3
endloop
endfacet
facet normal 0 0 -1
outer loop
vertex 234.05 -76.77500314999965 0
vertex 234.05 -85.8 0
vertex 192.47499999999997 -85.8 0
endloop
endfacet
facet normal 0 0 -1
outer loop
vertex 234.05 -76.77500314999965 0
vertex 192.47499999999997 -85.8 0
vertex 182.95951216331147 -85.8 0
endloop
endfacet
facet normal 0 0 -1
outer loop
vertex 234.05 -76.77500314999965 0
vertex 182.95951216331147 -85.8 0
vertex 182.97503680000074 -81.75580630000009 0
endloop
endfacet
facet normal 0 0 -1
outer loop
vertex 234.05 -76.77500314999965 0
vertex 182.97503680000074 -81.75580630000009 0
vertex 183.0539549909397 -80.88996026816166 0
endloop
endfacet
facet normal 0 0 -1
outer loop
vertex 234.05 -76.77500314999965 0
vertex 183.0539549909397 -80.88996026816166 0
vertex 183.28166665305628 -80.050877957961 0
endloop
endfacet
facet normal 0 0 -1
outer loop
vertex 234.05 -76.77500314999965 0
vertex 183.28166665305628 -80.050877957961 0
vertex 183.65128818974227 -79.263927105637 0
endloop
endfacet
facet normal 0 0 -1
outer loop
vertex 234.05 -76.77500314999965 0
vertex 183.65128818974227 -79.263927105637 0
vertex 184.15164355087146 -78.55290232621998 0
endloop
endfacet
facet normal 0 0 -1
outer loop
vertex 234.05 -76.77500314999965 0
vertex 184.15164355087146 -78.55290232621998 0
vertex 184.76760375709262 -77.9393024983948 0
endloop
endfacet
facet normal 0 0 -1
outer loop
vertex 234.05 -76.77500314999965 0
vertex 184.76760375709262 -77.9393024983948 0
vertex 185.48054434673725 -77.44168071431272 0
endloop
endfacet
facet normal 0 0 -1
outer loop
vertex 234.05 -76.77500314999965 0
vertex 185.48054434673725 -77.44168071431272 0
vertex 186.2689085137905 -77.07508329961729 0
endloop
endfacet
facet normal 0 0 -1
outer loop
vertex 234.05 -76.77500314999965 0
vertex 186.2689085137905 -77.07508329961729 0
vertex 187.10885890957155 -76.85059486565633 0
endloop
endfacet
facet normal 0 0 -1
outer loop
vertex 234.05 -76.77500314999965 0
vertex 187.10885890957155 -76.85059486565633 0
vertex 187.9749984000002 -76.77500315000161 0
endloop
endfacet
facet normal 0 0 -1
outer loop
vertex 192.47499999999997 -85.8 0
vertex 190.475 -87.8 0
vertex 182.95183466918493 -87.8 0
endloop
endfacet
facet normal 0 0 -1
outer loop
vertex 192.47499999999997 -85.8 0
vertex 182.95183466918493 -87.8 0
vertex 182.95951216331147 -85.8 0
endloop
endfacet
facet normal 0 0 -1
outer loop
vertex 190.475 -87.8 0
vertex 190.475 -111.8 0
vertex 182.85970473966626 -111.8 0
endloop
endfacet
facet normal 0 0 -1
outer loop
vertex 190.475 -87.8 0
vertex 182.85970473966626 -111.8 0
vertex 182.95183466918493 -87.8 0
endloop
endfacet
facet normal 0 0 -1
outer loop
vertex 190.475 -111.8 0
vertex 192.47500000000002 -113.8 0
vertex 182.8520272455397 -113.8 0
endloop
endfacet
facet normal 0 0 -1
outer loop
vertex 190.475 -111.8 0
vertex 182.8520272455397 -113.8 0
vertex 182.85970473966626 -111.8 0
endloop
endfacet
facet normal 0 0 -1
outer loop
vertex 192.47500000000002 -113.8 0
vertex 234.05 -113.8 0
vertex 234.05 -116.8 0
endloop
endfacet
facet normal 0 0 -1
outer loop
vertex 192.47500000000002 -113.8 0
vertex 234.05 -116.8 0
vertex 231.1 -116.8 0
endloop
endfacet
facet normal 0 0 -1
outer loop
vertex 192.47500000000002 -113.8 0
vertex 231.1 -116.8 0
vertex 226.05 -116.8 0
endloop
endfacet
facet normal 0 0 -1
outer loop
vertex 192.47500000000002 -113.8 0
vertex 226.05 -116.8 0
vertex 212.05 -116.8 0
endloop
endfacet
facet normal 0 0 -1
outer loop
vertex 192.47500000000002 -113.8 0
vertex 212.05 -116.8 0
vertex 207 -116.8 0
endloop
endfacet
facet normal 0 0 -1
outer loop
vertex 192.47500000000002 -113.8 0
vertex 207 -116.8 0
vertex 193 -116.8 0
endloop
endfacet
facet normal 0 0 -1
outer loop
vertex 192.47500000000002 -113.8 0
vertex 193 -116.8 0
vertex 182.84051100434985 -116.8 0
endloop
endfacet
facet normal 0 0 -1
outer loop
vertex 192.47500000000002 -113.8 0
vertex 182.84051100434985 -116.8 0
vertex 182.8520272455397 -113.8 0
endloop
endfacet
facet normal 0 0 -1
outer loop
vertex 193 -116.8 0
vertex 193 -130.8 0
vertex 182.78676854546396 -130.8 0
endloop
endfacet
facet normal 0 0 -1
outer loop
vertex 193 -116.8 0
vertex 182.78676854546396 -130.8 0
vertex 182.84051100434985 -116.8 0
endloop
endfacet
facet normal 0 0 -1
outer loop
vertex 212.05 -116.8 0
vertex 212.05 -130.8 0
vertex 207 -130.8 0
endloop
endfacet
facet normal 0 0 -1
outer loop
vertex 212.05 -116.8 0
vertex 207 -130.8 0
vertex 207 -116.8 0
endloop
endfacet
facet normal 0 0 -1
outer loop
vertex 231.1 -116.8 0
vertex 231.1 -130.8 0
vertex 226.05 -130.8 0
endloop
endfacet
facet normal 0 0 -1
outer loop
vertex 231.1 -116.8 0
vertex 226.05 -130.8 0
vertex 226.05 -116.8 0
endloop
endfacet
facet normal 0 0 -1
outer loop
vertex 193 -130.8 0
vertex 207 -130.8 0
vertex 212.05 -130.8 0
endloop
endfacet
facet normal 0 0 -1
outer loop
vertex 193 -130.8 0
vertex 212.05 -130.8 0
vertex 226.05 -130.8 0
endloop
endfacet
facet normal 0 0 -1
outer loop
vertex 193 -130.8 0
vertex 226.05 -130.8 0
vertex 231.1 -130.8 0
endloop
endfacet
facet normal 0 0 -1
outer loop
vertex 193 -130.8 0
vertex 231.1 -130.8 0
vertex 234.05 -130.8 0
endloop
endfacet
facet normal 0 0 -1
outer loop
vertex 193 -130.8 0
vertex 234.05 -130.8 0
vertex 234.05 -135.85 0
endloop
endfacet
facet normal 0 0 -1
outer loop
vertex 193 -130.8 0
vertex 234.05 -135.85 0
vertex 231.1 -135.85 0
endloop
endfacet
facet normal 0 0 -1
outer loop
vertex 193 -130.8 0
vertex 231.1 -135.85 0
vertex 226.05 -135.85 0
endloop
endfacet
facet normal 0 0 -1
outer loop
vertex 193 -130.8 0
vertex 226.05 -135.85 0
vertex 212.05 -135.85 0
endloop
endfacet
facet normal 0 0 -1
outer loop
vertex 193 -130.8 0
vertex 212.05 -135.85 0
vertex 207 -135.85 0
endloop
endfacet
facet normal 0 0 -1
outer loop
vertex 193 -130.8 0
vertex 207 -135.85 0
vertex 193 -135.85 0
endloop
endfacet
facet normal 0 0 -1
outer loop
vertex 193 -130.8 0
vertex 193 -135.85 0
vertex 182.7673828727944 -135.85 0
endloop
endfacet
facet normal 0 0 -1
outer loop
vertex 193 -130.8 0
vertex 182.7673828727944 -135.85 0
vertex 182.78676854546396 -130.8 0
endloop
endfacet
facet normal 0 0 -1
outer loop
vertex 193 -135.85 0
vertex 193 -149.85 0
vertex 182.7136404139085 -149.85 0
endloop
endfacet
facet normal 0 0 -1
outer loop
vertex 193 -135.85 0
vertex 182.7136404139085 -149.85 0
vertex 182.7673828727944 -135.85 0
endloop
endfacet
facet normal 0 0 -1
outer loop
vertex 212.05 -135.85 0
vertex 212.05 -149.85 0
vertex 207 -149.85 0
endloop
endfacet
facet normal 0 0 -1
outer loop
vertex 212.05 -135.85 0
vertex 207 -149.85 0
vertex 207 -135.85 0
endloop
endfacet
facet normal 0 0 -1
outer loop
vertex 231.1 -135.85 0
vertex 231.1 -149.85 0
vertex 226.05 -149.85 0
endloop
endfacet
facet normal 0 0 -1
outer loop
vertex 231.1 -135.85 0
vertex 226.05 -149.85 0
vertex 226.05 -135.85 0
endloop
endfacet
facet normal 0 0 -1
outer loop
vertex 193 -149.85 0
vertex 207 -149.85 0
vertex 212.05 -149.85 0
endloop
endfacet
facet normal 0 0 -1
outer loop
vertex 193 -149.85 0
vertex 212.05 -149.85 0
vertex 226.05 -149.85 0
endloop
endfacet
facet normal 0 0 -1
outer loop
vertex 193 -149.85 0
vertex 226.05 -149.85 0
vertex 231.1 -149.85 0
endloop
endfacet
facet normal 0 0 -1
outer loop
vertex 193 -149.85 0
vertex 231.1 -149.85 0
vertex 234.05 -149.85 0
endloop
endfacet
facet normal 0 0 -1
outer loop
vertex 193 -149.85 0
vertex 234.05 -149.85 0
vertex 234.05 -154.9 0
endloop
endfacet
facet normal 0 0 -1
outer loop
vertex 193 -149.85 0
vertex 234.05 -154.9 0
vertex 231.1 -154.9 0
endloop
endfacet
facet normal 0 0 -1
outer loop
vertex 193 -149.85 0
vertex 231.1 -154.9 0
vertex 226.05 -154.9 0
endloop
endfacet
facet normal 0 0 -1
outer loop
vertex 193 -149.85 0
vertex 226.05 -154.9 0
vertex 212.05 -154.9 0
endloop
endfacet
facet normal 0 0 -1
outer loop
vertex 193 -149.85 0
vertex 212.05 -154.9 0
vertex 207 -154.9 0
endloop
endfacet
facet normal 0 0 -1
outer loop
vertex 193 -149.85 0
vertex 207 -154.9 0
vertex 193 -154.9 0
endloop
endfacet
facet normal 0 0 -1
outer loop
vertex 193 -149.85 0
vertex 193 -154.9 0
vertex 182.69425474123895 -154.9 0
endloop
endfacet
facet normal 0 0 -1
outer loop
vertex 193 -149.85 0
vertex 182.69425474123895 -154.9 0
vertex 182.7136404139085 -149.85 0
endloop
endfacet
facet normal 0 0 -1
outer loop
vertex 193 -154.9 0
vertex 193 -168.9 0
vertex 182.64051228235306 -168.9 0
endloop
endfacet
facet normal 0 0 -1
outer loop
vertex 193 -154.9 0
vertex 182.64051228235306 -168.9 0
vertex 182.69425474123895 -154.9 0
endloop
endfacet
facet normal 0 0 -1
outer loop
vertex 212.05 -154.9 0
vertex 212.05 -168.9 0
vertex 207 -168.9 0
endloop
endfacet
facet normal 0 0 -1
outer loop
vertex 212.05 -154.9 0
vertex 207 -168.9 0
vertex 207 -154.9 0
endloop
endfacet
facet normal 0 0 -1
outer loop
vertex 231.1 -154.9 0
vertex 231.1 -168.9 0
vertex 226.05 -168.9 0
endloop
endfacet
facet normal 0 0 -1
outer loop
vertex 231.1 -154.9 0
vertex 226.05 -168.9 0
vertex 226.05 -154.9 0
endloop
endfacet
facet normal 0 0 -1
outer loop
vertex 193 -168.9 0
vertex 207 -168.9 0
vertex 212.05 -168.9 0
endloop
endfacet
facet normal 0 0 -1
outer loop
vertex 193 -168.9 0
vertex 212.05 -168.9 0
vertex 226.05 -168.9 0
endloop
endfacet
facet normal 0 0 -1
outer loop
vertex 193 -168.9 0
vertex 226.05 -168.9 0
vertex 231.1 -168.9 0
endloop
endfacet
facet normal 0 0 -1
outer loop
vertex 193 -168.9 0
vertex 231.1 -168.9 0
vertex 234.05 -168.9 0
endloop
endfacet
facet normal 0 0 -1
outer loop
vertex 193 -168.9 0
vertex 234.05 -168.9 0
vertex 234.05 -173.95 0
endloop
endfacet
facet normal 0 0 -1
outer loop
vertex 193 -168.9 0
vertex 234.05 -173.95 0
vertex 231.1 -173.95 0
endloop
endfacet
facet normal 0 0 -1
outer loop
vertex 193 -168.9 0
vertex 231.1 -173.95 0
vertex 226.05 -173.95 0
endloop
endfacet
facet normal 0 0 -1
outer loop
vertex 193 -168.9 0
vertex 226.05 -173.95 0
vertex 212.05 -173.95 0
endloop
endfacet
facet normal 0 0 -1
outer loop
vertex 193 -168.9 0
vertex 212.05 -173.95 0
vertex 207 -173.95 0
endloop
endfacet
facet normal 0 0 -1
outer loop
vertex 193 -168.9 0
vertex 207 -173.95 0
vertex 193 -173.95 0
endloop
endfacet
facet normal 0 0 -1
outer loop
vertex 193 -168.9 0
vertex 193 -173.95 0
vertex 182.6211266096835 -173.95 0
endloop
endfacet
facet normal 0 0 -1
outer loop
vertex 193 -168.9 0
vertex 182.6211266096835 -173.95 0
vertex 182.64051228235306 -168.9 0
endloop
endfacet
facet normal 0 0 -1
outer loop
vertex 193 -173.95 0
vertex 193 -187.95 0
vertex 182.5673841507976 -187.95 0
endloop
endfacet
facet normal 0 0 -1
outer loop
vertex 193 -173.95 0
vertex 182.5673841507976 -187.95 0
vertex 182.6211266096835 -173.95 0
endloop
endfacet
facet normal 0 0 -1
outer loop
vertex 212.05 -173.95 0
vertex 212.05 -187.95 0
vertex 207 -187.95 0
endloop
endfacet
facet normal 0 0 -1
outer loop
vertex 212.05 -173.95 0
vertex 207 -187.95 0
vertex 207 -173.95 0
endloop
endfacet
facet normal 0 0 -1
outer loop
vertex 231.1 -173.95 0
vertex 231.1 -187.95 0
vertex 226.05 -187.95 0
endloop
endfacet
facet normal 0 0 -1
outer loop
vertex 231.1 -173.95 0
vertex 226.05 -187.95 0
vertex 226.05 -173.95 0
endloop
endfacet
facet normal 0 0 -1
outer loop
vertex 193 -187.95 0
vertex 207 -187.95 0
vertex 212.05 -187.95 0
endloop
endfacet
facet normal 0 0 -1
outer loop
vertex 193 -187.95 0
vertex 212.05 -187.95 0
vertex 226.05 -187.95 0
endloop
endfacet
facet normal 0 0 -1
outer loop
vertex 193 -187.95 0
vertex 226.05 -187.95 0
vertex 231.1 -187.95 0
endloop
endfacet
facet normal 0 0 -1
outer loop
vertex 193 -187.95 0
vertex 231.1 -187.95 0
vertex 234.05 -187.95 0
endloop
endfacet
facet normal 0 0 -1
outer loop
vertex 193 -187.95 0
vertex 234.05 -187.95 0
vertex 234.05 -193 0
endloop
endfacet
facet normal 0 0 -1
outer loop
vertex 193 -187.95 0
vertex 234.05 -193 0
vertex 231.1 -193 0
endloop
endfacet
facet normal 0 0 -1
outer loop
vertex 193 -187.95 0
vertex 231.1 -193 0
vertex 216.525 -193 0
endloop
endfacet
facet normal 0 0 -1
outer loop
vertex 193 -187.95 0
vertex 216.525 -193 0
vertex 202.525 -193 0
endloop
endfacet
facet normal 0 0 -1
outer loop
vertex 193 -187.95 0
vertex 202.525 -193 0
vertex 182.54799847812805 -193 0
endloop
endfacet
facet normal 0 0 -1
outer loop
vertex 193 -187.95 0
vertex 182.54799847812805 -193 0
vertex 182.5673841507976 -187.95 0
endloop
endfacet
facet normal 0 0 -1
outer loop
vertex 202.525 -193 0
vertex 202.525 -207 0
vertex 182.49425601924216 -207 0
endloop
endfacet
facet normal 0 0 -1
outer loop
vertex 202.525 -193 0
vertex 182.49425601924216 -207 0
vertex 182.54799847812805 -193 0
endloop
endfacet
facet normal 0 0 -1
outer loop
vertex 231.1 -193 0
vertex 231.1 -207 0
vertex 216.525 -207 0
endloop
endfacet
facet normal 0 0 -1
outer loop
vertex 231.1 -193 0
vertex 216.525 -207 0
vertex 216.525 -193 0
endloop
endfacet
facet normal 0 0 -1
outer loop
vertex 202.525 -207 0
vertex 216.525 -207 0
vertex 231.1 -207 0
endloop
endfacet
facet normal 0 0 -1
outer loop
vertex 202.525 -207 0
vertex 231.1 -207 0
vertex 234.05 -207 0
endloop
endfacet
facet normal 0 0 -1
outer loop
vertex 202.525 -207 0
vertex 234.05 -207 0
vertex 234.05 -217.02499988028944 0
endloop
endfacet
facet normal 0 0 -1
outer loop
vertex 202.525 -207 0
vertex 234.05 -217.02499988028944 0
vertex 187.47500000000014 -217.02499999999907 0
endloop
endfacet
facet normal 0 0 -1
outer loop
vertex 202.525 -207 0
vertex 187.47500000000014 -217.02499999999907 0
vertex 186.69093171474256 -216.96314554139616 0
endloop
endfacet
facet normal 0 0 -1
outer loop
vertex 202.525 -207 0
vertex 186.69093171474256 -216.96314554139616 0
vertex 185.92626416870556 -216.77909877396127 0
endloop
endfacet
facet normal 0 0 -1
outer loop
vertex 202.525 -207 0
vertex 185.92626416870556 -216.77909877396127 0
vertex 185.1999179796478 -216.477418674841 0
endloop
endfacet
facet normal 0 0 -1
outer loop
vertex 202.525 -207 0
vertex 185.1999179796478 -216.477418674841 0
vertex 184.52986555748492 -216.06556989176374 0
endloop
endfacet
facet normal 0 0 -1
outer loop
vertex 202.525 -207 0
vertex 184.52986555748492 -216.06556989176374 0
vertex 183.93268640248039 -215.55374304077412 0
endloop
endfacet
facet normal 0 0 -1
outer loop
vertex 202.525 -207 0
vertex 183.93268640248039 -215.55374304077412 0
vertex 183.42315686882998 -214.95460255399013 0
endloop
endfacet
facet normal 0 0 -1
outer loop
vertex 202.525 -207 0
vertex 183.42315686882998 -214.95460255399013 0
vertex 183.01388454476927 -214.282973316002 0
endloop
endfacet
facet normal 0 0 -1
outer loop
vertex 202.525 -207 0
vertex 183.01388454476927 -214.282973316002 0
vertex 182.7149962955121 -213.55547384313522 0
endloop
endfacet
facet normal 0 0 -1
outer loop
vertex 202.525 -207 0
vertex 182.7149962955121 -213.55547384313522 0
vertex 182.53388768841575 -212.79010508168665 0
endloop
endfacet
facet normal 0 0 -1
outer loop
vertex 202.525 -207 0
vertex 182.53388768841575 -212.79010508168665 0
vertex 182.47503999999918 -212.00580500000007 0
endloop
endfacet
facet normal 0 0 -1
outer loop
vertex 202.525 -207 0
vertex 182.47503999999918 -212.00580500000007 0
vertex 182.49425601924216 -207 0
endloop
endfacet
facet normal 0.99999263199776 -0.0038387433090179713 0
outer loop
vertex 187.97499999999954 -81.77500000000008 -25
vertex 187.47499999999883 -212.025 -25
vertex 187.47499999999883 -212.025 -27
endloop
endfacet
facet normal 0.99999263199776 -0.0038387433090179713 0
outer loop
vertex 187.97499999999954 -81.77500000000008 -25
vertex 187.47499999999883 -212.025 -27
vertex 187.47883877159305 -211.025 -27
endloop
endfacet
facet normal 0.99999263199776 -0.0038387433090179713 0
outer loop
vertex 187.97499999999954 -81.77500000000008 -25
vertex 187.47883877159305 -211.025 -27
vertex 187.97116122840686 -82.775 -27
endloop
endfacet
facet normal 0.99999263199776 -0.0038387433090179713 0
outer loop
vertex 187.97499999999954 -81.77500000000008 -25
vertex 187.97116122840686 -82.775 -27
vertex 187.97499999999954 -81.77500000000008 -27
endloop
endfacet
facet normal 0 0 1
outer loop
vertex 187.975 -81.77500000000008 3
vertex 187.95571017274472 -86.8 3
vertex 187.85590211132438 -112.8 3
endloop
endfacet
facet normal 0 0 1
outer loop
vertex 187.975 -81.77500000000008 3
vertex 187.85590211132438 -112.8 3
vertex 187.85023992322456 -114.275 3
endloop
endfacet
facet normal 0 0 1
outer loop
vertex 187.975 -81.77500000000008 3
vertex 187.85023992322456 -114.275 3
vertex 187.48459692898268 -209.525 3
endloop
endfacet
facet normal 0 0 1
outer loop
vertex 187.975 -81.77500000000008 3
vertex 187.48459692898268 -209.525 3
vertex 187.475 -212.025 3
endloop
endfacet
facet normal 0 0 1
outer loop
vertex 187.975 -81.77500000000008 3
vertex 187.475 -212.025 3
vertex 187.47499999999883 -212.025 1
endloop
endfacet
facet normal 0 0 1
outer loop
vertex 187.975 -81.77500000000008 3
vertex 187.47499999999883 -212.025 1
vertex 187.49428982725524 -207 1
endloop
endfacet
facet normal 0 0 1
outer loop
vertex 187.975 -81.77500000000008 3
vertex 187.49428982725524 -207 1
vertex 187.54803262955852 -193 1
endloop
endfacet
facet normal 0 0 1
outer loop
vertex 187.975 -81.77500000000008 3
vertex 187.54803262955852 -193 1
vertex 187.56741842610361 -187.95 1
endloop
endfacet
facet normal 0 0 1
outer loop
vertex 187.975 -81.77500000000008 3
vertex 187.56741842610361 -187.95 1
vertex 187.6211612284069 -173.95 1
endloop
endfacet
facet normal 0 0 1
outer loop
vertex 187.975 -81.77500000000008 3
vertex 187.6211612284069 -173.95 1
vertex 187.64054702495199 -168.9 1
endloop
endfacet
facet normal 0 0 1
outer loop
vertex 187.975 -81.77500000000008 3
vertex 187.64054702495199 -168.9 1
vertex 187.69428982725526 -154.9 1
endloop
endfacet
facet normal 0 0 1
outer loop
vertex 187.975 -81.77500000000008 3
vertex 187.69428982725526 -154.9 1
vertex 187.71367562380036 -149.85 1
endloop
endfacet
facet normal 0 0 1
outer loop
vertex 187.975 -81.77500000000008 3
vertex 187.71367562380036 -149.85 1
vertex 187.76741842610363 -135.85 1
endloop
endfacet
facet normal 0 0 1
outer loop
vertex 187.975 -81.77500000000008 3
vertex 187.76741842610363 -135.85 1
vertex 187.78680422264873 -130.8 1
endloop
endfacet
facet normal 0 0 1
outer loop
vertex 187.975 -81.77500000000008 3
vertex 187.78680422264873 -130.8 1
vertex 187.840547024952 -116.8 1
endloop
endfacet
facet normal 0 0 1
outer loop
vertex 187.975 -81.77500000000008 3
vertex 187.840547024952 -116.8 1
vertex 187.85206333973127 -113.8 1
endloop
endfacet
facet normal 0 0 1
outer loop
vertex 187.975 -81.77500000000008 3
vertex 187.85206333973127 -113.8 1
vertex 187.85974088291746 -111.8 1
endloop
endfacet
facet normal 0 0 1
outer loop
vertex 187.975 -81.77500000000008 3
vertex 187.85974088291746 -111.8 1
vertex 187.9518714011516 -87.8 1
endloop
endfacet
facet normal 0 0 1
outer loop
vertex 187.975 -81.77500000000008 3
vertex 187.9518714011516 -87.8 1
vertex 187.9595489443378 -85.8 1
endloop
endfacet
facet normal 0 0 1
outer loop
vertex 187.975 -81.77500000000008 3
vertex 187.9595489443378 -85.8 1
vertex 187.97499999999954 -81.77500000000008 1
endloop
endfacet
facet normal 0 0 1
outer loop
vertex 234.05 -212.025 1
vertex 234.05 -207 1
vertex 231.1 -207 1
endloop
endfacet
facet normal 0 0 1
outer loop
vertex 234.05 -212.025 1
vertex 231.1 -207 1
vertex 216.525 -207 1
endloop
endfacet
facet normal 0 0 1
outer loop
vertex 234.05 -212.025 1
vertex 216.525 -207 1
vertex 202.525 -207 1
endloop
endfacet
facet normal 0 0 1
outer loop
vertex 234.05 -212.025 1
vertex 202.525 -207 1
vertex 187.49428982725524 -207 1
endloop
endfacet
facet normal 0 0 1
outer loop
vertex 234.05 -212.025 1
vertex 187.49428982725524 -207 1
vertex 187.47499999999883 -212.025 1
endloop
endfacet
facet normal 0 0 1
outer loop
vertex 202.525 -207 1
vertex 202.525 -193 1
vertex 187.54803262955852 -193 1
endloop
endfacet
facet normal 0 0 1
outer loop
vertex 202.525 -207 1
vertex 187.54803262955852 -193 1
vertex 187.49428982725524 -207 1
endloop
endfacet
facet normal 0 0 1
outer loop
vertex 231.1 -207 1
vertex 231.1 -193 1
vertex 216.525 -193 1
endloop
endfacet
facet normal 0 0 1
outer loop
vertex 231.1 -207 1
vertex 216.525 -193 1
vertex 216.525 -207 1
endloop
endfacet
facet normal 0 0 1
outer loop
vertex 202.525 -193 1
vertex 216.525 -193 1
vertex 231.1 -193 1
endloop
endfacet
facet normal 0 0 1
outer loop
vertex 202.525 -193 1
vertex 231.1 -193 1
vertex 234.05 -193 1
endloop
endfacet
facet normal 0 0 1
outer loop
vertex 202.525 -193 1
vertex 234.05 -193 1
vertex 234.05 -187.95 1
endloop
endfacet
facet normal 0 0 1
outer loop
vertex 202.525 -193 1
vertex 234.05 -187.95 1
vertex 231.1 -187.95 1
endloop
endfacet
facet normal 0 0 1
outer loop
vertex 202.525 -193 1
vertex 231.1 -187.95 1
vertex 226.05 -187.95 1
endloop
endfacet
facet normal 0 0 1
outer loop
vertex 202.525 -193 1
vertex 226.05 -187.95 1
vertex 212.05 -187.95 1
endloop
endfacet
facet normal 0 0 1
outer loop
vertex 202.525 -193 1
vertex 212.05 -187.95 1
vertex 207 -187.95 1
endloop
endfacet
facet normal 0 0 1
outer loop
vertex 202.525 -193 1
vertex 207 -187.95 1
vertex 193 -187.95 1
endloop
endfacet
facet normal 0 0 1
outer loop
vertex 202.525 -193 1
vertex 193 -187.95 1
vertex 187.56741842610361 -187.95 1
endloop
endfacet
facet normal 0 0 1
outer loop
vertex 202.525 -193 1
vertex 187.56741842610361 -187.95 1
vertex 187.54803262955852 -193 1
endloop
endfacet
facet normal 0 0 1
outer loop
vertex 193 -187.95 1
vertex 193 -173.95 1
vertex 187.6211612284069 -173.95 1
endloop
endfacet
facet normal 0 0 1
outer loop
vertex 193 -187.95 1
vertex 187.6211612284069 -173.95 1
vertex 187.56741842610361 -187.95 1
endloop
endfacet
facet normal 0 0 1
outer loop
vertex 212.05 -187.95 1
vertex 212.05 -173.95 1
vertex 207 -173.95 1
endloop
endfacet
facet normal 0 0 1
outer loop
vertex 212.05 -187.95 1
vertex 207 -173.95 1
vertex 207 -187.95 1
endloop
endfacet
facet normal 0 0 1
outer loop
vertex 231.1 -187.95 1
vertex 231.1 -173.95 1
vertex 226.05 -173.95 1
endloop
endfacet
facet normal 0 0 1
outer loop
vertex 231.1 -187.95 1
vertex 226.05 -173.95 1
vertex 226.05 -187.95 1
endloop
endfacet
facet normal 0 0 1
outer loop
vertex 193 -173.95 1
vertex 207 -173.95 1
vertex 212.05 -173.95 1
endloop
endfacet
facet normal 0 0 1
outer loop
vertex 193 -173.95 1
vertex 212.05 -173.95 1
vertex 226.05 -173.95 1
endloop
endfacet
facet normal 0 0 1
outer loop
vertex 193 -173.95 1
vertex 226.05 -173.95 1
vertex 231.1 -173.95 1
endloop
endfacet
facet normal 0 0 1
outer loop
vertex 193 -173.95 1
vertex 231.1 -173.95 1
vertex 234.05 -173.95 1
endloop
endfacet
facet normal 0 0 1
outer loop
vertex 193 -173.95 1
vertex 234.05 -173.95 1
vertex 234.05 -168.9 1
endloop
endfacet
facet normal 0 0 1
outer loop
vertex 193 -173.95 1
vertex 234.05 -168.9 1
vertex 231.1 -168.9 1
endloop
endfacet
facet normal 0 0 1
outer loop
vertex 193 -173.95 1
vertex 231.1 -168.9 1
vertex 226.05 -168.9 1
endloop
endfacet
facet normal 0 0 1
outer loop
vertex 193 -173.95 1
vertex 226.05 -168.9 1
vertex 212.05 -168.9 1
endloop
endfacet
facet normal 0 0 1
outer loop
vertex 193 -173.95 1
vertex 212.05 -168.9 1
vertex 207 -168.9 1
endloop
endfacet
facet normal 0 0 1
outer loop
vertex 193 -173.95 1
vertex 207 -168.9 1
vertex 193 -168.9 1
endloop
endfacet
facet normal 0 0 1
outer loop
vertex 193 -173.95 1
vertex 193 -168.9 1
vertex 187.64054702495199 -168.9 1
endloop
endfacet
facet normal 0 0 1
outer loop
vertex 193 -173.95 1
vertex 187.64054702495199 -168.9 1
vertex 187.6211612284069 -173.95 1
endloop
endfacet
facet normal 0 0 1
outer loop
vertex 193 -168.9 1
vertex 193 -154.9 1
vertex 187.69428982725526 -154.9 1
endloop
endfacet
facet normal 0 0 1
outer loop
vertex 193 -168.9 1
vertex 187.69428982725526 -154.9 1
vertex 187.64054702495199 -168.9 1
endloop
endfacet
facet normal 0 0 1
outer loop
vertex 212.05 -168.9 1
vertex 212.05 -154.9 1
vertex 207 -154.9 1
endloop
endfacet
facet normal 0 0 1
outer loop
vertex 212.05 -168.9 1
vertex 207 -154.9 1
vertex 207 -168.9 1
endloop
endfacet
facet normal 0 0 1
outer loop
vertex 231.1 -168.9 1
vertex 231.1 -154.9 1
vertex 226.05 -154.9 1
endloop
endfacet
facet normal 0 0 1
outer loop
vertex 231.1 -168.9 1
vertex 226.05 -154.9 1
vertex 226.05 -168.9 1
endloop
endfacet
facet normal 0 0 1
outer loop
vertex 193 -154.9 1
vertex 207 -154.9 1
vertex 212.05 -154.9 1
endloop
endfacet
facet normal 0 0 1
outer loop
vertex 193 -154.9 1
vertex 212.05 -154.9 1
vertex 226.05 -154.9 1
endloop
endfacet
facet normal 0 0 1
outer loop
vertex 193 -154.9 1
vertex 226.05 -154.9 1
vertex 231.1 -154.9 1
endloop
endfacet
facet normal 0 0 1
outer loop
vertex 193 -154.9 1
vertex 231.1 -154.9 1
vertex 234.05 -154.9 1
endloop
endfacet
facet normal 0 0 1
outer loop
vertex 193 -154.9 1
vertex 234.05 -154.9 1
vertex 234.05 -149.85 1
endloop
endfacet
facet normal 0 0 1
outer loop
vertex 193 -154.9 1
vertex 234.05 -149.85 1
vertex 231.1 -149.85 1
endloop
endfacet
facet normal 0 0 1
outer loop
vertex 193 -154.9 1
vertex 231.1 -149.85 1
vertex 226.05 -149.85 1
endloop
endfacet
facet normal 0 0 1
outer loop
vertex 193 -154.9 1
vertex 226.05 -149.85 1
vertex 212.05 -149.85 1
endloop
endfacet
facet normal 0 0 1
outer loop
vertex 193 -154.9 1
vertex 212.05 -149.85 1
vertex 207 -149.85 1
endloop
endfacet
facet normal 0 0 1
outer loop
vertex 193 -154.9 1
vertex 207 -149.85 1
vertex 193 -149.85 1
endloop
endfacet
facet normal 0 0 1
outer loop
vertex 193 -154.9 1
vertex 193 -149.85 1
vertex 187.71367562380036 -149.85 1
endloop
endfacet
facet normal 0 0 1
outer loop
vertex 193 -154.9 1
vertex 187.71367562380036 -149.85 1
vertex 187.69428982725526 -154.9 1
endloop
endfacet
facet normal 0 0 1
outer loop
vertex 193 -149.85 1
vertex 193 -135.85 1
vertex 187.76741842610363 -135.85 1
endloop
endfacet
facet normal 0 0 1
outer loop
vertex 193 -149.85 1
vertex 187.76741842610363 -135.85 1
vertex 187.71367562380036 -149.85 1
endloop
endfacet
facet normal 0 0 1
outer loop
vertex 212.05 -149.85 1
vertex 212.05 -135.85 1
vertex 207 -135.85 1
endloop
endfacet
facet normal 0 0 1
outer loop
vertex 212.05 -149.85 1
vertex 207 -135.85 1
vertex 207 -149.85 1
endloop
endfacet
facet normal 0 0 1
outer loop
vertex 231.1 -149.85 1
vertex 231.1 -135.85 1
vertex 226.05 -135.85 1
endloop
endfacet
facet normal 0 0 1
outer loop
vertex 231.1 -149.85 1
vertex 226.05 -135.85 1
vertex 226.05 -149.85 1
endloop
endfacet
facet normal 0 0 1
outer loop
vertex 193 -135.85 1
vertex 207 -135.85 1
vertex 212.05 -135.85 1
endloop
endfacet
facet normal 0 0 1
outer loop
vertex 193 -135.85 1
vertex 212.05 -135.85 1
vertex 226.05 -135.85 1
endloop
endfacet
facet normal 0 0 1
outer loop
vertex 193 -135.85 1
vertex 226.05 -135.85 1
vertex 231.1 -135.85 1
endloop
endfacet
facet normal 0 0 1
outer loop
vertex 193 -135.85 1
vertex 231.1 -135.85 1
vertex 234.05 -135.85 1
endloop
endfacet
facet normal 0 0 1
outer loop
vertex 193 -135.85 1
vertex 234.05 -135.85 1
vertex 234.05 -130.8 1
endloop
endfacet
facet normal 0 0 1
outer loop
vertex 193 -135.85 1
vertex 234.05 -130.8 1
vertex 231.1 -130.8 1
endloop
endfacet
facet normal 0 0 1
outer loop
vertex 193 -135.85 1
vertex 231.1 -130.8 1
vertex 226.05 -130.8 1
endloop
endfacet
facet normal 0 0 1
outer loop
vertex 193 -135.85 1
vertex 226.05 -130.8 1
vertex 212.05 -130.8 1
endloop
endfacet
facet normal 0 0 1
outer loop
vertex 193 -135.85 1
vertex 212.05 -130.8 1
vertex 207 -130.8 1
endloop
endfacet
facet normal 0 0 1
outer loop
vertex 193 -135.85 1
vertex 207 -130.8 1
vertex 193 -130.8 1
endloop
endfacet
facet normal 0 0 1
outer loop
vertex 193 -135.85 1
vertex 193 -130.8 1
vertex 187.78680422264873 -130.8 1
endloop
endfacet
facet normal 0 0 1
outer loop
vertex 193 -135.85 1
vertex 187.78680422264873 -130.8 1
vertex 187.76741842610363 -135.85 1
endloop
endfacet
facet normal 0 0 1
outer loop
vertex 193 -130.8 1
vertex 193 -116.8 1
vertex 187.840547024952 -116.8 1
endloop
endfacet
facet normal 0 0 1
outer loop
vertex 193 -130.8 1
vertex 187.840547024952 -116.8 1
vertex 187.78680422264873 -130.8 1
endloop
endfacet
facet normal 0 0 1
outer loop
vertex 212.05 -130.8 1
vertex 212.05 -116.8 1
vertex 207 -116.8 1
endloop
endfacet
facet normal 0 0 1
outer loop
vertex 212.05 -130.8 1
vertex 207 -116.8 1
vertex 207 -130.8 1
endloop
endfacet
facet normal 0 0 1
outer loop
vertex 231.1 -130.8 1
vertex 231.1 -116.8 1
vertex 226.05 -116.8 1
endloop
endfacet
facet normal 0 0 1
outer loop
vertex 231.1 -130.8 1
vertex 226.05 -116.8 1
vertex 226.05 -130.8 1
endloop
endfacet
facet normal 0 0 1
outer loop
vertex 193 -116.8 1
vertex 207 -116.8 1
vertex 212.05 -116.8 1
endloop
endfacet
facet normal 0 0 1
outer loop
vertex 193 -116.8 1
vertex 212.05 -116.8 1
vertex 226.05 -116.8 1
endloop
endfacet
facet normal 0 0 1
outer loop
vertex 193 -116.8 1
vertex 226.05 -116.8 1
vertex 231.1 -116.8 1
endloop
endfacet
facet normal 0 0 1
outer loop
vertex 193 -116.8 1
vertex 231.1 -116.8 1
vertex 234.05 -116.8 1
endloop
endfacet
facet normal 0 0 1
outer loop
vertex 193 -116.8 1
vertex 234.05 -116.8 1
vertex 234.05 -113.8 1
endloop
endfacet
facet normal 0 0 1
outer loop
vertex 193 -116.8 1
vertex 234.05 -113.8 1
vertex 192.47500000000002 -113.8 1
endloop
endfacet
facet normal 0 0 1
outer loop
vertex 193 -116.8 1
vertex 192.47500000000002 -113.8 1
vertex 187.85206333973127 -113.8 1
endloop
endfacet
facet normal 0 0 1
outer loop
vertex 193 -116.8 1
vertex 187.85206333973127 -113.8 1
vertex 187.840547024952 -116.8 1
endloop
endfacet
facet normal 0 0 1
outer loop
vertex 192.47500000000002 -113.8 1
vertex 190.475 -111.8 1
vertex 187.85974088291746 -111.8 1
endloop
endfacet
facet normal 0 0 1
outer loop
vertex 192.47500000000002 -113.8 1
vertex 187.85974088291746 -111.8 1
vertex 187.85206333973127 -113.8 1
endloop
endfacet
facet normal 0 0 1
outer loop
vertex 190.475 -111.8 1
vertex 190.475 -87.8 1
vertex 187.9518714011516 -87.8 1
endloop
endfacet
facet normal 0 0 1
outer loop
vertex 190.475 -111.8 1
vertex 187.9518714011516 -87.8 1
vertex 187.85974088291746 -111.8 1
endloop
endfacet
facet normal 0 0 1
outer loop
vertex 190.475 -87.8 1
vertex 192.475 -85.8 1
vertex 187.9595489443378 -85.8 1
endloop
endfacet
facet normal 0 0 1
outer loop
vertex 190.475 -87.8 1
vertex 187.9595489443378 -85.8 1
vertex 187.9518714011516 -87.8 1
endloop
endfacet
facet normal 0 0 1
outer loop
vertex 192.475 -85.8 1
vertex 234.05 -85.8 1
vertex 234.05 -81.775 1
endloop
endfacet
facet normal 0 0 1
outer loop
vertex 192.475 -85.8 1
vertex 234.05 -81.775 1
vertex 187.97499999999954 -81.77500000000008 1
endloop
endfacet
facet normal 0 0 1
outer loop
vertex 192.475 -85.8 1
vertex 187.97499999999954 -81.77500000000008 1
vertex 187.9595489443378 -85.8 1
endloop
endfacet
facet normal 0.7071067811865476 -0.7071067811865476 0
outer loop
vertex 192.475 -85.8 1
vertex 190.475 -87.8 1
vertex 190.475 -87.8 0
endloop
endfacet
facet normal 0.7071067811865476 -0.7071067811865476 0
outer loop
vertex 192.475 -85.8 1
vertex 190.475 -87.8 0
vertex 192.47499999999997 -85.8 0
endloop
endfacet
facet normal 0.7071067811865476 0.7071067811865476 0
outer loop
vertex 190.475 -111.8 1
vertex 192.47500000000002 -113.8 1
vertex 192.47500000000002 -113.8 0
endloop
endfacet
facet normal 0.7071067811865476 0.7071067811865476 0
outer loop
vertex 190.475 -111.8 1
vertex 192.47500000000002 -113.8 0
vertex 190.475 -111.8 0
endloop
endfacet
facet normal 0 1 0
outer loop
vertex 216.525 -207 1
vertex 216.525 -207 0
vertex 202.525 -207 0
endloop
endfacet
facet normal 0 1 0
outer loop
vertex 216.525 -207 1
vertex 202.525 -207 0
vertex 202.525 -207 1
endloop
endfacet
facet normal 0 1 0
outer loop
vertex 234.05 -207 1
vertex 234.05 -207 0
vertex 231.1 -207 0
endloop
endfacet
facet normal 0 1 0
outer loop
vertex 234.05 -207 1
vertex 231.1 -207 0
vertex 231.1 -207 1
endloop
endfacet
facet normal -1 0 0
outer loop
vertex 216.525 -193 1
vertex 216.525 -193 0
vertex 216.525 -207 0
endloop
endfacet
facet normal -1 0 0
outer loop
vertex 216.525 -193 1
vertex 216.525 -207 0
vertex 216.525 -207 1
endloop
endfacet
facet normal 0 -1 0
outer loop
vertex 216.525 -193 0
vertex 216.525 -193 1
vertex 202.525 -193 1
endloop
endfacet
facet normal 0 -1 0
outer loop
vertex 216.525 -193 0
vertex 202.525 -193 1
vertex 202.525 -193 0
endloop
endfacet
facet normal 0 -1 0
outer loop
vertex 234.05 -193 0
vertex 234.05 -193 1
vertex 231.1 -193 1
endloop
endfacet
facet normal 0 -1 0
outer loop
vertex 234.05 -193 0
vertex 231.1 -193 1
vertex 231.1 -193 0
endloop
endfacet
facet normal 1 0 0
outer loop
vertex 202.525 -193 0
vertex 202.525 -193 1
vertex 202.525 -207 1
endloop
endfacet
facet normal 1 0 0
outer loop
vertex 202.525 -193 0
vertex 202.525 -207 1
vertex 202.525 -207 0
endloop
endfacet
facet normal 0 1 0
outer loop
vertex 207 -187.95 1
vertex 207 -187.95 0
vertex 193 -187.95 0
endloop
endfacet
facet normal 0 1 0
outer loop
vertex 207 -187.95 1
vertex 193 -187.95 0
vertex 193 -187.95 1
endloop
endfacet
facet normal 0 1 0
outer loop
vertex 226.05 -187.95 1
vertex 226.05 -187.95 0
vertex 212.05 -187.95 0
endloop
endfacet
facet normal 0 1 0
outer loop
vertex 226.05 -187.95 1
vertex 212.05 -187.95 0
vertex 212.05 -187.95 1
endloop
endfacet
facet normal 0 1 0
outer loop
vertex 234.05 -187.95 1
vertex 234.05 -187.95 0
vertex 231.1 -187.95 0
endloop
endfacet
facet normal 0 1 0
outer loop
vertex 234.05 -187.95 1
vertex 231.1 -187.95 0
vertex 231.1 -187.95 1
endloop
endfacet
facet normal -1 0 0
outer loop
vertex 207 -173.95 1
vertex 207 -173.95 0
vertex 207 -187.95 0
endloop
endfacet
facet normal -1 0 0
outer loop
vertex 207 -173.95 1
vertex 207 -187.95 0
vertex 207 -187.95 1
endloop
endfacet
facet normal -1 0 0
outer loop
vertex 207 -154.9 1
vertex 207 -154.9 0
vertex 207 -168.9 0
endloop
endfacet
facet normal -1 0 0
outer loop
vertex 207 -154.9 1
vertex 207 -168.9 0
vertex 207 -168.9 1
endloop
endfacet
facet normal -1 0 0
outer loop
vertex 207 -135.85 1
vertex 207 -135.85 0
vertex 207 -149.85 0
endloop
endfacet
facet normal -1 0 0
outer loop
vertex 207 -135.85 1
vertex 207 -149.85 0
vertex 207 -149.85 1
endloop
endfacet
facet normal -1 0 0
outer loop
vertex 207 -116.8 1
vertex 207 -116.8 0
vertex 207 -130.8 0
endloop
endfacet
facet normal -1 0 0
outer loop
vertex 207 -116.8 1
vertex 207 -130.8 0
vertex 207 -130.8 1
endloop
endfacet
facet normal 0 -1 0
outer loop
vertex 207 -173.95 0
vertex 207 -173.95 1
vertex 193 -173.95 1
endloop
endfacet
facet normal 0 -1 0
outer loop
vertex 207 -173.95 0
vertex 193 -173.95 1
vertex 193 -173.95 0
endloop
endfacet
facet normal 0 -1 0
outer loop
vertex 226.05 -173.95 0
vertex 226.05 -173.95 1
vertex 212.05 -173.95 1
endloop
endfacet
facet normal 0 -1 0
outer loop
vertex 226.05 -173.95 0
vertex 212.05 -173.95 1
vertex 212.05 -173.95 0
endloop
endfacet
facet normal 0 -1 0
outer loop
vertex 234.05 -173.95 0
vertex 234.05 -173.95 1
vertex 231.1 -173.95 1
endloop
endfacet
facet normal 0 -1 0
outer loop
vertex 234.05 -173.95 0
vertex 231.1 -173.95 1
vertex 231.1 -173.95 0
endloop
endfacet
facet normal 1 0 0
outer loop
vertex 193 -173.95 0
vertex 193 -173.95 1
vertex 193 -187.95 1
endloop
endfacet
facet normal 1 0 0
outer loop
vertex 193 -173.95 0
vertex 193 -187.95 1
vertex 193 -187.95 0
endloop
endfacet
facet normal 1 0 0
outer loop
vertex 193 -154.9 0
vertex 193 -154.9 1
vertex 193 -168.9 1
endloop
endfacet
facet normal 1 0 0
outer loop
vertex 193 -154.9 0
vertex 193 -168.9 1
vertex 193 -168.9 0
endloop
endfacet
facet normal 1 0 0
outer loop
vertex 193 -135.85 0
vertex 193 -135.85 1
vertex 193 -149.85 1
endloop
endfacet
facet normal 1 0 0
outer loop
vertex 193 -135.85 0
vertex 193 -149.85 1
vertex 193 -149.85 0
endloop
endfacet
facet normal 1 0 0
outer loop
vertex 193 -116.8 0
vertex 193 -116.8 1
vertex 193 -130.8 1
endloop
endfacet
facet normal 1 0 0
outer loop
vertex 193 -116.8 0
vertex 193 -130.8 1
vertex 193 -130.8 0
endloop
endfacet
facet normal 0 1 0
outer loop
vertex 207 -168.9 1
vertex 207 -168.9 0
vertex 193 -168.9 0
endloop
endfacet
facet normal 0 1 0
outer loop
vertex 207 -168.9 1
vertex 193 -168.9 0
vertex 193 -168.9 1
endloop
endfacet
facet normal 0 1 0
outer loop
vertex 226.05 -168.9 1
vertex 226.05 -168.9 0
vertex 212.05 -168.9 0
endloop
endfacet
facet normal 0 1 0
outer loop
vertex 226.05 -168.9 1
vertex 212.05 -168.9 0
vertex 212.05 -168.9 1
endloop
endfacet
facet normal 0 1 0
outer loop
vertex 234.05 -168.9 1
vertex 234.05 -168.9 0
vertex 231.1 -168.9 0
endloop
endfacet
facet normal 0 1 0
outer loop
vertex 234.05 -168.9 1
vertex 231.1 -168.9 0
vertex 231.1 -168.9 1
endloop
endfacet
facet normal 0 -1 0
outer loop
vertex 207 -154.9 0
vertex 207 -154.9 1
vertex 193 -154.9 1
endloop
endfacet
facet normal 0 -1 0
outer loop
vertex 207 -154.9 0
vertex 193 -154.9 1
vertex 193 -154.9 0
endloop
endfacet
facet normal 0 -1 0
outer loop
vertex 226.05 -154.9 0
vertex 226.05 -154.9 1
vertex 212.05 -154.9 1
endloop
endfacet
facet normal 0 -1 0
outer loop
vertex 226.05 -154.9 0
vertex 212.05 -154.9 1
vertex 212.05 -154.9 0
endloop
endfacet
facet normal 0 -1 0
outer loop
vertex 234.05 -154.9 0
vertex 234.05 -154.9 1
vertex 231.1 -154.9 1
endloop
endfacet
facet normal 0 -1 0
outer loop
vertex 234.05 -154.9 0
vertex 231.1 -154.9 1
vertex 231.1 -154.9 0
endloop
endfacet
facet normal 0 1 0
outer loop
vertex 207 -149.85 1
vertex 207 -149.85 0
vertex 193 -149.85 0
endloop
endfacet
facet normal 0 1 0
outer loop
vertex 207 -149.85 1
vertex 193 -149.85 0
vertex 193 -149.85 1
endloop
endfacet
facet normal 0 1 0
outer loop
vertex 226.05 -149.85 1
vertex 226.05 -149.85 0
vertex 212.05 -149.85 0
endloop
endfacet
facet normal 0 1 0
outer loop
vertex 226.05 -149.85 1
vertex 212.05 -149.85 0
vertex 212.05 -149.85 1
endloop
endfacet
facet normal 0 1 0
outer loop
vertex 234.05 -149.85 1
vertex 234.05 -149.85 0
vertex 231.1 -149.85 0
endloop
endfacet
facet normal 0 1 0
outer loop
vertex 234.05 -149.85 1
vertex 231.1 -149.85 0
vertex 231.1 -149.85 1
endloop
endfacet
facet normal 0 -1 0
outer loop
vertex 207 -135.85 0
vertex 207 -135.85 1
vertex 193 -135.85 1
endloop
endfacet
facet normal 0 -1 0
outer loop
vertex 207 -135.85 0
vertex 193 -135.85 1
vertex 193 -135.85 0
endloop
endfacet
facet normal 0 -1 0
outer loop
vertex 226.05 -135.85 0
vertex 226.05 -135.85 1
vertex 212.05 -135.85 1
endloop
endfacet
facet normal 0 -1 0
outer loop
vertex 226.05 -135.85 0
vertex 212.05 -135.85 1
vertex 212.05 -135.85 0
endloop
endfacet
facet normal 0 -1 0
outer loop
vertex 234.05 -135.85 0
vertex 234.05 -135.85 1
vertex 231.1 -135.85 1
endloop
endfacet
facet normal 0 -1 0
outer loop
vertex 234.05 -135.85 0
vertex 231.1 -135.85 1
vertex 231.1 -135.85 0
endloop
endfacet
facet normal 0 1 0
outer loop
vertex 207 -130.8 1
vertex 207 -130.8 0
vertex 193 -130.8 0
endloop
endfacet
facet normal 0 1 0
outer loop
vertex 207 -130.8 1
vertex 193 -130.8 0
vertex 193 -130.8 1
endloop
endfacet
facet normal 0 1 0
outer loop
vertex 226.05 -130.8 1
vertex 226.05 -130.8 0
vertex 212.05 -130.8 0
endloop
endfacet
facet normal 0 1 0
outer loop
vertex 226.05 -130.8 1
vertex 212.05 -130.8 0
vertex 212.05 -130.8 1
endloop
endfacet
facet normal 0 1 0
outer loop
vertex 234.05 -130.8 1
vertex 234.05 -130.8 0
vertex 231.1 -130.8 0
endloop
endfacet
facet normal 0 1 0
outer loop
vertex 234.05 -130.8 1
vertex 231.1 -130.8 0
vertex 231.1 -130.8 1
endloop
endfacet
facet normal 0 -1 0
outer loop
vertex 207 -116.8 0
vertex 207 -116.8 1
vertex 193 -116.8 1
endloop
endfacet
facet normal 0 -1 0
outer loop
vertex 207 -116.8 0
vertex 193 -116.8 1
vertex 193 -116.8 0
endloop
endfacet
facet normal 0 -1 0
outer loop
vertex 226.05 -116.8 0
vertex 226.05 -116.8 1
vertex 212.05 -116.8 1
endloop
endfacet
facet normal 0 -1 0
outer loop
vertex 226.05 -116.8 0
vertex 212.05 -116.8 1
vertex 212.05 -116.8 0
endloop
endfacet
facet normal 0 -1 0
outer loop
vertex 234.05 -116.8 0
vertex 234.05 -116.8 1
vertex 231.1 -116.8 1
endloop
endfacet
facet normal 0 -1 0
outer loop
vertex 234.05 -116.8 0
vertex 231.1 -116.8 1
vertex 231.1 -116.8 0
endloop
endfacet
facet normal -1 0 0
outer loop
vertex 226.05 -173.95 1
vertex 226.05 -173.95 0
vertex 226.05 -187.95 0
endloop
endfacet
facet normal -1 0 0
outer loop
vertex 226.05 -173.95 1
vertex 226.05 -187.95 0
vertex 226.05 -187.95 1
endloop
endfacet
facet normal -1 0 0
outer loop
vertex 226.05 -154.9 1
vertex 226.05 -154.9 0
vertex 226.05 -168.9 0
endloop
endfacet
facet normal -1 0 0
outer loop
vertex 226.05 -154.9 1
vertex 226.05 -168.9 0
vertex 226.05 -168.9 1
endloop
endfacet
facet normal -1 0 0
outer loop
vertex 226.05 -135.85 1
vertex 226.05 -135.85 0
vertex 226.05 -149.85 0
endloop
endfacet
facet normal -1 0 0
outer loop
vertex 226.05 -135.85 1
vertex 226.05 -149.85 0
vertex 226.05 -149.85 1
endloop
endfacet
facet normal -1 0 0
outer loop
vertex 226.05 -116.8 1
vertex 226.05 -116.8 0
vertex 226.05 -130.8 0
endloop
endfacet
facet normal -1 0 0
outer loop
vertex 226.05 -116.8 1
vertex 226.05 -130.8 0
vertex 226.05 -130.8 1
endloop
endfacet
facet normal 1 0 0
outer loop
vertex 212.05 -173.95 0
vertex 212.05 -173.95 1
vertex 212.05 -187.95 1
endloop
endfacet
facet normal 1 0 0
outer loop
vertex 212.05 -173.95 0
vertex 212.05 -187.95 1
vertex 212.05 -187.95 0
endloop
endfacet
facet normal 1 0 0
outer loop
vertex 212.05 -154.9 0
vertex 212.05 -154.9 1
vertex 212.05 -168.9 1
endloop
endfacet
facet normal 1 0 0
outer loop
vertex 212.05 -154.9 0
vertex 212.05 -168.9 1
vertex 212.05 -168.9 0
endloop
endfacet
facet normal 1 0 0
outer loop
vertex 212.05 -135.85 0
vertex 212.05 -135.85 1
vertex 212.05 -149.85 1
endloop
endfacet
facet normal 1 0 0
outer loop
vertex 212.05 -135.85 0
vertex 212.05 -149.85 1
vertex 212.05 -149.85 0
endloop
endfacet
facet normal 1 0 0
outer loop
vertex 212.05 -116.8 0
vertex 212.05 -116.8 1
vertex 212.05 -130.8 1
endloop
endfacet
facet normal 1 0 0
outer loop
vertex 212.05 -116.8 0
vertex 212.05 -130.8 1
vertex 212.05 -130.8 0
endloop
endfacet
facet normal 1 0 0
outer loop
vertex 231.1 -193 0
vertex 231.1 -193 1
vertex 231.1 -207 1
endloop
endfacet
facet normal 1 0 0
outer loop
vertex 231.1 -193 0
vertex 231.1 -207 1
vertex 231.1 -207 0
endloop
endfacet
facet normal 1 0 0
outer loop
vertex 231.1 -173.95 0
vertex 231.1 -173.95 1
vertex 231.1 -187.95 1
endloop
endfacet
facet normal 1 0 0
outer loop
vertex 231.1 -173.95 0
vertex 231.1 -187.95 1
vertex 231.1 -187.95 0
endloop
endfacet
facet normal 1 0 0
outer loop
vertex 231.1 -154.9 0
vertex 231.1 -154.9 1
vertex 231.1 -168.9 1
endloop
endfacet
facet normal 1 0 0
outer loop
vertex 231.1 -154.9 0
vertex 231.1 -168.9 1
vertex 231.1 -168.9 0
endloop
endfacet
facet normal 1 0 0
outer loop
vertex 231.1 -135.85 0
vertex 231.1 -135.85 1
vertex 231.1 -149.85 1
endloop
endfacet
facet normal 1 0 0
outer loop
vertex 231.1 -135.85 0
vertex 231.1 -149.85 1
vertex 231.1 -149.85 0
endloop
endfacet
facet normal 1 0 0
outer loop
vertex 231.1 -116.8 0
vertex 231.1 -116.8 1
vertex 231.1 -130.8 1
endloop
endfacet
facet normal 1 0 0
outer loop
vertex 231.1 -116.8 0
vertex 231.1 -130.8 1
vertex 231.1 -130.8 0
endloop
endfacet
facet normal 0 0 1
outer loop
vertex 234.05 -212.025 -27
vertex 234.05 -211.025 -27
vertex 188.47499999999977 -211.025 -27
endloop
endfacet
facet normal 0 0 1
outer loop
vertex 234.05 -212.025 -27
vertex 188.47499999999977 -211.025 -27
vertex 187.47883877159305 -211.025 -27
endloop
endfacet
facet normal 0 0 1
outer loop
vertex 234.05 -212.025 -27
vertex 187.47883877159305 -211.025 -27
vertex 187.47499999999883 -212.025 -27
endloop
endfacet
facet normal 0 0 1
outer loop
vertex 188.47499999999977 -211.025 -27
vertex 188.97499999999985 -82.775 -27
vertex 187.97116122840686 -82.775 -27
endloop
endfacet
facet normal 0 0 1
outer loop
vertex 188.47499999999977 -211.025 -27
vertex 187.97116122840686 -82.775 -27
vertex 187.47883877159305 -211.025 -27
endloop
endfacet
facet normal 0 0 1
outer loop
vertex 188.97499999999985 -82.775 -27
vertex 234.05 -82.775 -27
vertex 234.05 -81.775 -27
endloop
endfacet
facet normal 0 0 1
outer loop
vertex 188.97499999999985 -82.775 -27
vertex 234.05 -81.775 -27
vertex 187.97499999999954 -81.77500000000008 -27
endloop
endfacet
facet normal 0 0 1
outer loop
vertex 188.97499999999985 -82.775 -27
vertex 187.97499999999954 -81.77500000000008 -27
vertex 187.97116122840686 -82.775 -27
endloop
endfacet
facet normal 0.9999924004073381 -0.0038986058495424918 0
outer loop
vertex 188.97499999999985 -82.775 -27
vertex 188.47499999999977 -211.025 -27
vertex 188.475 -211.025 -39
endloop
endfacet
facet normal 0.9999924004073381 -0.0038986058495424918 0
outer loop
vertex 188.97499999999985 -82.775 -27
vertex 188.475 -211.025 -39
vertex 188.975 -82.775 -39
endloop
endfacet
facet normal 0 0 1
outer loop
vertex 234.05 -217.02499999999904 -25
vertex 234.05 -212.025 -25
vertex 187.47499999999883 -212.025 -25
endloop
endfacet
facet normal 0 0 1
outer loop
vertex 234.05 -217.02499999999904 -25
vertex 187.47499999999883 -212.025 -25
vertex 182.47648024131172 -212.025 -25
endloop
endfacet
facet normal 0 0 1
outer loop
vertex 234.05 -217.02499999999904 -25
vertex 182.47648024131172 -212.025 -25
vertex 182.53388768841575 -212.79010508168665 -25
endloop
endfacet
facet normal 0 0 1
outer loop
vertex 234.05 -217.02499999999904 -25
vertex 182.53388768841575 -212.79010508168665 -25
vertex 182.7149962955121 -213.55547384313522 -25
endloop
endfacet
facet normal 0 0 1
outer loop
vertex 234.05 -217.02499999999904 -25
vertex 182.7149962955121 -213.55547384313522 -25
vertex 183.01388454476927 -214.282973316002 -25
endloop
endfacet
facet normal 0 0 1
outer loop
vertex 234.05 -217.02499999999904 -25
vertex 183.01388454476927 -214.282973316002 -25
vertex 183.42315686882998 -214.95460255399013 -25
endloop
endfacet
facet normal 0 0 1
outer loop
vertex 234.05 -217.02499999999904 -25
vertex 183.42315686882998 -214.95460255399013 -25
vertex 183.93268640248039 -215.55374304077412 -25.000000000000014
endloop
endfacet
facet normal 0 0 1
outer loop
vertex 234.05 -217.02499999999904 -25
vertex 183.93268640248039 -215.55374304077412 -25.000000000000014
vertex 184.52986555748492 -216.06556989176374 -25
endloop
endfacet
facet normal 0 0 1
outer loop
vertex 234.05 -217.02499999999904 -25
vertex 184.52986555748492 -216.06556989176374 -25
vertex 185.1999179796478 -216.477418674841 -25
endloop
endfacet
facet normal 0 0 1
outer loop
vertex 234.05 -217.02499999999904 -25
vertex 185.1999179796478 -216.477418674841 -25
vertex 185.92626416870556 -216.77909877396127 -25.000000000000014
endloop
endfacet
facet normal 0 0 1
outer loop
vertex 234.05 -217.02499999999904 -25
vertex 185.92626416870556 -216.77909877396127 -25.000000000000014
vertex 186.69093171474256 -216.96314554139616 -25
endloop
endfacet
facet normal 0 0 1
outer loop
vertex 234.05 -217.02499999999904 -25
vertex 186.69093171474256 -216.96314554139616 -25
vertex 187.47500000000014 -217.02499999999907 -25
endloop
endfacet
facet normal 0 0 1
outer loop
vertex 187.47499999999883 -212.025 -25
vertex 187.97499999999954 -81.77500000000008 -25
vertex 182.97496312024117 -81.775 -25
endloop
endfacet
facet normal 0 0 1
outer loop
vertex 187.47499999999883 -212.025 -25
vertex 182.97496312024117 -81.775 -25
vertex 182.47503999999918 -212.00580500000007 -25
endloop
endfacet
facet normal 0 0 1
outer loop
vertex 187.47499999999883 -212.025 -25
vertex 182.47503999999918 -212.00580500000007 -25
vertex 182.47648024131172 -212.025 -25
endloop
endfacet
facet normal 0 0 1
outer loop
vertex 187.97499999999954 -81.77500000000008 -25
vertex 234.05 -81.775 -25
vertex 234.05 -76.77500305175026 -25
endloop
endfacet
facet normal 0 0 1
outer loop
vertex 187.97499999999954 -81.77500000000008 -25
vertex 234.05 -76.77500305175026 -25
vertex 187.9749984000002 -76.77500315000161 -25
endloop
endfacet
facet normal 0 0 1
outer loop
vertex 187.97499999999954 -81.77500000000008 -25
vertex 187.9749984000002 -76.77500315000161 -25
vertex 187.10885890957155 -76.85059486565633 -25.000000000000014
endloop
endfacet
facet normal 0 0 1
outer loop
vertex 187.97499999999954 -81.77500000000008 -25
vertex 187.10885890957155 -76.85059486565633 -25.000000000000014
vertex 186.2689085137905 -77.07508329961729 -25
endloop
endfacet
facet normal 0 0 1
outer loop
vertex 187.97499999999954 -81.77500000000008 -25
vertex 186.2689085137905 -77.07508329961729 -25
vertex 185.48054434673725 -77.44168071431272 -25.000000000000014
endloop
endfacet
facet normal 0 0 1
outer loop
vertex 187.97499999999954 -81.77500000000008 -25
vertex 185.48054434673725 -77.44168071431272 -25.000000000000014
vertex 184.76760375709262 -77.9393024983948 -25.00000000000003
endloop
endfacet
facet normal 0 0 1
outer loop
vertex 187.97499999999954 -81.77500000000008 -25
vertex 184.76760375709262 -77.9393024983948 -25.00000000000003
vertex 184.15164355087146 -78.55290232621998 -25.000000000000014
endloop
endfacet
facet normal 0 0 1
outer loop
vertex 187.97499999999954 -81.77500000000008 -25
vertex 184.15164355087146 -78.55290232621998 -25.000000000000014
vertex 183.65128818974227 -79.263927105637 -25.00000000000003
endloop
endfacet
facet normal 0 0 1
outer loop
vertex 187.97499999999954 -81.77500000000008 -25
vertex 183.65128818974227 -79.263927105637 -25.00000000000003
vertex 183.28166665305628 -80.050877957961 -25
endloop
endfacet
facet normal 0 0 1
outer loop
vertex 187.97499999999954 -81.77500000000008 -25
vertex 183.28166665305628 -80.050877957961 -25
vertex 183.0539549909397 -80.88996026816166 -25
endloop
endfacet
facet normal 0 0 1
outer loop
vertex 187.97499999999954 -81.77500000000008 -25
vertex 183.0539549909397 -80.88996026816166 -25
vertex 182.97503680000074 -81.75580630000009 -25.000000000000014
endloop
endfacet
facet normal 0 0 1
outer loop
vertex 187.97499999999954 -81.77500000000008 -25
vertex 182.97503680000074 -81.75580630000009 -25.000000000000014
vertex 182.97496312024117 -81.775 -25
endloop
endfacet
facet normal 1 0 0
outer loop
vertex 234.05 -76.77500136260721 -55
vertex 234.05 -76.77500136260721 -39
vertex 234.05 -82.775 -39
endloop
endfacet
facet normal 1 0 0
outer loop
vertex 234.05 -76.77500136260721 -55
vertex 234.05 -82.775 -39
vertex 234.05 -211.025 -39
endloop
endfacet
facet normal 1 0 0
outer loop
vertex 234.05 -76.77500136260721 -55
vertex 234.05 -211.025 -39
vertex 234.05 -217.02499814150883 -39
endloop
endfacet
facet normal 1 0 0
outer loop
vertex 234.05 -76.77500136260721 -55
vertex 234.05 -217.02499814150883 -39
vertex 234.05 -217.02499814150883 -43.01767660451364
endloop
endfacet
facet normal 1 0 0
outer loop
vertex 234.05 -76.77500136260721 -55
vertex 234.05 -217.02499814150883 -43.01767660451364
vertex 234.05 -80.06641502250439 -55
endloop
endfacet
facet normal 1 0 0
outer loop
vertex 234.05 -211.025 -39
vertex 234.05 -211.025 -27
vertex 234.05 -212.025 -27
endloop
endfacet
facet normal 1 0 0
outer loop
vertex 234.05 -211.025 -39
vertex 234.05 -212.025 -27
vertex 234.05 -217.02499814150883 -27
endloop
endfacet
facet normal 1 0 0
outer loop
vertex 234.05 -211.025 -39
vertex 234.05 -217.02499814150883 -27
vertex 234.05 -217.02499814150883 -39
endloop
endfacet
facet normal 1 0 0
outer loop
vertex 234.05 -76.77500136260721 -39
vertex 234.05 -76.77500136260721 -27
vertex 234.05 -81.775 -27
endloop
endfacet
facet normal 1 0 0
outer loop
vertex 234.05 -76.77500136260721 -39
vertex 234.05 -81.775 -27
vertex 234.05 -82.775 -27
endloop
endfacet
facet normal 1 0 0
outer loop
vertex 234.05 -76.77500136260721 -39
vertex 234.05 -82.775 -27
vertex 234.05 -82.775 -39
endloop
endfacet
facet normal 1 0 0
outer loop
vertex 234.05 -212.025 -27
vertex 234.05 -212.025 -25
vertex 234.05 -217.02499999999904 -25
endloop
endfacet
facet normal 1 0 0
outer loop
vertex 234.05 -212.025 -27
vertex 234.05 -217.02499999999904 -25
vertex 234.05 -217.02499814150883 -27
endloop
endfacet
facet normal 1 0 0
outer loop
vertex 234.05 -76.77500136260721 -27
vertex 234.05 -76.77500305175026 -25
vertex 234.05 -81.775 -25
endloop
endfacet
facet normal 1 0 0
outer loop
vertex 234.05 -76.77500136260721 -27
vertex 234.05 -81.775 -25
vertex 234.05 -81.775 -27
endloop
endfacet
facet normal 1 0 0
outer loop
vertex 234.05 -207 0
vertex 234.05 -207 1
vertex 234.05 -212.025 1
endloop
endfacet
facet normal 1 0 0
outer loop
vertex 234.05 -207 0
vertex 234.05 -212.025 1
vertex 234.05 -217.02499814150883 1
endloop
endfacet
facet normal 1 0 0
outer loop
vertex 234.05 -207 0
vertex 234.05 -217.02499814150883 1
vertex 234.05 -217.02499988028944 0
endloop
endfacet
facet normal 1 0 0
outer loop
vertex 234.05 -187.95 0
vertex 234.05 -187.95 1
vertex 234.05 -193 1
endloop
endfacet
facet normal 1 0 0
outer loop
vertex 234.05 -187.95 0
vertex 234.05 -193 1
vertex 234.05 -193 0
endloop
endfacet
facet normal 1 0 0
outer loop
vertex 234.05 -168.9 0
vertex 234.05 -168.9 1
vertex 234.05 -173.95 1
endloop
endfacet
facet normal 1 0 0
outer loop
vertex 234.05 -168.9 0
vertex 234.05 -173.95 1
vertex 234.05 -173.95 0
endloop
endfacet
facet normal 1 0 0
outer loop
vertex 234.05 -149.85 0
vertex 234.05 -149.85 1
vertex 234.05 -154.9 1
endloop
endfacet
facet normal 1 0 0
outer loop
vertex 234.05 -149.85 0
vertex 234.05 -154.9 1
vertex 234.05 -154.9 0
endloop
endfacet
facet normal 1 0 0
outer loop
vertex 234.05 -130.8 0
vertex 234.05 -130.8 1
vertex 234.05 -135.85 1
endloop
endfacet
facet normal 1 0 0
outer loop
vertex 234.05 -130.8 0
vertex 234.05 -135.85 1
vertex 234.05 -135.85 0
endloop
endfacet
facet normal 1 0 0
outer loop
vertex 234.05 -113.8 0
vertex 234.05 -113.8 1
vertex 234.05 -116.8 1
endloop
endfacet
facet normal 1 0 0
outer loop
vertex 234.05 -113.8 0
vertex 234.05 -116.8 1
vertex 234.05 -116.8 0
endloop
endfacet
facet normal 1 0 0
outer loop
vertex 234.05 -76.77500314999965 0
vertex 234.05 -76.77500136260721 1
vertex 234.05 -81.775 1
endloop
endfacet
facet normal 1 0 0
outer loop
vertex 234.05 -76.77500314999965 0
vertex 234.05 -81.775 1
vertex 234.05 -85.8 1
endloop
endfacet
facet normal 1 0 0
outer loop
vertex 234.05 -76.77500314999965 0
vertex 234.05 -85.8 1
vertex 234.05 -85.8 0
endloop
endfacet
facet normal 1 0 0
outer loop
vertex 234.05 -212.025 1
vertex 234.05 -212.025 3
vertex 234.05 -217.02499814150883 3
endloop
endfacet
facet normal 1 0 0
outer loop
vertex 234.05 -212.025 1
vertex 234.05 -217.02499814150883 3
vertex 234.05 -217.02499814150883 1
endloop
endfacet
facet normal 1 0 0
outer loop
vertex 234.05 -76.77500136260721 1
vertex 234.05 -76.77500136260721 3
vertex 234.05 -81.77500000000008 3
endloop
endfacet
facet normal 1 0 0
outer loop
vertex 234.05 -76.77500136260721 1
vertex 234.05 -81.77500000000008 3
vertex 234.05 -81.775 1
endloop
endfacet
facet normal 1 0 0
outer loop
vertex 234.05 -212.025 3
vertex 234.05 -209.525 3
vertex 234.05 -209.525 5
endloop
endfacet
facet normal 1 0 0
outer loop
vertex 234.05 -212.025 3
vertex 234.05 -209.525 5
vertex 234.05 -217.02499814150747 5
endloop
endfacet
facet normal 1 0 0
outer loop
vertex 234.05 -212.025 3
vertex 234.05 -217.02499814150747 5
vertex 234.05 -217.02499814150883 3
endloop
endfacet
facet normal 1 0 0
outer loop
vertex 234.05 -112.8 3
vertex 234.05 -112.8 5
vertex 234.05 -114.275 5
endloop
endfacet
facet normal 1 0 0
outer loop
vertex 234.05 -112.8 3
vertex 234.05 -114.275 5
vertex 234.05 -114.275 3
endloop
endfacet
facet normal 1 0 0
outer loop
vertex 234.05 -81.77500000000008 3
vertex 234.05 -76.77500136260721 3
vertex 234.05 -76.77500128209387 5
endloop
endfacet
facet normal 1 0 0
outer loop
vertex 234.05 -81.77500000000008 3
vertex 234.05 -76.77500128209387 5
vertex 234.05 -86.8 5
endloop
endfacet
facet normal 1 0 0
outer loop
vertex 234.05 -81.77500000000008 3
vertex 234.05 -86.8 5
vertex 234.05 -86.8 3
endloop
endfacet
facet normal 1 0 0
outer loop
vertex 234.05 -217.02499814150883 -39
vertex 234.05 -217.02499814150883 -27
vertex 234.05 -217.02499999999904 -25
endloop
endfacet
facet normal 1 0 0
outer loop
vertex 234.05 -217.02499814150883 -39
vertex 234.05 -217.02499999999904 -25
vertex 187.47500000000014 -217.02499999999907 -25
endloop
endfacet
facet normal 1 0 0
outer loop
vertex 234.05 -217.02499814150883 -39
vertex 187.47500000000014 -217.02499999999907 -25
vertex 187.47500000000014 -217.02499999999907 -43.01767644191676
endloop
endfacet
facet normal 1 0 0
outer loop
vertex 234.05 -217.02499814150883 -39
vertex 187.47500000000014 -217.02499999999907 -43.01767644191676
vertex 190.47500000000005 -217.02499988029152 -43.01767645238988
endloop
endfacet
facet normal 1 0 0
outer loop
vertex 234.05 -217.02499814150883 -39
vertex 190.47500000000005 -217.02499988029152 -43.01767645238988
vertex 234.05 -217.02499814150883 -43.01767660451364
endloop
endfacet
facet normal -1 0 0
outer loop
vertex 234.05 -217.02499814150883 1
vertex 234.05 -217.02499814150883 3
vertex 234.05 -217.02499814150747 5
endloop
endfacet
facet normal -1 0 0
outer loop
vertex 234.05 -217.02499814150883 1
vertex 234.05 -217.02499814150747 5
vertex 187.47500000000014 -217.02499999999907 5
endloop
endfacet
facet normal -1 0 0
outer loop
vertex 234.05 -217.02499814150883 1
vertex 187.47500000000014 -217.02499999999907 5
vertex 187.47500000000014 -217.02499999999907 0
endloop
endfacet
facet normal -1 0 0
outer loop
vertex 234.05 -217.02499814150883 1
vertex 187.47500000000014 -217.02499999999907 0
vertex 234.05 -217.02499988028944 0
endloop
endfacet
facet normal -2.1324220288348757e-9 0.9999999999996433 8.44571523827807e-7
outer loop
vertex 187.9749984000002 -76.77500315000161 -25
vertex 234.05 -76.77500305175026 -25
vertex 234.05 -76.77500136260721 -27
endloop
endfacet
facet normal -2.1324220288348757e-9 0.9999999999996433 8.44571523827807e-7
outer loop
vertex 187.9749984000002 -76.77500315000161 -25
vertex 234.05 -76.77500136260721 -27
vertex 234.05 -76.77500136260721 -39
endloop
endfacet
facet normal -2.1324220288348757e-9 0.9999999999996433 8.44571523827807e-7
outer loop
vertex 187.9749984000002 -76.77500315000161 -25
vertex 234.05 -76.77500136260721 -39
vertex 234.05 -76.77500136260721 -55
endloop
endfacet
facet normal -2.1324220288348757e-9 0.9999999999996433 8.44571523827807e-7
outer loop
vertex 187.9749984000002 -76.77500315000161 -25
vertex 234.05 -76.77500136260721 -55
vertex 187.9749984000002 -76.77500315000161 -55
endloop
endfacet
facet normal -4.0540589831923187e-8 0.9999999999999983 -4.025667266205346e-8
outer loop
vertex 187.9749984000002 -76.77500315000161 5
vertex 234.05 -76.77500128209387 5
vertex 234.05 -76.77500136260721 3
endloop
endfacet
facet normal -4.0540589831923187e-8 0.9999999999999983 -4.025667266205346e-8
outer loop
vertex 187.9749984000002 -76.77500315000161 5
vertex 234.05 -76.77500136260721 3
vertex 234.05 -76.77500136260721 1
endloop
endfacet
facet normal -4.0540589831923187e-8 0.9999999999999983 -4.025667266205346e-8
outer loop
vertex 187.9749984000002 -76.77500315000161 5
vertex 234.05 -76.77500136260721 1
vertex 234.05 -76.77500314999965 0
endloop
endfacet
facet normal -4.0540589831923187e-8 0.9999999999999983 -4.025667266205346e-8
outer loop
vertex 187.9749984000002 -76.77500315000161 5
vertex 234.05 -76.77500314999965 0
vertex 187.9749984000002 -76.77500315000161 0
endloop
endfacet
facet normal 0 1 0
outer loop
vertex 234.05 -209.525 5
vertex 234.05 -209.525 3
vertex 190.475 -209.525 3
endloop
endfacet
facet normal 0 1 0
outer loop
vertex 234.05 -209.525 5
vertex 190.475 -209.525 3
vertex 190.475 -209.525 5
endloop
endfacet
facet normal 0 -1 0
outer loop
vertex 234.05 -114.275 3
vertex 234.05 -114.275 5
vertex 190.475 -114.275 5
endloop
endfacet
facet normal 0 -1 0
outer loop
vertex 234.05 -114.275 3
vertex 190.475 -114.275 5
vertex 190.475 -114.275 3
endloop
endfacet
facet normal 0 1 0
outer loop
vertex 234.05 -112.8 5
vertex 234.05 -112.8 3
vertex 191.475 -112.8 3
endloop
endfacet
facet normal 0 1 0
outer loop
vertex 234.05 -112.8 5
vertex 191.475 -112.8 3
vertex 191.475 -112.8 5
endloop
endfacet
facet normal 0 -1 0
outer loop
vertex 234.05 -86.8 3
vertex 234.05 -86.8 5
vertex 191.475 -86.8 5
endloop
endfacet
facet normal 0 -1 0
outer loop
vertex 234.05 -86.8 3
vertex 191.475 -86.8 5
vertex 191.475 -86.8 3
endloop
endfacet
facet normal 0 1 0
outer loop
vertex 234.05 -113.8 1
vertex 234.05 -113.8 0
vertex 192.47500000000002 -113.8 0
endloop
endfacet
facet normal 0 1 0
outer loop
vertex 234.05 -113.8 1
vertex 192.47500000000002 -113.8 0
vertex 192.47500000000002 -113.8 1
endloop
endfacet
facet normal 0 -1 0
outer loop
vertex 234.05 -85.8 0
vertex 234.05 -85.8 1
vertex 192.475 -85.8 1
endloop
endfacet
facet normal 0 -1 0
outer loop
vertex 234.05 -85.8 0
vertex 192.475 -85.8 1
vertex 192.47499999999997 -85.8 0
endloop
endfacet
facet normal 0 1 0
outer loop
vertex 234.05 -212.025 3
vertex 234.05 -212.025 1
vertex 187.47499999999883 -212.025 1
endloop
endfacet
facet normal 0 1 0
outer loop
vertex 234.05 -212.025 3
vertex 187.47499999999883 -212.025 1
vertex 187.475 -212.025 3
endloop
endfacet
facet normal 0 1 0
outer loop
vertex 234.05 -212.025 -25
vertex 234.05 -212.025 -27
vertex 187.47499999999883 -212.025 -27
endloop
endfacet
facet normal 0 1 0
outer loop
vertex 234.05 -212.025 -25
vertex 187.47499999999883 -212.025 -27
vertex 187.47499999999883 -212.025 -25
endloop
endfacet
facet normal 0 -1 0
outer loop
vertex 234.05 -81.775 -27
vertex 234.05 -81.775 -25
vertex 187.97499999999954 -81.77500000000008 -25
endloop
endfacet
facet normal 0 -1 0
outer loop
vertex 234.05 -81.775 -27
vertex 187.97499999999954 -81.77500000000008 -25
vertex 187.97499999999954 -81.77500000000008 -27
endloop
endfacet
facet normal 0 -1 0
outer loop
vertex 234.05 -81.775 1
vertex 234.05 -81.77500000000008 3
vertex 187.975 -81.77500000000008 3
endloop
endfacet
facet normal 0 -1 0
outer loop
vertex 234.05 -81.775 1
vertex 187.975 -81.77500000000008 3
vertex 187.97499999999954 -81.77500000000008 1
endloop
endfacet
facet normal 0 0 1
outer loop
vertex 234.05 -211.025 -39
vertex 234.05 -82.775 -39
vertex 188.975 -82.775 -39
endloop
endfacet
facet normal 0 0 1
outer loop
vertex 234.05 -211.025 -39
vertex 188.975 -82.775 -39
vertex 188.475 -211.025 -39
endloop
endfacet
facet normal 0 1 0
outer loop
vertex 234.05 -211.025 -27
vertex 234.05 -211.025 -39
vertex 188.475 -211.025 -39
endloop
endfacet
facet normal 0 1 0
outer loop
vertex 234.05 -211.025 -27
vertex 188.475 -211.025 -39
vertex 188.47499999999977 -211.025 -27
endloop
endfacet
facet normal 0 -1 0
outer loop
vertex 234.05 -82.775 -39
vertex 234.05 -82.775 -27
vertex 188.97499999999985 -82.775 -27
endloop
endfacet
facet normal 0 -1 0
outer loop
vertex 234.05 -82.775 -39
vertex 188.97499999999985 -82.775 -27
vertex 188.975 -82.775 -39
endloop
endfacet
facet normal 0 -0.08715574274766169 -0.9961946980917453
outer loop
vertex 234.05 -80.06641502250439 -55
vertex 234.05 -217.02499814150883 -43.01767660451364
vertex 190.47500000000005 -217.02499988029152 -43.01767645238988
endloop
endfacet
facet normal 0 -0.08715574274766169 -0.9961946980917453
outer loop
vertex 234.05 -80.06641502250439 -55
vertex 190.47500000000005 -217.02499988029152 -43.01767645238988
vertex 187.47500000000014 -217.02499999999907 -43.01767644191676
endloop
endfacet
facet normal 0 -0.08715574274766169 -0.9961946980917453
outer loop
vertex 234.05 -80.06641502250439 -55
vertex 187.47500000000014 -217.02499999999907 -43.01767644191676
vertex 186.69093171474256 -216.96314554139616 -43.02308800583331
endloop
endfacet
facet normal 0 -0.08715574274766169 -0.9961946980917453
outer loop
vertex 234.05 -80.06641502250439 -55
vertex 186.69093171474256 -216.96314554139616 -43.02308800583331
vertex 185.92626416870556 -216.77909877396127 -43.039190011542644
endloop
endfacet
facet normal 0 -0.08715574274766169 -0.9961946980917453
outer loop
vertex 234.05 -80.06641502250439 -55
vertex 185.92626416870556 -216.77909877396127 -43.039190011542644
vertex 185.1999179796478 -216.477418674841 -43.06558360022454
endloop
endfacet
facet normal 0 -0.08715574274766169 -0.9961946980917453
outer loop
vertex 234.05 -80.06641502250439 -55
vertex 185.1999179796478 -216.477418674841 -43.06558360022454
vertex 184.52986555748492 -216.06556989176374 -43.10161569983668
endloop
endfacet
facet normal 0 -0.08715574274766169 -0.9961946980917453
outer loop
vertex 234.05 -80.06641502250439 -55
vertex 184.52986555748492 -216.06556989176374 -43.10161569983668
vertex 183.93268640248039 -215.55374304077412 -43.14639474697934
endloop
endfacet
facet normal 0 -0.08715574274766169 -0.9961946980917453
outer loop
vertex 234.05 -80.06641502250439 -55
vertex 183.93268640248039 -215.55374304077412 -43.14639474697934
vertex 183.42315686882998 -214.95460255399013 -43.19881274743843
endloop
endfacet
facet normal 0 -0.08715574274766169 -0.9961946980917453
outer loop
vertex 234.05 -80.06641502250439 -55
vertex 183.42315686882998 -214.95460255399013 -43.19881274743843
vertex 183.01388454476927 -214.282973316002 -43.25757269184817
endloop
endfacet
facet normal 0 -0.08715574274766169 -0.9961946980917453
outer loop
vertex 234.05 -80.06641502250439 -55
vertex 183.01388454476927 -214.282973316002 -43.25757269184817
vertex 182.7149962955121 -213.55547384313522 -43.321220648451515
endloop
endfacet
facet normal 0 -0.08715574274766169 -0.9961946980917453
outer loop
vertex 234.05 -80.06641502250439 -55
vertex 182.7149962955121 -213.55547384313522 -43.321220648451515
vertex 182.53388768841575 -212.79010508168665 -43.38818173849429
endloop
endfacet
facet normal 0 -0.08715574274766169 -0.9961946980917453
outer loop
vertex 234.05 -80.06641502250439 -55
vertex 182.53388768841575 -212.79010508168665 -43.38818173849429
vertex 182.47503999999918 -212.00580500000007 -43.456799104439014
endloop
endfacet
facet normal 0 -0.08715574274766169 -0.9961946980917453
outer loop
vertex 234.05 -80.06641502250439 -55
vertex 182.47503999999918 -212.00580500000007 -43.456799104439014
vertex 182.97503680000074 -81.75580630000009 -54.8521974149595
endloop
endfacet
facet normal 0 -0.08715574274766169 -0.9961946980917453
outer loop
vertex 234.05 -80.06641502250439 -55
vertex 182.97503680000074 -81.75580630000009 -54.8521974149595
vertex 183.0539549909397 -80.88996026816166 -54.927949127104384
endloop
endfacet
facet normal 0 -0.08715574274766169 -0.9961946980917453
outer loop
vertex 234.05 -80.06641502250439 -55
vertex 183.0539549909397 -80.88996026816166 -54.927949127104384
vertex 183.27745017661783 -80.06641502250032 -55
endloop
endfacet
facet normal 0 0 -1
outer loop
vertex 234.05 -76.77500136260721 -55
vertex 234.05 -80.06641502250439 -55
vertex 183.27745017661783 -80.06641502250032 -55
endloop
endfacet
facet normal 0 0 -1
outer loop
vertex 234.05 -76.77500136260721 -55
vertex 183.27745017661783 -80.06641502250032 -55
vertex 183.28166665305628 -80.050877957961 -55
endloop
endfacet
facet normal 0 0 -1
outer loop
vertex 234.05 -76.77500136260721 -55
vertex 183.28166665305628 -80.050877957961 -55
vertex 183.65128818974227 -79.263927105637 -55.00000000000003
endloop
endfacet
facet normal 0 0 -1
outer loop
vertex 234.05 -76.77500136260721 -55
vertex 183.65128818974227 -79.263927105637 -55.00000000000003
vertex 184.15164355087146 -78.55290232621998 -55
endloop
endfacet
facet normal 0 0 -1
outer loop
vertex 234.05 -76.77500136260721 -55
vertex 184.15164355087146 -78.55290232621998 -55
vertex 184.76760375709262 -77.9393024983948 -55.00000000000003
endloop
endfacet
facet normal 0 0 -1
outer loop
vertex 234.05 -76.77500136260721 -55
vertex 184.76760375709262 -77.9393024983948 -55.00000000000003
vertex 185.48054434673725 -77.44168071431272 -55.00000000000003
endloop
endfacet
facet normal 0 0 -1
outer loop
vertex 234.05 -76.77500136260721 -55
vertex 185.48054434673725 -77.44168071431272 -55.00000000000003
vertex 186.2689085137905 -77.07508329961729 -55
endloop
endfacet
facet normal 0 0 -1
outer loop
vertex 234.05 -76.77500136260721 -55
vertex 186.2689085137905 -77.07508329961729 -55
vertex 187.10885890957155 -76.85059486565633 -55
endloop
endfacet
facet normal 0 0 -1
outer loop
vertex 234.05 -76.77500136260721 -55
vertex 187.10885890957155 -76.85059486565633 -55
vertex 187.9749984000002 -76.77500315000161 -55
endloop
endfacet
endsolid csg.js
